<svg width="50" height="44" viewBox="0 0 50 44" fill="none" xmlns="http://www.w3.org/2000/svg">
<g clip-path="url(#clip0_734_1754)">
<rect width="50" height="44" rx="4" fill="#2A2D38"/>
<rect x="0.4" y="0.4" width="49.2" height="43.2" rx="3.6" fill="#3C414E" fill-opacity="0.4" stroke="url(#paint0_linear_734_1754)" stroke-width="0.8"/>
<ellipse cx="28.5" cy="23.5" rx="51.5" ry="30.5" fill="url(#paint1_radial_734_1754)"/>
<ellipse cx="38" cy="31.5" rx="20" ry="18.5" fill="url(#paint2_radial_734_1754)"/>
<ellipse cx="19.5" cy="-2" rx="42.5" ry="20" fill="url(#paint3_radial_734_1754)"/>
<rect x="3" width="24" height="0.6" fill="url(#paint4_radial_734_1754)"/>
<path fill-rule="evenodd" clip-rule="evenodd" d="M16 31.0002H34C34.5523 31.0002 35 30.5525 35 30.0002V24.4447C35 23.8924 34.5523 23.4447 34 23.4447L23.5555 23.4447L21.9555 25.0447L33.4 25.0447V29.4002L17.6 29.4002L16 31.0002ZM25.4447 21.5555L34 21.5555C34.5523 21.5555 35 21.1078 35 20.5555V15C35 14.4477 34.5523 14 34 14L33.0002 14L31.4002 15.6H33.4V19.9555H27.0447L25.4447 21.5555Z" fill="#9C81F2"/>
<g filter="url(#filter0_d_734_1754)">
<path fill-rule="evenodd" clip-rule="evenodd" d="M33.0002 14L16 14C15.4477 14 15 14.4477 15 15V20.5555C15 21.1078 15.4477 21.5555 16 21.5555L25.4447 21.5555L27.0447 19.9555H16.6L16.6 15.6L31.4002 15.6L33.0002 14ZM23.5555 23.4447H16C15.4477 23.4447 15 23.8924 15 24.4447V30.0002C15 30.5525 15.4477 31.0002 16 31.0002L17.6 29.4002H16.6L16.6 25.0447H21.9555L23.5555 23.4447Z" fill="url(#paint5_linear_734_1754)" shape-rendering="crispEdges"/>
</g>
</g>
<defs>
<filter id="filter0_d_734_1754" x="14" y="13" width="22" height="21.0002" filterUnits="userSpaceOnUse" color-interpolation-filters="sRGB">
<feFlood flood-opacity="0" result="BackgroundImageFix"/>
<feColorMatrix in="SourceAlpha" type="matrix" values="0 0 0 0 0 0 0 0 0 0 0 0 0 0 0 0 0 0 127 0" result="hardAlpha"/>
<feOffset dx="1" dy="1"/>
<feGaussianBlur stdDeviation="1"/>
<feComposite in2="hardAlpha" operator="out"/>
<feColorMatrix type="matrix" values="0 0 0 0 0 0 0 0 0 0 0 0 0 0 0 0 0 0 0.57 0"/>
<feBlend mode="normal" in2="BackgroundImageFix" result="effect1_dropShadow_734_1754"/>
<feBlend mode="normal" in="SourceGraphic" in2="effect1_dropShadow_734_1754" result="shape"/>
</filter>
<linearGradient id="paint0_linear_734_1754" x1="25" y1="0" x2="25" y2="44" gradientUnits="userSpaceOnUse">
<stop stop-color="white" stop-opacity="0.24"/>
<stop offset="1" stop-color="#9C81F2" stop-opacity="0.2"/>
</linearGradient>
<radialGradient id="paint1_radial_734_1754" cx="0" cy="0" r="1" gradientUnits="userSpaceOnUse" gradientTransform="translate(28.5 23.5) rotate(90) scale(30.5 51.5)">
<stop stop-color="#121212" stop-opacity="0.55"/>
<stop offset="1" stop-color="#121212" stop-opacity="0"/>
</radialGradient>
<radialGradient id="paint2_radial_734_1754" cx="0" cy="0" r="1" gradientUnits="userSpaceOnUse" gradientTransform="translate(38 31.5) rotate(90) scale(18.5 20)">
<stop stop-color="#F5857A" stop-opacity="0.08"/>
<stop offset="1" stop-color="#121212" stop-opacity="0"/>
</radialGradient>
<radialGradient id="paint3_radial_734_1754" cx="0" cy="0" r="1" gradientUnits="userSpaceOnUse" gradientTransform="translate(19.5 -2) rotate(90) scale(20 42.5)">
<stop stop-color="#F5857A" stop-opacity="0.16"/>
<stop offset="1" stop-color="#121212" stop-opacity="0"/>
</radialGradient>
<radialGradient id="paint4_radial_734_1754" cx="0" cy="0" r="1" gradientUnits="userSpaceOnUse" gradientTransform="translate(15.3871 0.374982) rotate(-0.397118) scale(10.839 2343.56)">
<stop stop-color="white" stop-opacity="0.4"/>
<stop offset="1" stop-color="white" stop-opacity="0"/>
</radialGradient>
<linearGradient id="paint5_linear_734_1754" x1="17.5" y1="14.5" x2="25.9256" y2="22.5286" gradientUnits="userSpaceOnUse">
<stop stop-color="#9C81F2"/>
<stop offset="1" stop-color="white" stop-opacity="0.9"/>
</linearGradient>
<clipPath id="clip0_734_1754">
<rect width="50" height="44" rx="4" fill="white"/>
</clipPath>
</defs>
</svg>
