<svg width="50" height="44" viewBox="0 0 50 44" fill="none" xmlns="http://www.w3.org/2000/svg">
<g clip-path="url(#clip0_734_1799)">
<rect width="50" height="44" rx="4" fill="#2A2D38"/>
<rect x="0.4" y="0.4" width="49.2" height="43.2" rx="3.6" fill="#3C414E" fill-opacity="0.4" stroke="url(#paint0_linear_734_1799)" stroke-width="0.8"/>
<ellipse cx="28.5" cy="23.5" rx="51.5" ry="30.5" fill="url(#paint1_radial_734_1799)"/>
<ellipse cx="38" cy="31.5" rx="20" ry="18.5" fill="url(#paint2_radial_734_1799)"/>
<ellipse cx="19.5" cy="-2" rx="42.5" ry="20" fill="url(#paint3_radial_734_1799)"/>
<rect x="3" width="24" height="0.6" fill="url(#paint4_radial_734_1799)"/>
<path fill-rule="evenodd" clip-rule="evenodd" d="M18.0859 28.4523H31.2514C32.146 28.4523 32.8779 27.7203 32.8779 26.8257V14.6264C32.8779 14.348 32.8071 14.0854 32.6825 13.8557L31.658 14.8802V26.8257C31.658 27.0697 31.4954 27.2323 31.2514 27.2323H19.3059L18.0859 28.4523ZM23.4477 23.0905C24.5614 23.4666 25.5856 23.7442 26.331 23.2472C27.1596 22.6948 27.299 21.7596 27.418 20.9616L27.4289 20.8887C27.4384 20.8352 27.4476 20.7819 27.4567 20.729C27.5657 20.0979 27.6669 19.5122 28.0795 19.0995C28.5269 18.6522 29.0961 18.4082 29.7061 18.4082C30.0314 18.3675 30.2754 18.0829 30.2754 17.7575C30.2348 17.4322 29.9501 17.1882 29.6248 17.1882C29.5241 17.1926 29.4243 17.2008 29.3256 17.2126L26.2973 20.241C26.2735 20.3711 26.253 20.4972 26.2335 20.6172L26.2335 20.6173L26.2334 20.6179L26.2332 20.6192C26.225 20.6695 26.217 20.7187 26.209 20.7667L26.2018 20.8097C26.0837 21.5194 25.9984 22.0313 25.6397 22.2306C25.4263 22.3492 24.9501 22.2603 24.429 22.1092L23.4477 23.0905ZM24.2658 30.5343H33.369C34.2661 30.5343 35.0001 29.8003 35.0001 28.9032V21.2414H33.7768V28.9032C33.7768 29.1479 33.6137 29.311 33.369 29.311H24.2658V30.5343Z" fill="#9C81F2"/>
<g filter="url(#filter0_d_734_1799)">
<path fill-rule="evenodd" clip-rule="evenodd" d="M18.0918 28.4524L19.3117 27.2325H17.4565L16.2744 28.4145C16.3869 28.4393 16.5036 28.4524 16.6233 28.4524H18.0918ZM31.6691 14.8751L32.6918 13.8525C32.4743 13.4538 32.095 13.1548 31.6436 13.0453L30.4691 14.2199H31.2625C31.5065 14.2199 31.6691 14.3825 31.6691 14.6265V14.8751ZM29.3307 17.2135L26.3095 20.2347C26.428 19.5891 26.629 18.8442 27.196 18.2457C27.7752 17.6665 28.5154 17.3129 29.3307 17.2135ZM23.4549 23.0893L24.436 22.1082C24.0853 22.0063 23.7145 21.8765 23.3899 21.7627L23.3329 21.7428L23.214 21.7019L23.0452 21.6438L22.07 22.6189C22.3567 22.7084 22.6481 22.8104 22.9096 22.902L22.9669 22.9221L23.0857 22.963C23.2097 23.0057 23.3328 23.0481 23.4549 23.0893ZM15 26.8259C15 27.5948 15.5408 28.2436 16.2608 28.4107L17.439 27.2325H16.6266C16.3826 27.2325 16.2199 27.0699 16.2199 26.8259V14.6266C16.2199 14.3826 16.3826 14.2199 16.6266 14.2199H30.4516L31.6301 13.0414C31.5129 13.0143 31.3909 13 31.2658 13H16.6266C15.732 13 15 13.732 15 14.6266V26.8259ZM19.961 21.4175C20.7483 20.8927 21.8466 21.2319 23.033 21.6385L22.0575 22.614C21.4633 22.4295 20.8921 22.301 20.6523 22.4341C19.7984 23.0034 19.0664 24.752 18.8631 25.362C18.7818 25.6466 18.5378 25.8093 18.2531 25.8093C17.9278 25.8093 17.6432 25.5246 17.6432 25.1993C17.6432 25.118 17.6432 25.0773 17.6839 24.996C17.7652 24.7114 18.6191 22.3528 19.961 21.4175ZM18.6598 17.8797C18.6598 17.1884 19.1884 16.6598 19.8797 16.6598C20.571 16.6598 21.0997 17.1884 21.0997 17.8797C21.0997 18.571 20.571 19.0997 19.8797 19.0997C19.1884 19.0997 18.6598 18.571 18.6598 17.8797Z" fill="url(#paint5_linear_734_1799)" shape-rendering="crispEdges"/>
</g>
</g>
<defs>
<filter id="filter0_d_734_1799" x="14" y="12" width="21.6914" height="19.4524" filterUnits="userSpaceOnUse" color-interpolation-filters="sRGB">
<feFlood flood-opacity="0" result="BackgroundImageFix"/>
<feColorMatrix in="SourceAlpha" type="matrix" values="0 0 0 0 0 0 0 0 0 0 0 0 0 0 0 0 0 0 127 0" result="hardAlpha"/>
<feOffset dx="1" dy="1"/>
<feGaussianBlur stdDeviation="1"/>
<feComposite in2="hardAlpha" operator="out"/>
<feColorMatrix type="matrix" values="0 0 0 0 0 0 0 0 0 0 0 0 0 0 0 0 0 0 0.57 0"/>
<feBlend mode="normal" in2="BackgroundImageFix" result="effect1_dropShadow_734_1799"/>
<feBlend mode="normal" in="SourceGraphic" in2="effect1_dropShadow_734_1799" result="shape"/>
</filter>
<linearGradient id="paint0_linear_734_1799" x1="25" y1="0" x2="25" y2="44" gradientUnits="userSpaceOnUse">
<stop stop-color="white" stop-opacity="0.24"/>
<stop offset="1" stop-color="#9C81F2" stop-opacity="0.2"/>
</linearGradient>
<radialGradient id="paint1_radial_734_1799" cx="0" cy="0" r="1" gradientUnits="userSpaceOnUse" gradientTransform="translate(28.5 23.5) rotate(90) scale(30.5 51.5)">
<stop stop-color="#121212" stop-opacity="0.55"/>
<stop offset="1" stop-color="#121212" stop-opacity="0"/>
</radialGradient>
<radialGradient id="paint2_radial_734_1799" cx="0" cy="0" r="1" gradientUnits="userSpaceOnUse" gradientTransform="translate(38 31.5) rotate(90) scale(18.5 20)">
<stop stop-color="#F5857A" stop-opacity="0.08"/>
<stop offset="1" stop-color="#121212" stop-opacity="0"/>
</radialGradient>
<radialGradient id="paint3_radial_734_1799" cx="0" cy="0" r="1" gradientUnits="userSpaceOnUse" gradientTransform="translate(19.5 -2) rotate(90) scale(20 42.5)">
<stop stop-color="#F5857A" stop-opacity="0.16"/>
<stop offset="1" stop-color="#121212" stop-opacity="0"/>
</radialGradient>
<radialGradient id="paint4_radial_734_1799" cx="0" cy="0" r="1" gradientUnits="userSpaceOnUse" gradientTransform="translate(15.3871 0.374982) rotate(-0.397118) scale(10.839 2343.56)">
<stop stop-color="white" stop-opacity="0.4"/>
<stop offset="1" stop-color="white" stop-opacity="0"/>
</radialGradient>
<linearGradient id="paint5_linear_734_1799" x1="17.5756" y1="14.5452" x2="24.2716" y2="22.272" gradientUnits="userSpaceOnUse">
<stop stop-color="#9C81F2"/>
<stop offset="1" stop-color="white" stop-opacity="0.9"/>
</linearGradient>
<clipPath id="clip0_734_1799">
<rect width="50" height="44" rx="4" fill="white"/>
</clipPath>
</defs>
</svg>
