<svg width="50" height="44" viewBox="0 0 50 44" fill="none" xmlns="http://www.w3.org/2000/svg">
<g clip-path="url(#clip0_794_3680)">
<rect width="50" height="44" rx="4" fill="#2A2D38"/>
<rect x="0.4" y="0.4" width="49.2" height="43.2" rx="3.6" fill="#3C414E" fill-opacity="0.4" stroke="url(#paint0_linear_794_3680)" stroke-width="0.8"/>
<ellipse cx="28.5" cy="23.5" rx="51.5" ry="30.5" fill="url(#paint1_radial_794_3680)"/>
<ellipse cx="38" cy="31.5" rx="20" ry="18.5" fill="url(#paint2_radial_794_3680)"/>
<ellipse cx="19.5" cy="-2" rx="42.5" ry="20" fill="url(#paint3_radial_794_3680)"/>
<rect x="3" width="24" height="0.6" fill="url(#paint4_radial_794_3680)"/>
<path fill-rule="evenodd" clip-rule="evenodd" d="M18.0312 28.9724H31.2695C31.531 28.9724 31.7759 28.8712 31.9603 28.6898C32.1447 28.5084 32.2459 28.2666 32.2459 28.0081V19.604C32.2459 19.3456 32.1447 19.1037 31.9603 18.9223C31.7759 18.7394 31.531 18.6397 31.2695 18.6397H28.364L27.572 19.4317H31.271C31.3012 19.4317 31.33 19.4438 31.3526 19.4665C31.3738 19.4876 31.3859 19.5164 31.3859 19.5466V28.0005C31.3859 28.0323 31.3738 28.061 31.3511 28.0822C31.33 28.1033 31.3012 28.1154 31.2695 28.1154H18.8883L18.0312 28.9724ZM20.6612 26.3425C20.7051 26.3561 20.7513 26.3624 20.7977 26.3605C20.9126 26.3636 21.0244 26.3197 21.1075 26.2381C21.1907 26.1671 21.2375 26.0613 21.2345 25.9494V25.7692L20.6612 26.3425ZM22.4396 24.5641C22.441 24.8918 22.5139 25.2193 22.6584 25.5216C22.7959 25.7983 23.0075 26.031 23.2675 26.1928C23.5184 26.353 23.8086 26.4376 24.1064 26.4331C24.5039 26.424 24.8803 26.2532 25.1524 25.9585C25.1524 26.0658 25.1947 26.1686 25.2673 26.2472C25.3428 26.3227 25.4456 26.3651 25.5529 26.3636C25.6618 26.3666 25.7661 26.3212 25.8386 26.2411C25.9172 26.1671 25.9595 26.0613 25.955 25.9524V23.082C25.9595 22.9702 25.9172 22.8629 25.8386 22.7858L25.8462 22.7979C25.6859 22.6437 25.435 22.6437 25.2748 22.7979C25.1977 22.8765 25.1554 22.9838 25.1584 23.0941C24.9222 22.8762 24.6262 22.7367 24.3122 22.6915L22.4396 24.5641ZM28.9233 18.0804H30.8176C31.0518 18.0804 31.2408 17.8915 31.2408 17.6572V15.9462C31.2408 15.9356 31.2408 15.925 31.2393 15.9144C31.237 15.8691 31.2316 15.8244 31.2232 15.7805L30.3913 16.6124V17.2325H29.7712L28.9233 18.0804ZM24.9136 25.3357C25.2778 24.8581 25.2778 24.193 24.9136 23.7154C24.7397 23.4992 24.4767 23.3783 24.2016 23.3889C23.9311 23.3813 23.6711 23.5007 23.5018 23.7154C23.3189 23.9421 23.2222 24.2293 23.2282 24.5225C23.2191 24.8173 23.3144 25.106 23.4957 25.3357C23.6711 25.5458 23.9311 25.6637 24.2016 25.6562C24.4752 25.6622 24.7352 25.5443 24.9136 25.3357ZM29.5131 22.9082C29.7716 23.07 29.9817 23.2997 30.1223 23.5733C30.2719 23.8726 30.3475 24.2051 30.3414 24.5407C30.3475 24.8777 30.2719 25.2118 30.1223 25.5141C29.9862 25.7907 29.7746 26.0235 29.5131 26.1852C29.2713 26.3454 28.9871 26.4286 28.6984 26.4255C28.4883 26.4286 28.2797 26.3817 28.0893 26.2895C27.9139 26.2139 27.7552 26.1051 27.6207 25.9691V26.0114C27.6237 26.1202 27.5829 26.226 27.5073 26.3046C27.4318 26.3817 27.3275 26.4255 27.2186 26.424C27.1113 26.4286 27.007 26.3862 26.9329 26.3076C26.8543 26.2305 26.812 26.1232 26.8181 26.0114V21.7625C26.815 21.6521 26.8559 21.5448 26.9329 21.4662C27.0932 21.3105 27.3441 21.3105 27.5043 21.4662C27.5814 21.5448 27.6237 21.6506 27.6192 21.7625V23.1727C27.7401 23.0246 27.8913 22.9052 28.0636 22.8221C28.251 22.7193 28.4596 22.6664 28.6727 22.6679C28.9705 22.6649 29.2622 22.748 29.5131 22.9082ZM29.2758 25.372C29.4602 25.1438 29.5569 24.8535 29.5494 24.5588C29.5585 24.2656 29.4632 23.9799 29.2819 23.7516C29.1005 23.5491 28.8435 23.4327 28.5729 23.4327C28.3024 23.4327 28.0454 23.5491 27.864 23.7516C27.4998 24.2293 27.4998 24.8944 27.864 25.372C28.0394 25.5851 28.3024 25.706 28.576 25.6985C28.8526 25.6955 29.1111 25.5609 29.2758 25.3357V25.372Z" fill="#9C81F2"/>
<g filter="url(#filter0_d_794_3680)">
<path fill-rule="evenodd" clip-rule="evenodd" d="M31.2194 15.7806C31.1835 15.5932 31.0928 15.4211 30.9544 15.2827C30.7715 15.1013 30.5311 15.0015 30.2742 15.0015H27.5852C27.3509 15.0015 27.162 15.1905 27.162 15.4247V15.6016C27.162 15.6413 27.1618 15.681 27.1616 15.7207V15.7209C27.1613 15.8007 27.161 15.8807 27.162 15.9613V17.6557C27.162 17.89 27.3509 18.079 27.5852 18.079V18.0805H28.9195L29.7675 17.2325H28.0084V15.8465H30.2727C30.3029 15.8465 30.3331 15.8585 30.3543 15.8797C30.3755 15.9024 30.3875 15.9311 30.3875 15.9613V16.6125L31.2194 15.7806ZM28.3603 18.6397H21.6237C21.5935 18.6397 21.5648 18.6277 21.5421 18.6065C21.5195 18.5838 21.5074 18.5551 21.5074 18.5249V15.9644C21.5074 15.7074 21.4061 15.464 21.2217 15.2827C21.0373 15.0998 20.7924 15 20.5309 15H17.9764C17.4383 15 17 15.4323 17 15.9644V28.0082C17 28.2651 17.1013 28.507 17.2857 28.6899C17.4701 28.8712 17.7149 28.9725 17.9764 28.9725H18.0275L18.8845 28.1155H18.0928C18.0626 28.1155 18.0324 28.1034 18.0112 28.0822C17.9885 28.0611 17.9764 28.0308 17.9764 28.0006V16.0792C17.9764 16.0157 18.0278 15.9644 18.0928 15.9644V15.9628H20.5309C20.5611 15.9628 20.5914 15.9749 20.6125 15.9961C20.6352 16.0188 20.6473 16.0475 20.6473 16.0777V18.4674C20.6473 18.7244 20.7486 18.9677 20.933 19.1491C21.1174 19.3305 21.3623 19.4318 21.6237 19.4318H27.5682L28.3603 18.6397ZM20.6574 26.3426C20.5926 26.3226 20.5327 26.2868 20.4841 26.2382C20.4039 26.1641 20.3601 26.0583 20.3616 25.9495V22.3974H19.3157C19.2068 22.4019 19.101 22.3626 19.0239 22.287C18.9453 22.2145 18.903 22.1102 18.9091 22.0044C18.9045 21.8986 18.9468 21.7973 19.0239 21.7278C19.104 21.6552 19.2083 21.6174 19.3157 21.622H22.3145C22.4097 21.622 22.5019 21.6598 22.5745 21.7263C22.6516 21.7988 22.6939 21.9031 22.6894 22.0089C22.6954 22.1162 22.6516 22.2205 22.5745 22.2916C22.4944 22.3626 22.3886 22.4004 22.2828 22.3959H21.2308V25.7692L20.6574 26.3426ZM24.3084 22.6916L22.4358 24.5642C22.4344 24.2299 22.5073 23.8953 22.6546 23.587C22.7891 23.3088 23.0007 23.0761 23.2637 22.9158C23.5056 22.7571 23.7898 22.6725 24.0785 22.6755C24.1558 22.6752 24.2326 22.6806 24.3084 22.6916ZM22.5035 18.0956C22.2692 18.0956 22.0802 17.9067 22.0802 17.6724V15.4399C22.0802 15.2071 22.2692 15.0181 22.5019 15.0166L25.7275 15H25.729C25.986 15 26.2263 15.0998 26.4092 15.2811C26.5906 15.464 26.6904 15.7044 26.6904 15.9613V17.6724C26.6904 17.9067 26.5014 18.0956 26.2671 18.0956H22.5035ZM22.9267 17.2476H25.8439V15.9598C25.8439 15.9296 25.8318 15.9009 25.8107 15.8782C25.7895 15.857 25.7608 15.8449 25.7306 15.8449L22.9267 15.8585V17.2476Z" fill="url(#paint5_linear_794_3680)" shape-rendering="crispEdges"/>
</g>
</g>
<defs>
<filter id="filter0_d_794_3680" x="16" y="14" width="18.2188" height="17.9725" filterUnits="userSpaceOnUse" color-interpolation-filters="sRGB">
<feFlood flood-opacity="0" result="BackgroundImageFix"/>
<feColorMatrix in="SourceAlpha" type="matrix" values="0 0 0 0 0 0 0 0 0 0 0 0 0 0 0 0 0 0 127 0" result="hardAlpha"/>
<feOffset dx="1" dy="1"/>
<feGaussianBlur stdDeviation="1"/>
<feComposite in2="hardAlpha" operator="out"/>
<feColorMatrix type="matrix" values="0 0 0 0 0 0 0 0 0 0 0 0 0 0 0 0 0 0 0.57 0"/>
<feBlend mode="normal" in2="BackgroundImageFix" result="effect1_dropShadow_794_3680"/>
<feBlend mode="normal" in="SourceGraphic" in2="effect1_dropShadow_794_3680" result="shape"/>
</filter>
<linearGradient id="paint0_linear_794_3680" x1="25" y1="0" x2="25" y2="44" gradientUnits="userSpaceOnUse">
<stop stop-color="white" stop-opacity="0.24"/>
<stop offset="1" stop-color="#9C81F2" stop-opacity="0.2"/>
</linearGradient>
<radialGradient id="paint1_radial_794_3680" cx="0" cy="0" r="1" gradientUnits="userSpaceOnUse" gradientTransform="translate(28.5 23.5) rotate(90) scale(30.5 51.5)">
<stop stop-color="#121212" stop-opacity="0.55"/>
<stop offset="1" stop-color="#121212" stop-opacity="0"/>
</radialGradient>
<radialGradient id="paint2_radial_794_3680" cx="0" cy="0" r="1" gradientUnits="userSpaceOnUse" gradientTransform="translate(38 31.5) rotate(90) scale(18.5 20)">
<stop stop-color="#F5857A" stop-opacity="0.08"/>
<stop offset="1" stop-color="#121212" stop-opacity="0"/>
</radialGradient>
<radialGradient id="paint3_radial_794_3680" cx="0" cy="0" r="1" gradientUnits="userSpaceOnUse" gradientTransform="translate(19.5 -2) rotate(90) scale(20 42.5)">
<stop stop-color="#F5857A" stop-opacity="0.16"/>
<stop offset="1" stop-color="#121212" stop-opacity="0"/>
</radialGradient>
<radialGradient id="paint4_radial_794_3680" cx="0" cy="0" r="1" gradientUnits="userSpaceOnUse" gradientTransform="translate(15.3871 0.374982) rotate(-0.397118) scale(10.839 2343.56)">
<stop stop-color="white" stop-opacity="0.4"/>
<stop offset="1" stop-color="white" stop-opacity="0"/>
</radialGradient>
<linearGradient id="paint5_linear_794_3680" x1="18" y1="15.5" x2="27" y2="26" gradientUnits="userSpaceOnUse">
<stop stop-color="#9C81F2"/>
<stop offset="1" stop-color="white" stop-opacity="0.9"/>
</linearGradient>
<clipPath id="clip0_794_3680">
<rect width="50" height="44" rx="4" fill="white"/>
</clipPath>
</defs>
</svg>
