<svg width="50" height="44" viewBox="0 0 50 44" fill="none" xmlns="http://www.w3.org/2000/svg">
<g clip-path="url(#clip0_1336_2615)">
<rect width="50" height="44" rx="4" fill="#2A2D38"/>
<rect x="0.4" y="0.4" width="49.2" height="43.2" rx="3.6" fill="#3C414E" fill-opacity="0.4" stroke="url(#paint0_linear_1336_2615)" stroke-width="0.8"/>
<ellipse cx="28.5" cy="23.5" rx="51.5" ry="30.5" fill="url(#paint1_radial_1336_2615)"/>
<ellipse cx="38" cy="31.5" rx="20" ry="18.5" fill="url(#paint2_radial_1336_2615)"/>
<ellipse cx="19.5" cy="-2" rx="42.5" ry="20" fill="url(#paint3_radial_1336_2615)"/>
<rect x="3" width="24" height="0.6" fill="url(#paint4_radial_1336_2615)"/>
<g filter="url(#filter0_d_1336_2615)">
<path fill-rule="evenodd" clip-rule="evenodd" d="M33 13H15.2C14.5373 13 14 13.5373 14 14.2V28.8C14 29.4627 14.5373 30 15.2 30H16L17.55 28.45H15.55V14.55H31.45L33 13ZM24.7037 21.2962C23.7233 21.4767 22.6249 21.6734 21.3937 21.8274C20.9011 21.8887 20.5033 21.8804 20.211 21.8026C19.9534 21.7342 19.8466 21.6269 19.7892 21.5526C19.6384 21.3592 19.3621 20.7236 20.0362 19.015C20.4344 18.0068 20.9694 17.141 21.0201 17.059L21.0239 17.0527C21.2402 16.7119 21.1027 16.2815 20.7169 16.0905C20.3311 15.8995 19.8426 16.0209 19.6264 16.3617C19.601 16.4018 18.995 17.3617 18.5318 18.5291C18.2502 19.2366 18.0793 19.877 18.0233 20.4324C17.9432 21.2224 18.0927 21.8687 18.4677 22.3521C18.7694 22.7401 19.1992 23.0113 19.7465 23.1575C20.2711 23.2979 20.8838 23.3214 21.6192 23.2295C22.0861 23.1709 22.5323 23.107 22.9596 23.0404L24.7037 21.2962Z" fill="url(#paint5_linear_1336_2615)" shape-rendering="crispEdges"/>
</g>
<path fill-rule="evenodd" clip-rule="evenodd" d="M16 30H33.8C34.4628 30 35 29.4627 35 28.8V14.2C35 13.5373 34.4628 13 33.8 13H33L31.45 14.55H33.45V28.45H17.55L16 30ZM22.9596 23.0404C23.8162 22.9069 24.5963 22.7627 25.3129 22.6303L25.3314 22.6269C26.3352 22.4406 27.2028 22.2802 27.8742 22.2295C28.4415 22.187 28.8326 22.2271 29.0368 22.3498C29.0982 22.3863 29.2851 22.4984 29.3799 22.9901C29.4506 23.3556 29.3612 23.6917 29.1049 24.016C28.8673 24.3179 28.4936 24.6068 27.9917 24.8745C27.0821 25.3598 26.0895 25.595 26.037 25.6074L26.0348 25.6079C25.6064 25.7035 25.3461 26.0891 25.4555 26.4676C25.5476 26.7872 25.8733 27.0006 26.2311 27.0006C26.2965 27.0006 26.3619 26.9935 26.4286 26.9782C26.4793 26.9676 27.658 26.6987 28.7886 26.1009C29.4907 25.7294 30.0353 25.3049 30.4064 24.8403C30.644 24.5408 30.8135 24.2224 30.9096 23.8922C31.0164 23.5231 31.031 23.1398 30.9563 22.7507C30.8882 22.3993 30.7774 22.1045 30.6186 21.8498C30.4464 21.5738 30.2155 21.3474 29.9352 21.1788C29.6388 21.0008 29.2945 20.8875 28.882 20.8333C28.5523 20.7909 28.1772 20.7861 27.7354 20.8192C26.9717 20.8778 26.0652 21.0451 25.0172 21.2384L25.0017 21.2413L24.9629 21.2485C24.8774 21.2642 24.7911 21.2802 24.7038 21.2962L22.9596 23.0404Z" fill="#9C81F2"/>
</g>
<defs>
<filter id="filter0_d_1336_2615" x="13" y="12" width="23" height="21" filterUnits="userSpaceOnUse" color-interpolation-filters="sRGB">
<feFlood flood-opacity="0" result="BackgroundImageFix"/>
<feColorMatrix in="SourceAlpha" type="matrix" values="0 0 0 0 0 0 0 0 0 0 0 0 0 0 0 0 0 0 127 0" result="hardAlpha"/>
<feOffset dx="1" dy="1"/>
<feGaussianBlur stdDeviation="1"/>
<feComposite in2="hardAlpha" operator="out"/>
<feColorMatrix type="matrix" values="0 0 0 0 0 0 0 0 0 0 0 0 0 0 0 0 0 0 0.57 0"/>
<feBlend mode="normal" in2="BackgroundImageFix" result="effect1_dropShadow_1336_2615"/>
<feBlend mode="normal" in="SourceGraphic" in2="effect1_dropShadow_1336_2615" result="shape"/>
</filter>
<linearGradient id="paint0_linear_1336_2615" x1="25" y1="0" x2="25" y2="44" gradientUnits="userSpaceOnUse">
<stop stop-color="white" stop-opacity="0.24"/>
<stop offset="1" stop-color="#9C81F2" stop-opacity="0.2"/>
</linearGradient>
<radialGradient id="paint1_radial_1336_2615" cx="0" cy="0" r="1" gradientUnits="userSpaceOnUse" gradientTransform="translate(28.5 23.5) rotate(90) scale(30.5 51.5)">
<stop stop-color="#121212" stop-opacity="0.55"/>
<stop offset="1" stop-color="#121212" stop-opacity="0"/>
</radialGradient>
<radialGradient id="paint2_radial_1336_2615" cx="0" cy="0" r="1" gradientUnits="userSpaceOnUse" gradientTransform="translate(38 31.5) rotate(90) scale(18.5 20)">
<stop stop-color="#F5857A" stop-opacity="0.08"/>
<stop offset="1" stop-color="#121212" stop-opacity="0"/>
</radialGradient>
<radialGradient id="paint3_radial_1336_2615" cx="0" cy="0" r="1" gradientUnits="userSpaceOnUse" gradientTransform="translate(19.5 -2) rotate(90) scale(20 42.5)">
<stop stop-color="#F5857A" stop-opacity="0.16"/>
<stop offset="1" stop-color="#121212" stop-opacity="0"/>
</radialGradient>
<radialGradient id="paint4_radial_1336_2615" cx="0" cy="0" r="1" gradientUnits="userSpaceOnUse" gradientTransform="translate(15.3871 0.374982) rotate(-0.397118) scale(10.839 2343.56)">
<stop stop-color="white" stop-opacity="0.4"/>
<stop offset="1" stop-color="white" stop-opacity="0"/>
</radialGradient>
<linearGradient id="paint5_linear_1336_2615" x1="18" y1="17" x2="23.5" y2="22.5" gradientUnits="userSpaceOnUse">
<stop stop-color="#9C81F2"/>
<stop offset="1" stop-color="white" stop-opacity="0.9"/>
</linearGradient>
<clipPath id="clip0_1336_2615">
<rect width="50" height="44" rx="4" fill="white"/>
</clipPath>
</defs>
</svg>
