<svg width="50" height="44" viewBox="0 0 50 44" fill="none" xmlns="http://www.w3.org/2000/svg">
<g clip-path="url(#clip0_734_1775)">
<rect width="50" height="44" rx="4" fill="#2A2D38"/>
<rect x="0.4" y="0.4" width="49.2" height="43.2" rx="3.6" fill="#3C414E" fill-opacity="0.4" stroke="url(#paint0_linear_734_1775)" stroke-width="0.8"/>
<ellipse cx="28.5" cy="23.5" rx="51.5" ry="30.5" fill="url(#paint1_radial_734_1775)"/>
<ellipse cx="38" cy="31.5" rx="20" ry="18.5" fill="url(#paint2_radial_734_1775)"/>
<ellipse cx="19.5" cy="-2" rx="42.5" ry="20" fill="url(#paint3_radial_734_1775)"/>
<rect x="3" width="24" height="0.6" fill="url(#paint4_radial_734_1775)"/>
<g filter="url(#filter0_d_734_1775)">
<path fill-rule="evenodd" clip-rule="evenodd" d="M34.1166 12.1334C33.9283 12.0478 33.7194 12 33.5 12H15.5C14.675 12 14 12.675 14 13.5V28.5C14 29.325 14.675 30 15.5 30H16.25L17.75 28.5H16.25C15.8 28.5 15.5 28.125 15.5 27.75V14.25C15.5 13.875 15.8 13.5 16.25 13.5H32.75L34.1166 12.1334ZM21.95 24.3L20.975 23.325L17.825 26.475C17.525 26.775 17.075 26.775 16.775 26.475C16.475 26.175 16.475 25.725 16.7 25.425L20.45 21.675C20.75 21.375 21.125 21.375 21.425 21.6L21.5 21.675L23.0158 23.2342L21.95 24.3ZM21.65 15.675C22.25 16.35 22.475 17.325 22.1 18.15C21.725 18.975 20.825 19.5 19.925 19.5C18.725 19.5 17.75 18.525 17.75 17.325C17.75 16.425 18.275 15.525 19.1 15.15C19.925 14.85 20.975 15 21.65 15.675ZM19.475 16.8C19.325 16.95 19.25 17.1 19.25 17.325C19.25 17.7 19.625 18 20.075 18C20.45 17.925 20.75 17.55 20.75 17.175C20.75 16.8 20.375 16.5 20 16.5C19.775 16.5 19.55 16.575 19.475 16.8Z" fill="url(#paint5_linear_734_1775)" shape-rendering="crispEdges"/>
</g>
<path fill-rule="evenodd" clip-rule="evenodd" d="M16.25 29.9999H28.25V28.4999H17.75L16.25 29.9999ZM21.95 24.2999L23.0158 23.2341L24.125 24.3749L31.025 17.4749C31.325 17.1749 31.775 17.1749 32.075 17.4749C32.375 17.7749 32.375 18.2249 32.075 18.5249L24.65 25.9499C24.35 26.1749 24.05 26.1749 23.75 26.0249C23.7181 26.0249 23.6998 26.0249 23.6835 26.0192C23.6615 26.0114 23.6431 25.993 23.6 25.9499L21.95 24.2999ZM32.75 13.4999C33.2 13.4999 33.5 13.8749 33.5 14.2499V23.9999H35V13.4999C35 12.8944 34.6363 12.3696 34.1166 12.1333L32.75 13.4999ZM31.4 23.5499C31.625 23.5499 31.775 23.6249 31.925 23.7749L34.1 25.9499C34.4 26.2499 34.4 26.6999 34.1 26.9999C33.8 27.2999 33.35 27.2999 33.05 26.9999L32.15 26.0999V30.7499C32.15 31.1999 31.85 31.4999 31.4 31.4999C30.95 31.4999 30.65 31.1249 30.65 30.7499V26.0999L29.825 26.9249C29.525 27.2249 29.075 27.2249 28.775 26.9249C28.475 26.6249 28.475 26.1749 28.775 25.8749L30.875 23.7749C31.025 23.6249 31.175 23.5499 31.4 23.5499Z" fill="#9C81F2"/>
</g>
<defs>
<filter id="filter0_d_734_1775" x="13" y="11" width="24.1172" height="22" filterUnits="userSpaceOnUse" color-interpolation-filters="sRGB">
<feFlood flood-opacity="0" result="BackgroundImageFix"/>
<feColorMatrix in="SourceAlpha" type="matrix" values="0 0 0 0 0 0 0 0 0 0 0 0 0 0 0 0 0 0 127 0" result="hardAlpha"/>
<feOffset dx="1" dy="1"/>
<feGaussianBlur stdDeviation="1"/>
<feComposite in2="hardAlpha" operator="out"/>
<feColorMatrix type="matrix" values="0 0 0 0 0 0 0 0 0 0 0 0 0 0 0 0 0 0 0.57 0"/>
<feBlend mode="normal" in2="BackgroundImageFix" result="effect1_dropShadow_734_1775"/>
<feBlend mode="normal" in="SourceGraphic" in2="effect1_dropShadow_734_1775" result="shape"/>
</filter>
<linearGradient id="paint0_linear_734_1775" x1="25" y1="0" x2="25" y2="44" gradientUnits="userSpaceOnUse">
<stop stop-color="white" stop-opacity="0.24"/>
<stop offset="1" stop-color="#9C81F2" stop-opacity="0.2"/>
</linearGradient>
<radialGradient id="paint1_radial_734_1775" cx="0" cy="0" r="1" gradientUnits="userSpaceOnUse" gradientTransform="translate(28.5 23.5) rotate(90) scale(30.5 51.5)">
<stop stop-color="#121212" stop-opacity="0.55"/>
<stop offset="1" stop-color="#121212" stop-opacity="0"/>
</radialGradient>
<radialGradient id="paint2_radial_734_1775" cx="0" cy="0" r="1" gradientUnits="userSpaceOnUse" gradientTransform="translate(38 31.5) rotate(90) scale(18.5 20)">
<stop stop-color="#F5857A" stop-opacity="0.08"/>
<stop offset="1" stop-color="#121212" stop-opacity="0"/>
</radialGradient>
<radialGradient id="paint3_radial_734_1775" cx="0" cy="0" r="1" gradientUnits="userSpaceOnUse" gradientTransform="translate(19.5 -2) rotate(90) scale(20 42.5)">
<stop stop-color="#F5857A" stop-opacity="0.16"/>
<stop offset="1" stop-color="#121212" stop-opacity="0"/>
</radialGradient>
<radialGradient id="paint4_radial_734_1775" cx="0" cy="0" r="1" gradientUnits="userSpaceOnUse" gradientTransform="translate(15.3871 0.374982) rotate(-0.397118) scale(10.839 2343.56)">
<stop stop-color="white" stop-opacity="0.4"/>
<stop offset="1" stop-color="white" stop-opacity="0"/>
</radialGradient>
<linearGradient id="paint5_linear_734_1775" x1="18.5" y1="14.25" x2="24.5" y2="21.75" gradientUnits="userSpaceOnUse">
<stop stop-color="#9C81F2"/>
<stop offset="1" stop-color="white" stop-opacity="0.9"/>
</linearGradient>
<clipPath id="clip0_734_1775">
<rect width="50" height="44" rx="4" fill="white"/>
</clipPath>
</defs>
</svg>
