<svg width="10" height="10" viewBox="0 0 10 10" fill="none" xmlns="http://www.w3.org/2000/svg">
<path d="M7.39727 0H2.60273C1.91277 0.000701557 1.25127 0.27507 0.763331 0.762913C0.275396 1.25076 0.000877228 1.91224 0 2.60224V7.3971C0.000701828 8.08721 0.275143 8.74887 0.763097 9.23685C1.25105 9.72484 1.91266 9.9993 2.60273 10H7.39727C8.08734 9.9993 8.74895 9.72484 9.2369 9.23685C9.72486 8.74887 9.9993 8.08721 10 7.3971V2.60224C9.99912 1.91224 9.72461 1.25076 9.23667 0.762913C8.74873 0.27507 8.08723 0.000701557 7.39727 0ZM9.27094 7.3971C9.27042 7.8939 9.07284 8.3702 8.72158 8.72149C8.37031 9.07278 7.89404 9.27037 7.39727 9.2709H2.60273C2.10596 9.27037 1.62969 9.07278 1.27842 8.72149C0.927156 8.3702 0.729582 7.8939 0.729056 7.3971V2.60224C0.729758 2.10555 0.927409 1.62942 1.27866 1.27827C1.62991 0.927126 2.10608 0.729631 2.60273 0.729105H7.39727C7.89392 0.729631 8.37009 0.927126 8.72134 1.27827C9.07259 1.62942 9.27024 2.10555 9.27094 2.60224V7.3971Z" fill="#D4D4D7"/>
<path d="M8.03472 6.21314H4.87585C4.77855 6.21314 4.68525 6.25104 4.61645 6.31851C4.54765 6.38597 4.509 6.47747 4.509 6.57287C4.509 6.66828 4.54765 6.75978 4.61645 6.82724C4.68525 6.8947 4.77855 6.9326 4.87585 6.9326H8.03472C8.13201 6.9326 8.22532 6.8947 8.29412 6.82724C8.36291 6.75978 8.40156 6.66828 8.40156 6.57287C8.40156 6.47747 8.36291 6.38597 8.29412 6.31851C8.22532 6.25104 8.13201 6.21314 8.03472 6.21314ZM8.03472 3.23001H4.87585C4.77855 3.23001 4.68525 3.26791 4.61645 3.33537C4.54765 3.40283 4.509 3.49433 4.509 3.58973C4.509 3.68514 4.54765 3.77664 4.61645 3.8441C4.68525 3.91156 4.77855 3.94946 4.87585 3.94946H8.03472C8.13201 3.94946 8.22532 3.91156 8.29412 3.8441C8.36291 3.77664 8.40156 3.68514 8.40156 3.58973C8.40156 3.49433 8.36291 3.40283 8.29412 3.33537C8.22532 3.26791 8.13201 3.23001 8.03472 3.23001ZM2.93957 5.54535C2.7323 5.54523 2.52964 5.60538 2.35724 5.7182C2.18483 5.83103 2.05043 5.99146 1.97101 6.1792C1.8916 6.36695 1.87076 6.57357 1.91111 6.77293C1.95147 6.97229 2.05121 7.15544 2.19773 7.29921C2.34425 7.44297 2.53096 7.5409 2.73423 7.5806C2.93751 7.6203 3.14824 7.59999 3.33974 7.52224C3.53125 7.44449 3.69494 7.31279 3.81011 7.1438C3.92528 6.97481 3.98675 6.77612 3.98675 6.57287C3.98657 6.30052 3.87621 6.03937 3.67988 5.84673C3.48356 5.65409 3.21731 5.5457 2.93957 5.54535ZM2.93957 6.88028C2.87738 6.88041 2.81655 6.86243 2.76479 6.82863C2.71302 6.79483 2.67265 6.74673 2.64879 6.69041C2.62493 6.63409 2.61866 6.5721 2.63076 6.51228C2.64286 6.45246 2.67279 6.39751 2.71677 6.35439C2.76074 6.31127 2.81678 6.28191 2.87778 6.27005C2.93878 6.25818 3.002 6.26434 3.05943 6.28773C3.11687 6.31113 3.16592 6.35072 3.20039 6.40148C3.23486 6.45224 3.25319 6.51189 3.25306 6.57287C3.25288 6.65435 3.2198 6.73244 3.16104 6.79005C3.10229 6.84766 3.02266 6.8801 2.93957 6.88028ZM3.49784 2.52428L2.70146 3.42557L2.22189 2.98212C2.15113 2.91638 2.05664 2.88089 1.95919 2.88346C1.86175 2.88604 1.76935 2.92647 1.7023 2.99585C1.63526 3.06524 1.59907 3.1579 1.6017 3.25345C1.60432 3.349 1.64555 3.43962 1.71631 3.50536L2.47468 4.20651C2.54291 4.26999 2.63341 4.30534 2.72747 4.30527H2.74481C2.79436 4.30308 2.84294 4.29098 2.88755 4.26973C2.93217 4.24847 2.97189 4.2185 3.00427 4.18165L4.05211 2.99651C4.11597 2.92443 4.14802 2.83043 4.1412 2.73519C4.13438 2.63995 4.08926 2.55126 4.01576 2.48864C3.94226 2.42601 3.8464 2.39459 3.74927 2.40127C3.65215 2.40796 3.5617 2.45221 3.49784 2.52428Z" fill="#D4D4D7"/>
</svg>
