<svg width="12" height="8" viewBox="0 0 12 8" fill="none" xmlns="http://www.w3.org/2000/svg">
<path d="M3.35876 6.84303C3.26667 6.84135 3.1783 6.80978 3.10968 6.75404L0.128322 4.31697C0.087772 4.28586 0.0552592 4.24705 0.0330857 4.20328C0.0109122 4.15951 -0.000379673 4.11185 9.73993e-06 4.06368C0.00622291 3.96764 0.0520239 3.87723 0.128322 3.81039L3.14742 1.42809C3.18416 1.39608 3.22767 1.37115 3.27532 1.3548C3.32297 1.33845 3.37377 1.33103 3.42467 1.33296C3.47557 1.3349 3.52551 1.34616 3.57148 1.36608C3.61745 1.38599 3.6585 1.41414 3.69216 1.44882C3.72581 1.48351 3.75138 1.52402 3.76731 1.56791C3.78324 1.6118 3.78921 1.65815 3.78486 1.70419C3.7805 1.75023 3.76592 1.79499 3.74198 1.83578C3.71805 1.87656 3.68525 1.91253 3.64558 1.94152L0.951027 4.06368L3.61538 6.26115C3.65076 6.29297 3.67883 6.33083 3.69799 6.37254C3.71715 6.41425 3.72702 6.45898 3.72702 6.50417C3.72702 6.54936 3.71715 6.59409 3.69799 6.63581C3.67883 6.67752 3.65076 6.71537 3.61538 6.74719C3.54637 6.80754 3.45462 6.84181 3.35876 6.84303ZM8.57426 6.84303C8.52139 6.84207 8.46931 6.83124 8.42127 6.81122C8.37322 6.7912 8.33023 6.76241 8.29499 6.72666C8.22537 6.66152 8.18643 6.57436 8.18643 6.48363C8.18643 6.39291 8.22537 6.30575 8.29499 6.24061L10.9594 4.06368L8.32518 1.94152C8.28981 1.9097 8.26174 1.87184 8.24258 1.83013C8.22342 1.78842 8.21355 1.74368 8.21355 1.69849C8.21355 1.65331 8.22342 1.60857 8.24258 1.56686C8.26174 1.52515 8.28981 1.48729 8.32518 1.45547C8.35962 1.4236 8.40072 1.39827 8.44608 1.38098C8.49144 1.3637 8.54015 1.35479 8.58936 1.35479C8.63856 1.35479 8.68727 1.3637 8.73263 1.38098C8.77799 1.39827 8.81909 1.4236 8.85353 1.45547L11.8726 3.83777C11.9126 3.86926 11.9447 3.90817 11.9667 3.95187C11.9886 3.99557 12 4.04304 12 4.09106C12 4.13909 11.9886 4.18656 11.9667 4.23026C11.9447 4.27396 11.9126 4.31287 11.8726 4.34435L8.89881 6.78142C8.85229 6.81137 8.79945 6.83229 8.74361 6.84289C8.68777 6.85349 8.63012 6.85354 8.57426 6.84303ZM5.15513 7.99995H5.09474C5.00218 7.98344 4.91953 7.93666 4.86248 7.86852C4.80543 7.80037 4.77796 7.71559 4.78529 7.63029L6.11369 0.284858C6.13212 0.195639 6.18813 0.116436 6.26985 0.0640397C6.35157 0.0116437 6.45258 -0.0098251 6.55146 0.00418502C6.60032 0.0108142 6.64721 0.0262527 6.68938 0.0495894C6.73155 0.072926 6.76813 0.103688 6.79698 0.140059C6.82582 0.17643 6.84634 0.217674 6.85732 0.261356C6.86831 0.305037 6.86953 0.350272 6.86092 0.39439L5.53251 7.71928C5.51644 7.79902 5.46969 7.871 5.40058 7.92239C5.33147 7.97379 5.24449 8.00128 5.15513 7.99995Z" fill="#D4D4D7"/>
</svg>
