<svg width="14" height="14" viewBox="0 0 14 14" fill="none" xmlns="http://www.w3.org/2000/svg">
<g clip-path="url(#clip0_1232_33154)">
<rect width="14" height="14" rx="2" fill="#2A2D38" fill-opacity="0.5"/>
<rect x="0.3" y="0.3" width="13.4" height="13.4" rx="1.7" fill="#9D7FF5" fill-opacity="0.1" stroke="url(#paint0_linear_1232_33154)" stroke-width="0.6"/>
<ellipse cx="7.5" cy="9" rx="12.5" ry="7" fill="url(#paint1_radial_1232_33154)"/>
<rect width="8" height="0.6" fill="url(#paint2_radial_1232_33154)"/>
<ellipse cx="4.5" cy="0.5" rx="4.5" ry="2.5" fill="url(#paint3_radial_1232_33154)"/>
<path d="M6.76442 8.95492C6.706 8.95492 6.6471 8.93695 6.597 8.89971C6.47512 8.8091 6.45128 8.63893 6.54386 8.51963L9.36563 4.88196C9.49722 4.71227 9.46327 4.46939 9.28996 4.3406L8.32158 3.621C8.14828 3.4922 7.90007 3.52544 7.76855 3.69513L4.95911 7.31666C4.86654 7.43596 4.69275 7.45929 4.57079 7.36868C4.4489 7.27807 4.42507 7.1079 4.51764 6.9886L7.32694 3.36687C7.64341 2.95891 8.24003 2.87895 8.65676 3.18877L9.62521 3.90837C10.042 4.21811 10.1236 4.80207 9.80717 5.20995L6.9854 8.84762C6.93086 8.91796 6.84813 8.95492 6.76442 8.95492ZM9.14022 5.63839C9.09774 5.63839 9.05492 5.6253 9.01847 5.59817L7.06827 4.14893C6.97964 4.08308 6.96232 3.9593 7.0296 3.87255C7.09696 3.78574 7.22335 3.76885 7.31205 3.83471L9.26224 5.28395C9.35087 5.3498 9.3682 5.47358 9.30091 5.56032C9.26121 5.61153 9.20106 5.63839 9.14022 5.63839ZM4.27726 10C4.21594 10 4.15531 9.98013 4.10555 9.94174C4.0267 9.8809 3.98762 9.78297 4.00348 9.68591L4.41356 7.17559C4.42895 7.08145 4.49367 7.0021 4.5841 6.96663C4.67438 6.93129 4.77729 6.94472 4.85489 7.00237L6.89358 8.51739C6.97265 8.57613 7.01353 8.67169 7.00085 8.768C6.98817 8.86438 6.92386 8.94671 6.83226 8.98401L4.38349 9.97931C4.34926 9.99315 4.31316 10 4.27726 10ZM4.88795 7.7082L4.62927 9.29186L6.17411 8.66396L4.88795 7.7082Z" fill="#C4C6CA"/>
</g>
<defs>
<linearGradient id="paint0_linear_1232_33154" x1="-1.47157e-07" y1="3.5" x2="13.7403" y2="2.96418" gradientUnits="userSpaceOnUse">
<stop stop-color="white" stop-opacity="0.2"/>
<stop offset="1" stop-color="#9D7FF5" stop-opacity="0.5"/>
</linearGradient>
<radialGradient id="paint1_radial_1232_33154" cx="0" cy="0" r="1" gradientUnits="userSpaceOnUse" gradientTransform="translate(7.5 9) rotate(90) scale(7 12.5)">
<stop stop-color="#121212" stop-opacity="0.5"/>
<stop offset="1" stop-color="#121212" stop-opacity="0"/>
</radialGradient>
<radialGradient id="paint2_radial_1232_33154" cx="0" cy="0" r="1" gradientUnits="userSpaceOnUse" gradientTransform="translate(4 0.299999) scale(3.5 252.262)">
<stop stop-color="white" stop-opacity="0.16"/>
<stop offset="1" stop-color="white" stop-opacity="0"/>
</radialGradient>
<radialGradient id="paint3_radial_1232_33154" cx="0" cy="0" r="1" gradientUnits="userSpaceOnUse" gradientTransform="translate(4.5 0.5) rotate(90) scale(2.5 4.5)">
<stop stop-color="#FA7C70" stop-opacity="0.21"/>
<stop offset="1" stop-color="#FA7C70" stop-opacity="0"/>
</radialGradient>
<clipPath id="clip0_1232_33154">
<rect width="14" height="14" rx="2" fill="white"/>
</clipPath>
</defs>
</svg>
