<svg width="16" height="17" viewBox="0 0 16 17" fill="none" xmlns="http://www.w3.org/2000/svg">
<path fill-rule="evenodd" clip-rule="evenodd" d="M1.61719 12.7879C1.63695 12.8164 1.65977 12.8431 1.68544 12.8675C1.78549 12.9627 1.92059 13.0155 2.06102 13.0145L12.4605 12.9399C12.6009 12.9389 12.7352 12.884 12.8337 12.7874C12.9323 12.6908 12.9871 12.5604 12.986 12.4248C12.985 12.2892 12.9282 12.1595 12.8281 12.0644C12.7281 11.9692 12.593 11.9163 12.4525 11.9173L2.58061 11.9882L1.61719 12.7879ZM4.11587 10.7138C4.24023 10.7113 4.35998 10.6665 4.45385 10.587L11.4073 4.70629C11.4552 4.66585 11.495 4.61746 11.525 4.56348L4.11587 10.7138ZM12.4785 9.4356L8.51039 9.36095C8.44085 9.35961 8.37172 9.3715 8.30695 9.39596C8.24217 9.42041 8.18302 9.45694 8.13287 9.50347C8.08272 9.55 8.04254 9.60561 8.01465 9.66712C7.98675 9.72864 7.97168 9.79486 7.97029 9.862C7.9689 9.92914 7.98122 9.99589 8.00655 10.0584C8.03187 10.121 8.06971 10.1781 8.11789 10.2265C8.16608 10.2749 8.22367 10.3137 8.28738 10.3407C8.35109 10.3676 8.41967 10.3822 8.48921 10.3835L12.4578 10.4581C12.5274 10.4595 12.5965 10.4475 12.6613 10.423C12.726 10.3986 12.7852 10.362 12.8353 10.3154C12.8854 10.2689 12.9256 10.2133 12.9534 10.1517C12.9813 10.0902 12.9963 10.024 12.9977 9.95684C12.999 9.8897 12.9867 9.82296 12.9613 9.76043C12.936 9.6979 12.8981 9.6408 12.8499 9.5924C12.8017 9.54399 12.7441 9.50523 12.6803 9.47833C12.6166 9.45143 12.548 9.43691 12.4785 9.4356Z" fill="#9C81F2"/>
<g filter="url(#filter0_d_1232_28338)">
<path fill-rule="evenodd" clip-rule="evenodd" d="M8.18225 1.00005C8.04364 0.99814 7.90979 1.04879 7.80943 1.14111L1.16415 7.25188C1.11226 7.29964 1.07096 7.35708 1.04274 7.4207C1.01453 7.48433 0.999986 7.55283 1 7.62205V10.1498C0.99997 10.2836 1.05423 10.412 1.15114 10.5076C1.24805 10.6032 1.37989 10.6583 1.51839 10.6611L4.09601 10.7142C4.10336 10.7144 4.1107 10.7144 4.11803 10.7142L11.5273 4.56392C11.5314 4.55651 11.5353 4.54899 11.5391 4.54138C11.5701 4.47829 11.5874 4.40973 11.59 4.33993C11.5925 4.27013 11.5802 4.20057 11.5538 4.13554C11.5274 4.07051 11.4875 4.01139 11.4365 3.96182L8.55074 1.15134C8.45315 1.05628 8.32085 1.00196 8.18225 1.00005ZM2.58275 11.9886L2.0553 11.9924C1.91487 11.9935 1.78061 12.0483 1.68205 12.1449C1.58349 12.2415 1.52872 12.3719 1.52977 12.5075C1.53055 12.6083 1.56213 12.7058 1.61938 12.7883L2.58275 11.9886ZM1.70932 12.8874H12.6934C12.6223 12.9214 12.5435 12.9398 12.4627 12.9403L2.06325 13.015C1.93271 13.0159 1.80678 12.9703 1.70932 12.8874ZM2.05901 7.84087L8.1642 2.22706L10.288 4.29569L3.91228 9.6876L2.05901 9.64926V7.84087Z" fill="url(#paint0_linear_1232_28338)" shape-rendering="crispEdges"/>
</g>
<defs>
<filter id="filter0_d_1232_28338" x="0" y="0" width="15.6953" height="16.0146" filterUnits="userSpaceOnUse" color-interpolation-filters="sRGB">
<feFlood flood-opacity="0" result="BackgroundImageFix"/>
<feColorMatrix in="SourceAlpha" type="matrix" values="0 0 0 0 0 0 0 0 0 0 0 0 0 0 0 0 0 0 127 0" result="hardAlpha"/>
<feOffset dx="1" dy="1"/>
<feGaussianBlur stdDeviation="1"/>
<feComposite in2="hardAlpha" operator="out"/>
<feColorMatrix type="matrix" values="0 0 0 0 0 0 0 0 0 0 0 0 0 0 0 0 0 0 0.57 0"/>
<feBlend mode="normal" in2="BackgroundImageFix" result="effect1_dropShadow_1232_28338"/>
<feBlend mode="normal" in="SourceGraphic" in2="effect1_dropShadow_1232_28338" result="shape"/>
</filter>
<linearGradient id="paint0_linear_1232_28338" x1="5.41664" y1="5.005" x2="8.40607" y2="8.30169" gradientUnits="userSpaceOnUse">
<stop stop-color="#9C81F2"/>
<stop offset="1" stop-color="white" stop-opacity="0.9"/>
</linearGradient>
</defs>
</svg>
