<svg width="23" height="22" viewBox="0 0 23 22" fill="none" xmlns="http://www.w3.org/2000/svg">
<g opacity="0.85">
<g filter="url(#filter0_d_1336_7614)">
<path fill-rule="evenodd" clip-rule="evenodd" d="M3.36274 18.5508H2.84744C1.83135 18.5508 1 17.7194 1 16.7033V2.84744C1 1.83135 1.83135 1 2.84744 1H19.318L18.0584 2.38559H2.84744C2.57033 2.38559 2.38559 2.57033 2.38559 2.84744V16.7033C2.38559 16.9805 2.57033 17.1652 2.84744 17.1652H4.62236L3.36274 18.5508ZM10.3323 10.8843L10.3301 10.8836C8.90295 10.3921 7.57194 9.93368 6.63162 10.5606C5.10747 11.6228 4.13756 14.3017 4.0452 14.6249C3.999 14.7173 3.999 14.7635 3.999 14.8559C3.999 15.2254 4.32232 15.5487 4.6918 15.5487C5.01511 15.5487 5.29223 15.3639 5.38459 15.0406C5.61553 14.3478 6.44688 12.3618 7.41679 11.7152C7.72839 11.5421 8.5331 11.7583 9.30564 12.0136L10.3323 10.8843ZM6.53926 5.15676C5.75409 5.15676 5.15367 5.75718 5.15367 6.54235C5.15367 7.32753 5.75409 7.92794 6.53926 7.92794C7.32444 7.92794 7.92485 7.32751 7.92485 6.54235C7.92485 5.7572 7.32441 5.15676 6.53926 5.15676Z" fill="url(#paint0_linear_1336_7614)" shape-rendering="crispEdges"/>
</g>
<path fill-rule="evenodd" clip-rule="evenodd" d="M1.00164 2.76928C1.00055 2.7952 1 2.82126 1 2.84744V16.7033C1 16.7295 1.00055 16.7556 1.00164 16.7815V2.76928ZM3.36274 18.5508H19.4745C20.4906 18.5508 21.322 17.7194 21.322 16.7033V2.84744C21.322 1.83135 20.4906 1 19.4745 1H19.318L18.0584 2.38559H19.4745C19.7516 2.38559 19.9364 2.57033 19.9364 2.84744V16.7033C19.9364 16.9805 19.7516 17.1652 19.4745 17.1652H4.62236L3.36274 18.5508ZM9.30564 12.0136C9.5397 12.0909 9.77081 12.1719 9.98435 12.2467L10.0494 12.2694L10.1844 12.3159C11.6115 12.8074 12.9425 13.2658 13.8829 12.6389C14.824 12.0115 14.9824 10.9493 15.1175 10.0429L15.1299 9.96013C15.1406 9.89951 15.151 9.83916 15.1614 9.77918L15.1615 9.77871L15.1615 9.7787C15.2853 9.06194 15.4002 8.39667 15.8689 7.92794C16.3769 7.41989 17.0235 7.14277 17.7163 7.14277C18.0858 7.09659 18.3629 6.77327 18.3629 6.40379C18.3168 6.0343 17.9934 5.75718 17.624 5.75718C16.5617 5.80336 15.5918 6.21903 14.8528 6.95803C14.0767 7.77724 13.9044 8.83796 13.7722 9.65171C13.7627 9.70964 13.7535 9.76632 13.7443 9.82157L13.7362 9.87041C13.602 10.6764 13.5052 11.2579 13.0977 11.4843C12.6916 11.7099 11.4482 11.2744 10.5298 10.9527L10.4651 10.93L10.3323 10.8843L9.30564 12.0136Z" fill="#9C81F2"/>
</g>
<defs>
<filter id="filter0_d_1336_7614" x="0" y="0" width="22.3203" height="21.5508" filterUnits="userSpaceOnUse" color-interpolation-filters="sRGB">
<feFlood flood-opacity="0" result="BackgroundImageFix"/>
<feColorMatrix in="SourceAlpha" type="matrix" values="0 0 0 0 0 0 0 0 0 0 0 0 0 0 0 0 0 0 127 0" result="hardAlpha"/>
<feOffset dx="1" dy="1"/>
<feGaussianBlur stdDeviation="1"/>
<feComposite in2="hardAlpha" operator="out"/>
<feColorMatrix type="matrix" values="0 0 0 0 0 0 0 0 0 0 0 0 0 0 0 0 0 0 0.57 0"/>
<feBlend mode="normal" in2="BackgroundImageFix" result="effect1_dropShadow_1336_7614"/>
<feBlend mode="normal" in="SourceGraphic" in2="effect1_dropShadow_1336_7614" result="shape"/>
</filter>
<linearGradient id="paint0_linear_1336_7614" x1="4.7118" y1="3.65105" x2="10.544" y2="10.5443" gradientUnits="userSpaceOnUse">
<stop stop-color="#9C81F2"/>
<stop offset="1" stop-color="white" stop-opacity="0.9"/>
</linearGradient>
</defs>
</svg>
