<svg width="626" height="28" viewBox="0 0 626 28" fill="none" xmlns="http://www.w3.org/2000/svg">
<mask id="path-1-outside-1_752_2" maskUnits="userSpaceOnUse" x="0" y="0" width="626" height="28" fill="black">
<rect fill="white" width="626" height="28"/>
<path d="M0 10C0 4.47715 4.47715 0 10 0H616C621.523 0 626 4.47715 626 10V27H0V10Z"/>
</mask>
<path d="M0 10C0 4.47715 4.47715 0 10 0H616C621.523 0 626 4.47715 626 10V27H0V10Z" fill="#2A2D38"/>
<path d="M0 0H626H0ZM626 27.6H0V26.4H626V27.6ZM0 27V0V27ZM626 0V27V0Z" fill="#61646C" fill-opacity="0.3" mask="url(#path-1-outside-1_752_2)"/>
<circle cx="13.4969" cy="13.5009" r="5.3" transform="rotate(-45 13.4969 13.5009)" fill="#FF544D" stroke="#DE3830" stroke-width="0.4"/>
<circle cx="30.5" cy="13.5009" r="5.3" fill="#FEB429" stroke="#DF9D2A" stroke-width="0.4"/>
<circle cx="47.5" cy="13.5009" r="5.3" fill="#24C138" stroke="#25A938" stroke-width="0.4"/>
<g clip-path="url(#clip0_752_2)">
<path d="M46.9167 12.9175H44.5848C44.5081 12.9174 44.4321 12.9324 44.3612 12.9617C44.2903 12.9909 44.2258 13.0339 44.1715 13.088C44.1172 13.1422 44.0741 13.2065 44.0447 13.2774C44.0153 13.3482 44.0001 13.4241 44 13.5009C44 13.8252 44.2619 14.0842 44.5848 14.0842H46.9167V16.4161C46.9167 16.7392 47.1777 17.0009 47.5 17.0009C47.8243 17.0009 48.0833 16.7389 48.0833 16.4161V14.0842H50.4152C50.4919 14.0843 50.5679 14.0693 50.6388 14.04C50.7097 14.0108 50.7742 13.9678 50.8285 13.9137C50.8828 13.8595 50.9259 13.7952 50.9553 13.7243C50.9847 13.6535 50.9999 13.5776 51 13.5009C51 13.1765 50.7381 12.9175 50.4152 12.9175H48.0833V10.5856C48.0834 10.5089 48.0684 10.433 48.0392 10.3621C48.0099 10.2911 47.967 10.2267 47.9128 10.1724C47.8587 10.1181 47.7943 10.075 47.7235 10.0456C47.6526 10.0161 47.5767 10.0009 47.5 10.0009C47.1757 10.0009 46.9167 10.2628 46.9167 10.5856V12.9175Z" fill="#005700"/>
</g>
<path d="M12.6717 13.5004L11.0228 15.1493C10.9685 15.2034 10.9253 15.2677 10.8959 15.3386C10.8664 15.4094 10.8512 15.4853 10.8511 15.562C10.851 15.6387 10.8661 15.7147 10.8953 15.7856C10.9246 15.8565 10.9676 15.9209 11.0217 15.9752C11.2511 16.2046 11.6194 16.2025 11.8477 15.9742L13.4966 14.3253L15.1455 15.9742C15.374 16.2027 15.7436 16.2031 15.9715 15.9752C16.2008 15.7459 16.1988 15.3776 15.9705 15.1493L14.3216 13.5004L15.9705 11.8515C16.0248 11.7973 16.0679 11.733 16.0974 11.6622C16.1268 11.5913 16.142 11.5154 16.1421 11.4387C16.1422 11.362 16.1272 11.286 16.0979 11.2151C16.0686 11.1442 16.0257 11.0798 15.9715 11.0255C15.7422 10.7962 15.3738 10.7982 15.1455 11.0265L13.4966 12.6754L11.8477 11.0265C11.7936 10.9722 11.7293 10.9291 11.6584 10.8996C11.5876 10.8702 11.5117 10.855 11.435 10.8549C11.3583 10.8548 11.2823 10.8698 11.2114 10.8991C11.1405 10.9284 11.076 10.9713 11.0217 11.0255C10.7924 11.2548 10.7945 11.6232 11.0228 11.8515L12.6717 13.5004Z" fill="#8E0000"/>
<path d="M28.0217 14.0108C27.8884 14.0076 27.7617 13.9525 27.6686 13.8571C27.5756 13.7618 27.5234 13.6338 27.5234 13.5005C27.5234 13.3673 27.5756 13.2393 27.6686 13.144C27.7617 13.0486 27.8884 12.9934 28.0217 12.9903H32.98C33.1132 12.9934 33.2399 13.0486 33.333 13.144C33.4261 13.2393 33.4782 13.3673 33.4782 13.5005C33.4782 13.6338 33.4261 13.7618 33.333 13.8571C33.2399 13.9525 33.1132 14.0076 32.98 14.0108H28.0217Z" fill="#8D4C00"/>
<defs>
<clipPath id="clip0_752_2">
<rect width="7" height="7" fill="white" transform="translate(44 10.0009)"/>
</clipPath>
</defs>
</svg>
