<svg width="159" height="21" viewBox="0 0 159 21" fill="none" xmlns="http://www.w3.org/2000/svg">
<g clip-path="url(#clip0_1336_4390)">
<path d="M0 4C0 1.79086 1.79086 0 4 0H55V21H4C1.79086 21 0 19.2091 0 17V4Z" fill="#2A2D38" fill-opacity="0.5"/>
<path d="M0 4C0 1.79086 1.79086 0 4 0H55V21H4C1.79086 21 0 19.2091 0 17V4Z" fill="#F5857A" fill-opacity="0.08"/>
<path d="M0.4 4C0.4 2.01177 2.01177 0.4 4 0.4H155C156.988 0.4 158.6 2.01178 158.6 4V17C158.6 18.9882 156.988 20.6 155 20.6H4C2.01177 20.6 0.4 18.9882 0.4 17V4Z" stroke="url(#paint0_linear_1336_4390)" stroke-width="0.8"/>
<line x1="54.5" y1="1" x2="54.5" y2="20" stroke="#C5C6C9" stroke-dasharray="3 3"/>
<rect x="3" width="55" height="0.8" fill="url(#paint1_radial_1336_4390)"/>
<path d="M60 9.5C60 16.4036 42.5391 22 21 22C-0.539104 22 -18 16.4036 -18 9.5C-18 2.59644 -0.539104 -3 21 -3C42.5391 -3 60 2.59644 60 9.5Z" fill="url(#paint2_radial_1336_4390)"/>
<path d="M85 1C85 3.20914 64.4051 5 39 5C13.5949 5 -7 3.20914 -7 1C-7 -1.20914 13.5949 -3 39 -3C64.4051 -3 85 -1.20914 85 1Z" fill="url(#paint3_radial_1336_4390)"/>
<path d="M7.74219 14V6.8418H9.16797L10.8623 11.9102C11.0186 12.3822 11.1325 12.7354 11.2041 12.9697C11.2855 12.7093 11.4124 12.3268 11.585 11.8223L13.2988 6.8418H14.5732V14H13.6602V8.00879L11.5801 14H10.7256L8.65527 7.90625V14H7.74219ZM19.373 13.3604C19.0475 13.637 18.7334 13.8324 18.4307 13.9463C18.1312 14.0602 17.8089 14.1172 17.4639 14.1172C16.8942 14.1172 16.4564 13.9788 16.1504 13.7021C15.8444 13.4222 15.6914 13.0658 15.6914 12.6328C15.6914 12.3789 15.7484 12.1478 15.8623 11.9395C15.9795 11.7279 16.1309 11.5586 16.3164 11.4316C16.5052 11.3047 16.7168 11.2087 16.9512 11.1436C17.1237 11.098 17.3841 11.054 17.7324 11.0117C18.4421 10.9271 18.9645 10.8262 19.2998 10.709C19.3031 10.5885 19.3047 10.512 19.3047 10.4795C19.3047 10.1214 19.2217 9.86914 19.0557 9.72266C18.8311 9.52409 18.4974 9.4248 18.0547 9.4248C17.6413 9.4248 17.3353 9.49805 17.1367 9.64453C16.9414 9.78776 16.7965 10.0433 16.7021 10.4111L15.8428 10.2939C15.9209 9.92611 16.0495 9.62988 16.2285 9.40527C16.4076 9.17741 16.6663 9.00326 17.0049 8.88281C17.3434 8.75911 17.7357 8.69727 18.1816 8.69727C18.6243 8.69727 18.984 8.74935 19.2607 8.85352C19.5374 8.95768 19.7409 9.08952 19.8711 9.24902C20.0013 9.40527 20.0924 9.60384 20.1445 9.84473C20.1738 9.99447 20.1885 10.2646 20.1885 10.6553V11.8271C20.1885 12.6442 20.2064 13.1618 20.2422 13.3799C20.2812 13.5947 20.3561 13.8014 20.4668 14H19.5488C19.4577 13.8177 19.3991 13.6045 19.373 13.3604ZM19.2998 11.3975C18.9808 11.5277 18.5023 11.6383 17.8643 11.7295C17.5029 11.7816 17.2474 11.8402 17.0977 11.9053C16.9479 11.9704 16.8324 12.0664 16.751 12.1934C16.6696 12.3171 16.6289 12.4554 16.6289 12.6084C16.6289 12.8428 16.7168 13.0381 16.8926 13.1943C17.0716 13.3506 17.332 13.4287 17.6738 13.4287C18.0124 13.4287 18.3135 13.3555 18.5771 13.209C18.8408 13.0592 19.0345 12.8558 19.1582 12.5986C19.2526 12.4001 19.2998 12.1071 19.2998 11.7197V11.3975ZM20.9697 14L22.8643 11.3047L21.1113 8.81445H22.21L23.0059 10.0303C23.1556 10.2614 23.276 10.4551 23.3672 10.6113C23.5104 10.3965 23.6423 10.2061 23.7627 10.04L24.6367 8.81445H25.6865L23.8945 11.2559L25.8232 14H24.7441L23.6797 12.3887L23.3965 11.9541L22.0342 14H20.9697ZM26.5605 7.85254V6.8418H27.4395V7.85254H26.5605ZM26.5605 14V8.81445H27.4395V14H26.5605ZM28.7822 14V8.81445H29.5684V9.54199C29.7311 9.28809 29.9476 9.08464 30.2178 8.93164C30.488 8.77539 30.7956 8.69727 31.1406 8.69727C31.5247 8.69727 31.8389 8.77702 32.083 8.93652C32.3304 9.09603 32.5046 9.31901 32.6055 9.60547C33.0156 9 33.5495 8.69727 34.207 8.69727C34.7214 8.69727 35.1169 8.84049 35.3936 9.12695C35.6702 9.41016 35.8086 9.84798 35.8086 10.4404V14H34.9346V10.7334C34.9346 10.3818 34.9053 10.1296 34.8467 9.97656C34.7913 9.82031 34.6888 9.69499 34.5391 9.60059C34.3893 9.50618 34.2135 9.45898 34.0117 9.45898C33.6471 9.45898 33.3444 9.58105 33.1035 9.8252C32.8626 10.0661 32.7422 10.4535 32.7422 10.9873V14H31.8633V10.6309C31.8633 10.2402 31.7917 9.94727 31.6484 9.75195C31.5052 9.55664 31.2708 9.45898 30.9453 9.45898C30.6979 9.45898 30.4684 9.52409 30.2568 9.6543C30.0485 9.78451 29.8971 9.97493 29.8027 10.2256C29.7083 10.4762 29.6611 10.8376 29.6611 11.3096V14H28.7822ZM40.5107 14V13.2383C40.1071 13.8242 39.5586 14.1172 38.8652 14.1172C38.5592 14.1172 38.2728 14.0586 38.0059 13.9414C37.7422 13.8242 37.5452 13.6777 37.415 13.502C37.2881 13.3229 37.1986 13.1048 37.1465 12.8477C37.1107 12.6751 37.0928 12.4017 37.0928 12.0273V8.81445H37.9717V11.6904C37.9717 12.1494 37.9896 12.4587 38.0254 12.6182C38.0807 12.8493 38.1979 13.0316 38.377 13.165C38.556 13.2952 38.7773 13.3604 39.041 13.3604C39.3047 13.3604 39.5521 13.2936 39.7832 13.1602C40.0143 13.0234 40.1771 12.8395 40.2715 12.6084C40.3691 12.374 40.418 12.0355 40.418 11.5928V8.81445H41.2969V14H40.5107ZM42.6787 14V8.81445H43.4648V9.54199C43.6276 9.28809 43.8441 9.08464 44.1143 8.93164C44.3844 8.77539 44.6921 8.69727 45.0371 8.69727C45.4212 8.69727 45.7354 8.77702 45.9795 8.93652C46.2269 9.09603 46.401 9.31901 46.502 9.60547C46.9121 9 47.446 8.69727 48.1035 8.69727C48.6178 8.69727 49.0133 8.84049 49.29 9.12695C49.5667 9.41016 49.7051 9.84798 49.7051 10.4404V14H48.8311V10.7334C48.8311 10.3818 48.8018 10.1296 48.7432 9.97656C48.6878 9.82031 48.5853 9.69499 48.4355 9.60059C48.2858 9.50618 48.11 9.45898 47.9082 9.45898C47.5436 9.45898 47.2409 9.58105 47 9.8252C46.7591 10.0661 46.6387 10.4535 46.6387 10.9873V14H45.7598V10.6309C45.7598 10.2402 45.6882 9.94727 45.5449 9.75195C45.4017 9.55664 45.1673 9.45898 44.8418 9.45898C44.5944 9.45898 44.3649 9.52409 44.1533 9.6543C43.945 9.78451 43.7936 9.97493 43.6992 10.2256C43.6048 10.4762 43.5576 10.8376 43.5576 11.3096V14H42.6787Z" fill="#C5C6C9"/>
</g>
<defs>
<linearGradient id="paint0_linear_1336_4390" x1="0" y1="10.5" x2="159" y2="10.5" gradientUnits="userSpaceOnUse">
<stop stop-color="white" stop-opacity="0.8"/>
<stop offset="1" stop-color="#9C81F2"/>
</linearGradient>
<radialGradient id="paint1_radial_1336_4390" cx="0" cy="0" r="1" gradientUnits="userSpaceOnUse" gradientTransform="translate(30.5 0.40001) scale(26.7143 373.417)">
<stop stop-color="white" stop-opacity="0.7"/>
<stop offset="1" stop-color="white" stop-opacity="0"/>
<stop offset="1" stop-color="white" stop-opacity="0"/>
</radialGradient>
<radialGradient id="paint2_radial_1336_4390" cx="0" cy="0" r="1" gradientUnits="userSpaceOnUse" gradientTransform="translate(18.809 11.2442) rotate(97.7451) scale(9.75469 29.8971)">
<stop stop-color="#121212" stop-opacity="0.5"/>
<stop offset="1" stop-color="#121212" stop-opacity="0"/>
</radialGradient>
<radialGradient id="paint3_radial_1336_4390" cx="0" cy="0" r="1" gradientUnits="userSpaceOnUse" gradientTransform="translate(35.0571 1) rotate(90) scale(3.6 41.4)">
<stop stop-color="#9C81F2" stop-opacity="0.55"/>
<stop offset="0.0001" stop-color="#9C81F2" stop-opacity="0.13"/>
<stop offset="1" stop-color="#9C81F2" stop-opacity="0"/>
</radialGradient>
<clipPath id="clip0_1336_4390">
<rect width="159" height="21" rx="4" fill="white"/>
</clipPath>
</defs>
</svg>
