<svg width="159" height="21" viewBox="0 0 159 21" fill="none" xmlns="http://www.w3.org/2000/svg">
<g clip-path="url(#clip0_1336_4356)">
<path d="M0 4C0 1.79086 1.79086 0 4 0H55V21H4C1.79086 21 0 19.2091 0 17V4Z" fill="#2A2D38" fill-opacity="0.5"/>
<path d="M0 4C0 1.79086 1.79086 0 4 0H55V21H4C1.79086 21 0 19.2091 0 17V4Z" fill="#F5857A" fill-opacity="0.08"/>
<path d="M0.4 4C0.4 2.01177 2.01177 0.4 4 0.4H155C156.988 0.4 158.6 2.01178 158.6 4V17C158.6 18.9882 156.988 20.6 155 20.6H4C2.01177 20.6 0.4 18.9882 0.4 17V4Z" stroke="url(#paint0_linear_1336_4356)" stroke-width="0.8"/>
<line x1="54.5" y1="1" x2="54.5" y2="20" stroke="#C5C6C9" stroke-dasharray="3 3"/>
<rect x="3" width="55" height="0.8" fill="url(#paint1_radial_1336_4356)"/>
<path d="M60 9.5C60 16.4036 42.5391 22 21 22C-0.539104 22 -18 16.4036 -18 9.5C-18 2.59644 -0.539104 -3 21 -3C42.5391 -3 60 2.59644 60 9.5Z" fill="url(#paint2_radial_1336_4356)"/>
<path d="M85 1C85 3.20914 64.4051 5 39 5C13.5949 5 -7 3.20914 -7 1C-7 -1.20914 13.5949 -3 39 -3C64.4051 -3 85 -1.20914 85 1Z" fill="url(#paint3_radial_1336_4356)"/>
<path d="M7.74219 14V6.8418H9.16797L10.8623 11.9102C11.0186 12.3822 11.1325 12.7354 11.2041 12.9697C11.2855 12.7093 11.4124 12.3268 11.585 11.8223L13.2988 6.8418H14.5732V14H13.6602V8.00879L11.5801 14H10.7256L8.65527 7.90625V14H7.74219ZM15.9941 7.85254V6.8418H16.873V7.85254H15.9941ZM15.9941 14V8.81445H16.873V14H15.9941ZM18.2158 14V8.81445H19.0068V9.55176C19.3877 8.9821 19.9378 8.69727 20.6572 8.69727C20.9697 8.69727 21.2562 8.75423 21.5166 8.86816C21.7803 8.97884 21.9772 9.12533 22.1074 9.30762C22.2376 9.48991 22.3288 9.70638 22.3809 9.95703C22.4134 10.1198 22.4297 10.4046 22.4297 10.8115V14H21.5508V10.8457C21.5508 10.4876 21.5166 10.2207 21.4482 10.0449C21.3799 9.86589 21.2578 9.72428 21.082 9.62012C20.9095 9.5127 20.7061 9.45898 20.4717 9.45898C20.0973 9.45898 19.7734 9.5778 19.5 9.81543C19.2298 10.0531 19.0947 10.5039 19.0947 11.168V14H18.2158ZM23.7871 7.85254V6.8418H24.666V7.85254H23.7871ZM23.7871 14V8.81445H24.666V14H23.7871ZM26.0088 14V8.81445H26.7949V9.54199C26.9577 9.28809 27.1742 9.08464 27.4443 8.93164C27.7145 8.77539 28.0221 8.69727 28.3672 8.69727C28.7513 8.69727 29.0654 8.77702 29.3096 8.93652C29.557 9.09603 29.7311 9.31901 29.832 9.60547C30.2422 9 30.776 8.69727 31.4336 8.69727C31.9479 8.69727 32.3434 8.84049 32.6201 9.12695C32.8968 9.41016 33.0352 9.84798 33.0352 10.4404V14H32.1611V10.7334C32.1611 10.3818 32.1318 10.1296 32.0732 9.97656C32.0179 9.82031 31.9154 9.69499 31.7656 9.60059C31.6159 9.50618 31.4401 9.45898 31.2383 9.45898C30.8737 9.45898 30.571 9.58105 30.3301 9.8252C30.0892 10.0661 29.9688 10.4535 29.9688 10.9873V14H29.0898V10.6309C29.0898 10.2402 29.0182 9.94727 28.875 9.75195C28.7318 9.55664 28.4974 9.45898 28.1719 9.45898C27.9245 9.45898 27.695 9.52409 27.4834 9.6543C27.2751 9.78451 27.1237 9.97493 27.0293 10.2256C26.9349 10.4762 26.8877 10.8376 26.8877 11.3096V14H26.0088ZM37.7373 14V13.2383C37.3337 13.8242 36.7852 14.1172 36.0918 14.1172C35.7858 14.1172 35.4993 14.0586 35.2324 13.9414C34.9688 13.8242 34.7718 13.6777 34.6416 13.502C34.5146 13.3229 34.4251 13.1048 34.373 12.8477C34.3372 12.6751 34.3193 12.4017 34.3193 12.0273V8.81445H35.1982V11.6904C35.1982 12.1494 35.2161 12.4587 35.252 12.6182C35.3073 12.8493 35.4245 13.0316 35.6035 13.165C35.7826 13.2952 36.0039 13.3604 36.2676 13.3604C36.5312 13.3604 36.7786 13.2936 37.0098 13.1602C37.2409 13.0234 37.4036 12.8395 37.498 12.6084C37.5957 12.374 37.6445 12.0355 37.6445 11.5928V8.81445H38.5234V14H37.7373ZM39.9053 14V8.81445H40.6914V9.54199C40.8542 9.28809 41.0706 9.08464 41.3408 8.93164C41.611 8.77539 41.9186 8.69727 42.2637 8.69727C42.6478 8.69727 42.9619 8.77702 43.2061 8.93652C43.4535 9.09603 43.6276 9.31901 43.7285 9.60547C44.1387 9 44.6725 8.69727 45.3301 8.69727C45.8444 8.69727 46.2399 8.84049 46.5166 9.12695C46.7933 9.41016 46.9316 9.84798 46.9316 10.4404V14H46.0576V10.7334C46.0576 10.3818 46.0283 10.1296 45.9697 9.97656C45.9144 9.82031 45.8118 9.69499 45.6621 9.60059C45.5124 9.50618 45.3366 9.45898 45.1348 9.45898C44.7702 9.45898 44.4674 9.58105 44.2266 9.8252C43.9857 10.0661 43.8652 10.4535 43.8652 10.9873V14H42.9863V10.6309C42.9863 10.2402 42.9147 9.94727 42.7715 9.75195C42.6283 9.55664 42.3939 9.45898 42.0684 9.45898C41.821 9.45898 41.5915 9.52409 41.3799 9.6543C41.1715 9.78451 41.0202 9.97493 40.9258 10.2256C40.8314 10.4762 40.7842 10.8376 40.7842 11.3096V14H39.9053Z" fill="#C5C6C9"/>
</g>
<defs>
<linearGradient id="paint0_linear_1336_4356" x1="0" y1="10.5" x2="159" y2="10.5" gradientUnits="userSpaceOnUse">
<stop stop-color="white" stop-opacity="0.8"/>
<stop offset="1" stop-color="#9C81F2"/>
</linearGradient>
<radialGradient id="paint1_radial_1336_4356" cx="0" cy="0" r="1" gradientUnits="userSpaceOnUse" gradientTransform="translate(30.5 0.40001) scale(26.7143 373.417)">
<stop stop-color="white" stop-opacity="0.7"/>
<stop offset="1" stop-color="white" stop-opacity="0"/>
<stop offset="1" stop-color="white" stop-opacity="0"/>
</radialGradient>
<radialGradient id="paint2_radial_1336_4356" cx="0" cy="0" r="1" gradientUnits="userSpaceOnUse" gradientTransform="translate(18.809 11.2442) rotate(97.7451) scale(9.75469 29.8971)">
<stop stop-color="#121212" stop-opacity="0.5"/>
<stop offset="1" stop-color="#121212" stop-opacity="0"/>
</radialGradient>
<radialGradient id="paint3_radial_1336_4356" cx="0" cy="0" r="1" gradientUnits="userSpaceOnUse" gradientTransform="translate(35.0571 1) rotate(90) scale(3.6 41.4)">
<stop stop-color="#9C81F2" stop-opacity="0.55"/>
<stop offset="0.0001" stop-color="#9C81F2" stop-opacity="0.13"/>
<stop offset="1" stop-color="#9C81F2" stop-opacity="0"/>
</radialGradient>
<clipPath id="clip0_1336_4356">
<rect width="159" height="21" rx="4" fill="white"/>
</clipPath>
</defs>
</svg>
