<svg width="123" height="21" viewBox="0 0 123 21" fill="none" xmlns="http://www.w3.org/2000/svg">
<path d="M43.9408 5.25L45.2679 1.75L45.7355 1.92727L46.2767 0.5H47.9613V0H52.0209V0.5H56.0806V0H60.1402V0.5H64.1998V0H68.2594V0.5H72.319V0H76.3786V0.5H80.4382V0H84.4978V0.5H88.5574V0H92.6171V0.5H96.6767V0H100.736V0.5H104.796V0H108.856V0.5H112.915V0H116.975V0.5H119.005C119.48 0.5 119.932 0.594543 120.344 0.765386L120.536 0.303522C121.513 0.708984 122.296 1.49109 122.701 2.46885L122.239 2.66038C122.41 3.07236 122.505 3.52451 122.505 4V5.625H123.005V8.875H122.505V12.125H123.005V15.375H122.505V17C122.505 17.4755 122.41 17.9276 122.239 18.3396L122.701 18.5312C122.296 19.5089 121.513 20.291 120.536 20.6965L120.344 20.2346C119.932 20.4055 119.48 20.5 119.005 20.5H116.979V21H112.927V20.5H108.875V21H104.823V20.5H100.771V21H96.7197V20.5H92.6679V21H88.6161V20.5H84.5643V21H80.5125V20.5H76.4608V21H72.409V20.5H68.3572V21H64.3054V20.5H60.2536V21H56.2018V20.5H52.15V21H48.0982V20.5H44.0464V21H39.9946V20.5H38.6931L39.0998 19.4273L38.6323 19.25L39.9594 15.75L40.427 15.9273L41.7541 12.4273L41.2866 12.25L42.6137 8.75L43.0812 8.92727L44.4083 5.42727L43.9408 5.25Z" stroke="#C4C6CA" stroke-dasharray="4 4"/>
<g clip-path="url(#clip0_1336_14544)">
<path d="M0 4C0 1.79086 1.79086 0 4 0H47L39.0339 21H4C1.79086 21 0 19.2091 0 17V4Z" fill="#2A2D38" fill-opacity="0.5"/>
<path d="M0.5 4C0.5 2.067 2.067 0.5 4 0.5H46.2756L38.6888 20.5H4C2.067 20.5 0.5 18.933 0.5 17V4Z" fill="#9D7FF5" fill-opacity="0.15" stroke="url(#paint0_linear_1336_14544)"/>
<ellipse cx="21.5" cy="11" rx="25.5" ry="12" fill="url(#paint1_radial_1336_14544)"/>
<rect x="4" width="35" height="1" fill="url(#paint2_radial_1336_14544)"/>
<ellipse cx="17.5" rx="17.5" ry="4" fill="url(#paint3_radial_1336_14544)"/>
</g>
<defs>
<linearGradient id="paint0_linear_1336_14544" x1="41.0626" y1="17.4747" x2="6.91343" y2="-0.373889" gradientUnits="userSpaceOnUse">
<stop stop-color="#9D7FF5"/>
<stop offset="1" stop-color="white" stop-opacity="0.9"/>
</linearGradient>
<radialGradient id="paint1_radial_1336_14544" cx="0" cy="0" r="1" gradientUnits="userSpaceOnUse" gradientTransform="translate(21.5 11) rotate(90) scale(12 25.5)">
<stop stop-color="#121212"/>
<stop offset="1" stop-color="#121212" stop-opacity="0"/>
</radialGradient>
<radialGradient id="paint2_radial_1336_14544" cx="0" cy="0" r="1" gradientUnits="userSpaceOnUse" gradientTransform="translate(21.5 0.5) scale(18.629 511.5)">
<stop stop-color="white" stop-opacity="0.9"/>
<stop offset="1" stop-color="white" stop-opacity="0"/>
</radialGradient>
<radialGradient id="paint3_radial_1336_14544" cx="0" cy="0" r="1" gradientUnits="userSpaceOnUse" gradientTransform="translate(17.5) rotate(90) scale(4 17.5)">
<stop stop-color="#FA7C70" stop-opacity="0.21"/>
<stop offset="1" stop-color="#FA7C70" stop-opacity="0"/>
</radialGradient>
<clipPath id="clip0_1336_14544">
<rect width="49.7634" height="21" fill="white"/>
</clipPath>
</defs>
</svg>
