<svg width="159" height="21" viewBox="0 0 159 21" fill="none" xmlns="http://www.w3.org/2000/svg">
<path d="M73.207 5.25L75.293 1.75L75.7225 2.00598L76.62 0.5H78.3026V0H82.2359V0.5H86.1692V0H90.1026V0.5H94.0359V0H97.9692V0.5H101.903V0H105.836V0.5H109.769V0H113.703V0.5H117.636V0H121.569V0.5H125.503V0H129.436V0.5H133.369V0H137.302V0.5H141.236V0H145.169V0.5H149.102V0H153.036V0.5H155.002C155.478 0.5 155.93 0.594543 156.342 0.765386L156.534 0.303522C157.511 0.708984 158.293 1.49109 158.699 2.46885L158.237 2.66038C158.408 3.07236 158.502 3.52451 158.502 4V5.625H159.002V8.875H158.502V12.125H159.002V15.375H158.502V17C158.502 17.4755 158.408 17.9276 158.237 18.3396L158.699 18.5312C158.293 19.5089 157.511 20.291 156.534 20.6965L156.342 20.2346C155.93 20.4055 155.478 20.5 155.002 20.5H152.93V21H148.786V20.5H144.641V21H140.496V20.5H136.352V21H132.207V20.5H128.062V21H123.918V20.5H119.773V21H115.628V20.5H111.484V21H107.339V20.5H103.194V21H99.0498V20.5H94.9051V21H90.7605V20.5H86.6159V21H82.4712V20.5H78.3266V21H74.1819V20.5H70.0373V21H65.8926V20.5H64.7004L65.2928 19.506L64.8633 19.25L66.9492 15.75L67.3787 16.006L69.4647 12.506L69.0352 12.25L71.1211 8.75L71.5506 9.00598L73.6365 5.50598L73.207 5.25Z" stroke="#C4C6CA" stroke-dasharray="4 4"/>
<g clip-path="url(#clip0_1336_13928)">
<path d="M0 4C0 1.79086 1.79086 0 4 0H77.5L64.7202 21H4C1.79086 21 0 19.2091 0 17V4Z" fill="#2A2D38" fill-opacity="0.5"/>
<path d="M0.5 4C0.5 2.067 2.067 0.5 4 0.5H76.6205L64.7157 20.5H4C2.067 20.5 0.5 18.933 0.5 17V4Z" fill="#9D7FF5" fill-opacity="0.15" stroke="url(#paint0_linear_1336_13928)"/>
<ellipse cx="36" cy="11" rx="40" ry="12" fill="url(#paint1_radial_1336_13928)"/>
<path d="M9.77148 14V6.8418H12.4717C12.9469 6.8418 13.3099 6.86458 13.5605 6.91016C13.9121 6.96875 14.2067 7.08105 14.4443 7.24707C14.682 7.40983 14.8724 7.63932 15.0156 7.93555C15.1621 8.23177 15.2354 8.55729 15.2354 8.91211C15.2354 9.52083 15.0417 10.0368 14.6543 10.46C14.2669 10.8799 13.5671 11.0898 12.5547 11.0898H10.7188V14H9.77148ZM10.7188 10.2451H12.5693C13.1813 10.2451 13.6159 10.1312 13.873 9.90332C14.1302 9.67546 14.2588 9.35482 14.2588 8.94141C14.2588 8.64193 14.1823 8.38639 14.0293 8.1748C13.8796 7.95996 13.681 7.81836 13.4336 7.75C13.2741 7.70768 12.9795 7.68652 12.5498 7.68652H10.7188V10.2451ZM16.3096 14V6.8418H17.1885V14H16.3096ZM21.9395 13.3604C21.6139 13.637 21.2998 13.8324 20.9971 13.9463C20.6976 14.0602 20.3753 14.1172 20.0303 14.1172C19.4606 14.1172 19.0228 13.9788 18.7168 13.7021C18.4108 13.4222 18.2578 13.0658 18.2578 12.6328C18.2578 12.3789 18.3148 12.1478 18.4287 11.9395C18.5459 11.7279 18.6973 11.5586 18.8828 11.4316C19.0716 11.3047 19.2832 11.2087 19.5176 11.1436C19.6901 11.098 19.9505 11.054 20.2988 11.0117C21.0085 10.9271 21.5309 10.8262 21.8662 10.709C21.8695 10.5885 21.8711 10.512 21.8711 10.4795C21.8711 10.1214 21.7881 9.86914 21.6221 9.72266C21.3975 9.52409 21.0638 9.4248 20.6211 9.4248C20.2077 9.4248 19.9017 9.49805 19.7031 9.64453C19.5078 9.78776 19.363 10.0433 19.2686 10.4111L18.4092 10.2939C18.4873 9.92611 18.6159 9.62988 18.7949 9.40527C18.974 9.17741 19.2327 9.00326 19.5713 8.88281C19.9098 8.75911 20.3021 8.69727 20.748 8.69727C21.1908 8.69727 21.5505 8.74935 21.8271 8.85352C22.1038 8.95768 22.3073 9.08952 22.4375 9.24902C22.5677 9.40527 22.6589 9.60384 22.7109 9.84473C22.7402 9.99447 22.7549 10.2646 22.7549 10.6553V11.8271C22.7549 12.6442 22.7728 13.1618 22.8086 13.3799C22.8477 13.5947 22.9225 13.8014 23.0332 14H22.1152C22.0241 13.8177 21.9655 13.6045 21.9395 13.3604ZM21.8662 11.3975C21.5472 11.5277 21.0687 11.6383 20.4307 11.7295C20.0693 11.7816 19.8138 11.8402 19.6641 11.9053C19.5143 11.9704 19.3988 12.0664 19.3174 12.1934C19.236 12.3171 19.1953 12.4554 19.1953 12.6084C19.1953 12.8428 19.2832 13.0381 19.459 13.1943C19.638 13.3506 19.8984 13.4287 20.2402 13.4287C20.5788 13.4287 20.8799 13.3555 21.1436 13.209C21.4072 13.0592 21.6009 12.8558 21.7246 12.5986C21.819 12.4001 21.8662 12.1071 21.8662 11.7197V11.3975ZM27.5059 12.1006L28.3701 12.2129C28.2757 12.8086 28.0332 13.2757 27.6426 13.6143C27.2552 13.9495 26.7783 14.1172 26.2119 14.1172C25.5023 14.1172 24.931 13.8861 24.498 13.4238C24.0684 12.9583 23.8535 12.2926 23.8535 11.4268C23.8535 10.8669 23.9463 10.377 24.1318 9.95703C24.3174 9.53711 24.599 9.22298 24.9766 9.01465C25.3574 8.80306 25.7708 8.69727 26.2168 8.69727C26.7799 8.69727 27.2406 8.84049 27.5986 9.12695C27.9567 9.41016 28.1862 9.8138 28.2871 10.3379L27.4326 10.4697C27.3512 10.1214 27.2064 9.85938 26.998 9.68359C26.793 9.50781 26.5439 9.41992 26.251 9.41992C25.8083 9.41992 25.4486 9.57943 25.1719 9.89844C24.8952 10.2142 24.7568 10.7155 24.7568 11.4023C24.7568 12.099 24.8903 12.6051 25.1572 12.9209C25.4242 13.2367 25.7725 13.3945 26.2021 13.3945C26.5472 13.3945 26.8353 13.2887 27.0664 13.0771C27.2975 12.8656 27.444 12.54 27.5059 12.1006ZM32.6719 12.3301L33.5801 12.4424C33.4368 12.973 33.1715 13.3848 32.7842 13.6777C32.3968 13.9707 31.902 14.1172 31.2998 14.1172C30.5413 14.1172 29.9391 13.8844 29.4932 13.4189C29.0505 12.9502 28.8291 12.2943 28.8291 11.4512C28.8291 10.5788 29.0537 9.90169 29.5029 9.41992C29.9521 8.93815 30.5348 8.69727 31.251 8.69727C31.9443 8.69727 32.5107 8.93327 32.9502 9.40527C33.3896 9.87728 33.6094 10.5413 33.6094 11.3975C33.6094 11.4495 33.6077 11.5277 33.6045 11.6318H29.7373C29.7699 12.2015 29.931 12.6377 30.2207 12.9404C30.5104 13.2432 30.8717 13.3945 31.3047 13.3945C31.627 13.3945 31.902 13.3099 32.1299 13.1406C32.3577 12.9714 32.5384 12.7012 32.6719 12.3301ZM29.7861 10.9092H32.6816C32.6426 10.473 32.5319 10.1458 32.3496 9.92773C32.0697 9.58919 31.7067 9.41992 31.2607 9.41992C30.8571 9.41992 30.5169 9.55501 30.2402 9.8252C29.9668 10.0954 29.8154 10.4567 29.7861 10.9092ZM34.6885 14V6.8418H35.5674V9.41016C35.9775 8.9349 36.4951 8.69727 37.1201 8.69727C37.5042 8.69727 37.8379 8.77376 38.1211 8.92676C38.4043 9.0765 38.6061 9.28483 38.7266 9.55176C38.8503 9.81868 38.9121 10.2061 38.9121 10.7139V14H38.0332V10.7139C38.0332 10.2744 37.9372 9.9554 37.7451 9.75684C37.5563 9.55501 37.2878 9.4541 36.9395 9.4541C36.679 9.4541 36.4333 9.52246 36.2021 9.65918C35.9743 9.79264 35.8115 9.97493 35.7139 10.2061C35.6162 10.4372 35.5674 10.7562 35.5674 11.1631V14H34.6885ZM39.9277 11.4072C39.9277 10.4469 40.1947 9.73568 40.7285 9.27344C41.1745 8.88932 41.7181 8.69727 42.3594 8.69727C43.0723 8.69727 43.6549 8.93164 44.1074 9.40039C44.5599 9.86589 44.7861 10.5104 44.7861 11.334C44.7861 12.0013 44.6852 12.527 44.4834 12.9111C44.2848 13.292 43.9935 13.5882 43.6094 13.7998C43.2285 14.0114 42.8118 14.1172 42.3594 14.1172C41.6335 14.1172 41.0459 13.8844 40.5967 13.4189C40.1507 12.9535 39.9277 12.2829 39.9277 11.4072ZM40.8311 11.4072C40.8311 12.0713 40.9759 12.5693 41.2656 12.9014C41.5553 13.2301 41.9199 13.3945 42.3594 13.3945C42.7956 13.3945 43.1585 13.2285 43.4482 12.8965C43.738 12.5645 43.8828 12.0583 43.8828 11.3779C43.8828 10.7367 43.7363 10.2516 43.4434 9.92285C43.1536 9.59082 42.7923 9.4248 42.3594 9.4248C41.9199 9.4248 41.5553 9.58919 41.2656 9.91797C40.9759 10.2467 40.8311 10.7432 40.8311 11.4072ZM45.8018 14V6.8418H46.6807V14H45.8018ZM51.4121 14V13.3457C51.0833 13.86 50.5999 14.1172 49.9619 14.1172C49.5485 14.1172 49.1676 14.0033 48.8193 13.7754C48.4743 13.5475 48.2057 13.2301 48.0137 12.8232C47.8249 12.4131 47.7305 11.9427 47.7305 11.4121C47.7305 10.8945 47.8167 10.4258 47.9893 10.0059C48.1618 9.58268 48.4206 9.25879 48.7656 9.03418C49.1107 8.80957 49.4964 8.69727 49.9229 8.69727C50.2354 8.69727 50.5137 8.764 50.7578 8.89746C51.002 9.02767 51.2005 9.19857 51.3535 9.41016V6.8418H52.2275V14H51.4121ZM48.6338 11.4121C48.6338 12.0762 48.7738 12.5726 49.0537 12.9014C49.3337 13.2301 49.6641 13.3945 50.0449 13.3945C50.429 13.3945 50.7546 13.2383 51.0215 12.9258C51.2917 12.61 51.4268 12.1299 51.4268 11.4854C51.4268 10.7757 51.29 10.2549 51.0166 9.92285C50.7432 9.59082 50.4062 9.4248 50.0059 9.4248C49.6152 9.4248 49.2881 9.58431 49.0244 9.90332C48.764 10.2223 48.6338 10.7253 48.6338 11.4121ZM57.1641 12.3301L58.0723 12.4424C57.929 12.973 57.6637 13.3848 57.2764 13.6777C56.889 13.9707 56.3942 14.1172 55.792 14.1172C55.0335 14.1172 54.4313 13.8844 53.9854 13.4189C53.5426 12.9502 53.3213 12.2943 53.3213 11.4512C53.3213 10.5788 53.5459 9.90169 53.9951 9.41992C54.4443 8.93815 55.027 8.69727 55.7432 8.69727C56.4365 8.69727 57.0029 8.93327 57.4424 9.40527C57.8818 9.87728 58.1016 10.5413 58.1016 11.3975C58.1016 11.4495 58.0999 11.5277 58.0967 11.6318H54.2295C54.262 12.2015 54.4232 12.6377 54.7129 12.9404C55.0026 13.2432 55.3639 13.3945 55.7969 13.3945C56.1191 13.3945 56.3942 13.3099 56.6221 13.1406C56.8499 12.9714 57.0306 12.7012 57.1641 12.3301ZM54.2783 10.9092H57.1738C57.1348 10.473 57.0241 10.1458 56.8418 9.92773C56.5618 9.58919 56.1989 9.41992 55.7529 9.41992C55.3493 9.41992 55.0091 9.55501 54.7324 9.8252C54.459 10.0954 54.3076 10.4567 54.2783 10.9092ZM59.1709 14V8.81445H59.9619V9.60059C60.1637 9.23275 60.3493 8.99023 60.5186 8.87305C60.6911 8.75586 60.8799 8.69727 61.085 8.69727C61.3812 8.69727 61.6823 8.79167 61.9883 8.98047L61.6855 9.7959C61.4707 9.66895 61.2559 9.60547 61.041 9.60547C60.849 9.60547 60.6764 9.66406 60.5234 9.78125C60.3704 9.89518 60.2614 10.0547 60.1963 10.2598C60.0986 10.5723 60.0498 10.9141 60.0498 11.2852V14H59.1709Z" fill="#C4C6CA"/>
<rect x="4" width="25" height="1" fill="url(#paint2_radial_1336_13928)"/>
<ellipse cx="12" rx="12" ry="4" fill="url(#paint3_radial_1336_13928)"/>
</g>
<defs>
<linearGradient id="paint0_linear_1336_13928" x1="42.3628" y1="17.3907" x2="5.40649" y2="-4.03714" gradientUnits="userSpaceOnUse">
<stop stop-color="#9D7FF5"/>
<stop offset="1" stop-color="white" stop-opacity="0.9"/>
</linearGradient>
<radialGradient id="paint1_radial_1336_13928" cx="0" cy="0" r="1" gradientUnits="userSpaceOnUse" gradientTransform="translate(36 11) rotate(90) scale(12 40)">
<stop stop-color="#121212"/>
<stop offset="1" stop-color="#121212" stop-opacity="0"/>
</radialGradient>
<radialGradient id="paint2_radial_1336_13928" cx="0" cy="0" r="1" gradientUnits="userSpaceOnUse" gradientTransform="translate(16.5 0.5) scale(13.3065 511.5)">
<stop stop-color="white" stop-opacity="0.9"/>
<stop offset="1" stop-color="white" stop-opacity="0"/>
</radialGradient>
<radialGradient id="paint3_radial_1336_13928" cx="0" cy="0" r="1" gradientUnits="userSpaceOnUse" gradientTransform="translate(12) rotate(90) scale(4 12)">
<stop stop-color="#FA7C70" stop-opacity="0.21"/>
<stop offset="1" stop-color="#FA7C70" stop-opacity="0"/>
</radialGradient>
<clipPath id="clip0_1336_13928">
<rect width="78" height="21" fill="white"/>
</clipPath>
</defs>
</svg>
