<svg width="25" height="25" viewBox="0 0 25 25" fill="none" xmlns="http://www.w3.org/2000/svg">
<path d="M18.0436 7.00647C18.3439 7.30676 18.3439 7.79504 18.0436 8.09534L8.08752 18.0514C7.78723 18.3517 7.29895 18.3517 6.99866 18.0514C6.69836 17.7511 6.69836 17.2628 6.99866 16.9625L16.9547 7.00647C17.255 6.70618 17.7433 6.70618 18.0436 7.00647Z" fill="#9579E9"/>
<path d="M6.99866 7.00647C7.29895 6.70618 7.78723 6.70618 8.08752 7.00647L18.0436 16.9625C18.3439 17.2628 18.3439 17.7511 18.0436 18.0514C17.7433 18.3517 17.255 18.3517 16.9547 18.0514L6.99866 8.09534C6.69836 7.79504 6.69836 7.30676 6.99866 7.00647Z" fill="url(#paint0_linear_1336_15484)"/>
<defs>
<linearGradient id="paint0_linear_1336_15484" x1="12.5211" y1="6.78125" x2="12.5211" y2="18.2766" gradientUnits="userSpaceOnUse">
<stop stop-color="white" stop-opacity="0.86"/>
<stop offset="1" stop-color="#9579E9"/>
</linearGradient>
</defs>
</svg>
