<svg width="230" height="24" viewBox="0 0 230 24" fill="none" xmlns="http://www.w3.org/2000/svg">
<g clip-path="url(#clip0_1336_15515)">
<rect width="230" height="24" rx="4" fill="#2A2D38"/>
<rect x="0.5" y="0.5" width="229" height="23" rx="3.5" fill="#9C81F2" fill-opacity="0.1" stroke="url(#paint0_linear_1336_15515)"/>
<ellipse cx="116.5" cy="13.5" rx="121.5" ry="13.5" fill="url(#paint1_radial_1336_15515)"/>
<rect x="4" width="35" height="1" fill="url(#paint2_radial_1336_15515)"/>
<ellipse cx="21.5" rx="29.5" ry="5" fill="url(#paint3_radial_1336_15515)"/>
<path d="M109.933 16V8.8418H110.88V16H109.933ZM112.442 16V10.8145H113.229V11.542C113.391 11.2881 113.608 11.0846 113.878 10.9316C114.148 10.7754 114.456 10.6973 114.801 10.6973C115.185 10.6973 115.499 10.777 115.743 10.9365C115.991 11.096 116.165 11.319 116.266 11.6055C116.676 11 117.21 10.6973 117.867 10.6973C118.382 10.6973 118.777 10.8405 119.054 11.127C119.33 11.4102 119.469 11.848 119.469 12.4404V16H118.595V12.7334C118.595 12.3818 118.565 12.1296 118.507 11.9766C118.451 11.8203 118.349 11.695 118.199 11.6006C118.049 11.5062 117.874 11.459 117.672 11.459C117.307 11.459 117.005 11.5811 116.764 11.8252C116.523 12.0661 116.402 12.4535 116.402 12.9873V16H115.523V12.6309C115.523 12.2402 115.452 11.9473 115.309 11.752C115.165 11.5566 114.931 11.459 114.605 11.459C114.358 11.459 114.129 11.5241 113.917 11.6543C113.709 11.7845 113.557 11.9749 113.463 12.2256C113.368 12.4762 113.321 12.8376 113.321 13.3096V16H112.442ZM124.156 15.3604C123.831 15.637 123.517 15.8324 123.214 15.9463C122.914 16.0602 122.592 16.1172 122.247 16.1172C121.677 16.1172 121.24 15.9788 120.934 15.7021C120.628 15.4222 120.475 15.0658 120.475 14.6328C120.475 14.3789 120.532 14.1478 120.646 13.9395C120.763 13.7279 120.914 13.5586 121.1 13.4316C121.288 13.3047 121.5 13.2087 121.734 13.1436C121.907 13.098 122.167 13.054 122.516 13.0117C123.225 12.9271 123.748 12.8262 124.083 12.709C124.086 12.5885 124.088 12.512 124.088 12.4795C124.088 12.1214 124.005 11.8691 123.839 11.7227C123.614 11.5241 123.281 11.4248 122.838 11.4248C122.424 11.4248 122.118 11.498 121.92 11.6445C121.725 11.7878 121.58 12.0433 121.485 12.4111L120.626 12.2939C120.704 11.9261 120.833 11.6299 121.012 11.4053C121.191 11.1774 121.45 11.0033 121.788 10.8828C122.127 10.7591 122.519 10.6973 122.965 10.6973C123.408 10.6973 123.767 10.7493 124.044 10.8535C124.321 10.9577 124.524 11.0895 124.654 11.249C124.785 11.4053 124.876 11.6038 124.928 11.8447C124.957 11.9945 124.972 12.2646 124.972 12.6553V13.8271C124.972 14.6442 124.99 15.1618 125.025 15.3799C125.064 15.5947 125.139 15.8014 125.25 16H124.332C124.241 15.8177 124.182 15.6045 124.156 15.3604ZM124.083 13.3975C123.764 13.5277 123.285 13.6383 122.647 13.7295C122.286 13.7816 122.031 13.8402 121.881 13.9053C121.731 13.9704 121.616 14.0664 121.534 14.1934C121.453 14.3171 121.412 14.4554 121.412 14.6084C121.412 14.8428 121.5 15.0381 121.676 15.1943C121.855 15.3506 122.115 15.4287 122.457 15.4287C122.796 15.4287 123.097 15.3555 123.36 15.209C123.624 15.0592 123.818 14.8558 123.941 14.5986C124.036 14.4001 124.083 14.1071 124.083 13.7197V13.3975ZM126.178 16.4297L127.032 16.5566C127.068 16.8203 127.167 17.0124 127.33 17.1328C127.548 17.2956 127.846 17.377 128.224 17.377C128.631 17.377 128.945 17.2956 129.166 17.1328C129.387 16.9701 129.537 16.7422 129.615 16.4492C129.661 16.2702 129.682 15.8942 129.679 15.3213C129.295 15.7738 128.816 16 128.243 16C127.53 16 126.979 15.7428 126.588 15.2285C126.197 14.7142 126.002 14.0973 126.002 13.3779C126.002 12.8831 126.091 12.4274 126.271 12.0107C126.45 11.5908 126.708 11.2669 127.047 11.0391C127.389 10.8112 127.789 10.6973 128.248 10.6973C128.86 10.6973 129.365 10.9447 129.762 11.4395V10.8145H130.572V15.2969C130.572 16.1042 130.489 16.6755 130.323 17.0107C130.16 17.3493 129.9 17.6162 129.542 17.8115C129.187 18.0068 128.749 18.1045 128.229 18.1045C127.61 18.1045 127.11 17.9645 126.729 17.6846C126.349 17.4079 126.165 16.9896 126.178 16.4297ZM126.905 13.3145C126.905 13.9948 127.04 14.4912 127.311 14.8037C127.581 15.1162 127.919 15.2725 128.326 15.2725C128.73 15.2725 129.068 15.1178 129.342 14.8086C129.615 14.4961 129.752 14.0078 129.752 13.3438C129.752 12.709 129.61 12.2305 129.327 11.9082C129.047 11.5859 128.709 11.4248 128.312 11.4248C127.921 11.4248 127.589 11.5843 127.315 11.9033C127.042 12.2191 126.905 12.6895 126.905 13.3145ZM135.455 14.3301L136.363 14.4424C136.22 14.973 135.955 15.3848 135.567 15.6777C135.18 15.9707 134.685 16.1172 134.083 16.1172C133.325 16.1172 132.722 15.8844 132.276 15.4189C131.834 14.9502 131.612 14.2943 131.612 13.4512C131.612 12.5788 131.837 11.9017 132.286 11.4199C132.735 10.9382 133.318 10.6973 134.034 10.6973C134.728 10.6973 135.294 10.9333 135.733 11.4053C136.173 11.8773 136.393 12.5413 136.393 13.3975C136.393 13.4495 136.391 13.5277 136.388 13.6318H132.521C132.553 14.2015 132.714 14.6377 133.004 14.9404C133.294 15.2432 133.655 15.3945 134.088 15.3945C134.41 15.3945 134.685 15.3099 134.913 15.1406C135.141 14.9714 135.322 14.7012 135.455 14.3301ZM132.569 12.9092H135.465C135.426 12.473 135.315 12.1458 135.133 11.9277C134.853 11.5892 134.49 11.4199 134.044 11.4199C133.64 11.4199 133.3 11.555 133.023 11.8252C132.75 12.0954 132.599 12.4567 132.569 12.9092Z" fill="white" fill-opacity="0.8"/>
<g clip-path="url(#clip1_1336_15515)">
<path d="M103.893 10.5642C103.657 9.99063 103.256 9.49998 102.741 9.15468C102.226 8.80937 101.62 8.625 101 8.625C100.38 8.625 99.7741 8.80937 99.259 9.15468C98.744 9.49998 98.3433 9.99063 98.1078 10.5642C97.5949 10.6852 97.1382 10.9764 96.8121 11.3904C96.486 11.8044 96.3099 12.3166 96.3125 12.8436C96.3125 14.1361 97.3638 15.1874 98.6563 15.1874H99.5497C99.6326 15.1874 99.7121 15.1544 99.7707 15.0958C99.8293 15.0372 99.8622 14.9577 99.8622 14.8749C99.8622 14.792 99.8293 14.7125 99.7707 14.6539C99.7121 14.5953 99.6326 14.5624 99.5497 14.5624H98.6563C98.2006 14.5619 97.7637 14.3806 97.4415 14.0584C97.1193 13.7362 96.938 13.2993 96.9375 12.8436C96.9355 12.4337 97.0808 12.0368 97.3469 11.7251C97.6131 11.4134 97.9824 11.2077 98.3875 11.1455L98.5735 11.1164L98.6344 10.9383C98.981 9.9283 99.9316 9.24986 101 9.24986C101.521 9.24972 102.029 9.41237 102.453 9.71509C102.877 10.0178 103.196 10.4455 103.365 10.9383L103.427 11.1164L103.613 11.1455C104.018 11.2077 104.387 11.4134 104.653 11.7251C104.919 12.0368 105.065 12.4337 105.063 12.8436C105.063 13.7911 104.291 14.5624 103.344 14.5624H102.394C102.311 14.5624 102.231 14.5953 102.173 14.6539C102.114 14.7125 102.081 14.792 102.081 14.8749C102.081 14.9577 102.114 15.0372 102.173 15.0958C102.231 15.1544 102.311 15.1874 102.394 15.1874H103.344C104.636 15.1874 105.688 14.1361 105.688 12.8436C105.69 12.3167 105.514 11.8044 105.188 11.3905C104.862 10.9765 104.405 10.6852 103.893 10.5642Z" fill="#D4D4D6"/>
<path d="M102.344 13.5674C102.376 13.5934 102.412 13.6128 102.451 13.6247C102.491 13.6366 102.532 13.6406 102.573 13.6365C102.614 13.6324 102.653 13.6203 102.689 13.6009C102.726 13.5815 102.758 13.5552 102.784 13.5235C102.81 13.4917 102.829 13.4551 102.841 13.4158C102.853 13.3765 102.857 13.3353 102.853 13.2944C102.849 13.2536 102.837 13.214 102.817 13.1778C102.798 13.1416 102.771 13.1096 102.74 13.0836L101.196 11.8199C101.14 11.7741 101.07 11.749 100.998 11.749C100.926 11.749 100.856 11.7741 100.8 11.8199L99.2469 13.0917C99.1972 13.1326 99.1613 13.1879 99.1441 13.2499C99.127 13.312 99.1294 13.3778 99.151 13.4384C99.1726 13.4991 99.2125 13.5515 99.265 13.5887C99.3176 13.6259 99.3803 13.6459 99.4447 13.6461C99.5169 13.6462 99.5868 13.6211 99.6425 13.5752L100.686 12.7217V16.9067C100.686 16.9896 100.719 17.0691 100.777 17.1277C100.836 17.1863 100.915 17.2192 100.998 17.2192C101.081 17.2192 101.16 17.1863 101.219 17.1277C101.278 17.0691 101.311 16.9896 101.311 16.9067V12.7217L102.344 13.5674Z" fill="#D4D4D6"/>
</g>
</g>
<defs>
<linearGradient id="paint0_linear_1336_15515" x1="-2.41758e-06" y1="5.99999" x2="198.372" y2="-68.1336" gradientUnits="userSpaceOnUse">
<stop stop-color="white" stop-opacity="0.2"/>
<stop offset="1" stop-color="#9C81F2" stop-opacity="0.5"/>
</linearGradient>
<radialGradient id="paint1_radial_1336_15515" cx="0" cy="0" r="1" gradientUnits="userSpaceOnUse" gradientTransform="translate(116.5 13.5) rotate(90) scale(13.5 121.5)">
<stop stop-color="#121212" stop-opacity="0.5"/>
<stop offset="1" stop-color="#121212" stop-opacity="0"/>
</radialGradient>
<radialGradient id="paint2_radial_1336_15515" cx="0" cy="0" r="1" gradientUnits="userSpaceOnUse" gradientTransform="translate(21.5 0.5) scale(18.629 511.5)">
<stop stop-color="white" stop-opacity="0.7"/>
<stop offset="1" stop-color="white" stop-opacity="0"/>
</radialGradient>
<radialGradient id="paint3_radial_1336_15515" cx="0" cy="0" r="1" gradientUnits="userSpaceOnUse" gradientTransform="translate(21.5) rotate(90) scale(5 29.5)">
<stop stop-color="#F5857A" stop-opacity="0.21"/>
<stop offset="1" stop-color="#F5857A" stop-opacity="0"/>
</radialGradient>
<clipPath id="clip0_1336_15515">
<rect width="230" height="24" rx="4" fill="white"/>
</clipPath>
<clipPath id="clip1_1336_15515">
<rect width="10" height="10" fill="white" transform="translate(96 8)"/>
</clipPath>
</defs>
</svg>
