<svg width="230" height="21" viewBox="0 0 230 21" fill="none" xmlns="http://www.w3.org/2000/svg">
<path d="M43.9412 5.25L45.2702 1.75L45.7376 1.92749L46.2797 0.5H47.892V0H51.8064V0.5H55.7208V0H59.6352V0.5H63.5496V0H67.464V0.5H71.3784V0H75.2929V0.5H79.2073V0H83.1217V0.5H87.0361V0H90.9505V0.5H94.8649V0H98.7794V0.5H102.694V0H106.608V0.5H110.523V0H114.437V0.5H118.351V0H122.266V0.5H126.18V0H130.095V0.5H134.009V0H137.923V0.5H141.838V0H145.752V0.5H149.667V0H153.581V0.5H157.496V0H161.41V0.5H165.324V0H169.239V0.5H173.153V0H177.068V0.5H180.982V0H184.896V0.5H188.811V0H192.725V0.5H196.64V0H200.554V0.5H204.469V0H208.383V0.5H212.297V0H216.212V0.5H220.126V0H224.041V0.5H225.998C226.473 0.5 226.925 0.594543 227.337 0.765386L227.529 0.303522C228.507 0.708984 229.289 1.49109 229.694 2.46885L229.232 2.66038C229.403 3.07236 229.498 3.52451 229.498 4V5.625H229.998V8.875H229.498V12.125H229.998V15.375H229.498V17C229.498 17.4755 229.403 17.9276 229.232 18.3396L229.694 18.5312C229.289 19.5089 228.507 20.291 227.529 20.6965L227.337 20.2346C226.925 20.4055 226.473 20.5 225.998 20.5H224.039V21H220.122V20.5H216.204V21H212.287V20.5H208.369V21H204.452V20.5H200.534V21H196.617V20.5H192.7V21H188.782V20.5H184.865V21H180.947V20.5H177.03V21H173.112V20.5H169.195V21H165.278V20.5H161.36V21H157.443V20.5H153.525V21H149.608V20.5H145.69V21H141.773V20.5H137.856V21H133.938V20.5H130.021V21H126.103V20.5H122.186V21H118.268V20.5H114.351V21H110.433V20.5H106.516V21H102.599V20.5H98.6812V21H94.7637V20.5H90.8463V21H86.9289V20.5H83.0114V21H79.094V20.5H75.1766V21H71.2591V20.5H67.3417V21H63.4243V20.5H59.5068V21H55.5894V20.5H51.672V21H47.7545V20.5H43.8371V21H39.9197V20.5H38.6856L39.0929 19.4275L38.6254 19.25L39.9544 15.75L40.4218 15.9275L41.7508 12.4275L41.2833 12.25L42.6123 8.75L43.0797 8.92749L44.4087 5.42749L43.9412 5.25Z" stroke="#C4C6CA" stroke-dasharray="4 4"/>
<g clip-path="url(#clip0_1336_15504)">
<path d="M0 4C0 1.79086 1.79086 0 4 0H47L39.0339 21H4C1.79086 21 0 19.2091 0 17V4Z" fill="#2A2D38" fill-opacity="0.5"/>
<path d="M0.5 4C0.5 2.067 2.067 0.5 4 0.5H46.2756L38.6888 20.5H4C2.067 20.5 0.5 18.933 0.5 17V4Z" fill="#9D7FF5" fill-opacity="0.15" stroke="url(#paint0_linear_1336_15504)"/>
<ellipse cx="20.5" cy="11" rx="24.5" ry="12" fill="url(#paint1_radial_1336_15504)"/>
<path d="M10.6396 14V6.8418H11.5186V14H10.6396ZM16.2695 13.3604C15.944 13.637 15.6299 13.8324 15.3271 13.9463C15.0277 14.0602 14.7054 14.1172 14.3604 14.1172C13.7907 14.1172 13.3529 13.9788 13.0469 13.7021C12.7409 13.4222 12.5879 13.0658 12.5879 12.6328C12.5879 12.3789 12.6449 12.1478 12.7588 11.9395C12.876 11.7279 13.0273 11.5586 13.2129 11.4316C13.4017 11.3047 13.6133 11.2087 13.8477 11.1436C14.0202 11.098 14.2806 11.054 14.6289 11.0117C15.3385 10.9271 15.861 10.8262 16.1963 10.709C16.1995 10.5885 16.2012 10.512 16.2012 10.4795C16.2012 10.1214 16.1182 9.86914 15.9521 9.72266C15.7275 9.52409 15.3939 9.4248 14.9512 9.4248C14.5378 9.4248 14.2318 9.49805 14.0332 9.64453C13.8379 9.78776 13.693 10.0433 13.5986 10.4111L12.7393 10.2939C12.8174 9.92611 12.946 9.62988 13.125 9.40527C13.304 9.17741 13.5628 9.00326 13.9014 8.88281C14.2399 8.75911 14.6322 8.69727 15.0781 8.69727C15.5208 8.69727 15.8805 8.74935 16.1572 8.85352C16.4339 8.95768 16.6374 9.08952 16.7676 9.24902C16.8978 9.40527 16.9889 9.60384 17.041 9.84473C17.0703 9.99447 17.085 10.2646 17.085 10.6553V11.8271C17.085 12.6442 17.1029 13.1618 17.1387 13.3799C17.1777 13.5947 17.2526 13.8014 17.3633 14H16.4453C16.3542 13.8177 16.2956 13.6045 16.2695 13.3604ZM16.1963 11.3975C15.8773 11.5277 15.3988 11.6383 14.7607 11.7295C14.3994 11.7816 14.1439 11.8402 13.9941 11.9053C13.8444 11.9704 13.7288 12.0664 13.6475 12.1934C13.5661 12.3171 13.5254 12.4554 13.5254 12.6084C13.5254 12.8428 13.6133 13.0381 13.7891 13.1943C13.9681 13.3506 14.2285 13.4287 14.5703 13.4287C14.9089 13.4287 15.21 13.3555 15.4736 13.209C15.7373 13.0592 15.931 12.8558 16.0547 12.5986C16.1491 12.4001 16.1963 12.1071 16.1963 11.7197V11.3975ZM19.2627 14H18.4473V6.8418H19.3262V9.39551C19.6973 8.93001 20.1709 8.69727 20.7471 8.69727C21.0661 8.69727 21.3672 8.76237 21.6504 8.89258C21.9368 9.01953 22.1712 9.2002 22.3535 9.43457C22.5391 9.66569 22.6839 9.94564 22.7881 10.2744C22.8923 10.6032 22.9443 10.9548 22.9443 11.3291C22.9443 12.2178 22.7246 12.9046 22.2852 13.3896C21.8457 13.8747 21.3184 14.1172 20.7031 14.1172C20.0911 14.1172 19.611 13.8617 19.2627 13.3506V14ZM19.2529 11.3682C19.2529 11.9899 19.3376 12.4391 19.5068 12.7158C19.7835 13.1683 20.1579 13.3945 20.6299 13.3945C21.014 13.3945 21.346 13.2285 21.626 12.8965C21.9059 12.5612 22.0459 12.0632 22.0459 11.4023C22.0459 10.7253 21.9108 10.2256 21.6406 9.90332C21.3737 9.58105 21.0498 9.41992 20.6689 9.41992C20.2848 9.41992 19.9528 9.58757 19.6729 9.92285C19.3929 10.2549 19.2529 10.7367 19.2529 11.3682ZM27.5684 12.3301L28.4766 12.4424C28.3333 12.973 28.068 13.3848 27.6807 13.6777C27.2933 13.9707 26.7985 14.1172 26.1963 14.1172C25.4378 14.1172 24.8356 13.8844 24.3896 13.4189C23.9469 12.9502 23.7256 12.2943 23.7256 11.4512C23.7256 10.5788 23.9502 9.90169 24.3994 9.41992C24.8486 8.93815 25.4313 8.69727 26.1475 8.69727C26.8408 8.69727 27.4072 8.93327 27.8467 9.40527C28.2861 9.87728 28.5059 10.5413 28.5059 11.3975C28.5059 11.4495 28.5042 11.5277 28.501 11.6318H24.6338C24.6663 12.2015 24.8275 12.6377 25.1172 12.9404C25.4069 13.2432 25.7682 13.3945 26.2012 13.3945C26.5234 13.3945 26.7985 13.3099 27.0264 13.1406C27.2542 12.9714 27.4349 12.7012 27.5684 12.3301ZM24.6826 10.9092H27.5781C27.5391 10.473 27.4284 10.1458 27.2461 9.92773C26.9661 9.58919 26.6032 9.41992 26.1572 9.41992C25.7536 9.41992 25.4134 9.55501 25.1367 9.8252C24.8633 10.0954 24.7119 10.4567 24.6826 10.9092ZM29.5654 14V6.8418H30.4443V14H29.5654Z" fill="#C5C6C9"/>
<rect x="4" width="35" height="1" fill="url(#paint2_radial_1336_15504)"/>
<ellipse cx="17.5" rx="17.5" ry="4" fill="url(#paint3_radial_1336_15504)"/>
</g>
<defs>
<linearGradient id="paint0_linear_1336_15504" x1="41.0626" y1="17.4747" x2="6.91343" y2="-0.373889" gradientUnits="userSpaceOnUse">
<stop stop-color="#9D7FF5"/>
<stop offset="1" stop-color="white" stop-opacity="0.9"/>
</linearGradient>
<radialGradient id="paint1_radial_1336_15504" cx="0" cy="0" r="1" gradientUnits="userSpaceOnUse" gradientTransform="translate(20.5 11) rotate(90) scale(12 24.5)">
<stop stop-color="#121212"/>
<stop offset="1" stop-color="#121212" stop-opacity="0"/>
</radialGradient>
<radialGradient id="paint2_radial_1336_15504" cx="0" cy="0" r="1" gradientUnits="userSpaceOnUse" gradientTransform="translate(21.5 0.5) scale(18.629 511.5)">
<stop stop-color="white" stop-opacity="0.9"/>
<stop offset="1" stop-color="white" stop-opacity="0"/>
</radialGradient>
<radialGradient id="paint3_radial_1336_15504" cx="0" cy="0" r="1" gradientUnits="userSpaceOnUse" gradientTransform="translate(17.5) rotate(90) scale(4 17.5)">
<stop stop-color="#FA7C70" stop-opacity="0.21"/>
<stop offset="1" stop-color="#FA7C70" stop-opacity="0"/>
</radialGradient>
<clipPath id="clip0_1336_15504">
<rect width="76.6673" height="21" fill="white"/>
</clipPath>
</defs>
</svg>
