<svg width="194" height="24" viewBox="0 0 194 24" fill="none" xmlns="http://www.w3.org/2000/svg">
<g clip-path="url(#clip0_1232_33136)">
<rect width="194" height="24" rx="4" fill="#2A2D38"/>
<rect x="0.5" y="0.5" width="193" height="23" rx="3.5" fill="#9C81F2" fill-opacity="0.1" stroke="url(#paint0_linear_1232_33136)"/>
<ellipse cx="92" cy="13" rx="97" ry="13" fill="url(#paint1_radial_1232_33136)"/>
<rect x="4" width="35" height="1" fill="url(#paint2_radial_1232_33136)"/>
<ellipse cx="21.5" cy="-0.5" rx="29.5" ry="4.5" fill="url(#paint3_radial_1232_33136)"/>
<path d="M77.4492 12.7002L78.3428 12.6221C78.3851 12.9801 78.4827 13.2747 78.6357 13.5059C78.792 13.7337 79.0329 13.9193 79.3584 14.0625C79.6839 14.2025 80.0501 14.2725 80.457 14.2725C80.8184 14.2725 81.1374 14.2188 81.4141 14.1113C81.6908 14.0039 81.8958 13.8574 82.0293 13.6719C82.166 13.4831 82.2344 13.278 82.2344 13.0566C82.2344 12.832 82.1693 12.6367 82.0391 12.4707C81.9089 12.3014 81.694 12.1598 81.3945 12.0459C81.2025 11.971 80.7777 11.8555 80.1201 11.6992C79.4626 11.5397 79.002 11.39 78.7383 11.25C78.3965 11.071 78.141 10.8496 77.9717 10.5859C77.8057 10.319 77.7227 10.0212 77.7227 9.69238C77.7227 9.33105 77.8252 8.99414 78.0303 8.68164C78.2354 8.36589 78.5348 8.12663 78.9287 7.96387C79.3226 7.80111 79.7604 7.71973 80.2422 7.71973C80.7728 7.71973 81.2399 7.80599 81.6436 7.97852C82.0505 8.14779 82.363 8.39844 82.5811 8.73047C82.7992 9.0625 82.9163 9.43848 82.9326 9.8584L82.0244 9.92676C81.9756 9.47428 81.8096 9.13249 81.5264 8.90137C81.2464 8.67025 80.8314 8.55469 80.2812 8.55469C79.7083 8.55469 79.29 8.66048 79.0264 8.87207C78.766 9.0804 78.6357 9.33268 78.6357 9.62891C78.6357 9.88607 78.7285 10.0977 78.9141 10.2637C79.0964 10.4297 79.5716 10.6006 80.3398 10.7764C81.1113 10.9489 81.6403 11.1003 81.9268 11.2305C82.3434 11.4225 82.651 11.6667 82.8496 11.9629C83.0482 12.2559 83.1475 12.5944 83.1475 12.9785C83.1475 13.3594 83.0384 13.7191 82.8203 14.0576C82.6022 14.3929 82.2881 14.6549 81.8779 14.8438C81.471 15.0293 81.012 15.1221 80.501 15.1221C79.8532 15.1221 79.3096 15.0277 78.8701 14.8389C78.4339 14.6501 78.0905 14.3669 77.8398 13.9893C77.5924 13.6084 77.4622 13.1787 77.4492 12.7002ZM87.7129 13.1006L88.5771 13.2129C88.4827 13.8086 88.2402 14.2757 87.8496 14.6143C87.4622 14.9495 86.9854 15.1172 86.4189 15.1172C85.7093 15.1172 85.138 14.8861 84.7051 14.4238C84.2754 13.9583 84.0605 13.2926 84.0605 12.4268C84.0605 11.8669 84.1533 11.377 84.3389 10.957C84.5244 10.5371 84.806 10.223 85.1836 10.0146C85.5645 9.80306 85.9779 9.69727 86.4238 9.69727C86.987 9.69727 87.4476 9.84049 87.8057 10.127C88.1637 10.4102 88.3932 10.8138 88.4941 11.3379L87.6396 11.4697C87.5583 11.1214 87.4134 10.8594 87.2051 10.6836C87 10.5078 86.751 10.4199 86.458 10.4199C86.0153 10.4199 85.6556 10.5794 85.3789 10.8984C85.1022 11.2142 84.9639 11.7155 84.9639 12.4023C84.9639 13.099 85.0973 13.6051 85.3643 13.9209C85.6312 14.2367 85.9795 14.3945 86.4092 14.3945C86.7542 14.3945 87.0423 14.2887 87.2734 14.0771C87.5046 13.8656 87.651 13.54 87.7129 13.1006ZM89.3193 15V9.81445H90.1104V10.6006C90.3122 10.2327 90.4977 9.99023 90.667 9.87305C90.8395 9.75586 91.0283 9.69727 91.2334 9.69727C91.5296 9.69727 91.8307 9.79167 92.1367 9.98047L91.834 10.7959C91.6191 10.6689 91.4043 10.6055 91.1895 10.6055C90.9974 10.6055 90.8249 10.6641 90.6719 10.7812C90.5189 10.8952 90.4098 11.0547 90.3447 11.2598C90.2471 11.5723 90.1982 11.9141 90.1982 12.2852V15H89.3193ZM92.6641 8.85254V7.8418H93.543V8.85254H92.6641ZM92.6641 15V9.81445H93.543V15H92.6641ZM94.8857 16.9873V9.81445H95.6865V10.4883C95.8753 10.2246 96.0885 10.0277 96.3262 9.89746C96.5638 9.764 96.8519 9.69727 97.1904 9.69727C97.6331 9.69727 98.0238 9.8112 98.3623 10.0391C98.7008 10.2669 98.9564 10.5892 99.1289 11.0059C99.3014 11.4193 99.3877 11.8734 99.3877 12.3682C99.3877 12.8988 99.2917 13.3773 99.0996 13.8037C98.9108 14.2269 98.6341 14.5524 98.2695 14.7803C97.9082 15.0049 97.5273 15.1172 97.127 15.1172C96.834 15.1172 96.5703 15.0553 96.3359 14.9316C96.1048 14.8079 95.9144 14.6517 95.7646 14.4629V16.9873H94.8857ZM95.6816 12.4365C95.6816 13.1038 95.8167 13.597 96.0869 13.916C96.3571 14.235 96.6842 14.3945 97.0684 14.3945C97.459 14.3945 97.7926 14.2301 98.0693 13.9014C98.3493 13.5693 98.4893 13.0566 98.4893 12.3633C98.4893 11.7025 98.3525 11.2077 98.0791 10.8789C97.8089 10.5501 97.485 10.3857 97.1074 10.3857C96.7331 10.3857 96.401 10.5615 96.1113 10.9131C95.8249 11.2614 95.6816 11.7692 95.6816 12.4365ZM102.371 14.2139L102.498 14.9902C102.251 15.0423 102.029 15.0684 101.834 15.0684C101.515 15.0684 101.268 15.0179 101.092 14.917C100.916 14.8161 100.792 14.6842 100.721 14.5215C100.649 14.3555 100.613 14.0088 100.613 13.4814V10.498H99.9688V9.81445H100.613V8.53027L101.487 8.00293V9.81445H102.371V10.498H101.487V13.5303C101.487 13.7809 101.502 13.9421 101.531 14.0137C101.564 14.0853 101.614 14.1423 101.683 14.1846C101.754 14.2269 101.855 14.248 101.985 14.248C102.083 14.248 102.212 14.2367 102.371 14.2139ZM106.15 15V7.8418H111.326V8.68652H107.098V10.8789H111.058V11.7188H107.098V14.1553H111.492V15H106.15ZM116.053 15V14.3457C115.724 14.86 115.241 15.1172 114.603 15.1172C114.189 15.1172 113.808 15.0033 113.46 14.7754C113.115 14.5475 112.846 14.2301 112.654 13.8232C112.465 13.4131 112.371 12.9427 112.371 12.4121C112.371 11.8945 112.457 11.4258 112.63 11.0059C112.802 10.5827 113.061 10.2588 113.406 10.0342C113.751 9.80957 114.137 9.69727 114.563 9.69727C114.876 9.69727 115.154 9.764 115.398 9.89746C115.643 10.0277 115.841 10.1986 115.994 10.4102V7.8418H116.868V15H116.053ZM113.274 12.4121C113.274 13.0762 113.414 13.5726 113.694 13.9014C113.974 14.2301 114.305 14.3945 114.686 14.3945C115.07 14.3945 115.395 14.2383 115.662 13.9258C115.932 13.61 116.067 13.1299 116.067 12.4854C116.067 11.7757 115.931 11.2549 115.657 10.9229C115.384 10.5908 115.047 10.4248 114.646 10.4248C114.256 10.4248 113.929 10.5843 113.665 10.9033C113.405 11.2223 113.274 11.7253 113.274 12.4121ZM118.26 8.85254V7.8418H119.139V8.85254H118.26ZM118.26 15V9.81445H119.139V15H118.26ZM122.4 14.2139L122.527 14.9902C122.28 15.0423 122.059 15.0684 121.863 15.0684C121.544 15.0684 121.297 15.0179 121.121 14.917C120.945 14.8161 120.822 14.6842 120.75 14.5215C120.678 14.3555 120.643 14.0088 120.643 13.4814V10.498H119.998V9.81445H120.643V8.53027L121.517 8.00293V9.81445H122.4V10.498H121.517V13.5303C121.517 13.7809 121.531 13.9421 121.561 14.0137C121.593 14.0853 121.644 14.1423 121.712 14.1846C121.784 14.2269 121.884 14.248 122.015 14.248C122.112 14.248 122.241 14.2367 122.4 14.2139ZM122.938 12.4072C122.938 11.4469 123.204 10.7357 123.738 10.2734C124.184 9.88932 124.728 9.69727 125.369 9.69727C126.082 9.69727 126.665 9.93164 127.117 10.4004C127.57 10.8659 127.796 11.5104 127.796 12.334C127.796 13.0013 127.695 13.527 127.493 13.9111C127.295 14.292 127.003 14.5882 126.619 14.7998C126.238 15.0114 125.822 15.1172 125.369 15.1172C124.643 15.1172 124.056 14.8844 123.606 14.4189C123.16 13.9535 122.938 13.2829 122.938 12.4072ZM123.841 12.4072C123.841 13.0713 123.986 13.5693 124.275 13.9014C124.565 14.2301 124.93 14.3945 125.369 14.3945C125.805 14.3945 126.168 14.2285 126.458 13.8965C126.748 13.5645 126.893 13.0583 126.893 12.3779C126.893 11.7367 126.746 11.2516 126.453 10.9229C126.163 10.5908 125.802 10.4248 125.369 10.4248C124.93 10.4248 124.565 10.5892 124.275 10.918C123.986 11.2467 123.841 11.7432 123.841 12.4072ZM128.821 15V9.81445H129.612V10.6006C129.814 10.2327 130 9.99023 130.169 9.87305C130.341 9.75586 130.53 9.69727 130.735 9.69727C131.032 9.69727 131.333 9.79167 131.639 9.98047L131.336 10.7959C131.121 10.6689 130.906 10.6055 130.691 10.6055C130.499 10.6055 130.327 10.6641 130.174 10.7812C130.021 10.8952 129.912 11.0547 129.847 11.2598C129.749 11.5723 129.7 11.9141 129.7 12.2852V15H128.821Z" fill="white" fill-opacity="0.8"/>
<path d="M62.3588 14.843C62.2667 14.8414 62.1783 14.8098 62.1097 14.754L59.1283 12.317C59.0878 12.2859 59.0553 12.247 59.0331 12.2033C59.0109 12.1595 58.9996 12.1118 59 12.0637C59.0062 11.9676 59.052 11.8772 59.1283 11.8104L62.1474 9.42809C62.1842 9.39608 62.2277 9.37115 62.2753 9.3548C62.323 9.33845 62.3738 9.33103 62.4247 9.33296C62.4756 9.3349 62.5255 9.34616 62.5715 9.36608C62.6175 9.38599 62.6585 9.41414 62.6922 9.44882C62.7258 9.48351 62.7514 9.52402 62.7673 9.56791C62.7832 9.6118 62.7892 9.65815 62.7849 9.70419C62.7805 9.75023 62.7659 9.79499 62.742 9.83578C62.718 9.87656 62.6853 9.91253 62.6456 9.94152L59.951 12.0637L62.6154 14.2611C62.6508 14.293 62.6788 14.3308 62.698 14.3725C62.7172 14.4142 62.727 14.459 62.727 14.5042C62.727 14.5494 62.7172 14.5941 62.698 14.6358C62.6788 14.6775 62.6508 14.7154 62.6154 14.7472C62.5464 14.8075 62.4546 14.8418 62.3588 14.843ZM67.5743 14.843C67.5214 14.8421 67.4693 14.8312 67.4213 14.8112C67.3732 14.7912 67.3302 14.7624 67.295 14.7267C67.2254 14.6615 67.1864 14.5744 67.1864 14.4836C67.1864 14.3929 67.2254 14.3057 67.295 14.2406L69.9594 12.0637L67.3252 9.94152C67.2898 9.9097 67.2617 9.87184 67.2426 9.83013C67.2234 9.78842 67.2136 9.74368 67.2136 9.69849C67.2136 9.65331 67.2234 9.60857 67.2426 9.56686C67.2617 9.52515 67.2898 9.48729 67.3252 9.45547C67.3596 9.4236 67.4007 9.39827 67.4461 9.38098C67.4914 9.3637 67.5402 9.35479 67.5894 9.35479C67.6386 9.35479 67.6873 9.3637 67.7326 9.38098C67.778 9.39827 67.8191 9.4236 67.8535 9.45547L70.8726 11.8378C70.9126 11.8693 70.9447 11.9082 70.9667 11.9519C70.9886 11.9956 71 12.043 71 12.0911C71 12.1391 70.9886 12.1866 70.9667 12.2303C70.9447 12.274 70.9126 12.3129 70.8726 12.3444L67.8988 14.7814C67.8523 14.8114 67.7995 14.8323 67.7436 14.8429C67.6878 14.8535 67.6301 14.8535 67.5743 14.843ZM64.1551 16H64.0947C64.0022 15.9834 63.9195 15.9367 63.8625 15.8685C63.8054 15.8004 63.778 15.7156 63.7853 15.6303L65.1137 8.28486C65.1321 8.19564 65.1881 8.11644 65.2698 8.06404C65.3516 8.01164 65.4526 7.99017 65.5515 8.00419C65.6003 8.01081 65.6472 8.02625 65.6894 8.04959C65.7315 8.07293 65.7681 8.10369 65.797 8.14006C65.8258 8.17643 65.8463 8.21767 65.8573 8.26136C65.8683 8.30504 65.8695 8.35027 65.8609 8.39439L64.5325 15.7193C64.5164 15.799 64.4697 15.871 64.4006 15.9224C64.3315 15.9738 64.2445 16.0013 64.1551 16Z" fill="#D4D4D7"/>
</g>
<defs>
<linearGradient id="paint0_linear_1232_33136" x1="-2.03917e-06" y1="5.99999" x2="173.455" y2="-48.6761" gradientUnits="userSpaceOnUse">
<stop stop-color="white" stop-opacity="0.2"/>
<stop offset="1" stop-color="#9C81F2" stop-opacity="0.5"/>
</linearGradient>
<radialGradient id="paint1_radial_1232_33136" cx="0" cy="0" r="1" gradientUnits="userSpaceOnUse" gradientTransform="translate(92 13) rotate(90) scale(13 97)">
<stop stop-color="#121212" stop-opacity="0.5"/>
<stop offset="1" stop-color="#121212" stop-opacity="0"/>
</radialGradient>
<radialGradient id="paint2_radial_1232_33136" cx="0" cy="0" r="1" gradientUnits="userSpaceOnUse" gradientTransform="translate(21.5 0.5) scale(18.629 511.5)">
<stop stop-color="white" stop-opacity="0.7"/>
<stop offset="1" stop-color="white" stop-opacity="0"/>
</radialGradient>
<radialGradient id="paint3_radial_1232_33136" cx="0" cy="0" r="1" gradientUnits="userSpaceOnUse" gradientTransform="translate(21.5 -0.5) rotate(90) scale(4.5 29.5)">
<stop stop-color="#F5857A" stop-opacity="0.21"/>
<stop offset="1" stop-color="#F5857A" stop-opacity="0"/>
</radialGradient>
<clipPath id="clip0_1232_33136">
<rect width="194" height="24" rx="4" fill="white"/>
</clipPath>
</defs>
</svg>
