<svg width="159" height="21" viewBox="0 0 159 21" fill="none" xmlns="http://www.w3.org/2000/svg">
<g clip-path="url(#clip0_1336_4344)">
<path d="M-12 4C-12 1.79086 -10.2091 0 -8 0H64V21H-8C-10.2091 21 -12 19.2091 -12 17V4Z" fill="#2A2D38" fill-opacity="0.5"/>
<path d="M0 4C0 1.79086 1.79086 0 4 0H64V21H4C1.79086 21 0 19.2091 0 17V4Z" fill="#F5857A" fill-opacity="0.08"/>
<path d="M0.4 4C0.4 2.01177 2.01177 0.4 4 0.4H155C156.988 0.4 158.6 2.01178 158.6 4V17C158.6 18.9882 156.988 20.6 155 20.6H4C2.01177 20.6 0.4 18.9882 0.4 17V4Z" stroke="url(#paint0_linear_1336_4344)" stroke-width="0.8"/>
<line x1="63.5" y1="1" x2="63.5" y2="20" stroke="#C5C6C9" stroke-dasharray="3 3"/>
<rect x="3" width="55" height="0.8" fill="url(#paint1_radial_1336_4344)"/>
<path d="M88 9.5C88 16.4036 64.2711 22 35 22C5.72891 22 -18 16.4036 -18 9.5C-18 2.59644 5.72891 -3 35 -3C64.2711 -3 88 2.59644 88 9.5Z" fill="url(#paint2_radial_1336_4344)"/>
<path d="M85 1C85 3.20914 64.4051 5 39 5C13.5949 5 -7 3.20914 -7 1C-7 -1.20914 13.5949 -3 39 -3C64.4051 -3 85 -1.20914 85 1Z" fill="url(#paint3_radial_1336_4344)"/>
<path d="M7.44922 11.7002L8.34277 11.6221C8.38509 11.9801 8.48275 12.2747 8.63574 12.5059C8.79199 12.7337 9.03288 12.9193 9.3584 13.0625C9.68392 13.2025 10.0501 13.2725 10.457 13.2725C10.8184 13.2725 11.1374 13.2188 11.4141 13.1113C11.6908 13.0039 11.8958 12.8574 12.0293 12.6719C12.166 12.4831 12.2344 12.278 12.2344 12.0566C12.2344 11.832 12.1693 11.6367 12.0391 11.4707C11.9089 11.3014 11.694 11.1598 11.3945 11.0459C11.2025 10.971 10.7777 10.8555 10.1201 10.6992C9.46257 10.5397 9.00195 10.39 8.73828 10.25C8.39648 10.071 8.14095 9.84961 7.97168 9.58594C7.80566 9.31901 7.72266 9.02116 7.72266 8.69238C7.72266 8.33105 7.8252 7.99414 8.03027 7.68164C8.23535 7.36589 8.53483 7.12663 8.92871 6.96387C9.32259 6.80111 9.76042 6.71973 10.2422 6.71973C10.7728 6.71973 11.2399 6.80599 11.6436 6.97852C12.0505 7.14779 12.363 7.39844 12.5811 7.73047C12.7992 8.0625 12.9163 8.43848 12.9326 8.8584L12.0244 8.92676C11.9756 8.47428 11.8096 8.13249 11.5264 7.90137C11.2464 7.67025 10.8314 7.55469 10.2812 7.55469C9.70833 7.55469 9.29004 7.66048 9.02637 7.87207C8.76595 8.0804 8.63574 8.33268 8.63574 8.62891C8.63574 8.88607 8.72852 9.09766 8.91406 9.26367C9.09635 9.42969 9.57161 9.60059 10.3398 9.77637C11.1113 9.94889 11.6403 10.1003 11.9268 10.2305C12.3434 10.4225 12.651 10.6667 12.8496 10.9629C13.0482 11.2559 13.1475 11.5944 13.1475 11.9785C13.1475 12.3594 13.0384 12.7191 12.8203 13.0576C12.6022 13.3929 12.2881 13.6549 11.8779 13.8438C11.471 14.0293 11.012 14.1221 10.501 14.1221C9.85319 14.1221 9.30957 14.0277 8.87012 13.8389C8.43392 13.6501 8.09049 13.3669 7.83984 12.9893C7.59245 12.6084 7.46224 12.1787 7.44922 11.7002ZM14.3096 14V6.8418H15.1885V14H14.3096ZM16.5605 7.85254V6.8418H17.4395V7.85254H16.5605ZM16.5605 14V8.81445H17.4395V14H16.5605ZM22.1465 14V13.3457C21.8177 13.86 21.3343 14.1172 20.6963 14.1172C20.2829 14.1172 19.902 14.0033 19.5537 13.7754C19.2087 13.5475 18.9401 13.2301 18.748 12.8232C18.5592 12.4131 18.4648 11.9427 18.4648 11.4121C18.4648 10.8945 18.5511 10.4258 18.7236 10.0059C18.8962 9.58268 19.1549 9.25879 19.5 9.03418C19.8451 8.80957 20.2308 8.69727 20.6572 8.69727C20.9697 8.69727 21.248 8.764 21.4922 8.89746C21.7363 9.02767 21.9349 9.19857 22.0879 9.41016V6.8418H22.9619V14H22.1465ZM19.3682 11.4121C19.3682 12.0762 19.5081 12.5726 19.7881 12.9014C20.068 13.2301 20.3984 13.3945 20.7793 13.3945C21.1634 13.3945 21.4889 13.2383 21.7559 12.9258C22.026 12.61 22.1611 12.1299 22.1611 11.4854C22.1611 10.7757 22.0244 10.2549 21.751 9.92285C21.4775 9.59082 21.1406 9.4248 20.7402 9.4248C20.3496 9.4248 20.0225 9.58431 19.7588 9.90332C19.4984 10.2223 19.3682 10.7253 19.3682 11.4121ZM27.8984 12.3301L28.8066 12.4424C28.6634 12.973 28.3981 13.3848 28.0107 13.6777C27.6234 13.9707 27.1286 14.1172 26.5264 14.1172C25.7679 14.1172 25.1657 13.8844 24.7197 13.4189C24.277 12.9502 24.0557 12.2943 24.0557 11.4512C24.0557 10.5788 24.2803 9.90169 24.7295 9.41992C25.1787 8.93815 25.7614 8.69727 26.4775 8.69727C27.1709 8.69727 27.7373 8.93327 28.1768 9.40527C28.6162 9.87728 28.8359 10.5413 28.8359 11.3975C28.8359 11.4495 28.8343 11.5277 28.8311 11.6318H24.9639C24.9964 12.2015 25.1576 12.6377 25.4473 12.9404C25.737 13.2432 26.0983 13.3945 26.5312 13.3945C26.8535 13.3945 27.1286 13.3099 27.3564 13.1406C27.5843 12.9714 27.765 12.7012 27.8984 12.3301ZM25.0127 10.9092H27.9082C27.8691 10.473 27.7585 10.1458 27.5762 9.92773C27.2962 9.58919 26.9333 9.41992 26.4873 9.41992C26.0837 9.41992 25.7435 9.55501 25.4668 9.8252C25.1934 10.0954 25.042 10.4567 25.0127 10.9092ZM29.9053 14V8.81445H30.6963V9.60059C30.8981 9.23275 31.0837 8.99023 31.2529 8.87305C31.4255 8.75586 31.6143 8.69727 31.8193 8.69727C32.1156 8.69727 32.4167 8.79167 32.7227 8.98047L32.4199 9.7959C32.2051 9.66895 31.9902 9.60547 31.7754 9.60547C31.5833 9.60547 31.4108 9.66406 31.2578 9.78125C31.1048 9.89518 30.9958 10.0547 30.9307 10.2598C30.833 10.5723 30.7842 10.9141 30.7842 11.2852V14H29.9053ZM35.8184 11.7002L36.7119 11.6221C36.7542 11.9801 36.8519 12.2747 37.0049 12.5059C37.1611 12.7337 37.402 12.9193 37.7275 13.0625C38.0531 13.2025 38.4193 13.2725 38.8262 13.2725C39.1875 13.2725 39.5065 13.2188 39.7832 13.1113C40.0599 13.0039 40.265 12.8574 40.3984 12.6719C40.5352 12.4831 40.6035 12.278 40.6035 12.0566C40.6035 11.832 40.5384 11.6367 40.4082 11.4707C40.278 11.3014 40.0632 11.1598 39.7637 11.0459C39.5716 10.971 39.1468 10.8555 38.4893 10.6992C37.8317 10.5397 37.3711 10.39 37.1074 10.25C36.7656 10.071 36.5101 9.84961 36.3408 9.58594C36.1748 9.31901 36.0918 9.02116 36.0918 8.69238C36.0918 8.33105 36.1943 7.99414 36.3994 7.68164C36.6045 7.36589 36.904 7.12663 37.2979 6.96387C37.6917 6.80111 38.1296 6.71973 38.6113 6.71973C39.1419 6.71973 39.609 6.80599 40.0127 6.97852C40.4196 7.14779 40.7321 7.39844 40.9502 7.73047C41.1683 8.0625 41.2855 8.43848 41.3018 8.8584L40.3936 8.92676C40.3447 8.47428 40.1787 8.13249 39.8955 7.90137C39.6156 7.67025 39.2005 7.55469 38.6504 7.55469C38.0775 7.55469 37.6592 7.66048 37.3955 7.87207C37.1351 8.0804 37.0049 8.33268 37.0049 8.62891C37.0049 8.88607 37.0977 9.09766 37.2832 9.26367C37.4655 9.42969 37.9408 9.60059 38.709 9.77637C39.4805 9.94889 40.0094 10.1003 40.2959 10.2305C40.7126 10.4225 41.0202 10.6667 41.2188 10.9629C41.4173 11.2559 41.5166 11.5944 41.5166 11.9785C41.5166 12.3594 41.4076 12.7191 41.1895 13.0576C40.9714 13.3929 40.6572 13.6549 40.2471 13.8438C39.8402 14.0293 39.3812 14.1221 38.8701 14.1221C38.2223 14.1221 37.6787 14.0277 37.2393 13.8389C36.8031 13.6501 36.4596 13.3669 36.209 12.9893C35.9616 12.6084 35.8314 12.1787 35.8184 11.7002ZM44.6172 13.2139L44.7441 13.9902C44.4967 14.0423 44.2754 14.0684 44.0801 14.0684C43.7611 14.0684 43.5137 14.0179 43.3379 13.917C43.1621 13.8161 43.0384 13.6842 42.9668 13.5215C42.8952 13.3555 42.8594 13.0088 42.8594 12.4814V9.49805H42.2148V8.81445H42.8594V7.53027L43.7334 7.00293V8.81445H44.6172V9.49805H43.7334V12.5303C43.7334 12.7809 43.748 12.9421 43.7773 13.0137C43.8099 13.0853 43.8604 13.1423 43.9287 13.1846C44.0003 13.2269 44.1012 13.248 44.2314 13.248C44.3291 13.248 44.4577 13.2367 44.6172 13.2139ZM49.0312 12.3301L49.9395 12.4424C49.7962 12.973 49.5309 13.3848 49.1436 13.6777C48.7562 13.9707 48.2614 14.1172 47.6592 14.1172C46.9007 14.1172 46.2985 13.8844 45.8525 13.4189C45.4098 12.9502 45.1885 12.2943 45.1885 11.4512C45.1885 10.5788 45.4131 9.90169 45.8623 9.41992C46.3115 8.93815 46.8942 8.69727 47.6104 8.69727C48.3037 8.69727 48.8701 8.93327 49.3096 9.40527C49.749 9.87728 49.9688 10.5413 49.9688 11.3975C49.9688 11.4495 49.9671 11.5277 49.9639 11.6318H46.0967C46.1292 12.2015 46.2904 12.6377 46.5801 12.9404C46.8698 13.2432 47.2311 13.3945 47.6641 13.3945C47.9863 13.3945 48.2614 13.3099 48.4893 13.1406C48.7171 12.9714 48.8978 12.7012 49.0312 12.3301ZM46.1455 10.9092H49.041C49.002 10.473 48.8913 10.1458 48.709 9.92773C48.429 9.58919 48.0661 9.41992 47.6201 9.41992C47.2165 9.41992 46.8763 9.55501 46.5996 9.8252C46.3262 10.0954 46.1748 10.4567 46.1455 10.9092ZM51.0479 15.9873V8.81445H51.8486V9.48828C52.0374 9.22461 52.2507 9.02767 52.4883 8.89746C52.7259 8.764 53.014 8.69727 53.3525 8.69727C53.7952 8.69727 54.1859 8.8112 54.5244 9.03906C54.863 9.26693 55.1185 9.58919 55.291 10.0059C55.4635 10.4193 55.5498 10.8734 55.5498 11.3682C55.5498 11.8988 55.4538 12.3773 55.2617 12.8037C55.0729 13.2269 54.7962 13.5524 54.4316 13.7803C54.0703 14.0049 53.6895 14.1172 53.2891 14.1172C52.9961 14.1172 52.7324 14.0553 52.498 13.9316C52.2669 13.8079 52.0765 13.6517 51.9268 13.4629V15.9873H51.0479ZM51.8438 11.4365C51.8438 12.1038 51.9788 12.597 52.249 12.916C52.5192 13.235 52.8464 13.3945 53.2305 13.3945C53.6211 13.3945 53.9548 13.2301 54.2314 12.9014C54.5114 12.5693 54.6514 12.0566 54.6514 11.3633C54.6514 10.7025 54.5146 10.2077 54.2412 9.87891C53.971 9.55013 53.6471 9.38574 53.2695 9.38574C52.8952 9.38574 52.5632 9.56152 52.2734 9.91309C51.987 10.2614 51.8438 10.7692 51.8438 11.4365Z" fill="#C5C6C9"/>
</g>
<defs>
<linearGradient id="paint0_linear_1336_4344" x1="0" y1="10.5" x2="159" y2="10.5" gradientUnits="userSpaceOnUse">
<stop stop-color="white" stop-opacity="0.8"/>
<stop offset="1" stop-color="#9C81F2"/>
</linearGradient>
<radialGradient id="paint1_radial_1336_4344" cx="0" cy="0" r="1" gradientUnits="userSpaceOnUse" gradientTransform="translate(30.5 0.40001) scale(26.7143 373.417)">
<stop stop-color="white" stop-opacity="0.7"/>
<stop offset="1" stop-color="white" stop-opacity="0"/>
<stop offset="1" stop-color="white" stop-opacity="0"/>
</radialGradient>
<radialGradient id="paint2_radial_1336_4344" cx="0" cy="0" r="1" gradientUnits="userSpaceOnUse" gradientTransform="translate(32.0225 11.2442) rotate(100.472) scale(9.82941 40.3205)">
<stop stop-color="#121212" stop-opacity="0.5"/>
<stop offset="1" stop-color="#121212" stop-opacity="0"/>
</radialGradient>
<radialGradient id="paint3_radial_1336_4344" cx="0" cy="0" r="1" gradientUnits="userSpaceOnUse" gradientTransform="translate(35.0571 1) rotate(90) scale(3.6 41.4)">
<stop stop-color="#9C81F2" stop-opacity="0.55"/>
<stop offset="0.0001" stop-color="#9C81F2" stop-opacity="0.13"/>
<stop offset="1" stop-color="#9C81F2" stop-opacity="0"/>
</radialGradient>
<clipPath id="clip0_1336_4344">
<rect width="159" height="21" rx="4" fill="white"/>
</clipPath>
</defs>
</svg>
