<svg width="626" height="28" viewBox="0 0 626 28" fill="none" xmlns="http://www.w3.org/2000/svg">
<mask id="path-1-outside-1_791_18" maskUnits="userSpaceOnUse" x="0" y="0" width="626" height="28" fill="black">
<rect fill="white" width="626" height="28"/>
<path d="M0 10C0 4.47715 4.47715 0 10 0H616C621.523 0 626 4.47715 626 10V27H0V10Z"/>
</mask>
<path d="M0 10C0 4.47715 4.47715 0 10 0H616C621.523 0 626 4.47715 626 10V27H0V10Z" fill="#2A2D38"/>
<path d="M0 0H626H0ZM626 27.6H0V26.4H626V27.6ZM0 27V0V27ZM626 0V27V0Z" fill="#61646C" fill-opacity="0.3" mask="url(#path-1-outside-1_791_18)"/>
<mask id="path-3-inside-2_791_18" fill="white">
<rect x="575" y="10" width="10" height="8" rx="0.6"/>
</mask>
<rect x="575" y="10" width="10" height="8" rx="0.6" stroke="#C4C6CA" stroke-width="2" mask="url(#path-3-inside-2_791_18)"/>
<path d="M608.888 16.9759C609.009 17.097 609.076 17.261 609.076 17.432C609.076 17.603 609.009 17.767 608.888 17.8881C608.767 18.0085 608.603 18.0761 608.432 18.0761C608.262 18.0761 608.098 18.0085 607.977 17.8881L605.038 14.95L602.102 17.8881C601.981 18.009 601.817 18.0769 601.645 18.0769C601.474 18.0769 601.31 18.009 601.189 17.8881C601.068 17.767 601.001 17.6032 601.001 17.4324C601.001 17.2616 601.068 17.0977 601.189 16.9766L604.125 14.0401L601.189 11.102C601.068 10.9807 601 10.8166 601 10.6454C601 10.4742 601.068 10.31 601.189 10.1888C601.31 10.0679 601.474 10 601.645 10C601.817 10 601.981 10.0679 602.102 10.1888L605.038 13.1269L607.975 10.1904C608.096 10.0693 608.26 10.0011 608.431 10.0008C608.602 10.0005 608.767 10.0681 608.888 10.1888C609.009 10.31 609.077 10.4742 609.077 10.6454C609.077 10.8166 609.009 10.9807 608.888 11.102L605.95 14.0385L608.888 16.9759Z" fill="#C4C6CA"/>
<path d="M550.448 15H558.552C558.799 15 559 14.7761 559 14.5C559 14.2239 558.799 14 558.552 14H550.448C550.201 14 550 14.2239 550 14.5C550 14.7761 550.201 15 550.448 15Z" fill="#C4C6CA"/>
</svg>
