<svg width="174" height="31" viewBox="0 0 174 31" fill="none" xmlns="http://www.w3.org/2000/svg">
<g filter="url(#filter0_d_105_288)">
<g clip-path="url(#clip0_105_288)">
<path d="M4 4C4 1.79086 5.79086 0 8 0H147V23H8C5.79086 23 4 21.2091 4 19V4Z" fill="#2A2D38" fill-opacity="0.5"/>
<path d="M4 4C4 1.79086 5.79086 0 8 0H103V23H8C5.79086 23 4 21.2091 4 19V4Z" fill="#F5857A" fill-opacity="0.08"/>
<mask id="path-4-inside-1_105_288" fill="white">
<path d="M4 4C4 1.79086 5.79086 0 8 0H166C168.209 0 170 1.79086 170 4V19C170 21.2091 168.209 23 166 23H8C5.79086 23 4 21.2091 4 19V4Z"/>
</mask>
<path d="M8 1H166V-1H8V1ZM169 4V19H171V4H169ZM166 22H8V24H166V22ZM5 19V4H3V19H5ZM8 22C6.34314 22 5 20.6569 5 19H3C3 21.7614 5.23857 24 8 24V22ZM169 19C169 20.6569 167.657 22 166 22V24C168.761 24 171 21.7614 171 19H169ZM166 1C167.657 1 169 2.34315 169 4H171C171 1.23858 168.761 -1 166 -1V1ZM8 -1C5.23858 -1 3 1.23858 3 4H5C5 2.34315 6.34315 1 8 1V-1Z" fill="url(#paint0_linear_105_288)" mask="url(#path-4-inside-1_105_288)"/>
<rect x="7" width="55" height="1" fill="url(#paint1_radial_105_288)"/>
<line x1="103.5" y1="1" x2="103.5" y2="22" stroke="#C5C6C9" stroke-dasharray="4 4"/>
<path d="M131 10.5C131 20.7173 96.9736 29 55 29C13.0264 29 -21 20.7173 -21 10.5C-21 0.282732 13.0264 -8 55 -8C96.9736 -8 131 0.282732 131 10.5Z" fill="url(#paint2_radial_105_288)"/>
<path d="M89 1C89 3.20914 68.4051 5 43 5C17.5949 5 -3 3.20914 -3 1C-3 -1.20914 17.5949 -3 43 -3C68.4051 -3 89 -1.20914 89 1Z" fill="url(#paint3_radial_105_288)"/>
<path d="M13.7617 15V7.8418H14.7334L18.4932 13.4619V7.8418H19.4014V15H18.4297L14.6699 9.375V15H13.7617ZM24.2842 15V14.2383C23.8805 14.8242 23.332 15.1172 22.6387 15.1172C22.3327 15.1172 22.0462 15.0586 21.7793 14.9414C21.5156 14.8242 21.3187 14.6777 21.1885 14.502C21.0615 14.3229 20.972 14.1048 20.9199 13.8477C20.8841 13.6751 20.8662 13.4017 20.8662 13.0273V9.81445H21.7451V12.6904C21.7451 13.1494 21.763 13.4587 21.7988 13.6182C21.8542 13.8493 21.9714 14.0316 22.1504 14.165C22.3294 14.2952 22.5508 14.3604 22.8145 14.3604C23.0781 14.3604 23.3255 14.2936 23.5566 14.1602C23.7878 14.0234 23.9505 13.8395 24.0449 13.6084C24.1426 13.374 24.1914 13.0355 24.1914 12.5928V9.81445H25.0703V15H24.2842ZM26.4521 15V9.81445H27.2383V10.542C27.401 10.2881 27.6175 10.0846 27.8877 9.93164C28.1579 9.77539 28.4655 9.69727 28.8105 9.69727C29.1947 9.69727 29.5088 9.77702 29.7529 9.93652C30.0003 10.096 30.1745 10.319 30.2754 10.6055C30.6855 10 31.2194 9.69727 31.877 9.69727C32.3913 9.69727 32.7868 9.84049 33.0635 10.127C33.3402 10.4102 33.4785 10.848 33.4785 11.4404V15H32.6045V11.7334C32.6045 11.3818 32.5752 11.1296 32.5166 10.9766C32.4613 10.8203 32.3587 10.695 32.209 10.6006C32.0592 10.5062 31.8835 10.459 31.6816 10.459C31.3171 10.459 31.0143 10.5811 30.7734 10.8252C30.5326 11.0661 30.4121 11.4535 30.4121 11.9873V15H29.5332V11.6309C29.5332 11.2402 29.4616 10.9473 29.3184 10.752C29.1751 10.5566 28.9408 10.459 28.6152 10.459C28.3678 10.459 28.1383 10.5241 27.9268 10.6543C27.7184 10.7845 27.5671 10.9749 27.4727 11.2256C27.3783 11.4762 27.3311 11.8376 27.3311 12.3096V15H26.4521ZM35.5928 15H34.7773V7.8418H35.6562V10.3955C36.0273 9.93001 36.501 9.69727 37.0771 9.69727C37.3962 9.69727 37.6973 9.76237 37.9805 9.89258C38.2669 10.0195 38.5013 10.2002 38.6836 10.4346C38.8691 10.6657 39.014 10.9456 39.1182 11.2744C39.2223 11.6032 39.2744 11.9548 39.2744 12.3291C39.2744 13.2178 39.0547 13.9046 38.6152 14.3896C38.1758 14.8747 37.6484 15.1172 37.0332 15.1172C36.4212 15.1172 35.9411 14.8617 35.5928 14.3506V15ZM35.583 12.3682C35.583 12.9899 35.6676 13.4391 35.8369 13.7158C36.1136 14.1683 36.488 14.3945 36.96 14.3945C37.3441 14.3945 37.6761 14.2285 37.9561 13.8965C38.236 13.5612 38.376 13.0632 38.376 12.4023C38.376 11.7253 38.2409 11.2256 37.9707 10.9033C37.7038 10.5811 37.3799 10.4199 36.999 10.4199C36.6149 10.4199 36.2829 10.5876 36.0029 10.9229C35.723 11.2549 35.583 11.7367 35.583 12.3682ZM43.8984 13.3301L44.8066 13.4424C44.6634 13.973 44.3981 14.3848 44.0107 14.6777C43.6234 14.9707 43.1286 15.1172 42.5264 15.1172C41.7679 15.1172 41.1657 14.8844 40.7197 14.4189C40.277 13.9502 40.0557 13.2943 40.0557 12.4512C40.0557 11.5788 40.2803 10.9017 40.7295 10.4199C41.1787 9.93815 41.7614 9.69727 42.4775 9.69727C43.1709 9.69727 43.7373 9.93327 44.1768 10.4053C44.6162 10.8773 44.8359 11.5413 44.8359 12.3975C44.8359 12.4495 44.8343 12.5277 44.8311 12.6318H40.9639C40.9964 13.2015 41.1576 13.6377 41.4473 13.9404C41.737 14.2432 42.0983 14.3945 42.5312 14.3945C42.8535 14.3945 43.1286 14.3099 43.3564 14.1406C43.5843 13.9714 43.765 13.7012 43.8984 13.3301ZM41.0127 11.9092H43.9082C43.8691 11.473 43.7585 11.1458 43.5762 10.9277C43.2962 10.5892 42.9333 10.4199 42.4873 10.4199C42.0837 10.4199 41.7435 10.555 41.4668 10.8252C41.1934 11.0954 41.042 11.4567 41.0127 11.9092ZM45.9053 15V9.81445H46.6963V10.6006C46.8981 10.2327 47.0837 9.99023 47.2529 9.87305C47.4255 9.75586 47.6143 9.69727 47.8193 9.69727C48.1156 9.69727 48.4167 9.79167 48.7227 9.98047L48.4199 10.7959C48.2051 10.6689 47.9902 10.6055 47.7754 10.6055C47.5833 10.6055 47.4108 10.6641 47.2578 10.7812C47.1048 10.8952 46.9958 11.0547 46.9307 11.2598C46.833 11.5723 46.7842 11.9141 46.7842 12.2852V15H45.9053ZM51.7012 12.4072C51.7012 11.4469 51.9681 10.7357 52.502 10.2734C52.9479 9.88932 53.4915 9.69727 54.1328 9.69727C54.8457 9.69727 55.4284 9.93164 55.8809 10.4004C56.3333 10.8659 56.5596 11.5104 56.5596 12.334C56.5596 13.0013 56.4587 13.527 56.2568 13.9111C56.0583 14.292 55.7669 14.5882 55.3828 14.7998C55.002 15.0114 54.5853 15.1172 54.1328 15.1172C53.4069 15.1172 52.8193 14.8844 52.3701 14.4189C51.9242 13.9535 51.7012 13.2829 51.7012 12.4072ZM52.6045 12.4072C52.6045 13.0713 52.7493 13.5693 53.0391 13.9014C53.3288 14.2301 53.6934 14.3945 54.1328 14.3945C54.569 14.3945 54.932 14.2285 55.2217 13.8965C55.5114 13.5645 55.6562 13.0583 55.6562 12.3779C55.6562 11.7367 55.5098 11.2516 55.2168 10.9229C54.9271 10.5908 54.5658 10.4248 54.1328 10.4248C53.6934 10.4248 53.3288 10.5892 53.0391 10.918C52.7493 11.2467 52.6045 11.7432 52.6045 12.4072ZM57.8047 15V10.498H57.0283V9.81445H57.8047V9.2627C57.8047 8.91439 57.8356 8.6556 57.8975 8.48633C57.9821 8.25846 58.1302 8.07454 58.3418 7.93457C58.5566 7.79134 58.8561 7.71973 59.2402 7.71973C59.4876 7.71973 59.7611 7.74902 60.0605 7.80762L59.9287 8.57422C59.7464 8.54167 59.5739 8.52539 59.4111 8.52539C59.1442 8.52539 58.9554 8.58236 58.8447 8.69629C58.734 8.81022 58.6787 9.02344 58.6787 9.33594V9.81445H59.6895V10.498H58.6787V15H57.8047ZM63.166 8.85254V7.8418H64.0449V8.85254H63.166ZM63.166 15V9.81445H64.0449V15H63.166ZM65.3877 15V9.81445H66.1738V10.542C66.3366 10.2881 66.5531 10.0846 66.8232 9.93164C67.0934 9.77539 67.401 9.69727 67.7461 9.69727C68.1302 9.69727 68.4443 9.77702 68.6885 9.93652C68.9359 10.096 69.11 10.319 69.2109 10.6055C69.6211 10 70.1549 9.69727 70.8125 9.69727C71.3268 9.69727 71.7223 9.84049 71.999 10.127C72.2757 10.4102 72.4141 10.848 72.4141 11.4404V15H71.54V11.7334C71.54 11.3818 71.5107 11.1296 71.4521 10.9766C71.3968 10.8203 71.2943 10.695 71.1445 10.6006C70.9948 10.5062 70.819 10.459 70.6172 10.459C70.2526 10.459 69.9499 10.5811 69.709 10.8252C69.4681 11.0661 69.3477 11.4535 69.3477 11.9873V15H68.4688V11.6309C68.4688 11.2402 68.3971 10.9473 68.2539 10.752C68.1107 10.5566 67.8763 10.459 67.5508 10.459C67.3034 10.459 67.0739 10.5241 66.8623 10.6543C66.654 10.7845 66.5026 10.9749 66.4082 11.2256C66.3138 11.4762 66.2666 11.8376 66.2666 12.3096V15H65.3877ZM77.1016 14.3604C76.776 14.637 76.4619 14.8324 76.1592 14.9463C75.8597 15.0602 75.5374 15.1172 75.1924 15.1172C74.6227 15.1172 74.1849 14.9788 73.8789 14.7021C73.5729 14.4222 73.4199 14.0658 73.4199 13.6328C73.4199 13.3789 73.4769 13.1478 73.5908 12.9395C73.708 12.7279 73.8594 12.5586 74.0449 12.4316C74.2337 12.3047 74.4453 12.2087 74.6797 12.1436C74.8522 12.098 75.1126 12.054 75.4609 12.0117C76.1706 11.9271 76.693 11.8262 77.0283 11.709C77.0316 11.5885 77.0332 11.512 77.0332 11.4795C77.0332 11.1214 76.9502 10.8691 76.7842 10.7227C76.5596 10.5241 76.2259 10.4248 75.7832 10.4248C75.3698 10.4248 75.0638 10.498 74.8652 10.6445C74.6699 10.7878 74.5251 11.0433 74.4307 11.4111L73.5713 11.2939C73.6494 10.9261 73.778 10.6299 73.957 10.4053C74.1361 10.1774 74.3949 10.0033 74.7334 9.88281C75.0719 9.75911 75.4642 9.69727 75.9102 9.69727C76.3529 9.69727 76.7126 9.74935 76.9893 9.85352C77.266 9.95768 77.4694 10.0895 77.5996 10.249C77.7298 10.4053 77.821 10.6038 77.873 10.8447C77.9023 10.9945 77.917 11.2646 77.917 11.6553V12.8271C77.917 13.6442 77.9349 14.1618 77.9707 14.3799C78.0098 14.5947 78.0846 14.8014 78.1953 15H77.2773C77.1862 14.8177 77.1276 14.6045 77.1016 14.3604ZM77.0283 12.3975C76.7093 12.5277 76.2308 12.6383 75.5928 12.7295C75.2314 12.7816 74.9759 12.8402 74.8262 12.9053C74.6764 12.9704 74.5609 13.0664 74.4795 13.1934C74.3981 13.3171 74.3574 13.4554 74.3574 13.6084C74.3574 13.8428 74.4453 14.0381 74.6211 14.1943C74.8001 14.3506 75.0605 14.4287 75.4023 14.4287C75.7409 14.4287 76.042 14.3555 76.3057 14.209C76.5693 14.0592 76.763 13.8558 76.8867 13.5986C76.9811 13.4001 77.0283 13.1071 77.0283 12.7197V12.3975ZM79.123 15.4297L79.9775 15.5566C80.0133 15.8203 80.1126 16.0124 80.2754 16.1328C80.4935 16.2956 80.7913 16.377 81.1689 16.377C81.5758 16.377 81.89 16.2956 82.1113 16.1328C82.3327 15.9701 82.4824 15.7422 82.5605 15.4492C82.6061 15.2702 82.6273 14.8942 82.624 14.3213C82.2399 14.7738 81.7614 15 81.1885 15C80.4756 15 79.9238 14.7428 79.5332 14.2285C79.1426 13.7142 78.9473 13.0973 78.9473 12.3779C78.9473 11.8831 79.0368 11.4274 79.2158 11.0107C79.3949 10.5908 79.6536 10.2669 79.9922 10.0391C80.334 9.8112 80.7344 9.69727 81.1934 9.69727C81.8053 9.69727 82.3099 9.94466 82.707 10.4395V9.81445H83.5176V14.2969C83.5176 15.1042 83.4346 15.6755 83.2686 16.0107C83.1058 16.3493 82.8454 16.6162 82.4873 16.8115C82.1325 17.0068 81.6947 17.1045 81.1738 17.1045C80.5553 17.1045 80.0557 16.9645 79.6748 16.6846C79.2939 16.4079 79.11 15.9896 79.123 15.4297ZM79.8506 12.3145C79.8506 12.9948 79.9857 13.4912 80.2559 13.8037C80.526 14.1162 80.8646 14.2725 81.2715 14.2725C81.6751 14.2725 82.0137 14.1178 82.2871 13.8086C82.5605 13.4961 82.6973 13.0078 82.6973 12.3438C82.6973 11.709 82.5557 11.2305 82.2725 10.9082C81.9925 10.5859 81.654 10.4248 81.2568 10.4248C80.8662 10.4248 80.5342 10.5843 80.2607 10.9033C79.9873 11.2191 79.8506 11.6895 79.8506 12.3145ZM88.4004 13.3301L89.3086 13.4424C89.1654 13.973 88.9001 14.3848 88.5127 14.6777C88.1253 14.9707 87.6305 15.1172 87.0283 15.1172C86.2699 15.1172 85.6676 14.8844 85.2217 14.4189C84.779 13.9502 84.5576 13.2943 84.5576 12.4512C84.5576 11.5788 84.7822 10.9017 85.2314 10.4199C85.6807 9.93815 86.2633 9.69727 86.9795 9.69727C87.6729 9.69727 88.2393 9.93327 88.6787 10.4053C89.1182 10.8773 89.3379 11.5413 89.3379 12.3975C89.3379 12.4495 89.3363 12.5277 89.333 12.6318H85.4658C85.4984 13.2015 85.6595 13.6377 85.9492 13.9404C86.2389 14.2432 86.6003 14.3945 87.0332 14.3945C87.3555 14.3945 87.6305 14.3099 87.8584 14.1406C88.0863 13.9714 88.2669 13.7012 88.4004 13.3301ZM85.5146 11.9092H88.4102C88.3711 11.473 88.2604 11.1458 88.0781 10.9277C87.7982 10.5892 87.4352 10.4199 86.9893 10.4199C86.5856 10.4199 86.2454 10.555 85.9688 10.8252C85.6953 11.0954 85.5439 11.4567 85.5146 11.9092ZM90.0654 13.4521L90.9346 13.3154C90.9834 13.6637 91.1185 13.9307 91.3398 14.1162C91.5645 14.3018 91.877 14.3945 92.2773 14.3945C92.681 14.3945 92.9805 14.3132 93.1758 14.1504C93.3711 13.9844 93.4688 13.7907 93.4688 13.5693C93.4688 13.3708 93.3825 13.2145 93.21 13.1006C93.0895 13.0225 92.79 12.9232 92.3115 12.8027C91.667 12.64 91.2194 12.5 90.9688 12.3828C90.7214 12.2624 90.5326 12.098 90.4023 11.8896C90.2754 11.6781 90.2119 11.4453 90.2119 11.1914C90.2119 10.9603 90.264 10.7471 90.3682 10.5518C90.4756 10.3532 90.6204 10.1888 90.8027 10.0586C90.9395 9.95768 91.125 9.87305 91.3594 9.80469C91.597 9.73307 91.8509 9.69727 92.1211 9.69727C92.528 9.69727 92.8844 9.75586 93.1904 9.87305C93.4997 9.99023 93.7275 10.1497 93.874 10.3516C94.0205 10.5501 94.1214 10.8171 94.1768 11.1523L93.3174 11.2695C93.2783 11.0026 93.1644 10.7943 92.9756 10.6445C92.79 10.4948 92.5264 10.4199 92.1846 10.4199C91.7809 10.4199 91.4928 10.4867 91.3203 10.6201C91.1478 10.7536 91.0615 10.9098 91.0615 11.0889C91.0615 11.2028 91.0973 11.3053 91.1689 11.3965C91.2406 11.4909 91.3529 11.569 91.5059 11.6309C91.5938 11.6634 91.8525 11.7383 92.2822 11.8555C92.904 12.0215 93.3369 12.1582 93.5811 12.2656C93.8285 12.3698 94.0221 12.5228 94.1621 12.7246C94.3021 12.9264 94.3721 13.1771 94.3721 13.4766C94.3721 13.7695 94.2858 14.0462 94.1133 14.3066C93.944 14.5638 93.6982 14.764 93.376 14.9072C93.0537 15.0472 92.6891 15.1172 92.2822 15.1172C91.6084 15.1172 91.0941 14.9772 90.7393 14.6973C90.3877 14.4173 90.1631 14.0023 90.0654 13.4521Z" fill="#C5C6C9"/>
<path d="M153.581 14.375L154.873 14.2656C154.969 14.8945 155.19 15.3685 155.536 15.6875C155.887 16.002 156.309 16.1592 156.801 16.1592C157.393 16.1592 157.895 15.9359 158.305 15.4893C158.715 15.0426 158.92 14.4502 158.92 13.7119C158.92 13.0101 158.722 12.4564 158.325 12.0508C157.933 11.6452 157.418 11.4424 156.78 11.4424C156.384 11.4424 156.026 11.5335 155.707 11.7158C155.388 11.8936 155.137 12.126 154.955 12.4131L153.8 12.2627L154.771 7.11523H159.754V8.29102H155.755L155.215 10.9844C155.816 10.5651 156.448 10.3555 157.108 10.3555C157.983 10.3555 158.722 10.6585 159.323 11.2646C159.925 11.8708 160.226 12.6501 160.226 13.6025C160.226 14.5094 159.961 15.2933 159.433 15.9541C158.79 16.7653 157.913 17.1709 156.801 17.1709C155.889 17.1709 155.144 16.9157 154.565 16.4053C153.991 15.8949 153.663 15.2181 153.581 14.375Z" fill="#C5C6C9"/>
</g>
</g>
<defs>
<filter id="filter0_d_105_288" x="0" y="0" width="174" height="31" filterUnits="userSpaceOnUse" color-interpolation-filters="sRGB">
<feFlood flood-opacity="0" result="BackgroundImageFix"/>
<feColorMatrix in="SourceAlpha" type="matrix" values="0 0 0 0 0 0 0 0 0 0 0 0 0 0 0 0 0 0 127 0" result="hardAlpha"/>
<feOffset dy="4"/>
<feGaussianBlur stdDeviation="2"/>
<feComposite in2="hardAlpha" operator="out"/>
<feColorMatrix type="matrix" values="0 0 0 0 0 0 0 0 0 0 0 0 0 0 0 0 0 0 0.25 0"/>
<feBlend mode="normal" in2="BackgroundImageFix" result="effect1_dropShadow_105_288"/>
<feBlend mode="normal" in="SourceGraphic" in2="effect1_dropShadow_105_288" result="shape"/>
</filter>
<linearGradient id="paint0_linear_105_288" x1="4" y1="11.5" x2="170" y2="11.5" gradientUnits="userSpaceOnUse">
<stop stop-color="white" stop-opacity="0.8"/>
<stop offset="1" stop-color="#9C81F2"/>
</linearGradient>
<radialGradient id="paint1_radial_105_288" cx="0" cy="0" r="1" gradientUnits="userSpaceOnUse" gradientTransform="translate(34.5 0.500013) scale(26.7143 466.771)">
<stop stop-color="white" stop-opacity="0.7"/>
<stop offset="1" stop-color="white" stop-opacity="0"/>
<stop offset="1" stop-color="white" stop-opacity="0"/>
</radialGradient>
<radialGradient id="paint2_radial_105_288" cx="0" cy="0" r="1" gradientUnits="userSpaceOnUse" gradientTransform="translate(50.7303 13.0814) rotate(100.153) scale(14.5328 57.8766)">
<stop stop-color="#121212" stop-opacity="0.5"/>
<stop offset="1" stop-color="#121212" stop-opacity="0"/>
</radialGradient>
<radialGradient id="paint3_radial_105_288" cx="0" cy="0" r="1" gradientUnits="userSpaceOnUse" gradientTransform="translate(39.0571 1) rotate(90) scale(3.6 41.4)">
<stop stop-color="#9C81F2" stop-opacity="0.55"/>
<stop offset="0.0001" stop-color="#9C81F2" stop-opacity="0.13"/>
<stop offset="1" stop-color="#9C81F2" stop-opacity="0"/>
</radialGradient>
<clipPath id="clip0_105_288">
<rect x="4" width="166" height="23" rx="4" fill="white"/>
</clipPath>
</defs>
</svg>
