<svg width="166" height="22" viewBox="0 0 166 22" fill="none" xmlns="http://www.w3.org/2000/svg">
<path d="M46.8071 5.5L48.9865 1.83333L49.4163 2.0888L50.3606 0.5H52.0748V0H56.0721V0.5H60.0694V0H64.0667V0.5H68.0639V0H72.0612V0.5H76.0585V0H80.0558V0.5H84.0531V0H88.0503V0.5H92.0476V0H96.0449V0.5H100.042V0H104.039V0.5H108.037V0H112.034V0.5H116.031V0H120.029V0.5H124.026V0H128.023V0.5H132.02V0H136.018V0.5H140.015V0H144.012V0.5H148.01V0H152.007V0.5H156.004V0H160.001V0.5H162C162.475 0.5 162.928 0.594543 163.34 0.765386L163.531 0.303522C164.509 0.708983 165.291 1.49109 165.696 2.46885L165.235 2.66038C165.405 3.07236 165.5 3.52451 165.5 4V5.75H166V9.25H165.5V12.75H166V16.25H165.5V18C165.5 18.4755 165.405 18.9276 165.235 19.3396L165.696 19.5312C165.291 20.5089 164.509 21.291 163.531 21.6965L163.34 21.2346C162.928 21.4055 162.475 21.5 162 21.5H160.047V22H156.141V21.5H152.234V22H148.328V21.5H144.422V22H140.516V21.5H136.609V22H132.703V21.5H128.797V22H124.891V21.5H120.984V22H117.078V21.5H113.172V22H109.266V21.5H105.359V22H101.453V21.5H97.5469V22H93.6406V21.5H89.7344V22H85.8281V21.5H81.9219V22H78.0156V21.5H74.1094V22H70.2031V21.5H66.2969V22H62.3906V21.5H58.4844V22H54.5781V21.5H50.6719V22H46.7656V21.5H42.8594V22H38.9531V21.5H37.8788L38.5195 20.4221L38.0897 20.1667L40.269 16.5L40.6989 16.7555L42.8782 13.0888L42.4484 12.8333L44.6278 9.16667L45.0576 9.42213L47.2369 5.75547L46.8071 5.5Z" stroke="#2A2D38" stroke-dasharray="4 4"/>
<path d="M49.4997 5.5L52.3182 1.83333L52.7146 2.13805L53.9738 0.5H55.6609V0H59.5278V0.5H63.3947V0H67.2616V0.5H71.1285V0H74.9954V0.5H78.8623V0H82.7292V0.5H86.5961V0H90.463V0.5H94.3299V0H98.1968V0.5H102.064V0H105.931V0.5H109.797V0H113.664V0.5H117.531V0H121.398V0.5H125.265V0H129.132V0.5H132.999V0H136.866V0.5H140.733V0H144.6V0.5H148.466V0H152.333V0.5H156.2V0H160.067V0.5H162.001C162.476 0.5 162.928 0.594542 163.34 0.765384L163.532 0.303521C164.51 0.708982 165.292 1.49109 165.697 2.46885L165.235 2.66037C165.406 3.07236 165.501 3.52451 165.501 4V5.75H166.001V9.25H165.501V12.75H166.001V16.25H165.501V18C165.501 18.4755 165.406 18.9276 165.235 19.3396L165.697 19.5312C165.292 20.5089 164.51 21.291 163.532 21.6965L163.34 21.2346C162.928 21.4055 162.476 21.5 162.001 21.5H160.045V22H156.133V21.5H152.221V22H148.309V21.5H144.397V22H140.485V21.5H136.573V22H132.661V21.5H128.749V22H124.837V21.5H120.925V22H117.013V21.5H113.101V22H109.189V21.5H105.277V22H101.365V21.5H97.4525V22H93.5405V21.5H89.6285V22H85.7165V21.5H81.8045V22H77.8925V21.5H73.9805V22H70.0685V21.5H66.1565V22H62.2444V21.5H58.3324V22H54.4204V21.5H50.5084V22H46.5964V21.5H42.6844V22H38.7724V21.5H37.8314L38.6221 20.4714L38.2257 20.1667L41.0442 16.5L41.4406 16.8047L44.2591 13.1381L43.8627 12.8333L46.6812 9.16667L47.0776 9.47139L49.8961 5.80472L49.4997 5.5Z" stroke="#C5C6C9" stroke-dasharray="4 4"/>
<g clip-path="url(#clip0_138_607)">
<path d="M0 4C0 1.79086 1.79086 0 4 0H55L38.0769 22H4C1.79086 22 0 20.2091 0 18V4Z" fill="#2A2D38"/>
<path d="M0.5 4C0.5 2.067 2.067 0.5 4 0.5H53.9846L37.8307 21.5H4C2.06701 21.5 0.5 19.933 0.5 18V4Z" fill="#9C81F2" fill-opacity="0.15" stroke="url(#paint0_linear_138_607)"/>
<ellipse cx="23.5" cy="11" rx="31.5" ry="13" fill="url(#paint1_radial_138_607)"/>
<path d="M6.77148 14V6.8418H9.47168C9.94694 6.8418 10.3099 6.86458 10.5605 6.91016C10.9121 6.96875 11.2067 7.08105 11.4443 7.24707C11.682 7.40983 11.8724 7.63932 12.0156 7.93555C12.1621 8.23177 12.2354 8.55729 12.2354 8.91211C12.2354 9.52083 12.0417 10.0368 11.6543 10.46C11.2669 10.8799 10.5671 11.0898 9.55469 11.0898H7.71875V14H6.77148ZM7.71875 10.2451H9.56934C10.1813 10.2451 10.6159 10.1312 10.873 9.90332C11.1302 9.67546 11.2588 9.35482 11.2588 8.94141C11.2588 8.64193 11.1823 8.38639 11.0293 8.1748C10.8796 7.95996 10.681 7.81836 10.4336 7.75C10.2741 7.70768 9.97949 7.68652 9.5498 7.68652H7.71875V10.2451ZM13.3193 14V8.81445H14.1104V9.60059C14.3122 9.23275 14.4977 8.99023 14.667 8.87305C14.8395 8.75586 15.0283 8.69727 15.2334 8.69727C15.5296 8.69727 15.8307 8.79167 16.1367 8.98047L15.834 9.7959C15.6191 9.66895 15.4043 9.60547 15.1895 9.60547C14.9974 9.60547 14.8249 9.66406 14.6719 9.78125C14.5189 9.89518 14.4098 10.0547 14.3447 10.2598C14.2471 10.5723 14.1982 10.9141 14.1982 11.2852V14H13.3193ZM16.332 11.4072C16.332 10.4469 16.599 9.73568 17.1328 9.27344C17.5788 8.88932 18.1224 8.69727 18.7637 8.69727C19.4766 8.69727 20.0592 8.93164 20.5117 9.40039C20.9642 9.86589 21.1904 10.5104 21.1904 11.334C21.1904 12.0013 21.0895 12.527 20.8877 12.9111C20.6891 13.292 20.3978 13.5882 20.0137 13.7998C19.6328 14.0114 19.2161 14.1172 18.7637 14.1172C18.0378 14.1172 17.4502 13.8844 17.001 13.4189C16.555 12.9535 16.332 12.2829 16.332 11.4072ZM17.2354 11.4072C17.2354 12.0713 17.3802 12.5693 17.6699 12.9014C17.9596 13.2301 18.3242 13.3945 18.7637 13.3945C19.1999 13.3945 19.5628 13.2285 19.8525 12.8965C20.1423 12.5645 20.2871 12.0583 20.2871 11.3779C20.2871 10.7367 20.1406 10.2516 19.8477 9.92285C19.5579 9.59082 19.1966 9.4248 18.7637 9.4248C18.3242 9.4248 17.9596 9.58919 17.6699 9.91797C17.3802 10.2467 17.2354 10.7432 17.2354 11.4072ZM22.2256 14V8.81445H23.0117V9.54199C23.1745 9.28809 23.391 9.08464 23.6611 8.93164C23.9313 8.77539 24.2389 8.69727 24.584 8.69727C24.9681 8.69727 25.2822 8.77702 25.5264 8.93652C25.7738 9.09603 25.9479 9.31901 26.0488 9.60547C26.459 9 26.9928 8.69727 27.6504 8.69727C28.1647 8.69727 28.5602 8.84049 28.8369 9.12695C29.1136 9.41016 29.252 9.84798 29.252 10.4404V14H28.3779V10.7334C28.3779 10.3818 28.3486 10.1296 28.29 9.97656C28.2347 9.82031 28.1322 9.69499 27.9824 9.60059C27.8327 9.50618 27.6569 9.45898 27.4551 9.45898C27.0905 9.45898 26.7878 9.58105 26.5469 9.8252C26.306 10.0661 26.1855 10.4535 26.1855 10.9873V14H25.3066V10.6309C25.3066 10.2402 25.235 9.94727 25.0918 9.75195C24.9486 9.55664 24.7142 9.45898 24.3887 9.45898C24.1413 9.45898 23.9118 9.52409 23.7002 9.6543C23.4919 9.78451 23.3405 9.97493 23.2461 10.2256C23.1517 10.4762 23.1045 10.8376 23.1045 11.3096V14H22.2256ZM30.5557 15.9873V8.81445H31.3564V9.48828C31.5452 9.22461 31.7585 9.02767 31.9961 8.89746C32.2337 8.764 32.5218 8.69727 32.8604 8.69727C33.3031 8.69727 33.6937 8.8112 34.0322 9.03906C34.3708 9.26693 34.6263 9.58919 34.7988 10.0059C34.9714 10.4193 35.0576 10.8734 35.0576 11.3682C35.0576 11.8988 34.9616 12.3773 34.7695 12.8037C34.5807 13.2269 34.304 13.5524 33.9395 13.7803C33.5781 14.0049 33.1973 14.1172 32.7969 14.1172C32.5039 14.1172 32.2402 14.0553 32.0059 13.9316C31.7747 13.8079 31.5843 13.6517 31.4346 13.4629V15.9873H30.5557ZM31.3516 11.4365C31.3516 12.1038 31.4867 12.597 31.7568 12.916C32.027 13.235 32.3542 13.3945 32.7383 13.3945C33.1289 13.3945 33.4626 13.2301 33.7393 12.9014C34.0192 12.5693 34.1592 12.0566 34.1592 11.3633C34.1592 10.7025 34.0225 10.2077 33.749 9.87891C33.4788 9.55013 33.1549 9.38574 32.7773 9.38574C32.403 9.38574 32.071 9.56152 31.7812 9.91309C31.4948 10.2614 31.3516 10.7692 31.3516 11.4365ZM38.041 13.2139L38.168 13.9902C37.9206 14.0423 37.6992 14.0684 37.5039 14.0684C37.1849 14.0684 36.9375 14.0179 36.7617 13.917C36.5859 13.8161 36.4622 13.6842 36.3906 13.5215C36.319 13.3555 36.2832 13.0088 36.2832 12.4814V9.49805H35.6387V8.81445H36.2832V7.53027L37.1572 7.00293V8.81445H38.041V9.49805H37.1572V12.5303C37.1572 12.7809 37.1719 12.9421 37.2012 13.0137C37.2337 13.0853 37.2842 13.1423 37.3525 13.1846C37.4242 13.2269 37.5251 13.248 37.6553 13.248C37.7529 13.248 37.8815 13.2367 38.041 13.2139Z" fill="#C5C6C9"/>
<rect x="4" width="15" height="1" fill="url(#paint2_radial_138_607)"/>
<ellipse cx="12" cy="-1.5" rx="12" ry="4.5" fill="url(#paint3_radial_138_607)"/>
</g>
<defs>
<linearGradient id="paint0_linear_138_607" x1="40.7143" y1="18.2188" x2="4.27147" y2="-0.661858" gradientUnits="userSpaceOnUse">
<stop stop-color="#9C81F2"/>
<stop offset="1" stop-color="white" stop-opacity="0.9"/>
</linearGradient>
<radialGradient id="paint1_radial_138_607" cx="0" cy="0" r="1" gradientUnits="userSpaceOnUse" gradientTransform="translate(23.5 11) rotate(90) scale(13 31.5)">
<stop stop-color="#121212"/>
<stop offset="1" stop-color="#121212" stop-opacity="0"/>
</radialGradient>
<radialGradient id="paint2_radial_138_607" cx="0" cy="0" r="1" gradientUnits="userSpaceOnUse" gradientTransform="translate(11.5 0.5) scale(7.98387 511.5)">
<stop stop-color="white" stop-opacity="0.9"/>
<stop offset="1" stop-color="white" stop-opacity="0"/>
</radialGradient>
<radialGradient id="paint3_radial_138_607" cx="0" cy="0" r="1" gradientUnits="userSpaceOnUse" gradientTransform="translate(12 -1.5) rotate(90) scale(4.5 12)">
<stop stop-color="#F5857A" stop-opacity="0.21"/>
<stop offset="1" stop-color="#F5857A" stop-opacity="0"/>
</radialGradient>
<clipPath id="clip0_138_607">
<rect width="55" height="22" fill="white"/>
</clipPath>
</defs>
</svg>
