<svg width="13" height="14" viewBox="0 0 13 14" fill="none" xmlns="http://www.w3.org/2000/svg">
<path id="Vector" d="M1.625 11.5938C1.625 11.7481 1.67917 12.314 1.73333 12.4683C1.84167 13.2399 0.920833 13.7028 0.920833 13.7028C0.920833 13.7028 2.275 14.3715 3.4125 13.7028C4.55 13.0341 5.6875 11.5424 4.0625 10.5651C3.68333 10.3593 3.35833 10.2564 3.0875 10.2564C2.22083 10.2564 1.67917 10.9766 1.625 11.5938ZM7.3125 9.58773L6.77083 10.4107C5.90417 11.2338 5.3625 10.9251 5.3625 10.9251C5.79583 12.0053 5.3625 12.7255 5.14583 12.9827C5.57917 13.0855 6.0125 13.137 6.5 13.137C7.42083 13.137 8.23333 12.9827 9.04583 12.6226C9.1 12.6226 9.1 12.5712 9.1 12.5712C9.47917 12.314 9.31667 12.0053 9.20833 11.851C9.04583 11.6453 8.99167 11.4395 8.99167 11.1823C8.99167 10.3079 10.0208 9.58773 11.3208 9.58773H11.7C11.9167 9.58773 12.35 9.74204 12.5125 9.17622C12.5125 9.12478 12.5125 9.12478 12.5667 9.07334C12.5667 9.0219 12.6208 8.97046 12.6208 8.97046C12.7292 8.71327 12.7292 8.71327 12.7292 8.66183C12.8917 8.09601 13 7.47875 13 6.81005C13 5.11258 12.2958 3.62087 11.1583 2.48922C9.75 5.11258 7.3125 9.58773 7.3125 9.58773ZM1.625 5.47265C1.625 5.00971 2.00417 4.64964 2.49167 4.64964C2.97917 4.64964 3.35833 5.00971 3.35833 5.47265C3.35833 5.9356 2.97917 6.29567 2.49167 6.29567C2.00417 6.29567 1.625 5.9356 1.625 5.47265ZM3.25 3.31224C3.25 2.95217 3.575 2.64354 3.95417 2.64354C4.33333 2.64354 4.65833 2.95217 4.65833 3.31224C4.65833 3.67231 4.33333 3.98094 3.95417 3.98094C3.575 3.98094 3.25 3.67231 3.25 3.31224ZM5.57917 2.07772C5.57917 1.87196 5.79583 1.66621 6.0125 1.66621C6.22917 1.66621 6.44583 1.87196 6.44583 2.07772C6.44583 2.28347 6.22917 2.48922 6.0125 2.48922C5.79583 2.48922 5.57917 2.28347 5.57917 2.07772ZM0 6.86149C0 8.25033 0.433333 9.53629 1.24583 10.5651C1.73333 9.58773 3.14167 9.58773 3.35833 9.58773C3.0875 8.76471 3.62917 7.99314 3.62917 7.99314L8.99167 1.20326C8.17917 0.894633 7.3125 0.688879 6.44583 0.688879C2.87083 0.637441 0 3.41512 0 6.86149ZM10.7792 0.123056C10.4 0.431687 4.17083 8.45608 4.17083 8.45608C3.79167 8.91903 3.95417 9.6906 4.55 10.0507L4.7125 10.1535C5.30833 10.5136 6.06667 10.3593 6.39167 9.74204L6.55417 9.43341C7.475 7.73594 11.2125 0.99751 11.4292 0.534564C11.5375 0.225933 11.375 0.0201795 11.1042 0.0201795C10.9958 -0.0312589 10.8875 0.0201796 10.7792 0.123056Z" fill="url(#paint0_linear_1_854)"/>
<defs>
<linearGradient id="paint0_linear_1_854" x1="2" y1="2.5" x2="11" y2="12.5" gradientUnits="userSpaceOnUse">
<stop stop-color="#FF676D"/>
<stop offset="1" stop-color="#536685" stop-opacity="0.9"/>
</linearGradient>
</defs>
</svg>
