<svg width="10" height="10" viewBox="0 0 10 10" fill="none" xmlns="http://www.w3.org/2000/svg">
<path fill-rule="evenodd" clip-rule="evenodd" d="M0.219045 6.75332L1.29754 7.86887L1.74981 7.41659L0.663863 6.29333C0.60879 6.23637 0.619653 6.12895 0.687543 6.05873L1.84494 4.86134L3.05417 6.11223L3.50642 5.65999L2.08369 4.18844C2.05024 4.15372 2.03177 4.10776 2.03177 4.05878C2.03177 4.0099 2.05024 3.96384 2.08369 3.92912L5.20176 0.703915C5.23641 0.668074 5.28182 0.650096 5.32722 0.650096C5.37263 0.650096 5.41792 0.668074 5.45247 0.703691L6.93217 2.23424L7.38444 1.78196L5.89718 0.243702C5.58282 -0.0813463 5.07152 -0.0811216 4.75716 0.243702L1.63899 3.46913C1.41011 3.70575 1.35004 4.0499 1.45432 4.3454L0.242834 5.59863C-0.0714165 5.92368 -0.0820617 6.44153 0.219045 6.75332ZM2.63823 9.25427L1.29881 7.86883L1.75109 7.41656L3.08304 8.79428C3.114 8.82641 3.15256 8.83473 3.18048 8.83068C3.2274 8.829 3.27335 8.80742 3.30974 8.76967L4.46714 7.57251L3.05545 6.1122L3.50769 5.65995L5.11801 7.32555C5.18471 7.39499 5.30159 7.39454 5.3685 7.32555L8.48668 4.10012C8.52014 4.06529 8.5386 4.01934 8.5386 3.97046C8.5386 3.92147 8.52014 3.87552 8.48668 3.8408L6.93344 2.2342L7.38572 1.78193L8.9315 3.3807C9.08379 3.53834 9.16765 3.74777 9.16765 3.97035C9.16765 4.19338 9.08368 4.4027 8.93139 4.56022L5.81321 7.78554C5.66092 7.94306 5.45844 8.02969 5.24315 8.02969C5.1468 8.02969 5.05382 8.0098 4.96594 7.97654L3.75445 9.22966C3.70937 9.27629 3.65897 9.31483 3.6064 9.3491H8.83167C9.00536 9.3491 9.14614 9.49482 9.14614 9.67437C9.14614 9.85392 9.00536 9.99964 8.83167 9.99964H0.327455C0.153765 9.99964 0.0129874 9.85392 0.0129874 9.67437C0.0129874 9.49482 0.153765 9.3491 0.327455 9.3491H2.75C2.71035 9.32146 2.67277 9.29 2.63823 9.25427Z" fill="#C4C6CA"/>
</svg>
