<svg width="10" height="10" viewBox="0 0 10 10" fill="none" xmlns="http://www.w3.org/2000/svg">
<path fill-rule="evenodd" clip-rule="evenodd" d="M6.86793 3.13093L6.8684 3.13046C8.68064 4.00089 9.95093 5.89496 9.99799 8.10692L9.99915 8.23406C9.99915 8.47047 9.98524 8.70521 9.95781 8.93705L9.83031 9.99902L9.25849 9.12319C8.27596 7.61998 6.6795 6.67143 4.91574 6.57795L4.78708 6.57255L4.78747 9.0268C4.78752 9.13942 4.7489 9.24809 4.67903 9.33198C4.60915 9.41586 4.51293 9.46905 4.40883 9.48133L4.36246 9.48383C4.30664 9.48385 4.25137 9.47204 4.19979 9.44909C4.14822 9.42613 4.10135 9.39248 4.06187 9.35004L2.41755 7.58181L2.41712 7.58225L0.158449 5.15337C0.108215 5.09936 0.0683665 5.03523 0.0411797 4.96465C0.0139929 4.89408 0 4.81843 0 4.74204C0 4.66565 0.0139929 4.59001 0.0411797 4.51943C0.0683665 4.44886 0.108215 4.38473 0.158449 4.33072L4.06151 0.133937C4.12093 0.0700147 4.19663 0.0264709 4.27906 0.00881052C4.36148 -0.00884988 4.44693 0.000165985 4.52459 0.0347185C4.60225 0.069271 4.66864 0.127809 4.71537 0.202931C4.76209 0.278054 4.78706 0.366388 4.78711 0.456766V2.6235L4.87018 2.62641C5.58049 2.65938 6.25519 2.83664 6.86793 3.13093ZM2.98318 7.01598L0.868589 4.74204L4.01438 1.35919V3.47607L4.41774 3.45737C4.48729 3.45405 4.55761 3.45239 4.62792 3.45239L4.74499 3.45364C5.27131 3.46737 5.77551 3.57302 6.2434 3.75568L6.24387 3.7552C7.8141 4.36826 8.97528 5.84865 9.19049 7.63286L9.2044 7.76664L9.17426 7.7334C7.99507 6.47699 6.37079 5.73992 4.62828 5.73992C4.54753 5.73992 4.46717 5.74117 4.38719 5.74408L4.24945 5.74961L4.24892 5.75014L4.01438 5.75956V5.98487L4.01474 5.98451V8.12437L2.98361 7.01555L2.98318 7.01598Z" fill="#C4C6CA"/>
</svg>
