<svg width="16" height="16" viewBox="0 0 16 16" fill="none" xmlns="http://www.w3.org/2000/svg">
<g filter="url(#filter0_d_206_363)">
<path fill-rule="evenodd" clip-rule="evenodd" d="M12.2946 2.70543C12.2718 2.70397 12.2489 2.70324 12.2259 2.70324H7.55321C7.53122 2.70322 7.5095 2.69849 7.4895 2.68936C7.4695 2.68024 7.45168 2.66693 7.43726 2.65034L6.32699 1.37091C6.22589 1.25441 6.10093 1.161 5.96058 1.09701C5.82023 1.03301 5.66776 0.99993 5.51351 1H3.61436C3.32887 1 3.05507 1.11341 2.8532 1.31528C2.65133 1.51715 2.53792 1.79095 2.53792 2.07644V4.69068H1.46144C1.39586 4.69067 1.33103 4.70463 1.27128 4.73165C1.21152 4.75867 1.15821 4.79811 1.11491 4.84735C1.0716 4.8966 1.03929 4.95451 1.02013 5.01723C1.00097 5.07994 0.995401 5.14602 1.00379 5.21106L1.88955 12.0563C1.92311 12.3157 2.04997 12.554 2.24643 12.7267C2.2512 12.7309 2.25601 12.7351 2.26085 12.7392L2.93042 12.0696C2.89839 12.064 2.86897 12.0483 2.84637 12.0249C2.82344 12.0012 2.80877 11.9706 2.80453 11.9379L1.98612 5.61334H9.38666L10.3093 4.69065H3.46058V2.07644C3.46058 2.03566 3.47679 1.99654 3.50562 1.9677C3.53446 1.93886 3.57358 1.92266 3.61436 1.92266H5.51382C5.5358 1.92268 5.55753 1.92741 5.57753 1.93654C5.59753 1.94566 5.61534 1.95897 5.62976 1.97556L6.74004 3.25499C6.8411 3.37145 6.96601 3.46484 7.10631 3.52883C7.2466 3.59282 7.39901 3.62593 7.55321 3.6259H11.3741L12.2946 2.70543ZM8.31024 6.68976H6.07487L6.03058 6.69191C5.91266 6.70334 5.80365 6.7597 5.72616 6.84932C5.64866 6.93893 5.6086 7.05492 5.6143 7.17326C5.61999 7.2916 5.67099 7.40321 5.75674 7.48497C5.84248 7.56673 5.95639 7.61236 6.07487 7.61242H7.38758L8.31024 6.68976Z" fill="url(#paint0_linear_206_363)"/>
</g>
<path fill-rule="evenodd" clip-rule="evenodd" d="M12.2954 2.70557L11.375 3.62604H12.2268L12.2544 3.62881C12.2898 3.63527 12.3218 3.65392 12.3448 3.68151C12.3678 3.70909 12.3805 3.74388 12.3805 3.77981V4.69079H10.3102L9.38753 5.61348H13.8546L13.0365 11.938C13.0317 11.9751 13.0136 12.0092 12.9855 12.0338C12.9574 12.0585 12.9213 12.0721 12.884 12.0721H2.95795L2.93273 12.07C2.93225 12.0699 2.93177 12.0698 2.93129 12.0697L2.26172 12.7393C2.45604 12.9041 2.70273 12.9948 2.95795 12.9948H12.884C13.1454 12.9947 13.3979 12.8995 13.5943 12.7269C13.7907 12.5542 13.9175 12.316 13.9512 12.0567L14.8369 5.2112C14.8453 5.14619 14.8398 5.08013 14.8206 5.01744C14.8015 4.95474 14.7692 4.89685 14.7259 4.84761C14.6826 4.79837 14.6294 4.75892 14.5697 4.73188C14.5099 4.70485 14.4451 4.69085 14.3796 4.69082H13.3032V3.77981C13.3032 3.49432 13.1898 3.22053 12.9879 3.01866C12.8023 2.83304 12.5559 2.72221 12.2954 2.70557ZM7.38845 7.61256H9.76639L9.81068 7.61041C9.9286 7.59897 10.0376 7.54261 10.1151 7.453C10.1926 7.36339 10.2327 7.2474 10.227 7.12906C10.2213 7.01072 10.1703 6.89911 10.0845 6.81735C9.99878 6.73559 9.88487 6.68995 9.76639 6.6899H8.31112L7.38845 7.61256Z" fill="#9D7FF5"/>
<defs>
<filter id="filter0_d_206_363" x="0" y="0" width="15.2949" height="15.7391" filterUnits="userSpaceOnUse" color-interpolation-filters="sRGB">
<feFlood flood-opacity="0" result="BackgroundImageFix"/>
<feColorMatrix in="SourceAlpha" type="matrix" values="0 0 0 0 0 0 0 0 0 0 0 0 0 0 0 0 0 0 127 0" result="hardAlpha"/>
<feOffset dx="1" dy="1"/>
<feGaussianBlur stdDeviation="1"/>
<feComposite in2="hardAlpha" operator="out"/>
<feColorMatrix type="matrix" values="0 0 0 0 0 0 0 0 0 0 0 0 0 0 0 0 0 0 0.57 0"/>
<feBlend mode="normal" in2="BackgroundImageFix" result="effect1_dropShadow_206_363"/>
<feBlend mode="normal" in="SourceGraphic" in2="effect1_dropShadow_206_363" result="shape"/>
</filter>
<linearGradient id="paint0_linear_206_363" x1="3" y1="2" x2="8" y2="7" gradientUnits="userSpaceOnUse">
<stop stop-color="#9D7FF5"/>
<stop offset="1" stop-color="white"/>
</linearGradient>
</defs>
</svg>
