<svg width="26" height="26" viewBox="0 0 26 26" fill="none" xmlns="http://www.w3.org/2000/svg">
<g clip-path="url(#clip0_448_2741)">
<rect x="0.3" y="0.3" width="25.4" height="25.4" rx="5.7" fill="#9D7FF5" fill-opacity="0.1" stroke="url(#paint0_linear_448_2741)" stroke-width="0.6"/>
<ellipse cx="13" cy="14" rx="16" ry="14" fill="url(#paint1_radial_448_2741)" fill-opacity="0.95"/>
<ellipse cx="17.5" cy="19.5" rx="10.5" ry="8.5" fill="url(#paint2_radial_448_2741)"/>
</g>
<path fill-rule="evenodd" clip-rule="evenodd" d="M8.37978 19.3784C8.73766 19.9897 9.50819 20.1839 10.0974 19.8084L10.0973 19.8086L12.9025 18.021C12.9321 18.002 12.9662 17.9919 13.0011 17.9919C13.0359 17.9919 13.0701 18.002 13.0996 18.021L15.9047 19.8086C16.0441 19.8975 16.1993 19.9571 16.3613 19.9838C16.5234 20.0105 16.689 20.0038 16.8485 19.9641C17.5175 19.7977 17.9274 19.1024 17.7695 18.4122L17.0069 15.0765C16.9885 14.9961 17.0147 14.9121 17.0728 14.8602L19.5693 12.6293C19.818 12.4064 19.9716 12.0924 19.9971 11.7546C20.0516 11.0469 19.5428 10.4236 18.8558 10.3661L15.8834 10.1177L14.9923 11.0087C15.1463 11.0965 15.3172 11.1502 15.494 11.1654L18.7705 11.4395C18.8769 11.4483 18.9599 11.5498 18.9506 11.6699C18.9461 11.7277 18.9203 11.7807 18.8796 11.8171L16.3832 14.0479C16.2102 14.2032 16.0817 14.4039 16.0115 14.6284C15.9414 14.8529 15.9321 15.0928 15.9849 15.3222L16.7475 18.658C16.7743 18.7757 16.7062 18.8913 16.601 18.9175C16.5529 18.9295 16.5022 18.9211 16.4591 18.8938L13.654 17.1061C13.4581 16.9811 13.232 16.9149 13.0013 16.9149C12.7706 16.9149 12.5445 16.9811 12.3487 17.1061L9.54337 18.8936C9.45342 18.9509 9.33704 18.9216 9.27982 18.8242C9.25084 18.7742 9.24193 18.7146 9.25496 18.658L9.82169 16.1794L8.4236 17.5774L8.23278 18.4121C8.15739 18.7415 8.21012 19.0882 8.37978 19.3784Z" fill="#9D7FF5"/>
<g filter="url(#filter0_d_448_2741)">
<path fill-rule="evenodd" clip-rule="evenodd" d="M8.42248 17.5775L8.99431 15.0764C9.0034 15.0376 9.00206 14.997 8.99044 14.9589C8.97883 14.9208 8.95737 14.8866 8.92834 14.86L6.43193 12.629C5.9134 12.1659 5.85355 11.3561 6.29683 10.8162C6.4023 10.6874 6.53162 10.5813 6.6773 10.504C6.82298 10.4268 6.98214 10.3799 7.14559 10.366L10.4218 10.0923C10.4932 10.0862 10.5571 10.0379 10.5863 9.96454L11.8486 6.79826C12.1116 6.13865 12.8431 5.82366 13.4814 6.1006C13.7858 6.23327 14.0266 6.48408 14.1513 6.79826L15.4136 9.96436C15.4428 10.0379 15.5067 10.0864 15.5781 10.0923L15.8822 10.1178L14.9912 11.0088C14.9452 10.9825 14.9007 10.9532 14.858 10.921C14.6724 10.7809 14.5284 10.5908 14.4418 10.3718L13.1795 7.20569C13.1598 7.15482 13.1212 7.11404 13.0722 7.09225C12.9754 7.05025 12.8634 7.09853 12.8207 7.20569L11.5583 10.3718C11.4717 10.5908 11.3276 10.7809 11.1421 10.921C10.9566 11.0611 10.7368 11.1457 10.5072 11.1655L7.23082 11.4395C7.20554 11.4418 7.18096 11.4492 7.15848 11.4613C7.13601 11.4733 7.11611 11.4899 7.09991 11.5099C7.06421 11.5541 7.04655 11.6108 7.05063 11.668C7.05471 11.7253 7.0802 11.7787 7.12179 11.8172L9.6182 14.0482C9.79117 14.2035 9.91964 14.4041 9.98981 14.6286C10.06 14.8531 10.0692 15.093 10.0165 15.3225L9.82057 16.1794L8.42248 17.5775Z" fill="url(#paint3_linear_448_2741)"/>
</g>
<defs>
<filter id="filter0_d_448_2741" x="5" y="5" width="13.8828" height="15.5775" filterUnits="userSpaceOnUse" color-interpolation-filters="sRGB">
<feFlood flood-opacity="0" result="BackgroundImageFix"/>
<feColorMatrix in="SourceAlpha" type="matrix" values="0 0 0 0 0 0 0 0 0 0 0 0 0 0 0 0 0 0 127 0" result="hardAlpha"/>
<feOffset dx="1" dy="1"/>
<feGaussianBlur stdDeviation="1"/>
<feComposite in2="hardAlpha" operator="out"/>
<feColorMatrix type="matrix" values="0 0 0 0 0 0 0 0 0 0 0 0 0 0 0 0 0 0 0.57 0"/>
<feBlend mode="normal" in2="BackgroundImageFix" result="effect1_dropShadow_448_2741"/>
<feBlend mode="normal" in="SourceGraphic" in2="effect1_dropShadow_448_2741" result="shape"/>
</filter>
<linearGradient id="paint0_linear_448_2741" x1="13" y1="0" x2="13" y2="26" gradientUnits="userSpaceOnUse">
<stop stop-color="#9D7FF5" stop-opacity="0.15"/>
<stop offset="1" stop-opacity="0"/>
</linearGradient>
<radialGradient id="paint1_radial_448_2741" cx="0" cy="0" r="1" gradientUnits="userSpaceOnUse" gradientTransform="translate(13 14) rotate(90) scale(14 16)">
<stop stop-color="#121212" stop-opacity="0.9"/>
<stop offset="1" stop-color="#121212" stop-opacity="0"/>
</radialGradient>
<radialGradient id="paint2_radial_448_2741" cx="0" cy="0" r="1" gradientUnits="userSpaceOnUse" gradientTransform="translate(17.5 19.5) rotate(90) scale(8.5 10.5)">
<stop stop-color="#FA7C70" stop-opacity="0.16"/>
<stop offset="1" stop-color="#121212" stop-opacity="0"/>
</radialGradient>
<linearGradient id="paint3_linear_448_2741" x1="8.625" y1="9.0625" x2="13" y2="13" gradientUnits="userSpaceOnUse">
<stop stop-color="#9D7FF5"/>
<stop offset="1" stop-color="white"/>
</linearGradient>
<clipPath id="clip0_448_2741">
<rect width="26" height="26" rx="6" fill="white"/>
</clipPath>
</defs>
</svg>
