<svg width="26" height="26" viewBox="0 0 26 26" fill="none" xmlns="http://www.w3.org/2000/svg">
<g id="Frame 117">
<g clip-path="url(#clip0_448_2700)">
<rect id="Rectangle 411" x="0.3" y="0.3" width="25.4" height="25.4" rx="5.7" fill="#9D7FF5" fill-opacity="0.1" stroke="url(#paint0_linear_448_2700)" stroke-width="0.6"/>
<ellipse id="Ellipse 49" cx="13" cy="14" rx="16" ry="14" fill="url(#paint1_radial_448_2700)" fill-opacity="0.95"/>
<g id="Group 89">
<g id="Subtract" filter="url(#filter0_d_448_2700)">
<path fill-rule="evenodd" clip-rule="evenodd" d="M8.37677 17.5402C8.36641 17.3963 8.38937 17.2493 8.44937 17.1129L8.4494 17.1128C8.45525 17.099 8.59683 16.7626 8.59683 16.4645C8.59683 15.526 7.83777 14.7627 6.90455 14.7627H6.84467C6.49929 14.7627 6.22961 14.4765 6.14648 14.0342C6.14029 14.0033 6 13.2554 6 12.6563C6 12.0564 6.14029 11.3082 6.14648 11.2771C6.22961 10.835 6.49929 10.5491 6.8338 10.5491H6.90455C7.83777 10.5491 8.59683 9.78576 8.59683 8.847C8.59683 8.55051 8.45861 8.2201 8.4492 8.19761L8.44889 8.19686C8.27766 7.80872 8.41027 7.33126 8.75863 7.08718L8.78585 7.06976L10.5994 6.07054C10.9537 5.91802 11.4282 6.02152 11.689 6.2972C11.879 6.49699 12.5321 7.06727 13.0359 7.06727C13.5332 7.06727 14.1849 6.5082 14.3739 6.31213C14.6351 6.03845 15.1146 5.94066 15.465 6.09344L15.4907 6.10611L17.2419 7.08666C17.5902 7.33172 17.7223 7.80919 17.5501 8.19883L17.5496 8.20013C17.5437 8.21442 17.5019 8.31631 17.4644 8.45255L16.4567 9.4603C16.4116 9.26303 16.3878 9.05771 16.3878 8.847C16.3878 8.44392 16.5145 8.05927 16.5823 7.88361L15.0835 7.04639L15.0707 7.05848L15.0707 7.05849C14.9932 7.13231 14.7797 7.33558 14.4912 7.53951C13.977 7.90377 13.4877 8.08838 13.0359 8.08838C12.5797 8.08838 12.0868 7.90028 11.5692 7.52881C11.2654 7.31135 11.0432 7.09266 10.9755 7.02447L9.41824 7.8851C9.48554 8.06177 9.61222 8.44766 9.61222 8.847C9.61222 10.2697 8.52707 11.4463 7.12772 11.5615C7.09209 11.7695 7.01538 12.2678 7.01538 12.6563C7.01538 13.0439 7.09209 13.542 7.12772 13.75C8.47579 13.8612 9.53225 14.957 9.60788 16.3091L8.37677 17.5402ZM11.362 14.555C10.8242 14.0953 10.4825 13.4104 10.4825 12.6466C10.4825 11.2657 11.5998 10.1421 12.9729 10.1421C13.7373 10.1421 14.4225 10.4903 14.8797 11.0373L14.1556 11.7614C13.8865 11.3989 13.4565 11.1637 12.9729 11.1637C12.1594 11.1637 11.4984 11.8293 11.4984 12.6466C11.4984 13.1299 11.7293 13.56 12.0861 13.8309L11.362 14.555Z" fill="url(#paint2_linear_448_2700)"/>
</g>
<g id="Subtract_2" filter="url(#filter1_d_448_2700)">
<path fill-rule="evenodd" clip-rule="evenodd" d="M8.375 17.5403C8.39427 17.8082 8.52894 18.0653 8.75489 18.2239L10.4729 19.1933L10.4991 19.2053C10.8544 19.3625 11.3349 19.26 11.5947 18.9744C11.8347 18.7136 12.4849 18.1722 12.9623 18.1722C13.4799 18.1722 14.1465 18.7783 14.3385 18.9912C14.5156 19.1863 14.7878 19.3038 15.0663 19.3038C15.1965 19.3038 15.3197 19.2779 15.4325 19.2291L17.2139 18.2419L17.2401 18.2249C17.5884 17.9801 17.7211 17.5034 17.5494 17.115L17.5489 17.1137C17.5377 17.087 17.4014 16.7591 17.4014 16.4646C17.4014 15.5261 18.1605 14.7628 19.0937 14.7628H19.1635C19.4985 14.7628 19.7686 14.4767 19.8518 14.0343C19.8577 14.0034 19.9982 13.2555 19.9982 12.6564C19.9982 12.0565 19.8577 11.3083 19.8518 11.2772C19.7686 10.8351 19.4989 10.5492 19.1536 10.5492H19.0937C18.1605 10.5492 17.4014 9.78583 17.4014 8.84706C17.4014 8.71278 17.4304 8.56997 17.4627 8.45264L16.4549 9.46038C16.7144 10.595 17.6785 11.4634 18.871 11.5616C18.9062 11.7701 18.9829 12.2704 18.9829 12.6563C18.9829 13.044 18.9062 13.5421 18.871 13.7501C17.4712 13.8655 16.386 15.0419 16.386 16.4646C16.386 16.8662 16.5127 17.2508 16.58 17.4278L15.0604 18.2717C14.9857 18.1931 14.765 17.9691 14.4647 17.7442C13.9372 17.3511 13.4314 17.1503 12.9623 17.1503C12.4972 17.1503 11.9955 17.3461 11.4705 17.7342C11.1716 17.9532 10.9539 18.1712 10.8777 18.2518L9.41597 17.4287C9.48723 17.2429 9.61045 16.8632 9.61045 16.4646C9.61045 16.4124 9.60899 16.3606 9.60611 16.3092L8.375 17.5403ZM11.3602 14.5551C11.7948 14.9266 12.3574 15.1509 12.9712 15.1509C14.3443 15.1509 15.4616 14.0278 15.4616 12.6467C15.4616 12.0345 15.242 11.4729 14.8779 11.0374L14.1538 11.7615C14.3375 12.0087 14.4463 12.3152 14.4463 12.6467C14.4463 13.4645 13.7847 14.1298 12.9712 14.1298C12.6385 14.1298 12.3312 14.0185 12.0843 13.831L11.3602 14.5551Z" fill="#9D7FF5"/>
</g>
<ellipse id="Ellipse 51" cx="17.5" cy="17.5" rx="10.5" ry="8.5" fill="url(#paint3_radial_448_2700)"/>
</g>
</g>
</g>
<defs>
<filter id="filter0_d_448_2700" x="2" y="6" width="19.625" height="19.5403" filterUnits="userSpaceOnUse" color-interpolation-filters="sRGB">
<feFlood flood-opacity="0" result="BackgroundImageFix"/>
<feColorMatrix in="SourceAlpha" type="matrix" values="0 0 0 0 0 0 0 0 0 0 0 0 0 0 0 0 0 0 127 0" result="hardAlpha"/>
<feOffset dy="4"/>
<feGaussianBlur stdDeviation="2"/>
<feComposite in2="hardAlpha" operator="out"/>
<feColorMatrix type="matrix" values="0 0 0 0 0 0 0 0 0 0 0 0 0 0 0 0 0 0 0.25 0"/>
<feBlend mode="normal" in2="BackgroundImageFix" result="effect1_dropShadow_448_2700"/>
<feBlend mode="normal" in="SourceGraphic" in2="effect1_dropShadow_448_2700" result="shape"/>
</filter>
<filter id="filter1_d_448_2700" x="4.375" y="8.45264" width="19.623" height="18.8512" filterUnits="userSpaceOnUse" color-interpolation-filters="sRGB">
<feFlood flood-opacity="0" result="BackgroundImageFix"/>
<feColorMatrix in="SourceAlpha" type="matrix" values="0 0 0 0 0 0 0 0 0 0 0 0 0 0 0 0 0 0 127 0" result="hardAlpha"/>
<feOffset dy="4"/>
<feGaussianBlur stdDeviation="2"/>
<feComposite in2="hardAlpha" operator="out"/>
<feColorMatrix type="matrix" values="0 0 0 0 0 0 0 0 0 0 0 0 0 0 0 0 0 0 0.25 0"/>
<feBlend mode="normal" in2="BackgroundImageFix" result="effect1_dropShadow_448_2700"/>
<feBlend mode="normal" in="SourceGraphic" in2="effect1_dropShadow_448_2700" result="shape"/>
</filter>
<linearGradient id="paint0_linear_448_2700" x1="13" y1="0" x2="13" y2="26" gradientUnits="userSpaceOnUse">
<stop stop-color="#9D7FF5" stop-opacity="0.15"/>
<stop offset="1" stop-opacity="0"/>
</linearGradient>
<radialGradient id="paint1_radial_448_2700" cx="0" cy="0" r="1" gradientUnits="userSpaceOnUse" gradientTransform="translate(13 14) rotate(90) scale(14 16)">
<stop stop-color="#121212" stop-opacity="0.9"/>
<stop offset="1" stop-color="#121212" stop-opacity="0"/>
</radialGradient>
<linearGradient id="paint2_linear_448_2700" x1="8.61328" y1="7.80371" x2="13.6133" y2="12.3037" gradientUnits="userSpaceOnUse">
<stop stop-color="#9D7FF5"/>
<stop offset="1" stop-color="white"/>
</linearGradient>
<radialGradient id="paint3_radial_448_2700" cx="0" cy="0" r="1" gradientUnits="userSpaceOnUse" gradientTransform="translate(17.5 17.5) rotate(90) scale(8.5 10.5)">
<stop stop-color="#FA7C70" stop-opacity="0.16"/>
<stop offset="1" stop-color="#121212" stop-opacity="0"/>
</radialGradient>
<clipPath id="clip0_448_2700">
<rect width="26" height="26" rx="6" fill="white"/>
</clipPath>
</defs>
</svg>
