<svg width="27" height="26" viewBox="0 0 27 26" fill="none" xmlns="http://www.w3.org/2000/svg">
<path d="M18.1698 0.795346L17.9835 0.580013L17.7033 0.630376L16.187 0.902854L16.2755 1.39497L13.2429 1.93993L13.1545 1.44781L10.122 1.99277L10.2104 2.48489L7.17791 3.02984L7.08947 2.53773L5.57321 2.8102L5.28715 2.86161L5.19025 3.13564L4.68196 4.57314L5.15336 4.73982L4.13678 7.61483L3.66538 7.44815L2.6488 10.3232L3.1202 10.4898L2.10362 13.3648L1.63223 13.1982L1.12394 14.6357L1.02704 14.9097L1.21721 15.1295L2.22518 16.2945L2.6033 15.9674L4.61924 18.2974L4.24112 18.6246L6.25705 20.9546L6.63517 20.6275L8.65111 22.9575L8.27299 23.2847L9.28096 24.4497L9.46726 24.665L9.74752 24.6147L11.2638 24.3422L11.1753 23.8501L14.2079 23.3051L14.2963 23.7972L17.3288 23.2523L17.2404 22.7601L20.2729 22.2152L20.3613 22.7073L21.8776 22.4348L22.1636 22.3834L22.2605 22.1094L22.7688 20.6719L22.2974 20.5052L23.314 17.6302L23.7854 17.7969L24.802 14.9219L24.3306 14.7552L25.3472 11.8802L25.8186 12.0469L26.3269 10.6094L26.4237 10.3353L26.2336 10.1155L25.2256 8.95052L24.8475 9.27766L22.8316 6.94762L23.2097 6.62047L21.1937 4.29042L20.8156 4.61757L18.7997 2.28752L19.1778 1.96037L18.1698 0.795346Z" fill="#9C81F2" fill-opacity="0.4" stroke="url(#paint0_linear_794_17301)" stroke-dasharray="4 4"/>
<defs>
<linearGradient id="paint0_linear_794_17301" x1="10.2652" y1="1.41558" x2="16.8889" y2="25.1486" gradientUnits="userSpaceOnUse">
<stop stop-color="#9C81F2"/>
<stop offset="1" stop-color="#F5857A"/>
</linearGradient>
</defs>
</svg>
