<?xml version="1.0" standalone="no"?><!DOCTYPE svg PUBLIC "-//W3C//DTD SVG 1.1//EN" "http://www.w3.org/Graphics/SVG/1.1/DTD/svg11.dtd"><svg t="1691469043328" class="icon" viewBox="0 0 1024 1024" version="1.1" xmlns="http://www.w3.org/2000/svg" p-id="4145" xmlns:xlink="http://www.w3.org/1999/xlink" width="200" height="200"><path d="M886.71168 434.604861l-280.211945-307.268635c-11.017744-11.017744-29.07962-11.017744-40.205736 0-6.393904 6.321657-8.633577 14.955233-7.658235 23.227573v165.446784c-232.709211 0-421.31132 188.60211-421.31132 421.239073 0 59.676438 12.534942 116.354605 34.967792 167.794828 33.197728-175.41694 200.703567-308.785833 385.801672-308.785832 0 9.608918 0.541856 165.193918 0.541856 165.193918-0.975341 8.272339 1.228208 16.797545 7.658235 23.119201 0.072248 0.108371 0.180619 0.108371 0.252867 0.180619a27.526299 27.526299 0 0 0 20.12093 8.633577c8.705824 0 16.291812-4.190355 21.421385-10.475888l278.622499-305.498572c5.960419-5.960419 8.452958-13.690902 8.091721-21.421385 0.361238-7.766607-2.131301-15.49709-8.091721-21.385261z m-271.939605 256.912125v-150.888912s-66.359333-0.433485-84.674075-0.433486c-116.968709 0-276.02159 91.284721-336.601122 168.914665 0.903094-105.51748 138.498465-331.110311 336.601122-337.251349 14.593996-0.433485 84.674075 0.252866 84.674075 0.252866v-151.719759l214.827953 235.562988-214.827953 235.562987z" fill="#ffffff" p-id="4146"></path></svg>