<svg width="20" height="20" viewBox="0 0 20 20" fill="none" xmlns="http://www.w3.org/2000/svg">
<g clip-path="url(#clip0_794_17278)">
<rect width="20" height="20" rx="4" fill="#2A2D38" fill-opacity="0.5"/>
<rect x="0.5" y="0.5" width="19" height="19" rx="3.5" fill="#9D7FF5" fill-opacity="0.1" stroke="url(#paint0_linear_794_17278)"/>
<ellipse cx="12" cy="13" rx="17" ry="11" fill="url(#paint1_radial_794_17278)"/>
<rect x="4" width="8" height="1" fill="url(#paint2_radial_794_17278)"/>
<ellipse cx="7.5" cy="0.5" rx="7.5" ry="2.5" fill="url(#paint3_radial_794_17278)"/>
<path fill-rule="evenodd" clip-rule="evenodd" d="M11.8679 8.13093L11.8684 8.13046C13.6806 9.00089 14.9509 10.895 14.998 13.1069L14.9992 13.2341C14.9992 13.4705 14.9852 13.7052 14.9578 13.9371L14.8303 14.999L14.2585 14.1232C13.276 12.62 11.6795 11.6714 9.91574 11.5779L9.78708 11.5725L9.78747 14.0268C9.78752 14.1394 9.7489 14.2481 9.67903 14.332C9.60915 14.4159 9.51293 14.469 9.40883 14.4813L9.36246 14.4838C9.30664 14.4838 9.25137 14.472 9.19979 14.4491C9.14822 14.4261 9.10135 14.3925 9.06187 14.35L7.41755 12.5818L7.41712 12.5822L5.15845 10.1534C5.10821 10.0994 5.06837 10.0352 5.04118 9.96465C5.01399 9.89408 5 9.81843 5 9.74204C5 9.66565 5.01399 9.59001 5.04118 9.51943C5.06837 9.44886 5.10821 9.38473 5.15845 9.33072L9.06151 5.13394C9.12093 5.07001 9.19663 5.02647 9.27906 5.00881C9.36148 4.99115 9.44693 5.00017 9.52459 5.03472C9.60225 5.06927 9.66864 5.12781 9.71537 5.20293C9.76209 5.27805 9.78706 5.36639 9.78711 5.45677V7.6235L9.87018 7.62641C10.5805 7.65938 11.2552 7.83664 11.8679 8.13093ZM7.98318 12.016L5.86859 9.74204L9.01438 6.35919V8.47607L9.41774 8.45737C9.48729 8.45405 9.55761 8.45239 9.62792 8.45239L9.74499 8.45364C10.2713 8.46737 10.7755 8.57302 11.2434 8.75568L11.2439 8.7552C12.8141 9.36826 13.9753 10.8486 14.1905 12.6329L14.2044 12.7666L14.1743 12.7334C12.9951 11.477 11.3708 10.7399 9.62828 10.7399C9.54753 10.7399 9.46717 10.7412 9.38719 10.7441L9.24945 10.7496L9.24892 10.7501L9.01438 10.7596V10.9849L9.01474 10.9845V13.1244L7.98361 12.0155L7.98318 12.016Z" fill="#C4C6CA"/>
</g>
<defs>
<linearGradient id="paint0_linear_794_17278" x1="-2.10224e-07" y1="4.99999" x2="19.6289" y2="4.23455" gradientUnits="userSpaceOnUse">
<stop stop-color="white" stop-opacity="0.2"/>
<stop offset="1" stop-color="#9D7FF5" stop-opacity="0.5"/>
</linearGradient>
<radialGradient id="paint1_radial_794_17278" cx="0" cy="0" r="1" gradientUnits="userSpaceOnUse" gradientTransform="translate(12 13) rotate(90) scale(11 17)">
<stop stop-color="#121212" stop-opacity="0.5"/>
<stop offset="1" stop-color="#121212" stop-opacity="0"/>
</radialGradient>
<radialGradient id="paint2_radial_794_17278" cx="0" cy="0" r="1" gradientUnits="userSpaceOnUse" gradientTransform="translate(8 0.499998) scale(3.5 420.437)">
<stop stop-color="white" stop-opacity="0.16"/>
<stop offset="1" stop-color="white" stop-opacity="0"/>
</radialGradient>
<radialGradient id="paint3_radial_794_17278" cx="0" cy="0" r="1" gradientUnits="userSpaceOnUse" gradientTransform="translate(7.5 0.5) rotate(90) scale(2.5 7.5)">
<stop stop-color="#FA7C70" stop-opacity="0.21"/>
<stop offset="1" stop-color="#FA7C70" stop-opacity="0"/>
</radialGradient>
<clipPath id="clip0_794_17278">
<rect width="20" height="20" rx="4" fill="white"/>
</clipPath>
</defs>
</svg>
