<svg width="20" height="20" viewBox="0 0 20 20" fill="none" xmlns="http://www.w3.org/2000/svg">
<g clip-path="url(#clip0_794_17265)">
<rect width="20" height="20" rx="4" fill="#2A2D38" fill-opacity="0.5"/>
<rect x="0.5" y="0.5" width="19" height="19" rx="3.5" fill="#9D7FF5" fill-opacity="0.1" stroke="url(#paint0_linear_794_17265)"/>
<ellipse cx="12" cy="13" rx="17" ry="11" fill="url(#paint1_radial_794_17265)"/>
<rect x="4" width="8" height="1" fill="url(#paint2_radial_794_17265)"/>
<ellipse cx="7.5" cy="0.5" rx="7.5" ry="2.5" fill="url(#paint3_radial_794_17265)"/>
<path fill-rule="evenodd" clip-rule="evenodd" d="M13.3231 5C13.3099 5 13.2969 5.00258 13.2847 5.0076C13.2726 5.01261 13.2615 5.01996 13.2522 5.02923C13.2429 5.0385 13.2356 5.0495 13.2305 5.06161C13.2255 5.07372 13.2229 5.0867 13.2229 5.09981V6.1934C12.3565 5.46821 11.2692 5.057 10.1382 5.02685C9.00719 4.9967 7.89933 5.34939 6.9953 6.02738C6.09128 6.70538 5.44446 7.66867 5.16035 8.76011C4.87625 9.85155 4.97162 11.0067 5.43092 12.0372C5.68101 12.5983 6.03098 13.1044 6.45984 13.5333L6.45587 13.5372C6.81368 13.8942 7.22625 14.1975 7.68143 14.4342C8.68449 14.9558 9.83531 15.1233 10.9461 14.9093C12.057 14.6953 13.0623 14.1125 13.798 13.2559C14.5338 12.3994 14.9566 11.3196 14.9975 10.1927L14.9997 10.1122C15.0003 10.0868 14.9909 10.0621 14.9735 10.0435C14.9561 10.0248 14.9322 10.0137 14.9067 10.0124H14.1942C14.1685 10.0123 14.1438 10.0222 14.1251 10.0398C14.1065 10.0575 14.0954 10.0816 14.0941 10.1072V10.1129C14.0712 11.0327 13.7374 11.918 13.1468 12.6251C12.5561 13.3323 11.7432 13.8201 10.8397 14.0094C9.93622 14.1986 8.99506 14.0784 8.1687 13.6681C7.77049 13.4703 7.41018 13.2108 7.09979 12.9018L7.10375 12.8978C6.77182 12.5665 6.49719 12.1783 6.29463 11.7486C5.9021 10.9158 5.8032 9.97525 6.01394 9.07941C6.22468 8.18358 6.73272 7.38489 7.45576 6.81273C8.1788 6.24057 9.07449 5.92844 9.99774 5.92692C10.921 5.9254 11.8177 6.23457 12.5426 6.80435H11.5126C11.4994 6.80435 11.4864 6.80693 11.4743 6.81195C11.4621 6.81696 11.4511 6.82432 11.4418 6.83358C11.4325 6.84285 11.4251 6.85385 11.4201 6.86596C11.415 6.87807 11.4124 6.89105 11.4124 6.90416V7.60636C11.4124 7.66197 11.4575 7.70617 11.5126 7.70617H12.2994L12.2994 7.70615H14.0197C14.0328 7.70615 14.0458 7.70356 14.058 7.69855C14.0701 7.69353 14.0812 7.68618 14.0905 7.67691C14.0998 7.66765 14.1072 7.65664 14.1122 7.64453C14.1172 7.63243 14.1198 7.61945 14.1198 7.60634V5.88715L14.1278 5.87919V5.09981C14.1278 5.0867 14.1252 5.07372 14.1202 5.06161C14.1151 5.0495 14.1078 5.0385 14.0985 5.02923C14.0892 5.01996 14.0781 5.01261 14.066 5.0076C14.0538 5.00258 14.0408 5 14.0276 5H13.3238H13.3231Z" fill="#C4C6CA"/>
</g>
<defs>
<linearGradient id="paint0_linear_794_17265" x1="-2.10224e-07" y1="4.99999" x2="19.6289" y2="4.23455" gradientUnits="userSpaceOnUse">
<stop stop-color="white" stop-opacity="0.2"/>
<stop offset="1" stop-color="#9D7FF5" stop-opacity="0.5"/>
</linearGradient>
<radialGradient id="paint1_radial_794_17265" cx="0" cy="0" r="1" gradientUnits="userSpaceOnUse" gradientTransform="translate(12 13) rotate(90) scale(11 17)">
<stop stop-color="#121212" stop-opacity="0.5"/>
<stop offset="1" stop-color="#121212" stop-opacity="0"/>
</radialGradient>
<radialGradient id="paint2_radial_794_17265" cx="0" cy="0" r="1" gradientUnits="userSpaceOnUse" gradientTransform="translate(8 0.499998) scale(3.5 420.437)">
<stop stop-color="white" stop-opacity="0.16"/>
<stop offset="1" stop-color="white" stop-opacity="0"/>
</radialGradient>
<radialGradient id="paint3_radial_794_17265" cx="0" cy="0" r="1" gradientUnits="userSpaceOnUse" gradientTransform="translate(7.5 0.5) rotate(90) scale(2.5 7.5)">
<stop stop-color="#FA7C70" stop-opacity="0.21"/>
<stop offset="1" stop-color="#FA7C70" stop-opacity="0"/>
</radialGradient>
<clipPath id="clip0_794_17265">
<rect width="20" height="20" rx="4" fill="white"/>
</clipPath>
</defs>
</svg>
