<svg width="10" height="10" viewBox="0 0 10 10" fill="none" xmlns="http://www.w3.org/2000/svg">
<path fill-rule="evenodd" clip-rule="evenodd" d="M8.32305 0C8.3099 0 8.29688 0.00258153 8.28473 0.00759725C8.27258 0.012613 8.26154 0.0199647 8.25224 0.0292325C8.24294 0.0385004 8.23556 0.049503 8.23053 0.061612C8.2255 0.073721 8.22291 0.0866994 8.22291 0.0998061V1.1934C7.35654 0.468206 6.26918 0.056997 5.13819 0.0268478C4.00719 -0.00330144 2.89933 0.349388 1.9953 1.02738C1.09128 1.70538 0.44446 2.66867 0.160353 3.76011C-0.123754 4.85155 -0.0283796 6.00673 0.430919 7.03721C0.681015 7.59832 1.03098 8.10443 1.45984 8.53328L1.45587 8.53724C1.81368 8.89424 2.22625 9.19753 2.68143 9.43423C3.68449 9.95583 4.83531 10.1233 5.94614 9.90931C7.05698 9.69532 8.06228 9.1125 8.79805 8.25592C9.53381 7.39935 9.95663 6.31958 9.99752 5.19274L9.99966 5.11219C10.0003 5.08676 9.99087 5.0621 9.9735 5.04346C9.95614 5.02482 9.93216 5.01367 9.90667 5.01238H9.19421C9.1685 5.01235 9.14376 5.02218 9.12511 5.03983C9.10647 5.05748 9.09536 5.0816 9.09407 5.1072V5.1129C9.07122 6.03274 8.73744 6.91796 8.14679 7.62515C7.55614 8.33234 6.74322 8.82008 5.83972 9.00937C4.93622 9.19865 3.99506 9.07839 3.1687 8.66806C2.77049 8.47033 2.41018 8.21082 2.09979 7.9018L2.10375 7.89784C1.77182 7.56646 1.49719 7.17835 1.29463 6.74858C0.902099 5.91575 0.803196 4.97525 1.01394 4.07941C1.22468 3.18358 1.73272 2.38489 2.45576 1.81273C3.1788 1.24057 4.07449 0.928444 4.99774 0.926923C5.92098 0.925403 6.8177 1.23457 7.54264 1.80435H6.51258C6.49943 1.80435 6.4864 1.80693 6.47425 1.81195C6.4621 1.81696 6.45106 1.82432 6.44177 1.83358C6.43247 1.84285 6.42509 1.85385 6.42006 1.86596C6.41502 1.87807 6.41243 1.89105 6.41243 1.90416V2.60636C6.41243 2.66197 6.4575 2.70617 6.51258 2.70617H7.29941L7.29943 2.70615H9.01968C9.03283 2.70615 9.04585 2.70356 9.058 2.69855C9.07015 2.69353 9.08119 2.68618 9.09049 2.67691C9.09979 2.66765 9.10717 2.65664 9.1122 2.64453C9.11723 2.63243 9.11982 2.61945 9.11982 2.60634V0.887154L9.12779 0.879194V0.0998061C9.12779 0.0866994 9.1252 0.073721 9.12016 0.061612C9.11513 0.049503 9.10775 0.0385004 9.09846 0.0292325C9.08916 0.0199647 9.07812 0.012613 9.06597 0.00759725C9.05382 0.00258153 9.04079 0 9.02764 0H8.32377H8.32305Z" fill="#C4C6CA"/>
</svg>
