<svg width="20" height="20" viewBox="0 0 20 20" fill="none" xmlns="http://www.w3.org/2000/svg">
<g clip-path="url(#clip0_794_17230)">
<rect width="20" height="20" rx="4" fill="#2A2D38" fill-opacity="0.5"/>
<rect x="0.5" y="0.5" width="19" height="19" rx="3.5" fill="#9D7FF5" fill-opacity="0.1" stroke="url(#paint0_linear_794_17230)"/>
<ellipse cx="12" cy="13" rx="17" ry="11" fill="url(#paint1_radial_794_17230)"/>
<rect x="4" width="8" height="1" fill="url(#paint2_radial_794_17230)"/>
<ellipse cx="7.5" cy="0.5" rx="7.5" ry="2.5" fill="url(#paint3_radial_794_17230)"/>
<path fill-rule="evenodd" clip-rule="evenodd" d="M5.21905 11.7533L6.29754 12.8689L6.74981 12.4166L5.66386 11.2933C5.60879 11.2364 5.61965 11.129 5.68754 11.0587L6.84494 9.86134L8.05417 11.1122L8.50642 10.66L7.08369 9.18844C7.05024 9.15372 7.03177 9.10776 7.03177 9.05878C7.03177 9.0099 7.05024 8.96384 7.08369 8.92912L10.2018 5.70392C10.2364 5.66807 10.2818 5.6501 10.3272 5.6501C10.3726 5.6501 10.4179 5.66807 10.4525 5.70369L11.9322 7.23424L12.3844 6.78196L10.8972 5.2437C10.5828 4.91865 10.0715 4.91888 9.75716 5.2437L6.63899 8.46913C6.41011 8.70575 6.35004 9.0499 6.45432 9.3454L5.24283 10.5986C4.92858 10.9237 4.91794 11.4415 5.21905 11.7533ZM7.63823 14.2543L6.29881 12.8688L6.75109 12.4166L8.08304 13.7943C8.114 13.8264 8.15256 13.8347 8.18048 13.8307C8.2274 13.829 8.27335 13.8074 8.30974 13.7697L9.46714 12.5725L8.05545 11.1122L8.50769 10.66L10.118 12.3255C10.1847 12.395 10.3016 12.3945 10.3685 12.3255L13.4867 9.10012C13.5201 9.06529 13.5386 9.01934 13.5386 8.97046C13.5386 8.92147 13.5201 8.87552 13.4867 8.8408L11.9334 7.2342L12.3857 6.78193L13.9315 8.3807C14.0838 8.53834 14.1676 8.74777 14.1676 8.97035C14.1676 9.19338 14.0837 9.4027 13.9314 9.56022L10.8132 12.7855C10.6609 12.9431 10.4584 13.0297 10.2431 13.0297C10.1468 13.0297 10.0538 13.0098 9.96594 12.9765L8.75445 14.2297C8.70937 14.2763 8.65897 14.3148 8.6064 14.3491H13.8317C14.0054 14.3491 14.1461 14.4948 14.1461 14.6744C14.1461 14.8539 14.0054 14.9996 13.8317 14.9996H5.32746C5.15376 14.9996 5.01299 14.8539 5.01299 14.6744C5.01299 14.4948 5.15376 14.3491 5.32746 14.3491H7.75C7.71035 14.3215 7.67277 14.29 7.63823 14.2543Z" fill="#C4C6CA"/>
</g>
<defs>
<linearGradient id="paint0_linear_794_17230" x1="-2.10224e-07" y1="4.99999" x2="19.6289" y2="4.23455" gradientUnits="userSpaceOnUse">
<stop stop-color="white" stop-opacity="0.2"/>
<stop offset="1" stop-color="#9D7FF5" stop-opacity="0.5"/>
</linearGradient>
<radialGradient id="paint1_radial_794_17230" cx="0" cy="0" r="1" gradientUnits="userSpaceOnUse" gradientTransform="translate(12 13) rotate(90) scale(11 17)">
<stop stop-color="#121212" stop-opacity="0.5"/>
<stop offset="1" stop-color="#121212" stop-opacity="0"/>
</radialGradient>
<radialGradient id="paint2_radial_794_17230" cx="0" cy="0" r="1" gradientUnits="userSpaceOnUse" gradientTransform="translate(8 0.499998) scale(3.5 420.437)">
<stop stop-color="white" stop-opacity="0.16"/>
<stop offset="1" stop-color="white" stop-opacity="0"/>
</radialGradient>
<radialGradient id="paint3_radial_794_17230" cx="0" cy="0" r="1" gradientUnits="userSpaceOnUse" gradientTransform="translate(7.5 0.5) rotate(90) scale(2.5 7.5)">
<stop stop-color="#FA7C70" stop-opacity="0.21"/>
<stop offset="1" stop-color="#FA7C70" stop-opacity="0"/>
</radialGradient>
<clipPath id="clip0_794_17230">
<rect width="20" height="20" rx="4" fill="white"/>
</clipPath>
</defs>
</svg>
