<svg width="30" height="27" viewBox="0 0 30 27" fill="none" xmlns="http://www.w3.org/2000/svg">
<g filter="url(#filter0_d_160_781)">
<path fill-rule="evenodd" clip-rule="evenodd" d="M26.0364 1.0757C25.8164 1.02615 25.5877 1 25.3529 1H4.10868C2.39463 1 1 2.39463 1 4.10868V20.287C1 21.0625 1.28748 21.8055 1.80941 22.3789C2.31427 22.9336 2.9976 23.2854 3.73846 23.3736L4.86911 22.243L3.88418 22.2411C2.88898 22.1284 2.14195 21.2932 2.14195 20.2872V4.10868C2.14195 3.02444 3.02429 2.1421 4.10868 2.1421H24.97L26.0364 1.0757ZM10.9595 16.1526L11.8025 15.3096C11.2915 15.0622 10.7403 14.6282 10.1422 14.1572L10.1409 14.1561L9.98446 14.033C8.87973 13.165 7.93004 12.9565 6.90546 13.3574C5.99796 13.7124 5.04933 14.5411 3.61628 15.9461C3.39118 16.1669 3.38756 16.5283 3.60829 16.7537C3.82903 16.9788 4.19049 16.9824 4.41575 16.7616C7.16703 14.0642 7.84882 13.8073 9.27886 14.9312L9.43405 15.0532L9.43407 15.0533C9.9485 15.4585 10.4509 15.8542 10.9595 16.1526ZM19.0601 8.05206L15.896 11.2161C16.8317 9.48051 17.8917 8.42043 19.0601 8.05206ZM8.88224 10.2353C7.58223 10.2353 6.52466 9.17776 6.52466 7.87775C6.52466 6.57775 7.58239 5.52018 8.88224 5.52018C10.1821 5.52018 11.2398 6.5776 11.2398 7.8776C11.2398 9.17776 10.1821 10.2353 8.88224 10.2353ZM8.88224 6.66198C8.2119 6.66198 7.66646 7.20726 7.66646 7.8776C7.66646 8.5478 8.2119 9.09323 8.88224 9.09323C9.55258 9.09323 10.0979 8.5478 10.0979 7.8776C10.0979 7.20726 9.55243 6.66198 8.88224 6.66198Z" fill="url(#paint0_linear_160_781)"/>
</g>
<path fill-rule="evenodd" clip-rule="evenodd" d="M3.73828 23.3741C3.75759 23.3764 3.77693 23.3785 3.79631 23.3805C3.81484 23.3824 3.83337 23.3832 3.85206 23.3836L10.2849 23.396H25.3527C27.0669 23.396 28.4614 22.0014 28.4614 20.2843L28.4495 17.3955V17.3917C28.4485 17.2968 28.4161 16.4363 27.6089 15.4036L26.9457 14.5331L23.348 9.77279C23.2846 9.68766 21.7682 7.69365 19.6658 7.92463C19.4607 7.94718 19.2587 7.98983 19.0599 8.05253L15.8958 11.2166C15.7273 11.5292 15.5628 11.8637 15.4025 12.22C14.5123 14.198 13.6622 15.2987 12.8752 15.4916C12.5379 15.5743 12.1812 15.4935 11.8023 15.3101L10.9594 16.1531C11.6607 16.5644 12.374 16.7906 13.1471 16.6011C13.7482 16.4538 14.3032 16.0686 14.8441 15.4241C15.3796 14.7861 15.9027 13.8913 16.4438 12.6892C17.4524 10.4479 18.6079 9.19315 19.7852 9.06071C21.2374 8.89723 22.4225 10.4424 22.4353 10.4591L26.0357 15.2238L26.7029 16.0991L26.7073 16.1048C27.2591 16.8095 27.3046 17.3566 27.3077 17.4099L27.3196 20.2876C27.3196 21.372 26.4371 22.2541 25.3527 22.2541H10.2859L4.86893 22.2435L3.73828 23.3741ZM24.9698 2.14257H25.3527C26.4371 2.14257 27.3193 3.02491 27.3193 4.10915V11.0246C27.3125 11.2119 27.2678 12.9463 27.922 14.2111C28.0668 14.4911 28.4115 14.6003 28.6915 14.4555C28.9714 14.3107 29.081 13.9663 28.9363 13.6862C28.4004 12.65 28.4601 11.0766 28.4608 11.0613C28.4611 11.0527 28.4614 11.0443 28.4614 11.036V4.10915C28.4614 2.62982 27.4227 1.38843 26.0362 1.07617L24.9698 2.14257Z" fill="#9D7FF5"/>
<defs>
<filter id="filter0_d_160_781" x="0" y="0" width="29.0371" height="26.3737" filterUnits="userSpaceOnUse" color-interpolation-filters="sRGB">
<feFlood flood-opacity="0" result="BackgroundImageFix"/>
<feColorMatrix in="SourceAlpha" type="matrix" values="0 0 0 0 0 0 0 0 0 0 0 0 0 0 0 0 0 0 127 0" result="hardAlpha"/>
<feOffset dx="1" dy="1"/>
<feGaussianBlur stdDeviation="1"/>
<feComposite in2="hardAlpha" operator="out"/>
<feColorMatrix type="matrix" values="0 0 0 0 0 0 0 0 0 0 0 0 0 0 0 0 0 0 0.57 0"/>
<feBlend mode="normal" in2="BackgroundImageFix" result="effect1_dropShadow_160_781"/>
<feBlend mode="normal" in="SourceGraphic" in2="effect1_dropShadow_160_781" result="shape"/>
</filter>
<linearGradient id="paint0_linear_160_781" x1="1.75336" y1="2.00449" x2="13.5561" y2="13.0538" gradientUnits="userSpaceOnUse">
<stop offset="0.0001" stop-color="#9D7FF5"/>
<stop offset="0.447917" stop-color="#9D7FF5"/>
<stop offset="1" stop-color="white"/>
</linearGradient>
</defs>
</svg>
