<svg width="30" height="27" viewBox="0 0 30 27" fill="none" xmlns="http://www.w3.org/2000/svg">
<path fill-rule="evenodd" clip-rule="evenodd" d="M4.92188 23.0666C6.4021 24.5994 8.2306 25.7482 10.2498 26.3978C12.8653 27.2392 15.6606 27.1979 18.2188 26.2801L18.2195 26.2818C20.4179 25.4926 22.3471 24.0894 23.7916 22.2289C25.2361 20.3684 26.1389 18.1237 26.3994 15.7457C26.6598 13.3677 26.2676 10.9499 25.2665 8.76232C24.6085 7.32464 23.7046 6.02363 22.6046 4.91858L21.4264 6.1277C22.6164 7.32037 23.5419 8.77681 24.1197 10.3961C25.0279 12.9414 25.0163 15.7188 24.087 18.2205C23.1576 20.7222 21.3727 22.7809 19.0587 24.0201C16.7446 25.2593 14.0562 25.5961 11.4849 24.9689C9.43619 24.4692 7.57099 23.3841 6.10052 21.8569L4.92188 23.0666Z" fill="url(#paint0_linear_160_985)"/>
<g filter="url(#filter0_d_160_985)">
<path fill-rule="evenodd" clip-rule="evenodd" d="M26.2572 13.3047V15.056C26.296 14.472 26.2958 13.8869 26.2572 13.3047ZM4.73261 22.9397L5.91125 21.7301C5.53544 21.34 5.18538 20.9211 4.86462 20.4756C4.80006 20.3791 4.71742 20.2966 4.62161 20.2329C4.5258 20.1691 4.41879 20.1256 4.30696 20.1048C4.19514 20.084 4.0808 20.0864 3.97076 20.1119C3.86071 20.1373 3.75723 20.1853 3.66648 20.2529C3.57573 20.3206 3.49958 20.4065 3.44256 20.5055C3.38554 20.6046 3.34883 20.7148 3.33462 20.8295C3.32041 20.9442 3.32899 21.0611 3.35985 21.1732C3.39071 21.2853 3.44321 21.3904 3.51423 21.482C3.88717 21.9996 4.29466 22.4865 4.73261 22.9397ZM22.4153 4.79169C21.8409 4.21444 21.213 3.69062 20.5387 3.2287C18.5741 1.88289 16.2928 1.11543 13.9495 1.01203C11.6062 0.90863 9.29332 1.47336 7.26906 2.64314C5.24479 3.81293 3.58888 5.54172 2.48626 7.63643C1.38363 9.73114 0.877708 12.1093 1.02499 14.5053C1.02703 14.622 1.05216 14.7375 1.09887 14.8448C1.14558 14.9521 1.21289 15.049 1.29674 15.1297C1.38059 15.2104 1.47923 15.2731 1.58671 15.3141C1.69419 15.3551 1.80827 15.3736 1.92206 15.3684C2.03585 15.3631 2.14698 15.3343 2.24875 15.2837C2.35051 15.233 2.44079 15.1616 2.51414 15.0737C2.58748 14.9858 2.64237 14.8833 2.67547 14.7723C2.70857 14.6613 2.71922 14.5442 2.70675 14.428C2.5415 11.7371 3.32755 9.0935 4.92115 6.98077C6.51475 4.86805 8.80937 3.4274 11.3853 2.92231C13.9613 2.41723 16.6464 2.88147 18.9496 4.23013C19.7884 4.72131 20.5562 5.31785 21.2372 6.00081L22.4153 4.79169Z" fill="url(#paint1_linear_160_985)" shape-rendering="crispEdges"/>
</g>
<defs>
<filter id="filter0_d_160_985" x="0" y="0" width="29.2871" height="25.9397" filterUnits="userSpaceOnUse" color-interpolation-filters="sRGB">
<feFlood flood-opacity="0" result="BackgroundImageFix"/>
<feColorMatrix in="SourceAlpha" type="matrix" values="0 0 0 0 0 0 0 0 0 0 0 0 0 0 0 0 0 0 127 0" result="hardAlpha"/>
<feOffset dx="1" dy="1"/>
<feGaussianBlur stdDeviation="1"/>
<feComposite in2="hardAlpha" operator="out"/>
<feColorMatrix type="matrix" values="0 0 0 0 0 0 0 0 0 0 0 0 0 0 0 0 0 0 0.27 0"/>
<feBlend mode="normal" in2="BackgroundImageFix" result="effect1_dropShadow_160_985"/>
<feBlend mode="normal" in="SourceGraphic" in2="effect1_dropShadow_160_985" result="shape"/>
</filter>
<linearGradient id="paint0_linear_160_985" x1="2.98879" y1="6.25133" x2="22.834" y2="23.6158" gradientUnits="userSpaceOnUse">
<stop stop-color="white" stop-opacity="0.9"/>
<stop offset="0.463542" stop-color="#9D7FF5"/>
<stop offset="1" stop-color="#9D7FF5"/>
</linearGradient>
<linearGradient id="paint1_linear_160_985" x1="2.79789" y1="6.12378" x2="22.8757" y2="23.8455" gradientUnits="userSpaceOnUse">
<stop stop-color="#9D7FF5"/>
<stop offset="0.713542" stop-color="white" stop-opacity="0.9"/>
</linearGradient>
</defs>
</svg>
