<svg width="16" height="16" viewBox="0 0 16 16" fill="none" xmlns="http://www.w3.org/2000/svg">
<path fill-rule="evenodd" clip-rule="evenodd" d="M3.37978 14.3784C3.73766 14.9897 4.50819 15.1839 5.09743 14.8084L5.09725 14.8086L7.90254 13.021C7.93206 13.002 7.96621 12.9919 8.00107 12.9919C8.03592 12.9919 8.07007 13.002 8.09959 13.021L10.9047 14.8086C11.0441 14.8975 11.1993 14.9571 11.3613 14.9838C11.5234 15.0105 11.689 15.0038 11.8485 14.9641C12.5175 14.7977 12.9274 14.1024 12.7695 13.4122L12.0069 10.0765C11.9885 9.99612 12.0147 9.91212 12.0728 9.86025L14.5693 7.62926C14.818 7.40636 14.9716 7.09236 14.9971 6.75463C15.0516 6.04693 14.5428 5.42358 13.8558 5.36614L10.8834 5.11768L9.99234 6.0087C10.1463 6.09651 10.3172 6.15017 10.494 6.16539L13.7705 6.43946C13.8769 6.44825 13.9599 6.54984 13.9506 6.66992C13.9461 6.72771 13.9203 6.78066 13.8796 6.81709L11.3832 9.0479C11.2102 9.20319 11.0817 9.40386 11.0115 9.62837C10.9414 9.85288 10.9321 10.0928 10.9849 10.3222L11.7475 13.658C11.7743 13.7757 11.7062 13.8913 11.601 13.9175C11.5529 13.9295 11.5022 13.9211 11.4591 13.8938L8.654 12.1061C8.45812 11.9811 8.23203 11.9149 8.00133 11.9149C7.77062 11.9149 7.54453 11.9811 7.34866 12.1061L4.54337 13.8936C4.45342 13.9509 4.33704 13.9216 4.27982 13.8242C4.25084 13.7742 4.24193 13.7146 4.25496 13.658L4.82169 11.1794L3.4236 12.5774L3.23278 13.4121C3.15739 13.7415 3.21012 14.0882 3.37978 14.3784Z" fill="#9D7FF5"/>
<g filter="url(#filter0_d_206_426)">
<path fill-rule="evenodd" clip-rule="evenodd" d="M3.42248 12.5775L3.99431 10.0764C4.0034 10.0376 4.00206 9.99698 3.99044 9.95887C3.97883 9.92075 3.95737 9.88658 3.92834 9.85997L1.43193 7.62898C0.913398 7.16591 0.853547 6.35608 1.29683 5.81619C1.4023 5.68739 1.53162 5.58129 1.6773 5.50403C1.82298 5.42676 1.98214 5.37987 2.14559 5.36605L5.42181 5.09233C5.49321 5.08623 5.55708 5.03795 5.58631 4.96454L6.8486 1.79826C7.11163 1.13865 7.84314 0.823658 8.48137 1.1006C8.78576 1.23327 9.02659 1.48408 9.15128 1.79826L10.4136 4.96436C10.4428 5.03795 10.5067 5.08641 10.5781 5.09233L10.8822 5.11776L9.99122 6.00878C9.94518 5.98253 9.90066 5.95322 9.85796 5.92097C9.67242 5.78087 9.52837 5.59077 9.44179 5.37179L8.17949 2.20569C8.15976 2.15482 8.12119 2.11404 8.07222 2.09225C7.97544 2.05025 7.86344 2.09853 7.82074 2.20569L6.55827 5.37179C6.47169 5.59077 6.32764 5.78087 6.1421 5.92097C5.95657 6.06107 5.7368 6.1457 5.50721 6.16547L2.23082 6.43954C2.20554 6.4418 2.18096 6.44918 2.15848 6.46126C2.13601 6.47333 2.11611 6.48987 2.09991 6.5099C2.06421 6.55412 2.04655 6.61078 2.05063 6.66805C2.05471 6.72531 2.0802 6.77874 2.12179 6.81718L4.6182 9.04817C4.79117 9.20345 4.91964 9.40412 4.98981 9.62863C5.05998 9.85314 5.06921 10.093 5.0165 10.3225L4.82057 11.1794L3.42248 12.5775Z" fill="url(#paint0_linear_206_426)"/>
</g>
<defs>
<filter id="filter0_d_206_426" x="0" y="0" width="13.8828" height="15.5775" filterUnits="userSpaceOnUse" color-interpolation-filters="sRGB">
<feFlood flood-opacity="0" result="BackgroundImageFix"/>
<feColorMatrix in="SourceAlpha" type="matrix" values="0 0 0 0 0 0 0 0 0 0 0 0 0 0 0 0 0 0 127 0" result="hardAlpha"/>
<feOffset dx="1" dy="1"/>
<feGaussianBlur stdDeviation="1"/>
<feComposite in2="hardAlpha" operator="out"/>
<feColorMatrix type="matrix" values="0 0 0 0 0 0 0 0 0 0 0 0 0 0 0 0 0 0 0.57 0"/>
<feBlend mode="normal" in2="BackgroundImageFix" result="effect1_dropShadow_206_426"/>
<feBlend mode="normal" in="SourceGraphic" in2="effect1_dropShadow_206_426" result="shape"/>
</filter>
<linearGradient id="paint0_linear_206_426" x1="3.625" y1="4.0625" x2="8.00001" y2="8" gradientUnits="userSpaceOnUse">
<stop stop-color="#9D7FF5"/>
<stop offset="1" stop-color="white"/>
</linearGradient>
</defs>
</svg>
