<svg width="20" height="20" viewBox="0 0 20 20" fill="none" xmlns="http://www.w3.org/2000/svg">
<g clip-path="url(#clip0_794_17256)">
<rect width="20" height="20" rx="4" fill="#2A2D38" fill-opacity="0.5"/>
<rect x="0.5" y="0.5" width="19" height="19" rx="3.5" fill="#9D7FF5" fill-opacity="0.1" stroke="url(#paint0_linear_794_17256)"/>
<ellipse cx="12" cy="13" rx="17" ry="11" fill="url(#paint1_radial_794_17256)"/>
<rect x="4" width="8" height="1" fill="url(#paint2_radial_794_17256)"/>
<ellipse cx="7.5" cy="0.5" rx="7.5" ry="2.5" fill="url(#paint3_radial_794_17256)"/>
<g clip-path="url(#clip1_794_17256)">
<path d="M14.23 8.37891L11.6186 5.76953C11.5229 5.67285 11.3969 5.625 11.2719 5.625C11.1509 5.625 11.0307 5.66992 10.9399 5.76074L6.29733 10.4014C6.2905 10.4082 6.28464 10.415 6.27878 10.4219C6.23874 10.459 6.20749 10.5088 6.19187 10.5674C6.17331 10.6182 6.16257 10.6729 6.16257 10.7266L5.63327 13.7295C5.5737 14.0693 5.84421 14.375 6.17624 14.375C6.20749 14.375 6.23874 14.3721 6.27097 14.3662L9.30515 13.832C9.33347 13.8301 9.36179 13.8242 9.38913 13.8174L9.39792 13.8154C9.47605 13.8018 9.53855 13.7627 9.58347 13.71C9.58835 13.7061 9.59226 13.7012 9.59714 13.6973L14.2397 9.05664C14.4233 8.87305 14.4194 8.56738 14.23 8.37891ZM6.80417 11.127L8.87253 13.1943L6.36276 13.6367L6.80417 11.127ZM9.48581 12.8135L7.1821 10.5107L10.145 7.5498L12.4487 9.85254L9.48581 12.8135ZM12.9458 9.35547L10.6421 7.05273L11.2749 6.41992L13.5786 8.72266L12.9458 9.35547Z" fill="url(#paint4_linear_794_17256)"/>
</g>
</g>
<defs>
<linearGradient id="paint0_linear_794_17256" x1="-2.10224e-07" y1="4.99999" x2="19.6289" y2="4.23455" gradientUnits="userSpaceOnUse">
<stop stop-color="white" stop-opacity="0.2"/>
<stop offset="1" stop-color="#9D7FF5" stop-opacity="0.5"/>
</linearGradient>
<radialGradient id="paint1_radial_794_17256" cx="0" cy="0" r="1" gradientUnits="userSpaceOnUse" gradientTransform="translate(12 13) rotate(90) scale(11 17)">
<stop stop-color="#121212" stop-opacity="0.5"/>
<stop offset="1" stop-color="#121212" stop-opacity="0"/>
</radialGradient>
<radialGradient id="paint2_radial_794_17256" cx="0" cy="0" r="1" gradientUnits="userSpaceOnUse" gradientTransform="translate(8 0.499998) scale(3.5 420.437)">
<stop stop-color="white" stop-opacity="0.16"/>
<stop offset="1" stop-color="white" stop-opacity="0"/>
</radialGradient>
<radialGradient id="paint3_radial_794_17256" cx="0" cy="0" r="1" gradientUnits="userSpaceOnUse" gradientTransform="translate(7.5 0.5) rotate(90) scale(2.5 7.5)">
<stop stop-color="#FA7C70" stop-opacity="0.21"/>
<stop offset="1" stop-color="#FA7C70" stop-opacity="0"/>
</radialGradient>
<linearGradient id="paint4_linear_794_17256" x1="9.5" y1="6.5" x2="9.5" y2="14" gradientUnits="userSpaceOnUse">
<stop stop-color="#9D7FF5"/>
<stop offset="1" stop-color="white" stop-opacity="0.9"/>
</linearGradient>
<clipPath id="clip0_794_17256">
<rect width="20" height="20" rx="4" fill="white"/>
</clipPath>
<clipPath id="clip1_794_17256">
<rect width="10" height="10" fill="white" transform="translate(5 5)"/>
</clipPath>
</defs>
</svg>
