<svg width="56" height="56" viewBox="0 0 56 56" fill="none" xmlns="http://www.w3.org/2000/svg">
<g id="yunduanshangchuan 13">
<path id="Vector" d="M44.1982 14.3605C42.8795 11.1482 40.6355 8.40063 37.7514 6.46692C34.8673 4.53321 31.4734 3.50073 28.001 3.50073C24.5287 3.50073 21.1347 4.53321 18.2506 6.46692C15.3665 8.40063 13.1226 11.1482 11.8039 14.3605C8.93159 15.0376 6.37366 16.6685 4.54768 18.9868C2.7217 21.3051 1.73553 24.1739 1.75016 27.125C1.75016 34.363 7.63716 40.25 14.8752 40.25H19.8784C20.3425 40.25 20.7877 40.0656 21.1158 39.7374C21.444 39.4092 21.6284 38.9641 21.6284 38.5C21.6284 38.0358 21.444 37.5907 21.1158 37.2625C20.7877 36.9343 20.3425 36.75 19.8784 36.75H14.8752C12.3233 36.7472 9.87676 35.7322 8.07233 33.9278C6.26789 32.1234 5.25294 29.6768 5.25016 27.125C5.23869 24.8297 6.05235 22.6067 7.54284 20.8611C9.03333 19.1156 11.1014 17.9637 13.3702 17.6155L14.4114 17.4527L14.7527 16.4552C16.6934 10.7992 22.0169 6.99996 28.0002 6.99996C30.918 6.99914 33.7632 7.91001 36.138 9.60525C38.5129 11.3005 40.2987 13.6954 41.2459 16.4552L41.5889 17.4527L42.6302 17.6155C44.8989 17.9637 46.967 19.1156 48.4575 20.8611C49.948 22.6067 50.7616 24.8297 50.7502 27.125C50.7502 32.431 46.4312 36.75 41.1252 36.75H35.8052C35.341 36.75 34.8959 36.9343 34.5677 37.2625C34.2395 37.5907 34.0552 38.0358 34.0552 38.5C34.0552 38.9641 34.2395 39.4092 34.5677 39.7374C34.8959 40.0656 35.341 40.25 35.8052 40.25H41.1252C48.3632 40.25 54.2502 34.363 54.2502 27.125C54.2649 24.1742 53.279 21.3055 51.4533 18.9873C49.6277 16.669 47.0701 15.038 44.1982 14.3605Z" fill="#9D7FF5"/>
<g id="Vector_2" filter="url(#filter0_d_206_1443)">
<path d="M35.536 31.1745C35.7139 31.3201 35.9187 31.4292 36.1387 31.4956C36.3588 31.5621 36.5897 31.5845 36.8185 31.5617C37.0472 31.5389 37.2692 31.4712 37.4717 31.3626C37.6743 31.2539 37.8535 31.1065 37.9991 30.9286C38.1447 30.7507 38.2538 30.5459 38.3203 30.3259C38.3867 30.1058 38.4091 29.8749 38.3863 29.6461C38.3635 29.4174 38.2958 29.1954 38.1872 28.9928C38.0786 28.7903 37.9311 28.6111 37.7532 28.4655L29.11 21.3885C28.7971 21.132 28.405 20.9918 28.0005 20.9918C27.5959 20.9918 27.2038 21.132 26.891 21.3885L18.1935 28.511C17.9151 28.74 17.7141 29.0494 17.6181 29.3968C17.522 29.7443 17.5354 30.1129 17.6566 30.4525C17.7777 30.792 18.0007 31.0859 18.295 31.294C18.5893 31.5022 18.9407 31.6144 19.3012 31.6155C19.7055 31.6161 20.0972 31.4756 20.409 31.2182L26.2505 26.439V49.875C26.2505 50.3391 26.4349 50.7842 26.763 51.1124C27.0912 51.4406 27.5364 51.625 28.0005 51.625C28.4646 51.625 28.9097 51.4406 29.2379 51.1124C29.5661 50.7842 29.7505 50.3391 29.7505 49.875V26.439L35.536 31.1745Z" fill="url(#paint0_linear_206_1443)"/>
</g>
</g>
<defs>
<filter id="filter0_d_206_1443" x="16.5547" y="19.9918" width="24.8398" height="34.6332" filterUnits="userSpaceOnUse" color-interpolation-filters="sRGB">
<feFlood flood-opacity="0" result="BackgroundImageFix"/>
<feColorMatrix in="SourceAlpha" type="matrix" values="0 0 0 0 0 0 0 0 0 0 0 0 0 0 0 0 0 0 127 0" result="hardAlpha"/>
<feOffset dx="1" dy="1"/>
<feGaussianBlur stdDeviation="1"/>
<feComposite in2="hardAlpha" operator="out"/>
<feColorMatrix type="matrix" values="0 0 0 0 0 0 0 0 0 0 0 0 0 0 0 0 0 0 0.57 0"/>
<feBlend mode="normal" in2="BackgroundImageFix" result="effect1_dropShadow_206_1443"/>
<feBlend mode="normal" in="SourceGraphic" in2="effect1_dropShadow_206_1443" result="shape"/>
</filter>
<linearGradient id="paint0_linear_206_1443" x1="27.9748" y1="20.9918" x2="27.9748" y2="51.625" gradientUnits="userSpaceOnUse">
<stop stop-color="white"/>
<stop offset="0.416667" stop-color="#B19BF5"/>
<stop offset="1" stop-color="#9D7FF5"/>
</linearGradient>
</defs>
</svg>
