<svg width="214" height="52" viewBox="0 0 214 52" fill="none" xmlns="http://www.w3.org/2000/svg">
<g clip-path="url(#clip0_1049_74)">
<mask id="path-1-inside-1_1049_74" fill="white">
<path fill-rule="evenodd" clip-rule="evenodd" d="M6 0C2.68629 0 0 2.68629 0 6V46C0 49.3137 2.68629 52 6 52H197C200.314 52 203 49.3137 203 46V11.6581L213.598 1.7298C214.26 1.10991 213.821 0 212.915 0H197H195.265H6Z"/>
</mask>
<path fill-rule="evenodd" clip-rule="evenodd" d="M6 0C2.68629 0 0 2.68629 0 6V46C0 49.3137 2.68629 52 6 52H197C200.314 52 203 49.3137 203 46V11.6581L213.598 1.7298C214.26 1.10991 213.821 0 212.915 0H197H195.265H6Z" fill="#2A2D38" fill-opacity="0.3"/>
<path d="M203 11.6581L202.59 11.2202L202.4 11.398V11.6581H203ZM213.598 1.7298L213.188 1.29192L213.188 1.29192L213.598 1.7298ZM0.6 6C0.6 3.01766 3.01766 0.6 6 0.6V-0.6C2.35492 -0.6 -0.6 2.35492 -0.6 6H0.6ZM0.6 46V6H-0.6V46H0.6ZM6 51.4C3.01766 51.4 0.6 48.9823 0.6 46H-0.6C-0.6 49.6451 2.35492 52.6 6 52.6V51.4ZM197 51.4H6V52.6H197V51.4ZM202.4 46C202.4 48.9823 199.982 51.4 197 51.4V52.6C200.645 52.6 203.6 49.6451 203.6 46H202.4ZM202.4 11.6581V46H203.6V11.6581H202.4ZM213.188 1.29192L202.59 11.2202L203.41 12.096L214.009 2.16768L213.188 1.29192ZM212.915 0.6C213.277 0.6 213.453 1.04397 213.188 1.29192L214.009 2.16769C215.067 1.17585 214.365 -0.6 212.915 -0.6V0.6ZM197 0.6H212.915V-0.6H197V0.6ZM195.265 0.6H197V-0.6H195.265V0.6ZM6 0.6H195.265V-0.6H6V0.6Z" fill="url(#paint0_linear_1049_74)" mask="url(#path-1-inside-1_1049_74)"/>
<path d="M259 27.5C259 62.0178 188.261 90 101 90C13.739 90 -57 62.0178 -57 27.5C-57 -7.0178 13.739 -35 101 -35C188.261 -35 259 -7.0178 259 27.5Z" fill="url(#paint1_radial_1049_74)"/>
</g>
<defs>
<linearGradient id="paint0_linear_1049_74" x1="107" y1="0" x2="107" y2="52" gradientUnits="userSpaceOnUse">
<stop stop-color="white" stop-opacity="0.79"/>
<stop offset="0.341581" stop-color="white" stop-opacity="0.9"/>
<stop offset="0.599502" stop-color="#9C81F2"/>
<stop offset="1" stop-color="white" stop-opacity="0.25"/>
</linearGradient>
<radialGradient id="paint1_radial_1049_74" cx="0" cy="0" r="1" gradientUnits="userSpaceOnUse" gradientTransform="translate(92.1236 36.2209) rotate(96.2887) scale(48.6211 121.501)">
<stop stop-color="#121212" stop-opacity="0.3"/>
<stop offset="1" stop-color="#121212" stop-opacity="0"/>
</radialGradient>
<clipPath id="clip0_1049_74">
<rect width="213.917" height="52" fill="white"/>
</clipPath>
</defs>
</svg>
