<svg width="321" height="32" viewBox="0 0 321 32" fill="none" xmlns="http://www.w3.org/2000/svg">
<path d="M21.1237 4.8L23.5206 1.6L23.9208 1.89975L24.9692 0.5H26.6941V0H30.6438V0.5H34.5936V0H38.5433V0.5H42.493V0H46.4428V0.5H50.3925V0H54.3422V0.5H58.292V0H62.2417V0.5H66.1915V0H70.1412V0.5H74.0909V0H78.0407V0.5H81.9904V0H85.9402V0.5H89.8899V0H93.8396V0.5H97.7894V0H101.739V0.5H105.689V0H109.639V0.5H113.588V0H117.538V0.5H121.488V0H125.438V0.5H129.387V0H133.337V0.5H137.287V0H141.236V0.5H145.186V0H149.136V0.5H153.086V0H157.035V0.5H160.985V0H164.935V0.5H168.885V0H172.834V0.5H176.784V0H180.734V0.5H184.684V0H188.633V0.5H192.583V0H196.533V0.5H200.483V0H204.432V0.5H208.382V0H212.332V0.5H216.282V0H220.231V0.5H224.181V0H228.131V0.5H232.08V0H236.03V0.5H239.98V0H243.93V0.5H247.879V0H251.829V0.5H255.779V0H259.729V0.5H263.678V0H267.628V0.5H271.578V0H275.528V0.5H279.477V0H283.427V0.5H287.377V0H291.327V0.5H295.276V0H299.226V0.5H303.176V0H307.126V0.5H311.075V0H315.025V0.5H317C317.475 0.5 317.928 0.594543 318.34 0.765386L318.531 0.303525C319.509 0.708988 320.291 1.49109 320.696 2.46885L320.234 2.66038C320.405 3.07236 320.5 3.52451 320.5 4V6H321V10H320.5V14H321V18H320.5V22H321V26H320.5V28C320.5 28.4755 320.405 28.9276 320.234 29.3396L320.696 29.5311C320.291 30.5089 319.509 31.291 318.531 31.6965L318.34 31.2346C317.928 31.4055 317.475 31.5 317 31.5H315.023V32H311.07V31.5H307.117V32H303.164V31.5H299.211V32H295.258V31.5H291.305V32H287.352V31.5H283.398V32H279.445V31.5H275.492V32H271.539V31.5H267.586V32H263.633V31.5H259.68V32H255.727V31.5H251.773V32H247.82V31.5H243.867V32H239.914V31.5H235.961V32H232.008V31.5H228.055V32H224.102V31.5H220.148V32H216.195V31.5H212.242V32H208.289V31.5H204.336V32H200.383V31.5H196.43V32H192.477V31.5H188.523V32H184.57V31.5H180.617V32H176.664V31.5H172.711V32H168.758V31.5H164.805V32H160.852V31.5H156.898V32H152.945V31.5H148.992V32H145.039V31.5H141.086V32H137.133V31.5H133.18V32H129.227V31.5H125.273V32H121.32V31.5H117.367V32H113.414V31.5H109.461V32H105.508V31.5H101.555V32H97.6015V31.5H93.6484V32H89.6953V31.5H85.7422V32H81.789V31.5H77.8359V32H73.8828V31.5H69.9297V32H65.9765V31.5H62.0234V32H58.0703V31.5H54.1172V32H50.164V31.5H46.2109V32H42.2578V31.5H38.3047V32H34.3515V31.5H30.3984V32H26.4453V31.5H22.4922V32H18.5391V31.5H14.5859V32H10.6328V31.5H6.67969V32H2.72656V31.5H1.74923L2.34864 30.6998L1.94845 30.4L4.34536 27.2L4.74554 27.4998L7.14245 24.2997L6.74226 24L9.13916 20.8L9.53935 21.0998L11.9363 17.8998L11.5361 17.6L13.933 14.4L14.3332 14.6998L16.7301 11.4998L16.3299 11.2L18.7268 8L19.127 8.29975L21.5239 5.09975L21.1237 4.8Z" stroke="#C4C6CA" stroke-dasharray="4 4"/>
</svg>
