<svg width="14" height="14" viewBox="0 0 14 14" fill="none" xmlns="http://www.w3.org/2000/svg">
<g filter="url(#filter0_d_825_355)">
<path fill-rule="evenodd" clip-rule="evenodd" d="M6.80768 9.18699C6.80011 8.40731 6.18454 7.6108 5.24465 7.26535L2.57079 6.28108C2.30752 6.18448 2.07869 6.13814 1.88948 6.13814C1.24912 6.13814 1.05193 6.65943 1.4713 7.50489L1.78882 8.14378C2.33398 9.24068 3.52867 10.4129 4.44287 10.7502C4.63768 10.8223 4.84379 10.8591 5.05152 10.8588C5.08041 10.8588 5.10924 10.8581 5.13799 10.8567L6.80768 9.18699ZM9.08955 6.90511L10.9045 5.0902C10.8821 5.08936 10.8598 5.08895 10.8374 5.08898C10.1151 5.08898 9.4324 5.53348 9.16906 6.2493C9.09077 6.46177 9.06642 6.68393 9.08955 6.90511ZM8.41355 1.50071C8.71651 1.35119 8.97845 1.27979 9.18887 1.27979C9.74054 1.27979 9.94431 1.76797 9.63736 2.59894L8.65176 5.27406C8.30386 6.21997 7.49942 6.83786 6.71486 6.83786C6.5456 6.83842 6.3776 6.80886 6.2187 6.75057C5.3031 6.41317 4.83081 5.38914 5.16814 4.47228C5.50554 3.55808 6.67769 2.36339 7.77452 1.81823L8.41355 1.50071ZM7.86349 4.98363L8.84937 2.30781C8.8626 2.27204 8.87387 2.23893 8.88367 2.2082C8.85385 2.22115 8.82179 2.23592 8.78735 2.25293L8.14839 2.57038C7.15033 3.0664 6.19203 4.1241 5.95648 4.76229C5.77847 5.24613 6.02634 5.7845 6.50927 5.96244C6.57511 5.98642 6.64472 5.99839 6.71479 5.99779C7.10021 5.99779 7.61849 5.64961 7.86349 4.98363ZM5.05145 10.0189C5.44352 10.0189 5.79716 9.77359 5.93163 9.40784C6.03005 9.141 5.90468 8.8701 5.82117 8.73234C5.6426 8.43785 5.32683 8.19054 4.9545 8.05369L2.28148 7.0697C2.24438 7.05612 2.21008 7.0445 2.17844 7.03463C2.19268 7.06716 2.20771 7.09935 2.22352 7.13116L2.54104 7.76998C3.03713 8.76818 4.09469 9.72641 4.73498 9.96266C4.83543 9.99997 4.9419 10.0189 5.05145 10.0189Z" fill="url(#paint0_linear_825_355)" shape-rendering="crispEdges"/>
</g>
<defs>
<filter id="filter0_d_825_355" x="0.25" y="0.279785" width="13.6562" height="13.5791" filterUnits="userSpaceOnUse" color-interpolation-filters="sRGB">
<feFlood flood-opacity="0" result="BackgroundImageFix"/>
<feColorMatrix in="SourceAlpha" type="matrix" values="0 0 0 0 0 0 0 0 0 0 0 0 0 0 0 0 0 0 127 0" result="hardAlpha"/>
<feOffset dx="1" dy="1"/>
<feGaussianBlur stdDeviation="1"/>
<feComposite in2="hardAlpha" operator="out"/>
<feColorMatrix type="matrix" values="0 0 0 0 0 0 0 0 0 0 0 0 0 0 0 0 0 0 0.57 0"/>
<feBlend mode="normal" in2="BackgroundImageFix" result="effect1_dropShadow_825_355"/>
<feBlend mode="normal" in="SourceGraphic" in2="effect1_dropShadow_825_355" result="shape"/>
</filter>
<linearGradient id="paint0_linear_825_355" x1="4.49609" y1="4" x2="8.49609" y2="8" gradientUnits="userSpaceOnUse">
<stop stop-color="#9C81F2"/>
<stop offset="1" stop-color="white" stop-opacity="0.9"/>
</linearGradient>
</defs>
</svg>
