<svg width="13" height="10" viewBox="0 0 13 10" fill="none" xmlns="http://www.w3.org/2000/svg">
<path fill-rule="evenodd" clip-rule="evenodd" d="M0.383685 9.37841C0.741564 9.98973 1.5121 10.1839 2.10133 9.80845L2.10116 9.80863L4.90645 8.02097C4.93597 8.00196 4.97012 7.99188 5.00497 7.99188C5.03983 7.99188 5.07398 8.00196 5.1035 8.02097L7.90861 9.80863C8.04797 9.89755 8.2032 9.95709 8.36525 9.98378C8.5273 10.0105 8.6929 10.0038 8.8524 9.96406C9.52143 9.79768 9.93129 9.10236 9.77343 8.41224L9.01077 5.07653C8.9924 4.99612 9.01865 4.91212 9.07675 4.86025L11.5732 2.62926C11.8219 2.40636 11.9755 2.09236 12.001 1.75463C12.0555 1.04693 11.5467 0.423578 10.8597 0.366143L7.88727 0.117676L6.99625 1.0087C7.15021 1.09651 7.32113 1.15017 7.49788 1.16539L10.7744 1.43946C10.8808 1.44825 10.9638 1.54984 10.9545 1.66992C10.95 1.72771 10.9242 1.78066 10.8835 1.81709L8.38707 4.0479C8.21409 4.20319 8.08562 4.40386 8.01545 4.62837C7.94528 4.85288 7.93605 5.09276 7.98876 5.32224L8.75142 8.65796C8.7782 8.7757 8.71012 8.89128 8.60494 8.91749C8.55682 8.92951 8.50607 8.92108 8.46302 8.8938L5.65791 7.10613C5.46203 6.98112 5.23594 6.91487 5.00523 6.91487C4.77453 6.91487 4.54844 6.98112 4.35256 7.10613L1.54728 8.89362C1.45732 8.95087 1.34095 8.92162 1.28372 8.82416C1.25474 8.77416 1.24583 8.71457 1.25887 8.65796L1.8256 6.17935L0.427506 7.57744L0.236682 8.41206C0.1613 8.74153 0.214029 9.08815 0.383685 9.37841Z" fill="#9C81F2"/>
</svg>
