<svg width="17" height="17" viewBox="0 0 17 17" fill="none" xmlns="http://www.w3.org/2000/svg">
<g filter="url(#filter0_d_825_76)">
<path fill-rule="evenodd" clip-rule="evenodd" d="M14.8576 5.14244C14.1978 4.14511 13.2913 3.32958 12.2211 2.77832C10.9381 2.11743 9.48239 1.86858 8.05267 2.06573C6.62295 2.26289 5.28893 2.89644 4.23275 3.87989C3.17657 4.86334 2.4497 6.14875 2.15139 7.56063C1.85308 8.97251 1.99786 10.442 2.56597 11.7686C3.10572 13.0289 4.0026 14.1018 5.14376 14.8562L6.30511 13.6949C6.177 13.621 6.05154 13.5417 5.92909 13.457C4.84127 12.7044 4.06676 11.5795 3.75184 10.2949C3.43693 9.01024 3.60342 7.65477 4.21987 6.4845C4.83632 5.31424 5.86005 4.41019 7.09768 3.94314C8.33531 3.47609 9.70116 3.47836 10.9372 3.94953C12.1027 4.3938 13.0768 5.22595 13.6977 6.30229L14.8576 5.14244Z" fill="url(#paint0_linear_825_76)" shape-rendering="crispEdges"/>
</g>
<defs>
<filter id="filter0_d_825_76" x="0.1" y="0.1" width="16.8594" height="16.8562" filterUnits="userSpaceOnUse" color-interpolation-filters="sRGB">
<feFlood flood-opacity="0" result="BackgroundImageFix"/>
<feColorMatrix in="SourceAlpha" type="matrix" values="0 0 0 0 0 0 0 0 0 0 0 0 0 0 0 0 0 0 127 0" result="hardAlpha"/>
<feOffset dx="0.1" dy="0.1"/>
<feGaussianBlur stdDeviation="1"/>
<feComposite in2="hardAlpha" operator="out"/>
<feColorMatrix type="matrix" values="0 0 0 0 0 0 0 0 0 0 0 0 0 0 0 0 0 0 0.57 0"/>
<feBlend mode="normal" in2="BackgroundImageFix" result="effect1_dropShadow_825_76"/>
<feBlend mode="normal" in="SourceGraphic" in2="effect1_dropShadow_825_76" result="shape"/>
</filter>
<linearGradient id="paint0_linear_825_76" x1="4.54544" y1="4.54546" x2="9.63636" y2="9.99998" gradientUnits="userSpaceOnUse">
<stop stop-color="#9D7FF5"/>
<stop offset="1" stop-color="white" stop-opacity="0.9"/>
</linearGradient>
</defs>
</svg>
