<svg width="6" height="5" viewBox="0 0 6 5" fill="none" xmlns="http://www.w3.org/2000/svg">
<path fill-rule="evenodd" clip-rule="evenodd" d="M0.18403 4.68945C0.36297 4.99511 0.748237 5.09221 1.04285 4.90447L1.04277 4.90456L2.44541 4.01073C2.46017 4.00122 2.47725 3.99618 2.49467 3.99618C2.5121 3.99618 2.52918 4.00122 2.54394 4.01073L3.94649 4.90456C4.01617 4.94902 4.09379 4.97879 4.17481 4.99213C4.25584 5.00548 4.33864 5.00213 4.41839 4.98228C4.7529 4.89908 4.95783 4.55142 4.8789 4.20636L4.49757 2.53851C4.48839 2.4983 4.50151 2.4563 4.53056 2.43037L5.77877 1.31487C5.90312 1.20342 5.97992 1.04642 5.99271 0.877561C6.01992 0.523707 5.76555 0.212033 5.42202 0.183316L3.93582 0.059082L3.49031 0.504595C3.56729 0.548501 3.65275 0.575329 3.74113 0.582937L5.37941 0.719974C5.43261 0.724371 5.47409 0.775165 5.46945 0.835202C5.46718 0.864099 5.45431 0.890573 5.43392 0.908791L4.18572 2.0242C4.09923 2.10184 4.035 2.20217 3.99991 2.31443C3.96483 2.42669 3.96021 2.54662 3.98657 2.66136L4.3679 4.32922C4.38129 4.38809 4.34725 4.44589 4.29466 4.45899C4.2706 4.465 4.24522 4.46078 4.2237 4.44714L2.82114 3.55331C2.7232 3.49081 2.61016 3.45768 2.4948 3.45768C2.37945 3.45768 2.26641 3.49081 2.16847 3.55331L0.765825 4.44705C0.720849 4.47568 0.662661 4.46105 0.634048 4.41232C0.61956 4.38732 0.615104 4.35753 0.621623 4.32922L0.904986 3.08992L0.20594 3.78896L0.110529 4.20627C0.0728375 4.37101 0.0992021 4.54432 0.18403 4.68945Z" fill="#9C81F2"/>
</svg>
