<svg width="18" height="18" viewBox="0 0 18 18" fill="none" xmlns="http://www.w3.org/2000/svg">
<g filter="url(#filter0_d_825_49)">
<path fill-rule="evenodd" clip-rule="evenodd" d="M4.05025 13.9497C2.7835 12.683 2 10.933 2 9C2 5.13401 5.13401 2 9 2C10.933 2 12.683 2.7835 13.9497 4.05025L14.6569 3.34315C13.2091 1.89543 11.2091 1 9 1C4.58172 1 1 4.58172 1 9C1 11.2091 1.89543 13.2091 3.34315 14.6569L4.05025 13.9497ZM5.16624 12.8338C5.12935 12.7799 5.10806 12.7164 5.10806 12.6485V8.4405C5.10806 8.24606 5.28221 8.08844 5.49703 8.08844C5.71185 8.08844 5.886 8.24606 5.886 8.4405V12.114L5.16624 12.8338ZM12.0835 5.91652L9.6622 4.27104C9.59673 4.22655 9.51742 4.20189 9.43557 4.20058C9.35372 4.19926 9.27349 4.22135 9.20632 4.2637L4.17362 7.43694C3.99734 7.54809 3.95399 7.76752 4.07679 7.92706C4.15239 8.0253 4.27334 8.07792 4.39629 8.07792C4.4757 8.07795 4.55319 8.05588 4.61827 8.0147L9.4201 4.98703L11.5592 6.44077L12.0835 5.91652ZM8.51653 9.48347H8.26271C8.04789 9.48347 7.87374 9.64109 7.87374 9.83553V10.1263L8.51653 9.48347Z" fill="url(#paint0_linear_825_49)"/>
</g>
<defs>
<filter id="filter0_d_825_49" x="0" y="0" width="17.6562" height="17.6567" filterUnits="userSpaceOnUse" color-interpolation-filters="sRGB">
<feFlood flood-opacity="0" result="BackgroundImageFix"/>
<feColorMatrix in="SourceAlpha" type="matrix" values="0 0 0 0 0 0 0 0 0 0 0 0 0 0 0 0 0 0 127 0" result="hardAlpha"/>
<feOffset dx="1" dy="1"/>
<feGaussianBlur stdDeviation="1"/>
<feComposite in2="hardAlpha" operator="out"/>
<feColorMatrix type="matrix" values="0 0 0 0 0 0 0 0 0 0 0 0 0 0 0 0 0 0 0.57 0"/>
<feBlend mode="normal" in2="BackgroundImageFix" result="effect1_dropShadow_825_49"/>
<feBlend mode="normal" in="SourceGraphic" in2="effect1_dropShadow_825_49" result="shape"/>
</filter>
<linearGradient id="paint0_linear_825_49" x1="3.5" y1="3" x2="9.5" y2="9" gradientUnits="userSpaceOnUse">
<stop stop-color="#9C81F2"/>
<stop offset="1" stop-color="white"/>
</linearGradient>
</defs>
</svg>
