<svg width="13" height="11" viewBox="0 0 13 11" fill="none" xmlns="http://www.w3.org/2000/svg">
<path fill-rule="evenodd" clip-rule="evenodd" d="M10.2994 0.705566L9.37888 1.62604H10.2307L10.2583 1.62881C10.2937 1.63527 10.3257 1.65392 10.3487 1.68151C10.3717 1.70909 10.3844 1.74388 10.3844 1.77981V2.69079H8.31413L7.39144 3.61348H11.8585L11.0404 9.93803C11.0356 9.9751 11.0175 10.0092 10.9894 10.0338C10.9613 10.0585 10.9252 10.0721 10.8879 10.0721H0.961852L0.936632 10.07C0.936153 10.0699 0.935674 10.0698 0.935195 10.0697L0.265625 10.7393C0.459947 10.9041 0.706639 10.9948 0.961852 10.9948H10.8879C11.1493 10.9947 11.4018 10.8995 11.5982 10.7269C11.7946 10.5542 11.9215 10.316 11.9551 10.0567L12.8408 3.2112C12.8492 3.14619 12.8437 3.08013 12.8245 3.01744C12.8054 2.95474 12.7731 2.89685 12.7298 2.84761C12.6865 2.79837 12.6333 2.75892 12.5736 2.73188C12.5138 2.70485 12.449 2.69085 12.3835 2.69082H11.3071V1.77981C11.3071 1.49432 11.1937 1.22053 10.9918 1.01866C10.8062 0.833037 10.5598 0.722208 10.2994 0.705566ZM5.39236 5.61256H7.7703L7.81459 5.61041C7.93251 5.59897 8.04151 5.54261 8.11901 5.453C8.19651 5.36339 8.23656 5.2474 8.23087 5.12906C8.22517 5.01072 8.17417 4.89911 8.08843 4.81735C8.00269 4.73559 7.88877 4.68995 7.7703 4.6899H6.31502L5.39236 5.61256Z" fill="#9C81F2"/>
</svg>
