<svg width="12" height="12" viewBox="0 0 12 12" fill="none" xmlns="http://www.w3.org/2000/svg">
<path fill-rule="evenodd" clip-rule="evenodd" d="M0.375 9.54031C0.394271 9.80815 0.528941 10.0653 0.754894 10.2239L2.47291 11.1933L2.49914 11.2053C2.85443 11.3625 3.33489 11.26 3.59468 10.9744C3.83465 10.7136 4.48487 10.1722 4.96235 10.1722C5.47993 10.1722 6.14648 10.7783 6.33848 10.9912C6.5156 11.1863 6.78776 11.3038 7.06635 11.3038C7.19648 11.3038 7.31968 11.2779 7.43251 11.2291L9.21388 10.2419L9.24011 10.2249C9.58843 9.98011 9.72106 9.5034 9.54938 9.11501L9.54885 9.11374C9.53774 9.087 9.40142 8.75907 9.40142 8.46463C9.40142 7.52614 10.1605 6.76279 11.0937 6.76279H11.1635C11.4985 6.76279 11.7686 6.47665 11.8518 6.03426C11.8577 6.00339 11.9982 5.25548 11.9982 4.65637C11.9982 4.05646 11.8577 3.30828 11.8518 3.27717C11.7686 2.83506 11.4989 2.54916 11.1536 2.54916H11.0937C10.1605 2.54916 9.4014 1.78583 9.4014 0.847064C9.4014 0.712779 9.43041 0.569968 9.46267 0.452637L8.45493 1.46038C8.71436 2.59502 9.67849 3.46344 10.871 3.56158C10.9062 3.77005 10.9829 4.27042 10.9829 4.65634C10.9829 5.04397 10.9062 5.5421 10.871 5.7501C9.47118 5.86554 8.38603 7.04191 8.38603 8.46459C8.38603 8.86617 8.51273 9.25082 8.58003 9.42775L7.06042 10.2717C6.98568 10.1931 6.76499 9.96913 6.46465 9.74419C5.93717 9.35109 5.43144 9.15028 4.96233 9.15028C4.49721 9.15028 3.99547 9.3461 3.47046 9.73425C3.17159 9.9532 2.95388 10.1712 2.87767 10.2518L1.41597 9.42873C1.48723 9.24286 1.61045 8.86317 1.61045 8.46459C1.61045 8.41245 1.60899 8.36064 1.60611 8.3092L0.375 9.54031ZM3.36023 6.55508C3.79483 6.92658 4.35745 7.15095 4.97117 7.15095C6.3443 7.15095 7.46162 6.02779 7.46162 4.64668C7.46162 4.03453 7.24204 3.47293 6.87794 3.03737L6.15384 3.76147C6.33745 4.00873 6.44625 4.31523 6.44625 4.64668C6.44625 5.4645 5.78467 6.1298 4.97117 6.1298C4.63845 6.1298 4.33123 6.01851 4.0843 5.83101L3.36023 6.55508Z" fill="#9C81F2"/>
</svg>
