<svg width="15" height="18" viewBox="0 0 15 18" fill="none" xmlns="http://www.w3.org/2000/svg">
<path fill-rule="evenodd" clip-rule="evenodd" d="M1.3203 12.3678C2.58403 13.0451 3.99705 13.6362 4.90446 13.888C6.58486 14.3553 9.36834 14.977 11.7643 14.2009C13.0553 13.783 13.8244 12.8837 13.5655 11.5918L13.2705 10.6451C13.1546 10.2748 13.1444 9.87771 13.2413 9.50159L13.8644 7.09543C14.5032 4.62351 14.03 2.4606 12.8267 0.861328L11.4144 2.27367C11.4651 2.34796 11.5132 2.42347 11.5589 2.50012C12.1625 3.51345 12.4215 4.877 11.9834 6.57262L11.2211 9.51976C11.118 9.91784 11.135 10.3391 11.2698 10.7269L11.3992 11.0973C11.5034 11.397 11.5609 11.6292 11.4265 11.9148C11.333 12.1147 11.0789 12.3115 10.8716 12.3639C9.11716 12.808 6.99085 12.3781 5.4078 11.938C4.80322 11.77 3.81303 11.3779 2.80769 10.8804L1.3203 12.3678ZM1.71663 14.0554C1.97242 14.0921 2.20367 14.2326 2.3595 14.4461H2.36048C2.82196 15.08 3.52878 15.5967 4.40501 15.8389C5.28123 16.0822 6.14188 16.0025 6.84676 15.6926C7.0847 15.5885 7.3528 15.5866 7.59207 15.6874C7.83135 15.7882 8.0222 15.9834 8.12264 16.23C8.22309 16.4767 8.22489 16.7546 8.12767 17.0027C8.03044 17.2507 7.84215 17.4486 7.60421 17.5527C6.49237 18.0392 5.18777 18.1462 3.90069 17.7889C2.61361 17.4306 1.53488 16.6625 0.806637 15.6643C0.650806 15.4509 0.583161 15.182 0.618582 14.9168C0.654003 14.6516 0.789588 14.4119 0.995512 14.2503C1.20143 14.0888 1.46083 14.0186 1.71663 14.0554Z" fill="#9D7FF5"/>
</svg>
