<svg width="10" height="10" viewBox="0 0 10 10" fill="none" xmlns="http://www.w3.org/2000/svg">
<path fill-rule="evenodd" clip-rule="evenodd" d="M0.140625 5.8568C0.830438 5.82291 1.46979 5.38558 1.72246 4.69847C1.78374 4.53225 1.81199 4.3601 1.81031 4.18711L0.140625 5.8568ZM4.09218 1.90524C4.1687 2.63715 4.76502 3.35838 5.64687 3.68242L8.32206 4.66808C8.58547 4.76475 8.81297 4.81096 9.00344 4.81096C9.64254 4.81096 9.84099 4.28967 9.42155 3.44435L9.10396 2.80538C8.55894 1.70862 7.36418 0.536335 6.44998 0.198935C6.27584 0.133927 6.09255 0.0973063 5.90709 0.090332L4.09218 1.90524ZM5.9373 2.89421L8.61144 3.87947C8.64548 3.89201 8.67981 3.90372 8.71441 3.9146C8.70139 3.88478 8.68648 3.85273 8.66933 3.81821L8.35174 3.17918C7.85572 2.18105 6.79809 1.22275 6.15696 0.986155C6.05525 0.948285 5.94864 0.929104 5.84007 0.929104C5.448 0.929104 5.09436 1.17438 4.95989 1.53985C4.86154 1.80683 4.98698 2.07773 5.07042 2.21549C5.24906 2.50998 5.56476 2.75729 5.9373 2.89421ZM4.17687 4.10997C4.34638 4.10966 4.51452 4.14019 4.6731 4.20007C5.58856 4.5374 6.06218 5.56149 5.72478 6.47695C5.38738 7.39108 4.21523 8.58592 3.1184 9.13107L2.47944 9.4486C2.17641 9.59805 1.9144 9.66945 1.70412 9.66945C1.15245 9.66945 0.948682 9.17994 1.25437 8.34911L2.24004 5.67384C2.58787 4.72786 3.39231 4.10997 4.17687 4.10997ZM2.74453 8.37871C3.74252 7.88269 4.70096 6.825 4.93665 6.18638C5.02212 5.95447 5.01134 5.7015 4.9062 5.474C4.80099 5.24636 4.61507 5.0738 4.3763 4.98582C4.31225 4.9616 4.24701 4.94984 4.1768 4.94984C3.79131 4.94984 3.2731 5.29802 3.02817 5.96407L2.04264 8.63898C2.02913 8.67594 2.01751 8.7101 2.00764 8.74167C2.03795 8.72858 2.07057 8.71353 2.10564 8.69624L2.74453 8.37871Z" fill="#9C81F2"/>
</svg>
