<svg width="13" height="13" viewBox="0 0 13 13" fill="none" xmlns="http://www.w3.org/2000/svg">
<path fill-rule="evenodd" clip-rule="evenodd" d="M11.0164 4.01049C11.0188 5.59679 10.4807 7.13661 9.49076 8.37623H9.4919C9.52013 8.39807 9.54687 8.42175 9.57196 8.44713L12.7718 11.6465C12.9177 11.797 12.9985 11.9987 12.9968 12.2083C12.9952 12.4178 12.9112 12.6182 12.7631 12.7664C12.6149 12.9145 12.4144 12.9985 12.2049 13.0001C11.9953 13.0018 11.7935 12.9209 11.6431 12.7751L8.44319 9.57573C8.41803 9.55057 8.39287 9.52313 8.37229 9.49454C7.24293 10.393 5.86374 10.9211 4.42303 11.0067C2.98232 11.0922 1.5503 10.7311 0.322499 9.97264C0.261211 9.93478 0.200581 9.89602 0.140625 9.85638L1.30198 8.69502C2.31209 9.27744 3.48742 9.52016 4.65296 9.37985C5.96632 9.22174 7.17631 8.58821 8.05437 7.59894C8.93243 6.60967 9.41777 5.33315 9.41871 4.01049C9.41871 3.79866 9.50287 3.5955 9.65268 3.44572C9.80249 3.29593 10.0057 3.21178 10.2175 3.21178C10.4294 3.21178 10.6326 3.29593 10.7824 3.44572C10.9322 3.5955 11.0164 3.79866 11.0164 4.01049ZM8.80344 1.50059C8.76847 1.43366 8.73217 1.3676 8.69457 1.30243L9.85443 0.142578C9.98563 0.340905 10.1071 0.546421 10.2181 0.758478C10.2668 0.851353 10.2968 0.952916 10.3063 1.05737C10.3158 1.16182 10.3046 1.26712 10.2733 1.36725C10.2421 1.46737 10.1915 1.56037 10.1243 1.64093C10.0572 1.72149 9.97477 1.78804 9.88188 1.83676C9.78899 1.88549 9.68742 1.91545 9.58295 1.92492C9.47848 1.9344 9.37317 1.92321 9.27302 1.892C9.17288 1.86078 9.07987 1.81015 8.9993 1.74299C8.91873 1.67583 8.85217 1.59346 8.80344 1.50059Z" fill="#9D7FF5"/>
</svg>
