<svg width="10" height="2" viewBox="0 0 10 2" fill="none" xmlns="http://www.w3.org/2000/svg">
<path d="M1.05263 0C1.19087 -3.9137e-09 1.32775 0.025866 1.45546 0.0761207C1.58317 0.126375 1.69921 0.200035 1.79695 0.292893C1.8947 0.385752 1.97224 0.495991 2.02514 0.617317C2.07804 0.738642 2.10526 0.868678 2.10526 1C2.10526 1.13132 2.07804 1.26136 2.02514 1.38268C1.97224 1.50401 1.8947 1.61425 1.79695 1.70711C1.69921 1.79997 1.58317 1.87362 1.45546 1.92388C1.32775 1.97413 1.19087 2 1.05263 2C0.773456 2 0.505715 1.89464 0.308309 1.70711C0.110902 1.51957 0 1.26522 0 1C0 0.734784 0.110902 0.48043 0.308309 0.292893C0.505715 0.105357 0.773456 0 1.05263 0ZM5 0C5.13823 -3.9137e-09 5.27511 0.025866 5.40282 0.0761207C5.53054 0.126375 5.64658 0.200035 5.74432 0.292893C5.84207 0.385752 5.91961 0.495991 5.9725 0.617317C6.0254 0.738642 6.05263 0.868678 6.05263 1C6.05263 1.13132 6.0254 1.26136 5.9725 1.38268C5.91961 1.50401 5.84207 1.61425 5.74432 1.70711C5.64658 1.79997 5.53054 1.87362 5.40282 1.92388C5.27511 1.97413 5.13823 2 5 2C4.72082 2 4.45308 1.89464 4.25568 1.70711C4.05827 1.51957 3.94737 1.26522 3.94737 1C3.94737 0.734784 4.05827 0.48043 4.25568 0.292893C4.45308 0.105357 4.72082 0 5 0ZM8.94737 0C9.0856 -3.9137e-09 9.22248 0.025866 9.35019 0.0761207C9.4779 0.126375 9.59395 0.200035 9.69169 0.292893C9.78944 0.385752 9.86697 0.495991 9.91987 0.617317C9.97277 0.738642 10 0.868678 10 1C10 1.13132 9.97277 1.26136 9.91987 1.38268C9.86697 1.50401 9.78944 1.61425 9.69169 1.70711C9.59395 1.79997 9.4779 1.87362 9.35019 1.92388C9.22248 1.97413 9.0856 2 8.94737 2C8.66819 2 8.40045 1.89464 8.20305 1.70711C8.00564 1.51957 7.89474 1.26522 7.89474 1C7.89474 0.734784 8.00564 0.48043 8.20305 0.292893C8.40045 0.105357 8.66819 0 8.94737 0Z" fill="#C4C6CA"/>
</svg>
