<svg width="14" height="14" viewBox="0 0 14 14" fill="none" xmlns="http://www.w3.org/2000/svg">
<g filter="url(#filter0_d_624_360)">
<path fill-rule="evenodd" clip-rule="evenodd" d="M6.81158 9.18699C6.80402 8.40731 6.18844 7.6108 5.24855 7.26535L2.57469 6.28108C2.31142 6.18448 2.08259 6.13814 1.89338 6.13814C1.25302 6.13814 1.05583 6.65943 1.4752 7.50489L1.79272 8.14378C2.33788 9.24068 3.53257 10.4129 4.44677 10.7502C4.64159 10.8223 4.84769 10.8591 5.05542 10.8588C5.08432 10.8588 5.11315 10.8581 5.1419 10.8567L6.81158 9.18699ZM9.09346 6.90511L10.9084 5.0902C10.8861 5.08936 10.8637 5.08895 10.8413 5.08898C10.119 5.08898 9.4363 5.53348 9.17296 6.2493C9.09468 6.46177 9.07033 6.68393 9.09346 6.90511ZM8.41745 1.50071C8.72041 1.35119 8.98235 1.27979 9.19277 1.27979C9.74444 1.27979 9.94821 1.76797 9.64126 2.59894L8.65566 5.27406C8.30776 6.21997 7.50332 6.83786 6.71876 6.83786C6.54951 6.83842 6.3815 6.80886 6.2226 6.75057C5.307 6.41317 4.83471 5.38914 5.17204 4.47228C5.50944 3.55808 6.68159 2.36339 7.77842 1.81823L8.41745 1.50071ZM7.86739 4.98363L8.85327 2.30781C8.8665 2.27204 8.87777 2.23893 8.88757 2.2082C8.85775 2.22115 8.82569 2.23592 8.79125 2.25293L8.15229 2.57038C7.15423 3.0664 6.19593 4.1241 5.96038 4.76229C5.78237 5.24613 6.03024 5.7845 6.51317 5.96244C6.57901 5.98642 6.64862 5.99839 6.71869 5.99779C7.10411 5.99779 7.62239 5.64961 7.86739 4.98363ZM5.05535 10.0189C5.44742 10.0189 5.80106 9.77359 5.93553 9.40784C6.03395 9.141 5.90858 8.8701 5.82507 8.73234C5.6465 8.43785 5.33073 8.19054 4.9584 8.05369L2.28538 7.0697C2.24828 7.05612 2.21398 7.0445 2.18234 7.03463C2.19658 7.06716 2.21161 7.09935 2.22742 7.13116L2.54494 7.76998C3.04103 8.76818 4.09859 9.72641 4.73888 9.96266C4.83933 9.99997 4.9458 10.0189 5.05535 10.0189Z" fill="url(#paint0_linear_624_360)" shape-rendering="crispEdges"/>
</g>
<defs>
<filter id="filter0_d_624_360" x="0.253906" y="0.279785" width="13.6562" height="13.579" filterUnits="userSpaceOnUse" color-interpolation-filters="sRGB">
<feFlood flood-opacity="0" result="BackgroundImageFix"/>
<feColorMatrix in="SourceAlpha" type="matrix" values="0 0 0 0 0 0 0 0 0 0 0 0 0 0 0 0 0 0 127 0" result="hardAlpha"/>
<feOffset dx="1" dy="1"/>
<feGaussianBlur stdDeviation="1"/>
<feComposite in2="hardAlpha" operator="out"/>
<feColorMatrix type="matrix" values="0 0 0 0 0 0 0 0 0 0 0 0 0 0 0 0 0 0 0.57 0"/>
<feBlend mode="normal" in2="BackgroundImageFix" result="effect1_dropShadow_624_360"/>
<feBlend mode="normal" in="SourceGraphic" in2="effect1_dropShadow_624_360" result="shape"/>
</filter>
<linearGradient id="paint0_linear_624_360" x1="4.5" y1="4" x2="8.5" y2="8" gradientUnits="userSpaceOnUse">
<stop stop-color="#9C81F2"/>
<stop offset="1" stop-color="white" stop-opacity="0.9"/>
</linearGradient>
</defs>
</svg>
