<svg width="6" height="5" viewBox="0 0 6 5" fill="none" xmlns="http://www.w3.org/2000/svg">
<path fill-rule="evenodd" clip-rule="evenodd" d="M0.187936 4.68945C0.366876 4.99511 0.752144 5.09221 1.04676 4.90447L1.04667 4.90456L2.44932 4.01073C2.46408 4.00122 2.48115 3.99618 2.49858 3.99618C2.51601 3.99618 2.53308 4.00122 2.54784 4.01073L3.9504 4.90456C4.02008 4.94902 4.09769 4.97879 4.17872 4.99213C4.25974 5.00548 4.34255 5.00213 4.42229 4.98228C4.75681 4.89908 4.96174 4.55142 4.88281 4.20636L4.50148 2.53851C4.49229 2.4983 4.50542 2.4563 4.53447 2.43037L5.78267 1.31487C5.90702 1.20342 5.98383 1.04642 5.99661 0.877561C6.02383 0.523707 5.76946 0.212033 5.42593 0.183316L3.93973 0.059082L3.49422 0.504595C3.5712 0.548501 3.65666 0.575329 3.74503 0.582937L5.38332 0.719974C5.43652 0.724371 5.47799 0.775165 5.47336 0.835202C5.47108 0.864099 5.45822 0.890573 5.43783 0.908791L4.18963 2.0242C4.10314 2.10184 4.03891 2.20217 4.00382 2.31443C3.96873 2.42669 3.96412 2.54662 3.99047 2.66136L4.3718 4.32922C4.38519 4.38809 4.35115 4.44589 4.29857 4.45899C4.2745 4.465 4.24913 4.46078 4.2276 4.44714L2.82505 3.55331C2.72711 3.49081 2.61406 3.45768 2.49871 3.45768C2.38336 3.45768 2.27031 3.49081 2.17238 3.55331L0.769731 4.44705C0.724756 4.47568 0.666567 4.46105 0.637955 4.41232C0.623466 4.38732 0.619011 4.35753 0.625529 4.32922L0.908892 3.08992L0.209847 3.78896L0.114435 4.20627C0.0767438 4.37101 0.103108 4.54432 0.187936 4.68945Z" fill="#9C81F2"/>
</svg>
