<svg width="16" height="16" viewBox="0 0 16 16" fill="none" xmlns="http://www.w3.org/2000/svg">
<g filter="url(#filter0_d_624_20)">
<path fill-rule="evenodd" clip-rule="evenodd" d="M12.2946 2.70543C12.2718 2.70397 12.2489 2.70324 12.2259 2.70324H7.55321C7.53122 2.70322 7.5095 2.69849 7.4895 2.68936C7.4695 2.68024 7.45168 2.66693 7.43726 2.65034L6.32699 1.37091C6.22589 1.25441 6.10093 1.161 5.96058 1.09701C5.82023 1.03301 5.66776 0.99993 5.51351 1H3.61436C3.32887 1 3.05507 1.11341 2.8532 1.31528C2.65133 1.51715 2.53792 1.79095 2.53792 2.07644V4.69068H1.46144C1.39586 4.69067 1.33103 4.70463 1.27128 4.73165C1.21152 4.75867 1.15821 4.79811 1.11491 4.84735C1.0716 4.8966 1.03929 4.95451 1.02013 5.01723C1.00097 5.07994 0.995401 5.14602 1.00379 5.21106L1.88955 12.0563C1.92311 12.3157 2.04997 12.554 2.24643 12.7267C2.2512 12.7309 2.25601 12.7351 2.26085 12.7392L2.93042 12.0696C2.89839 12.064 2.86897 12.0483 2.84637 12.0249C2.82344 12.0012 2.80877 11.9706 2.80453 11.9379L1.98612 5.61334H9.38666L10.3093 4.69065H3.46058V2.07644C3.46058 2.03566 3.47679 1.99654 3.50562 1.9677C3.53446 1.93886 3.57358 1.92266 3.61436 1.92266H5.51382C5.5358 1.92268 5.55753 1.92741 5.57753 1.93654C5.59753 1.94566 5.61534 1.95897 5.62976 1.97556L6.74004 3.25499C6.8411 3.37145 6.96601 3.46484 7.10631 3.52883C7.2466 3.59282 7.39901 3.62593 7.55321 3.6259H11.3741L12.2946 2.70543ZM8.31024 6.68976H6.07487L6.03058 6.69191C5.91266 6.70334 5.80365 6.7597 5.72616 6.84932C5.64866 6.93893 5.6086 7.05492 5.6143 7.17326C5.61999 7.2916 5.67099 7.40321 5.75674 7.48497C5.84248 7.56673 5.95639 7.61236 6.07487 7.61242H7.38758L8.31024 6.68976Z" fill="url(#paint0_linear_624_20)"/>
</g>
<defs>
<filter id="filter0_d_624_20" x="0" y="0" width="15.293" height="15.7391" filterUnits="userSpaceOnUse" color-interpolation-filters="sRGB">
<feFlood flood-opacity="0" result="BackgroundImageFix"/>
<feColorMatrix in="SourceAlpha" type="matrix" values="0 0 0 0 0 0 0 0 0 0 0 0 0 0 0 0 0 0 127 0" result="hardAlpha"/>
<feOffset dx="1" dy="1"/>
<feGaussianBlur stdDeviation="1"/>
<feComposite in2="hardAlpha" operator="out"/>
<feColorMatrix type="matrix" values="0 0 0 0 0 0 0 0 0 0 0 0 0 0 0 0 0 0 0.57 0"/>
<feBlend mode="normal" in2="BackgroundImageFix" result="effect1_dropShadow_624_20"/>
<feBlend mode="normal" in="SourceGraphic" in2="effect1_dropShadow_624_20" result="shape"/>
</filter>
<linearGradient id="paint0_linear_624_20" x1="3" y1="2" x2="8" y2="7" gradientUnits="userSpaceOnUse">
<stop stop-color="#9C81F2"/>
<stop offset="1" stop-color="white"/>
</linearGradient>
</defs>
</svg>
