<svg width="13" height="11" viewBox="0 0 13 11" fill="none" xmlns="http://www.w3.org/2000/svg">
<path fill-rule="evenodd" clip-rule="evenodd" d="M10.2954 0.705566L9.37498 1.62604H10.2268L10.2544 1.62881C10.2898 1.63527 10.3218 1.65392 10.3448 1.68151C10.3678 1.70909 10.3805 1.74388 10.3805 1.77981V2.69079H8.31022L7.38753 3.61348H11.8546L11.0365 9.93803C11.0317 9.9751 11.0136 10.0092 10.9855 10.0338C10.9574 10.0585 10.9213 10.0721 10.884 10.0721H0.957946L0.932726 10.07C0.932247 10.0699 0.931767 10.0698 0.931289 10.0697L0.261719 10.7393C0.456041 10.9041 0.702733 10.9948 0.957946 10.9948H10.884C11.1454 10.9947 11.3979 10.8995 11.5943 10.7269C11.7907 10.5542 11.9175 10.316 11.9512 10.0567L12.8369 3.2112C12.8453 3.14619 12.8398 3.08013 12.8206 3.01744C12.8015 2.95474 12.7692 2.89685 12.7259 2.84761C12.6826 2.79837 12.6294 2.75892 12.5697 2.73188C12.5099 2.70485 12.4451 2.69085 12.3796 2.69082H11.3032V1.77981C11.3032 1.49432 11.1898 1.22053 10.9879 1.01866C10.8023 0.833037 10.5559 0.722208 10.2954 0.705566ZM5.38845 5.61256H7.76639L7.81068 5.61041C7.9286 5.59897 8.03761 5.54261 8.11511 5.453C8.1926 5.36339 8.23266 5.2474 8.22696 5.12906C8.22127 5.01072 8.17027 4.89911 8.08452 4.81735C7.99878 4.73559 7.88487 4.68995 7.76639 4.6899H6.31112L5.38845 5.61256Z" fill="#9C81F2"/>
</svg>
