<svg width="16" height="16" viewBox="0 0 16 16" fill="none" xmlns="http://www.w3.org/2000/svg">
<g filter="url(#filter0_d_624_34)">
<path fill-rule="evenodd" clip-rule="evenodd" d="M3.37677 12.5402C3.36641 12.3963 3.38937 12.2493 3.44937 12.1129L3.4494 12.1128C3.45525 12.099 3.59683 11.7626 3.59683 11.4645C3.59683 10.526 2.83777 9.76269 1.90455 9.76269H1.84467C1.49929 9.76269 1.22961 9.47655 1.14648 9.03415C1.14029 9.00329 1 8.25538 1 7.65627C1 7.05639 1.14029 6.30822 1.14648 6.27711C1.22961 5.83497 1.49929 5.5491 1.8338 5.5491H1.90455C2.83777 5.5491 3.59683 4.78576 3.59683 3.847C3.59683 3.55051 3.45861 3.2201 3.4492 3.19761L3.44889 3.19686C3.27766 2.80872 3.41027 2.33126 3.75863 2.08718L3.78585 2.06976L5.59937 1.07054C5.95366 0.918024 6.42821 1.02152 6.68898 1.2972C6.87897 1.49699 7.53213 2.06727 8.03588 2.06727C8.53317 2.06727 9.18487 1.5082 9.37391 1.31213C9.63513 1.03845 10.1146 0.94066 10.465 1.09344L10.4907 1.10611L12.2419 2.08666C12.5902 2.33172 12.7223 2.80919 12.5501 3.19883L12.5496 3.20013C12.5437 3.21442 12.5019 3.31631 12.4644 3.45255L11.4567 4.4603C11.4116 4.26303 11.3878 4.05771 11.3878 3.847C11.3878 3.44392 11.5145 3.05927 11.5823 2.88361L10.0835 2.04639L10.0707 2.05848L10.0707 2.05849C9.9932 2.13231 9.77973 2.33558 9.49116 2.53951C8.97704 2.90377 8.48766 3.08838 8.0359 3.08838C7.57969 3.08838 7.08682 2.90028 6.56923 2.52881C6.26541 2.31135 6.04324 2.09266 5.97545 2.02447L4.41824 2.8851C4.48554 3.06177 4.61222 3.44766 4.61222 3.847C4.61222 5.26968 3.52707 6.44629 2.12772 6.56149C2.09209 6.76949 2.01538 7.26785 2.01538 7.65625C2.01538 8.0439 2.09209 8.54201 2.12772 8.75001C3.47579 8.86122 4.53225 9.95702 4.60788 11.3091L3.37677 12.5402ZM6.36199 9.555C5.82424 9.09533 5.4825 8.41041 5.4825 7.6466C5.4825 6.26572 6.5998 5.14209 7.97294 5.14209C8.73735 5.14209 9.42248 5.49031 9.87971 6.03728L9.15561 6.76138C8.88645 6.39891 8.45654 6.16371 7.97294 6.1637C7.15945 6.1637 6.49836 6.82926 6.49836 7.6466C6.49836 8.12993 6.72927 8.55999 7.08607 8.83092L6.36199 9.555Z" fill="url(#paint0_linear_624_34)"/>
</g>
<defs>
<filter id="filter0_d_624_34" x="0" y="0" width="15.625" height="15.5403" filterUnits="userSpaceOnUse" color-interpolation-filters="sRGB">
<feFlood flood-opacity="0" result="BackgroundImageFix"/>
<feColorMatrix in="SourceAlpha" type="matrix" values="0 0 0 0 0 0 0 0 0 0 0 0 0 0 0 0 0 0 127 0" result="hardAlpha"/>
<feOffset dx="1" dy="1"/>
<feGaussianBlur stdDeviation="1"/>
<feComposite in2="hardAlpha" operator="out"/>
<feColorMatrix type="matrix" values="0 0 0 0 0 0 0 0 0 0 0 0 0 0 0 0 0 0 0.57 0"/>
<feBlend mode="normal" in2="BackgroundImageFix" result="effect1_dropShadow_624_34"/>
<feBlend mode="normal" in="SourceGraphic" in2="effect1_dropShadow_624_34" result="shape"/>
</filter>
<linearGradient id="paint0_linear_624_34" x1="3.61328" y1="2.80371" x2="8.61328" y2="7.30371" gradientUnits="userSpaceOnUse">
<stop stop-color="#9C81F2"/>
<stop offset="1" stop-color="white"/>
</linearGradient>
</defs>
</svg>
