<svg width="10" height="10" viewBox="0 0 10 10" fill="none" xmlns="http://www.w3.org/2000/svg">
<path fill-rule="evenodd" clip-rule="evenodd" d="M0.144531 5.8568C0.834344 5.82291 1.4737 5.38558 1.72637 4.69847C1.78765 4.53225 1.8159 4.3601 1.81422 4.18711L0.144531 5.8568ZM4.09609 1.90524C4.17261 2.63715 4.76893 3.35838 5.65078 3.68242L8.32597 4.66808C8.58938 4.76475 8.81688 4.81096 9.00735 4.81096C9.64645 4.81096 9.8449 4.28967 9.42546 3.44435L9.10787 2.80538C8.56285 1.70862 7.36809 0.536335 6.45389 0.198935C6.27975 0.133927 6.09646 0.0973063 5.911 0.090332L4.09609 1.90524ZM5.94121 2.89421L8.61535 3.87947C8.64938 3.89201 8.68372 3.90372 8.71832 3.9146C8.7053 3.88478 8.69039 3.85273 8.67324 3.81821L8.35565 3.17918C7.85963 2.18105 6.802 1.22275 6.16087 0.986155C6.05916 0.948285 5.95255 0.929104 5.84398 0.929104C5.45191 0.929104 5.09827 1.17438 4.9638 1.53985C4.86545 1.80683 4.99089 2.07773 5.07433 2.21549C5.25297 2.50998 5.56867 2.75729 5.94121 2.89421ZM4.18078 4.10997C4.35028 4.10966 4.51843 4.14019 4.67701 4.20007C5.59247 4.5374 6.06609 5.56149 5.72869 6.47695C5.39129 7.39108 4.21914 8.58592 3.12231 9.13107L2.48335 9.4486C2.18032 9.59805 1.91831 9.66945 1.70803 9.66945C1.15636 9.66945 0.952588 9.17994 1.25828 8.34911L2.24395 5.67384C2.59178 4.72786 3.39622 4.10997 4.18078 4.10997ZM2.74844 8.37871C3.74643 7.88269 4.70487 6.825 4.94056 6.18638C5.02603 5.95447 5.01525 5.7015 4.91011 5.474C4.8049 5.24636 4.61898 5.0738 4.38021 4.98582C4.31616 4.9616 4.25092 4.94984 4.18071 4.94984C3.79522 4.94984 3.27701 5.29802 3.03208 5.96407L2.04655 8.63898C2.03304 8.67594 2.02142 8.7101 2.01155 8.74167C2.04186 8.72858 2.07448 8.71353 2.10955 8.69624L2.74844 8.37871Z" fill="#9C81F2"/>
</svg>
