<svg width="13" height="13" viewBox="0 0 13 13" fill="none" xmlns="http://www.w3.org/2000/svg">
<path fill-rule="evenodd" clip-rule="evenodd" d="M11.0203 4.01049C11.0227 5.59679 10.4846 7.13661 9.49467 8.37623H9.49581C9.52403 8.39807 9.55078 8.42175 9.57586 8.44713L12.7757 11.6465C12.9216 11.797 13.0024 11.9987 13.0008 12.2083C12.9991 12.4178 12.9151 12.6182 12.767 12.7664C12.6188 12.9145 12.4183 12.9985 12.2088 13.0001C11.9992 13.0018 11.7975 12.9209 11.647 12.7751L8.4471 9.57573C8.42194 9.55057 8.39678 9.52313 8.3762 9.49454C7.24683 10.393 5.86765 10.9211 4.42693 11.0067C2.98622 11.0922 1.55421 10.7311 0.326406 9.97264C0.265117 9.93478 0.204487 9.89602 0.144531 9.85638L1.30589 8.69502C2.31599 9.27744 3.49133 9.52016 4.65686 9.37985C5.97023 9.22174 7.18022 8.58821 8.05828 7.59894C8.93634 6.60967 9.42168 5.33315 9.42262 4.01049C9.42262 3.79866 9.50678 3.5955 9.65659 3.44572C9.8064 3.29593 10.0096 3.21178 10.2214 3.21178C10.4333 3.21178 10.6365 3.29593 10.7863 3.44572C10.9361 3.5955 11.0203 3.79866 11.0203 4.01049ZM8.80734 1.50059C8.77238 1.43366 8.73607 1.3676 8.69848 1.30243L9.85833 0.142578C9.98954 0.340905 10.111 0.546421 10.222 0.758478C10.2708 0.851353 10.3007 0.952916 10.3102 1.05737C10.3197 1.16182 10.3085 1.26712 10.2773 1.36725C10.246 1.46737 10.1954 1.56037 10.1282 1.64093C10.0611 1.72149 9.97868 1.78804 9.88579 1.83676C9.7929 1.88549 9.69132 1.91545 9.58685 1.92492C9.48239 1.9344 9.37707 1.92321 9.27693 1.892C9.17679 1.86078 9.08378 1.81015 9.0032 1.74299C8.92263 1.67583 8.85608 1.59346 8.80734 1.50059Z" fill="#9D7FF5"/>
</svg>
