<svg width="19" height="19" viewBox="0 0 19 19" fill="none" xmlns="http://www.w3.org/2000/svg">
<g filter="url(#filter0_d_624_95)">
<path fill-rule="evenodd" clip-rule="evenodd" d="M15.8312 3.8611C14.9072 2.63294 13.5526 1.73717 11.9405 1.28912C8.22826 0.258629 4.55492 1.99058 3.42557 6.36082L2.80247 8.77303C2.70616 9.1457 2.50885 9.48195 2.2339 9.74196V9.74095L1.52318 10.4121C0.676161 11.3972 0.915663 12.7638 1.82499 13.6055C2.28001 14.1511 3.24822 14.7906 4.32476 15.3675L5.81215 13.8801C5.70042 13.8248 5.58851 13.7682 5.47691 13.7105C4.92878 13.4269 4.42544 13.1352 4.01653 12.8607C3.86952 12.7597 3.63975 12.457 3.47522 12.135C3.25616 11.7071 3.47424 11.2488 3.8296 10.9329L3.92988 10.8431C4.22791 10.5781 4.44172 10.226 4.54324 9.83279L5.30653 6.88364C5.74464 5.18802 6.62671 4.14138 7.63827 3.57719C8.67027 3.00189 9.99629 2.83939 11.4362 3.23907C12.7702 3.61002 13.787 4.34687 14.4189 5.27344L15.8312 3.8611Z" fill="url(#paint0_linear_624_95)" shape-rendering="crispEdges"/>
</g>
<defs>
<filter id="filter0_d_624_95" x="0" y="0" width="18.832" height="18.3674" filterUnits="userSpaceOnUse" color-interpolation-filters="sRGB">
<feFlood flood-opacity="0" result="BackgroundImageFix"/>
<feColorMatrix in="SourceAlpha" type="matrix" values="0 0 0 0 0 0 0 0 0 0 0 0 0 0 0 0 0 0 127 0" result="hardAlpha"/>
<feOffset dx="1" dy="1"/>
<feGaussianBlur stdDeviation="1"/>
<feComposite in2="hardAlpha" operator="out"/>
<feColorMatrix type="matrix" values="0 0 0 0 0 0 0 0 0 0 0 0 0 0 0 0 0 0 0.57 0"/>
<feBlend mode="normal" in2="BackgroundImageFix" result="effect1_dropShadow_624_95"/>
<feBlend mode="normal" in="SourceGraphic" in2="effect1_dropShadow_624_95" result="shape"/>
</filter>
<linearGradient id="paint0_linear_624_95" x1="4.84615" y1="4.07692" x2="10.2308" y2="9.84615" gradientUnits="userSpaceOnUse">
<stop stop-color="#9D7FF5"/>
<stop offset="1" stop-color="white" stop-opacity="0.9"/>
</linearGradient>
</defs>
</svg>
