<svg width="12" height="10" viewBox="0 0 12 10" fill="none" xmlns="http://www.w3.org/2000/svg">
<path fill-rule="evenodd" clip-rule="evenodd" d="M0.379778 9.37841C0.737658 9.98973 1.50819 10.1839 2.09743 9.80845L2.09725 9.80863L4.90254 8.02097C4.93206 8.00196 4.96621 7.99188 5.00107 7.99188C5.03592 7.99188 5.07007 8.00196 5.09959 8.02097L7.9047 9.80863C8.04406 9.89755 8.1993 9.95709 8.36134 9.98378C8.52339 10.0105 8.689 10.0038 8.84849 9.96406C9.51752 9.79768 9.92738 9.10236 9.76953 8.41224L9.00687 5.07653C8.98849 4.99612 9.01474 4.91212 9.07284 4.86025L11.5693 2.62926C11.818 2.40636 11.9716 2.09236 11.9971 1.75463C12.0516 1.04693 11.5428 0.423578 10.8558 0.366143L7.88337 0.117676L6.99234 1.0087C7.14631 1.09651 7.31723 1.15017 7.49397 1.16539L10.7705 1.43946C10.8769 1.44825 10.9599 1.54984 10.9506 1.66992C10.9461 1.72771 10.9203 1.78066 10.8796 1.81709L8.38316 4.0479C8.21019 4.20319 8.08172 4.40386 8.01155 4.62837C7.94137 4.85288 7.93215 5.09276 7.98485 5.32224L8.74751 8.65796C8.77429 8.7757 8.70621 8.89128 8.60104 8.91749C8.55291 8.92951 8.50216 8.92108 8.45911 8.8938L5.654 7.10613C5.45812 6.98112 5.23203 6.91487 5.00133 6.91487C4.77062 6.91487 4.54453 6.98112 4.34866 7.10613L1.54337 8.89362C1.45342 8.95087 1.33704 8.92162 1.27982 8.82416C1.25084 8.77416 1.24193 8.71457 1.25496 8.65796L1.82169 6.17935L0.423599 7.57744L0.232776 8.41206C0.157394 8.74153 0.210123 9.08815 0.379778 9.37841Z" fill="#9C81F2"/>
</svg>
