<svg width="15" height="18" viewBox="0 0 15 18" fill="none" xmlns="http://www.w3.org/2000/svg">
<path fill-rule="evenodd" clip-rule="evenodd" d="M1.3242 12.3678C2.58794 13.0451 4.00095 13.6362 4.90836 13.888C6.58877 14.3553 9.37225 14.977 11.7682 14.2009C13.0592 13.783 13.8283 12.8837 13.5694 11.5918L13.2744 10.6451C13.1585 10.2748 13.1483 9.87771 13.2452 9.50159L13.8683 7.09543C14.5071 4.62351 14.0339 2.4606 12.8306 0.861328L11.4183 2.27367C11.469 2.34796 11.5171 2.42347 11.5628 2.50012C12.1664 3.51345 12.4254 4.877 11.9873 6.57262L11.225 9.51976C11.122 9.91784 11.1389 10.3391 11.2737 10.7269L11.4031 11.0973C11.5073 11.397 11.5648 11.6292 11.4304 11.9148C11.3369 12.1147 11.0828 12.3115 10.8755 12.3639C9.12107 12.808 6.99476 12.3781 5.41171 11.938C4.80712 11.77 3.81694 11.3779 2.8116 10.8804L1.3242 12.3678ZM1.72053 14.0554C1.97633 14.0921 2.20758 14.2326 2.36341 14.4461H2.36438C2.82586 15.08 3.53269 15.5967 4.40891 15.8389C5.28514 16.0822 6.14579 16.0025 6.85066 15.6926C7.08861 15.5885 7.3567 15.5866 7.59598 15.6874C7.83525 15.7882 8.0261 15.9834 8.12655 16.23C8.22699 16.4767 8.2288 16.7546 8.13158 17.0027C8.03435 17.2507 7.84606 17.4486 7.60811 17.5527C6.49628 18.0392 5.19168 18.1462 3.9046 17.7889C2.61752 17.4306 1.53878 16.6625 0.810543 15.6643C0.654713 15.4509 0.587067 15.182 0.622488 14.9168C0.657909 14.6516 0.793495 14.4119 0.999418 14.2503C1.20534 14.0888 1.46473 14.0186 1.72053 14.0554Z" fill="#9D7FF5"/>
</svg>
