<svg width="50" height="44" viewBox="0 0 50 44" fill="none" xmlns="http://www.w3.org/2000/svg">
<g clip-path="url(#clip0_734_1996)">
<rect width="50" height="44" rx="4" fill="#2A2D38"/>
<rect x="0.4" y="0.4" width="49.2" height="43.2" rx="3.6" fill="#3C414E" fill-opacity="0.4" stroke="url(#paint0_linear_734_1996)" stroke-width="0.8"/>
<ellipse cx="28.5" cy="23.5" rx="51.5" ry="30.5" fill="url(#paint1_radial_734_1996)"/>
<ellipse cx="38" cy="31.5" rx="20" ry="18.5" fill="url(#paint2_radial_734_1996)"/>
<ellipse cx="19.5" cy="-2" rx="42.5" ry="20" fill="url(#paint3_radial_734_1996)"/>
<rect x="3" width="24" height="0.6" fill="url(#paint4_radial_734_1996)"/>
<path fill-rule="evenodd" clip-rule="evenodd" d="M27.5605 15H32.4895C32.6865 15 32.8816 15.0388 33.0636 15.1141C33.2457 15.1895 33.4111 15.3 33.5504 15.4393C33.6897 15.5786 33.8003 15.744 33.8757 15.926C33.9511 16.1081 33.9899 16.3032 33.9899 16.5002C33.9899 16.6972 33.9511 16.8923 33.8757 17.0743C33.8003 17.2563 33.6897 17.4217 33.5504 17.561C33.4111 17.7003 33.2457 17.8108 33.0636 17.8862C32.8816 17.9616 32.6865 18.0004 32.4895 18.0004H26.7032L27.5605 15ZM23.4883 29.2527V31.5019C23.4883 31.699 23.527 31.8941 23.6024 32.0761C23.6778 32.2581 23.7883 32.4235 23.9276 32.5629C24.0669 32.7022 24.2323 32.8127 24.4143 32.8881C24.5964 32.9635 24.7914 33.0023 24.9885 33.0023C25.1855 33.0023 25.3806 32.9635 25.5626 32.8881C25.7447 32.8127 25.91 32.7022 26.0494 32.5629C26.1887 32.4235 26.2992 32.2581 26.3745 32.0761C26.4499 31.8941 26.4887 31.699 26.4887 31.5019V18.7513L23.4883 29.2527Z" fill="#9C81F2"/>
<g filter="url(#filter0_d_734_1996)">
<path fill-rule="evenodd" clip-rule="evenodd" d="M17.5 15H27.578L26.7207 18.0004H26.5011V18.7689L23.5007 29.2702V18.0004H17.5C17.1021 18.0003 16.7206 17.8422 16.4393 17.5609C16.158 17.2795 16 16.898 16 16.5002C16 16.1023 16.158 15.7208 16.4393 15.4395C16.7206 15.1581 17.1021 15.0001 17.5 15Z" fill="url(#paint5_linear_734_1996)" shape-rendering="crispEdges"/>
</g>
</g>
<defs>
<filter id="filter0_d_734_1996" x="15" y="14" width="15.5781" height="18.2703" filterUnits="userSpaceOnUse" color-interpolation-filters="sRGB">
<feFlood flood-opacity="0" result="BackgroundImageFix"/>
<feColorMatrix in="SourceAlpha" type="matrix" values="0 0 0 0 0 0 0 0 0 0 0 0 0 0 0 0 0 0 127 0" result="hardAlpha"/>
<feOffset dx="1" dy="1"/>
<feGaussianBlur stdDeviation="1"/>
<feComposite in2="hardAlpha" operator="out"/>
<feColorMatrix type="matrix" values="0 0 0 0 0 0 0 0 0 0 0 0 0 0 0 0 0 0 0.3 0"/>
<feBlend mode="normal" in2="BackgroundImageFix" result="effect1_dropShadow_734_1996"/>
<feBlend mode="normal" in="SourceGraphic" in2="effect1_dropShadow_734_1996" result="shape"/>
</filter>
<linearGradient id="paint0_linear_734_1996" x1="25" y1="0" x2="25" y2="44" gradientUnits="userSpaceOnUse">
<stop stop-color="white" stop-opacity="0.24"/>
<stop offset="1" stop-color="#9C81F2" stop-opacity="0.2"/>
</linearGradient>
<radialGradient id="paint1_radial_734_1996" cx="0" cy="0" r="1" gradientUnits="userSpaceOnUse" gradientTransform="translate(28.5 23.5) rotate(90) scale(30.5 51.5)">
<stop stop-color="#121212" stop-opacity="0.55"/>
<stop offset="1" stop-color="#121212" stop-opacity="0"/>
</radialGradient>
<radialGradient id="paint2_radial_734_1996" cx="0" cy="0" r="1" gradientUnits="userSpaceOnUse" gradientTransform="translate(38 31.5) rotate(90) scale(18.5 20)">
<stop stop-color="#F5857A" stop-opacity="0.08"/>
<stop offset="1" stop-color="#121212" stop-opacity="0"/>
</radialGradient>
<radialGradient id="paint3_radial_734_1996" cx="0" cy="0" r="1" gradientUnits="userSpaceOnUse" gradientTransform="translate(19.5 -2) rotate(90) scale(20 42.5)">
<stop stop-color="#F5857A" stop-opacity="0.16"/>
<stop offset="1" stop-color="#121212" stop-opacity="0"/>
</radialGradient>
<radialGradient id="paint4_radial_734_1996" cx="0" cy="0" r="1" gradientUnits="userSpaceOnUse" gradientTransform="translate(15.3871 0.374982) rotate(-0.397118) scale(10.839 2343.56)">
<stop stop-color="white" stop-opacity="0.4"/>
<stop offset="1" stop-color="white" stop-opacity="0"/>
</radialGradient>
<linearGradient id="paint5_linear_734_1996" x1="20.5025" y1="15.3219" x2="24.6892" y2="25.9412" gradientUnits="userSpaceOnUse">
<stop stop-color="#9C81F2"/>
<stop offset="1" stop-color="white" stop-opacity="0.9"/>
</linearGradient>
<clipPath id="clip0_734_1996">
<rect width="50" height="44" rx="4" fill="white"/>
</clipPath>
</defs>
</svg>
