<svg width="50" height="44" viewBox="0 0 50 44" fill="none" xmlns="http://www.w3.org/2000/svg">
<g clip-path="url(#clip0_734_2093)">
<rect width="50" height="44" rx="4" fill="#2A2D38"/>
<rect x="0.4" y="0.4" width="49.2" height="43.2" rx="3.6" fill="#3C414E" fill-opacity="0.4" stroke="url(#paint0_linear_734_2093)" stroke-width="0.8"/>
<ellipse cx="28.5" cy="23.5" rx="51.5" ry="30.5" fill="url(#paint1_radial_734_2093)"/>
<ellipse cx="38" cy="31.5" rx="20" ry="18.5" fill="url(#paint2_radial_734_2093)"/>
<ellipse cx="19.5" cy="-2" rx="42.5" ry="20" fill="url(#paint3_radial_734_2093)"/>
<rect x="3" width="24" height="0.6" fill="url(#paint4_radial_734_2093)"/>
<path fill-rule="evenodd" clip-rule="evenodd" d="M20.9965 24.8571V25.9999H28.9965V23.1428L29.9965 22.9285V25.9999H37.9965V21.9999H34.3298L38.4617 21.1145C38.7797 21.2819 38.9965 21.6156 38.9965 21.9999V25.9999C38.9965 26.5522 38.5488 26.9999 37.9965 26.9999H11.9965C11.8285 26.9999 11.6702 26.9585 11.5312 26.8853L15.6632 25.9999H19.9965V25.0713L20.9965 24.8571Z" fill="#9C81F2"/>
<g filter="url(#filter0_d_734_2093)">
<path fill-rule="evenodd" clip-rule="evenodd" d="M21 22H29V23.1429L30 22.9286V22H34.3333L38.4652 21.1146C38.3263 21.0414 38.168 21 38 21H12C11.4477 21 11 21.4477 11 22V26C11 26.3843 11.2168 26.718 11.5348 26.8854L15.6667 26H12L12 22H20V25.0714L21 24.8571V22Z" fill="url(#paint5_linear_734_2093)" shape-rendering="crispEdges"/>
</g>
</g>
<defs>
<filter id="filter0_d_734_2093" x="10" y="20" width="31.4648" height="9.88538" filterUnits="userSpaceOnUse" color-interpolation-filters="sRGB">
<feFlood flood-opacity="0" result="BackgroundImageFix"/>
<feColorMatrix in="SourceAlpha" type="matrix" values="0 0 0 0 0 0 0 0 0 0 0 0 0 0 0 0 0 0 127 0" result="hardAlpha"/>
<feOffset dx="1" dy="1"/>
<feGaussianBlur stdDeviation="1"/>
<feComposite in2="hardAlpha" operator="out"/>
<feColorMatrix type="matrix" values="0 0 0 0 0 0 0 0 0 0 0 0 0 0 0 0 0 0 0.57 0"/>
<feBlend mode="normal" in2="BackgroundImageFix" result="effect1_dropShadow_734_2093"/>
<feBlend mode="normal" in="SourceGraphic" in2="effect1_dropShadow_734_2093" result="shape"/>
</filter>
<linearGradient id="paint0_linear_734_2093" x1="25" y1="0" x2="25" y2="44" gradientUnits="userSpaceOnUse">
<stop stop-color="white" stop-opacity="0.24"/>
<stop offset="1" stop-color="#9C81F2" stop-opacity="0.2"/>
</linearGradient>
<radialGradient id="paint1_radial_734_2093" cx="0" cy="0" r="1" gradientUnits="userSpaceOnUse" gradientTransform="translate(28.5 23.5) rotate(90) scale(30.5 51.5)">
<stop stop-color="#121212" stop-opacity="0.55"/>
<stop offset="1" stop-color="#121212" stop-opacity="0"/>
</radialGradient>
<radialGradient id="paint2_radial_734_2093" cx="0" cy="0" r="1" gradientUnits="userSpaceOnUse" gradientTransform="translate(38 31.5) rotate(90) scale(18.5 20)">
<stop stop-color="#F5857A" stop-opacity="0.08"/>
<stop offset="1" stop-color="#121212" stop-opacity="0"/>
</radialGradient>
<radialGradient id="paint3_radial_734_2093" cx="0" cy="0" r="1" gradientUnits="userSpaceOnUse" gradientTransform="translate(19.5 -2) rotate(90) scale(20 42.5)">
<stop stop-color="#F5857A" stop-opacity="0.16"/>
<stop offset="1" stop-color="#121212" stop-opacity="0"/>
</radialGradient>
<radialGradient id="paint4_radial_734_2093" cx="0" cy="0" r="1" gradientUnits="userSpaceOnUse" gradientTransform="translate(15.3871 0.374982) rotate(-0.397118) scale(10.839 2343.56)">
<stop stop-color="white" stop-opacity="0.4"/>
<stop offset="1" stop-color="white" stop-opacity="0"/>
</radialGradient>
<linearGradient id="paint5_linear_734_2093" x1="19.5" y1="21.5" x2="21" y2="27" gradientUnits="userSpaceOnUse">
<stop stop-color="#9C81F2"/>
<stop offset="1" stop-color="white" stop-opacity="0.9"/>
</linearGradient>
<clipPath id="clip0_734_2093">
<rect width="50" height="44" rx="4" fill="white"/>
</clipPath>
</defs>
</svg>
