<svg width="50" height="44" viewBox="0 0 50 44" fill="none" xmlns="http://www.w3.org/2000/svg">
<g clip-path="url(#clip0_734_1925)">
<rect width="50" height="44" rx="4" fill="#2A2D38"/>
<rect x="0.4" y="0.4" width="49.2" height="43.2" rx="3.6" fill="#3C414E" fill-opacity="0.4" stroke="url(#paint0_linear_734_1925)" stroke-width="0.8"/>
<ellipse cx="28.5" cy="23.5" rx="51.5" ry="30.5" fill="url(#paint1_radial_734_1925)"/>
<ellipse cx="38" cy="31.5" rx="20" ry="18.5" fill="url(#paint2_radial_734_1925)"/>
<ellipse cx="19.5" cy="-2" rx="42.5" ry="20" fill="url(#paint3_radial_734_1925)"/>
<rect x="3" width="24" height="0.6" fill="url(#paint4_radial_734_1925)"/>
<path fill-rule="evenodd" clip-rule="evenodd" d="M14.5 25H22H23H37.6C38.3732 25 39 24.3732 39 23.6V20.4C39 19.6268 38.3732 19 37.6 19H35.5L32 20H37.6C37.8209 20 38 20.1791 38 20.4V23.6C38 23.8209 37.8209 24 37.6 24H23V22.5714L22 22.8571V24H18L14.5 25ZM36 22C36 22.5523 35.5523 23 35 23C34.4477 23 34 22.5523 34 22C34 21.4477 34.4477 21 35 21C35.5523 21 36 21.4477 36 22Z" fill="#9C81F2"/>
<g filter="url(#filter0_d_734_1925)">
<path fill-rule="evenodd" clip-rule="evenodd" d="M14.5 25H12.4C11.6268 25 11 24.3732 11 23.6V20.4C11 19.6268 11.6268 19 12.4 19H22H23H35.5L32 20H23V22.5714L22 22.8571V20H12.4C12.1791 20 12 20.1791 12 20.4V23.6C12 23.8209 12.1791 24 12.4 24H18L14.5 25ZM14 23C14.5523 23 15 22.5523 15 22C15 21.4477 14.5523 21 14 21C13.4477 21 13 21.4477 13 22C13 22.5523 13.4477 23 14 23ZM18 22C18 22.5523 17.5523 23 17 23C16.4477 23 16 22.5523 16 22C16 21.4477 16.4477 21 17 21C17.5523 21 18 21.4477 18 22ZM20 23C20.5523 23 21 22.5523 21 22C21 21.4477 20.5523 21 20 21C19.4477 21 19 21.4477 19 22C19 22.5523 19.4477 23 20 23Z" fill="url(#paint5_linear_734_1925)" shape-rendering="crispEdges"/>
</g>
</g>
<defs>
<filter id="filter0_d_734_1925" x="10" y="18" width="28.5" height="10" filterUnits="userSpaceOnUse" color-interpolation-filters="sRGB">
<feFlood flood-opacity="0" result="BackgroundImageFix"/>
<feColorMatrix in="SourceAlpha" type="matrix" values="0 0 0 0 0 0 0 0 0 0 0 0 0 0 0 0 0 0 127 0" result="hardAlpha"/>
<feOffset dx="1" dy="1"/>
<feGaussianBlur stdDeviation="1"/>
<feComposite in2="hardAlpha" operator="out"/>
<feColorMatrix type="matrix" values="0 0 0 0 0 0 0 0 0 0 0 0 0 0 0 0 0 0 0.57 0"/>
<feBlend mode="normal" in2="BackgroundImageFix" result="effect1_dropShadow_734_1925"/>
<feBlend mode="normal" in="SourceGraphic" in2="effect1_dropShadow_734_1925" result="shape"/>
</filter>
<linearGradient id="paint0_linear_734_1925" x1="25" y1="0" x2="25" y2="44" gradientUnits="userSpaceOnUse">
<stop stop-color="white" stop-opacity="0.24"/>
<stop offset="1" stop-color="#9C81F2" stop-opacity="0.2"/>
</linearGradient>
<radialGradient id="paint1_radial_734_1925" cx="0" cy="0" r="1" gradientUnits="userSpaceOnUse" gradientTransform="translate(28.5 23.5) rotate(90) scale(30.5 51.5)">
<stop stop-color="#121212" stop-opacity="0.55"/>
<stop offset="1" stop-color="#121212" stop-opacity="0"/>
</radialGradient>
<radialGradient id="paint2_radial_734_1925" cx="0" cy="0" r="1" gradientUnits="userSpaceOnUse" gradientTransform="translate(38 31.5) rotate(90) scale(18.5 20)">
<stop stop-color="#F5857A" stop-opacity="0.08"/>
<stop offset="1" stop-color="#121212" stop-opacity="0"/>
</radialGradient>
<radialGradient id="paint3_radial_734_1925" cx="0" cy="0" r="1" gradientUnits="userSpaceOnUse" gradientTransform="translate(19.5 -2) rotate(90) scale(20 42.5)">
<stop stop-color="#F5857A" stop-opacity="0.16"/>
<stop offset="1" stop-color="#121212" stop-opacity="0"/>
</radialGradient>
<radialGradient id="paint4_radial_734_1925" cx="0" cy="0" r="1" gradientUnits="userSpaceOnUse" gradientTransform="translate(15.3871 0.374982) rotate(-0.397118) scale(10.839 2343.56)">
<stop stop-color="white" stop-opacity="0.4"/>
<stop offset="1" stop-color="white" stop-opacity="0"/>
</radialGradient>
<linearGradient id="paint5_linear_734_1925" x1="17.5" y1="19" x2="19.5" y2="25" gradientUnits="userSpaceOnUse">
<stop stop-color="#9C81F2"/>
<stop offset="1" stop-color="white" stop-opacity="0.9"/>
</linearGradient>
<clipPath id="clip0_734_1925">
<rect width="50" height="44" rx="4" fill="white"/>
</clipPath>
</defs>
</svg>
