<svg width="50" height="44" viewBox="0 0 50 44" fill="none" xmlns="http://www.w3.org/2000/svg">
<g clip-path="url(#clip0_923_325)">
<rect width="50" height="44" rx="4" fill="#2A2D38"/>
<rect x="0.4" y="0.4" width="49.2" height="43.2" rx="3.6" fill="#3C414E" fill-opacity="0.4" stroke="url(#paint0_linear_923_325)" stroke-width="0.8"/>
<ellipse cx="28.5" cy="23.5" rx="51.5" ry="30.5" fill="url(#paint1_radial_923_325)"/>
<ellipse cx="38" cy="31.5" rx="20" ry="18.5" fill="url(#paint2_radial_923_325)"/>
<ellipse cx="19.5" cy="-2" rx="42.5" ry="20" fill="url(#paint3_radial_923_325)"/>
<rect x="3" width="24" height="0.6" fill="url(#paint4_radial_923_325)"/>
<g filter="url(#filter0_d_923_325)">
<path fill-rule="evenodd" clip-rule="evenodd" d="M17.6 18.9572V14.6H21.9572V18.9572H17.6ZM16 13.6C16 13.2686 16.2686 13 16.6 13H22.9572C23.2885 13 23.5572 13.2686 23.5572 13.6V19.9572C23.5572 20.2885 23.2885 20.5572 22.9572 20.5572H16.6C16.2686 20.5572 16 20.2885 16 19.9572V13.6ZM27.0465 18.9572V14.6H31.4036L32.8279 13.1757C32.7193 13.0672 32.5693 13 32.4036 13H26.0465C25.7151 13 25.4465 13.2686 25.4465 13.6V20.5572L27.0465 18.9572ZM23.3814 22.6222C23.2729 22.5136 23.1229 22.4465 22.9572 22.4465H16.6C16.2686 22.4465 16 22.7151 16 23.0465V29.4036C16 29.5693 16.0672 29.7193 16.1757 29.8279L17.6 28.4036V24.0465H21.9572L23.3814 22.6222Z" fill="url(#paint5_linear_923_325)" shape-rendering="crispEdges"/>
</g>
<path fill-rule="evenodd" clip-rule="evenodd" d="M23.3776 22.6223C23.4862 22.7308 23.5533 22.8808 23.5533 23.0465V29.4037C23.5533 29.7351 23.2847 30.0037 22.9533 30.0037H16.5961C16.4305 30.0037 16.2805 29.9365 16.1719 29.828L17.5961 28.4037H21.9533V24.0465L23.3776 22.6223ZM25.4426 20.5572L27.0426 18.9572V28.4037H31.3998V14.6L32.8241 13.1758C32.9326 13.2844 32.9998 13.4344 32.9998 13.6V29.4037C32.9998 29.7351 32.7312 30.0037 32.3998 30.0037H26.0426C25.7112 30.0037 25.4426 29.7351 25.4426 29.4037V20.5572Z" fill="#9C81F2"/>
</g>
<defs>
<filter id="filter0_d_923_325" x="15" y="12" width="20.8281" height="20.8279" filterUnits="userSpaceOnUse" color-interpolation-filters="sRGB">
<feFlood flood-opacity="0" result="BackgroundImageFix"/>
<feColorMatrix in="SourceAlpha" type="matrix" values="0 0 0 0 0 0 0 0 0 0 0 0 0 0 0 0 0 0 127 0" result="hardAlpha"/>
<feOffset dx="1" dy="1"/>
<feGaussianBlur stdDeviation="1"/>
<feComposite in2="hardAlpha" operator="out"/>
<feColorMatrix type="matrix" values="0 0 0 0 0 0 0 0 0 0 0 0 0 0 0 0 0 0 0.57 0"/>
<feBlend mode="normal" in2="BackgroundImageFix" result="effect1_dropShadow_923_325"/>
<feBlend mode="normal" in="SourceGraphic" in2="effect1_dropShadow_923_325" result="shape"/>
</filter>
<linearGradient id="paint0_linear_923_325" x1="25" y1="0" x2="25" y2="44" gradientUnits="userSpaceOnUse">
<stop stop-color="white" stop-opacity="0.24"/>
<stop offset="1" stop-color="#9C81F2" stop-opacity="0.2"/>
</linearGradient>
<radialGradient id="paint1_radial_923_325" cx="0" cy="0" r="1" gradientUnits="userSpaceOnUse" gradientTransform="translate(28.5 23.5) rotate(90) scale(30.5 51.5)">
<stop stop-color="#121212" stop-opacity="0.55"/>
<stop offset="1" stop-color="#121212" stop-opacity="0"/>
</radialGradient>
<radialGradient id="paint2_radial_923_325" cx="0" cy="0" r="1" gradientUnits="userSpaceOnUse" gradientTransform="translate(38 31.5) rotate(90) scale(18.5 20)">
<stop stop-color="#F5857A" stop-opacity="0.08"/>
<stop offset="1" stop-color="#121212" stop-opacity="0"/>
</radialGradient>
<radialGradient id="paint3_radial_923_325" cx="0" cy="0" r="1" gradientUnits="userSpaceOnUse" gradientTransform="translate(19.5 -2) rotate(90) scale(20 42.5)">
<stop stop-color="#F5857A" stop-opacity="0.16"/>
<stop offset="1" stop-color="#121212" stop-opacity="0"/>
</radialGradient>
<radialGradient id="paint4_radial_923_325" cx="0" cy="0" r="1" gradientUnits="userSpaceOnUse" gradientTransform="translate(15.3871 0.374982) rotate(-0.397118) scale(10.839 2343.56)">
<stop stop-color="white" stop-opacity="0.4"/>
<stop offset="1" stop-color="white" stop-opacity="0"/>
</radialGradient>
<linearGradient id="paint5_linear_923_325" x1="18.8323" y1="15.3603" x2="24.4969" y2="22.9131" gradientUnits="userSpaceOnUse">
<stop stop-color="#9C81F2"/>
<stop offset="1" stop-color="white" stop-opacity="0.9"/>
</linearGradient>
<clipPath id="clip0_923_325">
<rect width="50" height="44" rx="4" fill="white"/>
</clipPath>
</defs>
</svg>
