<svg width="50" height="44" viewBox="0 0 50 44" fill="none" xmlns="http://www.w3.org/2000/svg">
<g clip-path="url(#clip0_734_1954)">
<rect width="50" height="44" rx="4" fill="#2A2D38"/>
<rect x="0.4" y="0.4" width="49.2" height="43.2" rx="3.6" fill="#3C414E" fill-opacity="0.4" stroke="url(#paint0_linear_734_1954)" stroke-width="0.8"/>
<ellipse cx="28.5" cy="23.5" rx="51.5" ry="30.5" fill="url(#paint1_radial_734_1954)"/>
<ellipse cx="38" cy="31.5" rx="20" ry="18.5" fill="url(#paint2_radial_734_1954)"/>
<ellipse cx="19.5" cy="-2" rx="42.5" ry="20" fill="url(#paint3_radial_734_1954)"/>
<rect x="3" width="24" height="0.6" fill="url(#paint4_radial_734_1954)"/>
<path fill-rule="evenodd" clip-rule="evenodd" d="M16.7464 25.0001L14.8984 25.6721C15.2136 25.8794 15.5909 26.0001 15.9964 26.0001H33.9964C35.1009 26.0001 35.9964 25.1047 35.9964 24.0001V20.0001C35.9964 19.301 35.6377 18.6857 35.0943 18.3281L33.2464 19.0001H33.9964C34.5486 19.0001 34.9964 19.4478 34.9964 20.0001V24.0001C34.9964 24.5524 34.5486 25.0001 33.9964 25.0001H16.7464ZM22.2464 23.0001L27.7464 21.0001H31.9964C32.5486 21.0001 32.9964 21.4478 32.9964 22.0001C32.9964 22.5524 32.5486 23.0001 31.9964 23.0001H22.2464Z" fill="#9C81F2"/>
<g filter="url(#filter0_d_734_1954)">
<path fill-rule="evenodd" clip-rule="evenodd" d="M33.25 19H16C15.4477 19 15 19.4477 15 20V24C15 24.5523 15.4477 25 16 25H16.75L14.9021 25.672C14.3587 25.3144 14 24.6991 14 24V20C14 18.8954 14.8954 18 16 18H34C34.4055 18 34.7828 18.1207 35.0979 18.328L33.25 19ZM27.75 21H18C17.4477 21 17 21.4477 17 22C17 22.5523 17.4477 23 18 23H22.25L27.75 21Z" fill="url(#paint5_linear_734_1954)" shape-rendering="crispEdges"/>
</g>
</g>
<defs>
<filter id="filter0_d_734_1954" x="13" y="17" width="25.0977" height="11.672" filterUnits="userSpaceOnUse" color-interpolation-filters="sRGB">
<feFlood flood-opacity="0" result="BackgroundImageFix"/>
<feColorMatrix in="SourceAlpha" type="matrix" values="0 0 0 0 0 0 0 0 0 0 0 0 0 0 0 0 0 0 127 0" result="hardAlpha"/>
<feOffset dx="1" dy="1"/>
<feGaussianBlur stdDeviation="1"/>
<feComposite in2="hardAlpha" operator="out"/>
<feColorMatrix type="matrix" values="0 0 0 0 0 0 0 0 0 0 0 0 0 0 0 0 0 0 0.3 0"/>
<feBlend mode="normal" in2="BackgroundImageFix" result="effect1_dropShadow_734_1954"/>
<feBlend mode="normal" in="SourceGraphic" in2="effect1_dropShadow_734_1954" result="shape"/>
</filter>
<linearGradient id="paint0_linear_734_1954" x1="25" y1="0" x2="25" y2="44" gradientUnits="userSpaceOnUse">
<stop stop-color="white" stop-opacity="0.24"/>
<stop offset="1" stop-color="#9C81F2" stop-opacity="0.2"/>
</linearGradient>
<radialGradient id="paint1_radial_734_1954" cx="0" cy="0" r="1" gradientUnits="userSpaceOnUse" gradientTransform="translate(28.5 23.5) rotate(90) scale(30.5 51.5)">
<stop stop-color="#121212" stop-opacity="0.55"/>
<stop offset="1" stop-color="#121212" stop-opacity="0"/>
</radialGradient>
<radialGradient id="paint2_radial_734_1954" cx="0" cy="0" r="1" gradientUnits="userSpaceOnUse" gradientTransform="translate(38 31.5) rotate(90) scale(18.5 20)">
<stop stop-color="#F5857A" stop-opacity="0.08"/>
<stop offset="1" stop-color="#121212" stop-opacity="0"/>
</radialGradient>
<radialGradient id="paint3_radial_734_1954" cx="0" cy="0" r="1" gradientUnits="userSpaceOnUse" gradientTransform="translate(19.5 -2) rotate(90) scale(20 42.5)">
<stop stop-color="#F5857A" stop-opacity="0.16"/>
<stop offset="1" stop-color="#121212" stop-opacity="0"/>
</radialGradient>
<radialGradient id="paint4_radial_734_1954" cx="0" cy="0" r="1" gradientUnits="userSpaceOnUse" gradientTransform="translate(15.3871 0.374982) rotate(-0.397118) scale(10.839 2343.56)">
<stop stop-color="white" stop-opacity="0.4"/>
<stop offset="1" stop-color="white" stop-opacity="0"/>
</radialGradient>
<linearGradient id="paint5_linear_734_1954" x1="22" y1="18.5" x2="23.5" y2="23" gradientUnits="userSpaceOnUse">
<stop stop-color="#9C81F2"/>
<stop offset="1" stop-color="white" stop-opacity="0.9"/>
</linearGradient>
<clipPath id="clip0_734_1954">
<rect width="50" height="44" rx="4" fill="white"/>
</clipPath>
</defs>
</svg>
