<svg width="14" height="14" viewBox="0 0 14 14" fill="none" xmlns="http://www.w3.org/2000/svg">
<g clip-path="url(#clip0_1232_33146)">
<rect width="14" height="14" rx="2" fill="#2A2D38" fill-opacity="0.5"/>
<rect x="0.3" y="0.3" width="13.4" height="13.4" rx="1.7" fill="#9D7FF5" fill-opacity="0.1" stroke="url(#paint0_linear_1232_33146)" stroke-width="0.6"/>
<ellipse cx="7.5" cy="9" rx="12.5" ry="7" fill="url(#paint1_radial_1232_33146)"/>
<rect width="8" height="0.6" fill="url(#paint2_radial_1232_33146)"/>
<ellipse cx="4.5" cy="0.5" rx="4.5" ry="2.5" fill="url(#paint3_radial_1232_33146)"/>
<path d="M4.17245 7.34753H9.82031C9.9929 7.34753 10.1328 7.20762 10.1328 7.03503C10.1328 6.86245 9.9929 6.72253 9.82031 6.72253H4.17245C3.99986 6.72253 3.85995 6.86245 3.85995 7.03503C3.85995 7.20762 3.99986 7.34753 4.17245 7.34753Z" fill="#C4C6CA"/>
</g>
<defs>
<linearGradient id="paint0_linear_1232_33146" x1="-1.47157e-07" y1="3.5" x2="13.7403" y2="2.96418" gradientUnits="userSpaceOnUse">
<stop stop-color="white" stop-opacity="0.2"/>
<stop offset="1" stop-color="#9D7FF5" stop-opacity="0.5"/>
</linearGradient>
<radialGradient id="paint1_radial_1232_33146" cx="0" cy="0" r="1" gradientUnits="userSpaceOnUse" gradientTransform="translate(7.5 9) rotate(90) scale(7 12.5)">
<stop stop-color="#121212" stop-opacity="0.5"/>
<stop offset="1" stop-color="#121212" stop-opacity="0"/>
</radialGradient>
<radialGradient id="paint2_radial_1232_33146" cx="0" cy="0" r="1" gradientUnits="userSpaceOnUse" gradientTransform="translate(4 0.299999) scale(3.5 252.262)">
<stop stop-color="white" stop-opacity="0.16"/>
<stop offset="1" stop-color="white" stop-opacity="0"/>
</radialGradient>
<radialGradient id="paint3_radial_1232_33146" cx="0" cy="0" r="1" gradientUnits="userSpaceOnUse" gradientTransform="translate(4.5 0.5) rotate(90) scale(2.5 4.5)">
<stop stop-color="#FA7C70" stop-opacity="0.21"/>
<stop offset="1" stop-color="#FA7C70" stop-opacity="0"/>
</radialGradient>
<clipPath id="clip0_1232_33146">
<rect width="14" height="14" rx="2" fill="white"/>
</clipPath>
</defs>
</svg>
