<svg width="159" height="24" viewBox="0 0 159 24" fill="none" xmlns="http://www.w3.org/2000/svg">
<g clip-path="url(#clip0_1336_7739)">
<rect width="159" height="24" rx="4" fill="#2A2D38"/>
<rect x="0.5" y="0.5" width="158" height="23" rx="3.5" fill="#9C81F2" fill-opacity="0.1" stroke="url(#paint0_linear_1336_7739)"/>
<ellipse cx="101.5" cy="13" rx="106.5" ry="13" fill="url(#paint1_radial_1336_7739)"/>
<rect x="4" width="35" height="1" fill="url(#paint2_radial_1336_7739)"/>
<ellipse cx="21.5" rx="29.5" ry="5" fill="url(#paint3_radial_1336_7739)"/>
<path d="M58.8275 12.7224H56.3161V10.2109C56.3161 10.0383 56.1762 9.89844 56.0036 9.89844C55.831 9.89844 55.6911 10.0383 55.6911 10.2109V12.7224H53.1797C53.0071 12.7224 52.8672 12.8623 52.8672 13.0349C52.8672 13.2075 53.0071 13.3474 53.1797 13.3474H55.6911V15.8588C55.6911 16.0314 55.831 16.1713 56.0036 16.1713C56.1762 16.1713 56.3161 16.0314 56.3161 15.8588V13.3474H58.8275C59.0001 13.3474 59.14 13.2075 59.14 13.0349C59.14 12.8623 59.0001 12.7224 58.8275 12.7224Z" fill="#D4D4D7"/>
<path d="M62.9854 16L65.7344 8.8418H66.7549L69.6846 16H68.6055L67.7705 13.832H64.7773L63.9912 16H62.9854ZM65.0508 13.0605H67.4775L66.7305 11.0781C66.5026 10.4759 66.3333 9.98112 66.2227 9.59375C66.1315 10.0527 66.0029 10.5085 65.8369 10.9609L65.0508 13.0605ZM73.6934 16V15.3457C73.3646 15.86 72.8812 16.1172 72.2432 16.1172C71.8298 16.1172 71.4489 16.0033 71.1006 15.7754C70.7555 15.5475 70.487 15.2301 70.2949 14.8232C70.1061 14.4131 70.0117 13.9427 70.0117 13.4121C70.0117 12.8945 70.098 12.4258 70.2705 12.0059C70.443 11.5827 70.7018 11.2588 71.0469 11.0342C71.3919 10.8096 71.7777 10.6973 72.2041 10.6973C72.5166 10.6973 72.7949 10.764 73.0391 10.8975C73.2832 11.0277 73.4818 11.1986 73.6348 11.4102V8.8418H74.5088V16H73.6934ZM70.915 13.4121C70.915 14.0762 71.055 14.5726 71.335 14.9014C71.6149 15.2301 71.9453 15.3945 72.3262 15.3945C72.7103 15.3945 73.0358 15.2383 73.3027 14.9258C73.5729 14.61 73.708 14.1299 73.708 13.4854C73.708 12.7757 73.5713 12.2549 73.2979 11.9229C73.0244 11.5908 72.6875 11.4248 72.2871 11.4248C71.8965 11.4248 71.5693 11.5843 71.3057 11.9033C71.0452 12.2223 70.915 12.7253 70.915 13.4121ZM79.2598 16V15.3457C78.931 15.86 78.4476 16.1172 77.8096 16.1172C77.3962 16.1172 77.0153 16.0033 76.667 15.7754C76.3219 15.5475 76.0534 15.2301 75.8613 14.8232C75.6725 14.4131 75.5781 13.9427 75.5781 13.4121C75.5781 12.8945 75.6644 12.4258 75.8369 12.0059C76.0094 11.5827 76.2682 11.2588 76.6133 11.0342C76.9583 10.8096 77.3441 10.6973 77.7705 10.6973C78.083 10.6973 78.3613 10.764 78.6055 10.8975C78.8496 11.0277 79.0482 11.1986 79.2012 11.4102V8.8418H80.0752V16H79.2598ZM76.4814 13.4121C76.4814 14.0762 76.6214 14.5726 76.9014 14.9014C77.1813 15.2301 77.5117 15.3945 77.8926 15.3945C78.2767 15.3945 78.6022 15.2383 78.8691 14.9258C79.1393 14.61 79.2744 14.1299 79.2744 13.4854C79.2744 12.7757 79.1377 12.2549 78.8643 11.9229C78.5908 11.5908 78.2539 11.4248 77.8535 11.4248C77.4629 11.4248 77.1357 11.5843 76.8721 11.9033C76.6117 12.2223 76.4814 12.7253 76.4814 13.4121ZM84.5186 16V8.8418H85.4658V16H84.5186ZM88.9473 15.2139L89.0742 15.9902C88.8268 16.0423 88.6055 16.0684 88.4102 16.0684C88.0911 16.0684 87.8438 16.0179 87.668 15.917C87.4922 15.8161 87.3685 15.6842 87.2969 15.5215C87.2253 15.3555 87.1895 15.0088 87.1895 14.4814V11.498H86.5449V10.8145H87.1895V9.53027L88.0635 9.00293V10.8145H88.9473V11.498H88.0635V14.5303C88.0635 14.7809 88.0781 14.9421 88.1074 15.0137C88.14 15.0853 88.1904 15.1423 88.2588 15.1846C88.3304 15.2269 88.4313 15.248 88.5615 15.248C88.6592 15.248 88.7878 15.2367 88.9473 15.2139ZM93.3613 14.3301L94.2695 14.4424C94.1263 14.973 93.861 15.3848 93.4736 15.6777C93.0863 15.9707 92.5915 16.1172 91.9893 16.1172C91.2308 16.1172 90.6286 15.8844 90.1826 15.4189C89.7399 14.9502 89.5186 14.2943 89.5186 13.4512C89.5186 12.5788 89.7432 11.9017 90.1924 11.4199C90.6416 10.9382 91.2243 10.6973 91.9404 10.6973C92.6338 10.6973 93.2002 10.9333 93.6396 11.4053C94.0791 11.8773 94.2988 12.5413 94.2988 13.3975C94.2988 13.4495 94.2972 13.5277 94.2939 13.6318H90.4268C90.4593 14.2015 90.6204 14.6377 90.9102 14.9404C91.1999 15.2432 91.5612 15.3945 91.9941 15.3945C92.3164 15.3945 92.5915 15.3099 92.8193 15.1406C93.0472 14.9714 93.2279 14.7012 93.3613 14.3301ZM90.4756 12.9092H93.3711C93.332 12.473 93.2214 12.1458 93.0391 11.9277C92.7591 11.5892 92.3962 11.4199 91.9502 11.4199C91.5465 11.4199 91.2064 11.555 90.9297 11.8252C90.6562 12.0954 90.5049 12.4567 90.4756 12.9092ZM95.3779 16V10.8145H96.1641V11.542C96.3268 11.2881 96.5433 11.0846 96.8135 10.9316C97.0837 10.7754 97.3913 10.6973 97.7363 10.6973C98.1204 10.6973 98.4346 10.777 98.6787 10.9365C98.9261 11.096 99.1003 11.319 99.2012 11.6055C99.6113 11 100.145 10.6973 100.803 10.6973C101.317 10.6973 101.713 10.8405 101.989 11.127C102.266 11.4102 102.404 11.848 102.404 12.4404V16H101.53V12.7334C101.53 12.3818 101.501 12.1296 101.442 11.9766C101.387 11.8203 101.285 11.695 101.135 11.6006C100.985 11.5062 100.809 11.459 100.607 11.459C100.243 11.459 99.9401 11.5811 99.6992 11.8252C99.4583 12.0661 99.3379 12.4535 99.3379 12.9873V16H98.459V12.6309C98.459 12.2402 98.3874 11.9473 98.2441 11.752C98.1009 11.5566 97.8665 11.459 97.541 11.459C97.2936 11.459 97.0641 11.5241 96.8525 11.6543C96.6442 11.7845 96.4928 11.9749 96.3984 12.2256C96.304 12.4762 96.2568 12.8376 96.2568 13.3096V16H95.3779Z" fill="white" fill-opacity="0.8"/>
</g>
<defs>
<linearGradient id="paint0_linear_1336_7739" x1="-1.67128e-06" y1="5.99999" x2="146.509" y2="-31.8503" gradientUnits="userSpaceOnUse">
<stop stop-color="white" stop-opacity="0.2"/>
<stop offset="1" stop-color="#9C81F2" stop-opacity="0.5"/>
</linearGradient>
<radialGradient id="paint1_radial_1336_7739" cx="0" cy="0" r="1" gradientUnits="userSpaceOnUse" gradientTransform="translate(101.5 13) rotate(90) scale(13 106.5)">
<stop stop-color="#121212" stop-opacity="0.5"/>
<stop offset="1" stop-color="#121212" stop-opacity="0"/>
</radialGradient>
<radialGradient id="paint2_radial_1336_7739" cx="0" cy="0" r="1" gradientUnits="userSpaceOnUse" gradientTransform="translate(21.5 0.5) scale(18.629 511.5)">
<stop stop-color="white" stop-opacity="0.7"/>
<stop offset="1" stop-color="white" stop-opacity="0"/>
</radialGradient>
<radialGradient id="paint3_radial_1336_7739" cx="0" cy="0" r="1" gradientUnits="userSpaceOnUse" gradientTransform="translate(21.5) rotate(90) scale(5 29.5)">
<stop stop-color="#F5857A" stop-opacity="0.21"/>
<stop offset="1" stop-color="#F5857A" stop-opacity="0"/>
</radialGradient>
<clipPath id="clip0_1336_7739">
<rect width="159" height="24" rx="4" fill="white"/>
</clipPath>
</defs>
</svg>
