<svg width="194" height="24" viewBox="0 0 194 24" fill="none" xmlns="http://www.w3.org/2000/svg">
<g clip-path="url(#clip0_1336_4915)">
<rect width="194" height="24" rx="4" fill="#2A2D38"/>
<rect x="0.5" y="0.5" width="193" height="23" rx="3.5" fill="#9C81F2" fill-opacity="0.1" stroke="url(#paint0_linear_1336_4915)"/>
<ellipse cx="92" cy="13" rx="97" ry="13" fill="url(#paint1_radial_1336_4915)"/>
<rect x="4" width="35" height="1" fill="url(#paint2_radial_1336_4915)"/>
<ellipse cx="21.5" cy="-0.5" rx="29.5" ry="4.5" fill="url(#paint3_radial_1336_4915)"/>
<path d="M79.9854 16L82.7344 8.8418H83.7549L86.6846 16H85.6055L84.7705 13.832H81.7773L80.9912 16H79.9854ZM82.0508 13.0605H84.4775L83.7305 11.0781C83.5026 10.4759 83.3333 9.98112 83.2227 9.59375C83.1315 10.0527 83.0029 10.5085 82.8369 10.9609L82.0508 13.0605ZM90.6934 16V15.3457C90.3646 15.86 89.8812 16.1172 89.2432 16.1172C88.8298 16.1172 88.4489 16.0033 88.1006 15.7754C87.7555 15.5475 87.487 15.2301 87.2949 14.8232C87.1061 14.4131 87.0117 13.9427 87.0117 13.4121C87.0117 12.8945 87.098 12.4258 87.2705 12.0059C87.443 11.5827 87.7018 11.2588 88.0469 11.0342C88.3919 10.8096 88.7777 10.6973 89.2041 10.6973C89.5166 10.6973 89.7949 10.764 90.0391 10.8975C90.2832 11.0277 90.4818 11.1986 90.6348 11.4102V8.8418H91.5088V16H90.6934ZM87.915 13.4121C87.915 14.0762 88.055 14.5726 88.335 14.9014C88.6149 15.2301 88.9453 15.3945 89.3262 15.3945C89.7103 15.3945 90.0358 15.2383 90.3027 14.9258C90.5729 14.61 90.708 14.1299 90.708 13.4854C90.708 12.7757 90.5713 12.2549 90.2979 11.9229C90.0244 11.5908 89.6875 11.4248 89.2871 11.4248C88.8965 11.4248 88.5693 11.5843 88.3057 11.9033C88.0452 12.2223 87.915 12.7253 87.915 13.4121ZM96.2598 16V15.3457C95.931 15.86 95.4476 16.1172 94.8096 16.1172C94.3962 16.1172 94.0153 16.0033 93.667 15.7754C93.3219 15.5475 93.0534 15.2301 92.8613 14.8232C92.6725 14.4131 92.5781 13.9427 92.5781 13.4121C92.5781 12.8945 92.6644 12.4258 92.8369 12.0059C93.0094 11.5827 93.2682 11.2588 93.6133 11.0342C93.9583 10.8096 94.3441 10.6973 94.7705 10.6973C95.083 10.6973 95.3613 10.764 95.6055 10.8975C95.8496 11.0277 96.0482 11.1986 96.2012 11.4102V8.8418H97.0752V16H96.2598ZM93.4814 13.4121C93.4814 14.0762 93.6214 14.5726 93.9014 14.9014C94.1813 15.2301 94.5117 15.3945 94.8926 15.3945C95.2767 15.3945 95.6022 15.2383 95.8691 14.9258C96.1393 14.61 96.2744 14.1299 96.2744 13.4854C96.2744 12.7757 96.1377 12.2549 95.8643 11.9229C95.5908 11.5908 95.2539 11.4248 94.8535 11.4248C94.4629 11.4248 94.1357 11.5843 93.8721 11.9033C93.6117 12.2223 93.4814 12.7253 93.4814 13.4121ZM101.035 13.7002L101.929 13.6221C101.971 13.9801 102.069 14.2747 102.222 14.5059C102.378 14.7337 102.619 14.9193 102.944 15.0625C103.27 15.2025 103.636 15.2725 104.043 15.2725C104.404 15.2725 104.723 15.2188 105 15.1113C105.277 15.0039 105.482 14.8574 105.615 14.6719C105.752 14.4831 105.82 14.278 105.82 14.0566C105.82 13.832 105.755 13.6367 105.625 13.4707C105.495 13.3014 105.28 13.1598 104.98 13.0459C104.788 12.971 104.364 12.8555 103.706 12.6992C103.049 12.5397 102.588 12.39 102.324 12.25C101.982 12.071 101.727 11.8496 101.558 11.5859C101.392 11.319 101.309 11.0212 101.309 10.6924C101.309 10.3311 101.411 9.99414 101.616 9.68164C101.821 9.36589 102.121 9.12663 102.515 8.96387C102.909 8.80111 103.346 8.71973 103.828 8.71973C104.359 8.71973 104.826 8.80599 105.229 8.97852C105.636 9.14779 105.949 9.39844 106.167 9.73047C106.385 10.0625 106.502 10.4385 106.519 10.8584L105.61 10.9268C105.562 10.4743 105.396 10.1325 105.112 9.90137C104.832 9.67025 104.417 9.55469 103.867 9.55469C103.294 9.55469 102.876 9.66048 102.612 9.87207C102.352 10.0804 102.222 10.3327 102.222 10.6289C102.222 10.8861 102.314 11.0977 102.5 11.2637C102.682 11.4297 103.158 11.6006 103.926 11.7764C104.697 11.9489 105.226 12.1003 105.513 12.2305C105.929 12.4225 106.237 12.6667 106.436 12.9629C106.634 13.2559 106.733 13.5944 106.733 13.9785C106.733 14.3594 106.624 14.7191 106.406 15.0576C106.188 15.3929 105.874 15.6549 105.464 15.8438C105.057 16.0293 104.598 16.1221 104.087 16.1221C103.439 16.1221 102.896 16.0277 102.456 15.8389C102.02 15.6501 101.676 15.3669 101.426 14.9893C101.178 14.6084 101.048 14.1787 101.035 13.7002ZM111.299 14.1006L112.163 14.2129C112.069 14.8086 111.826 15.2757 111.436 15.6143C111.048 15.9495 110.571 16.1172 110.005 16.1172C109.295 16.1172 108.724 15.8861 108.291 15.4238C107.861 14.9583 107.646 14.2926 107.646 13.4268C107.646 12.8669 107.739 12.377 107.925 11.957C108.11 11.5371 108.392 11.223 108.77 11.0146C109.15 10.8031 109.564 10.6973 110.01 10.6973C110.573 10.6973 111.034 10.8405 111.392 11.127C111.75 11.4102 111.979 11.8138 112.08 12.3379L111.226 12.4697C111.144 12.1214 110.999 11.8594 110.791 11.6836C110.586 11.5078 110.337 11.4199 110.044 11.4199C109.601 11.4199 109.242 11.5794 108.965 11.8984C108.688 12.2142 108.55 12.7155 108.55 13.4023C108.55 14.099 108.683 14.6051 108.95 14.9209C109.217 15.2367 109.565 15.3945 109.995 15.3945C110.34 15.3945 110.628 15.2887 110.859 15.0771C111.09 14.8656 111.237 14.54 111.299 14.1006ZM112.905 16V10.8145H113.696V11.6006C113.898 11.2327 114.084 10.9902 114.253 10.873C114.425 10.7559 114.614 10.6973 114.819 10.6973C115.116 10.6973 115.417 10.7917 115.723 10.9805L115.42 11.7959C115.205 11.6689 114.99 11.6055 114.775 11.6055C114.583 11.6055 114.411 11.6641 114.258 11.7812C114.105 11.8952 113.996 12.0547 113.931 12.2598C113.833 12.5723 113.784 12.9141 113.784 13.2852V16H112.905ZM116.25 9.85254V8.8418H117.129V9.85254H116.25ZM116.25 16V10.8145H117.129V16H116.25ZM118.472 17.9873V10.8145H119.272V11.4883C119.461 11.2246 119.674 11.0277 119.912 10.8975C120.15 10.764 120.438 10.6973 120.776 10.6973C121.219 10.6973 121.61 10.8112 121.948 11.0391C122.287 11.2669 122.542 11.5892 122.715 12.0059C122.887 12.4193 122.974 12.8734 122.974 13.3682C122.974 13.8988 122.878 14.3773 122.686 14.8037C122.497 15.2269 122.22 15.5524 121.855 15.7803C121.494 16.0049 121.113 16.1172 120.713 16.1172C120.42 16.1172 120.156 16.0553 119.922 15.9316C119.691 15.8079 119.5 15.6517 119.351 15.4629V17.9873H118.472ZM119.268 13.4365C119.268 14.1038 119.403 14.597 119.673 14.916C119.943 15.235 120.27 15.3945 120.654 15.3945C121.045 15.3945 121.379 15.2301 121.655 14.9014C121.935 14.5693 122.075 14.0566 122.075 13.3633C122.075 12.7025 121.938 12.2077 121.665 11.8789C121.395 11.5501 121.071 11.3857 120.693 11.3857C120.319 11.3857 119.987 11.5615 119.697 11.9131C119.411 12.2614 119.268 12.7692 119.268 13.4365ZM125.957 15.2139L126.084 15.9902C125.837 16.0423 125.615 16.0684 125.42 16.0684C125.101 16.0684 124.854 16.0179 124.678 15.917C124.502 15.8161 124.378 15.6842 124.307 15.5215C124.235 15.3555 124.199 15.0088 124.199 14.4814V11.498H123.555V10.8145H124.199V9.53027L125.073 9.00293V10.8145H125.957V11.498H125.073V14.5303C125.073 14.7809 125.088 14.9421 125.117 15.0137C125.15 15.0853 125.2 15.1423 125.269 15.1846C125.34 15.2269 125.441 15.248 125.571 15.248C125.669 15.248 125.798 15.2367 125.957 15.2139Z" fill="white" fill-opacity="0.8"/>
<path d="M75.8275 12.7224H73.3161V10.2109C73.3161 10.0383 73.1762 9.89844 73.0036 9.89844C72.831 9.89844 72.6911 10.0383 72.6911 10.2109V12.7224H70.1797C70.0071 12.7224 69.8672 12.8623 69.8672 13.0349C69.8672 13.2075 70.0071 13.3474 70.1797 13.3474H72.6911V15.8588C72.6911 16.0314 72.831 16.1713 73.0036 16.1713C73.1762 16.1713 73.3161 16.0314 73.3161 15.8588V13.3474H75.8275C76.0001 13.3474 76.14 13.2075 76.14 13.0349C76.14 12.8623 76.0001 12.7224 75.8275 12.7224Z" fill="#D4D4D7"/>
<rect width="194" height="24" rx="4" fill="#2A2D38"/>
<rect x="0.5" y="0.5" width="193" height="23" rx="3.5" fill="#9C81F2" fill-opacity="0.1" stroke="url(#paint4_linear_1336_4915)"/>
<ellipse cx="92" cy="13" rx="97" ry="13" fill="url(#paint5_radial_1336_4915)"/>
</g>
<defs>
<linearGradient id="paint0_linear_1336_4915" x1="-2.03917e-06" y1="5.99999" x2="173.455" y2="-48.6761" gradientUnits="userSpaceOnUse">
<stop stop-color="white" stop-opacity="0.2"/>
<stop offset="1" stop-color="#9C81F2" stop-opacity="0.5"/>
</linearGradient>
<radialGradient id="paint1_radial_1336_4915" cx="0" cy="0" r="1" gradientUnits="userSpaceOnUse" gradientTransform="translate(92 13) rotate(90) scale(13 97)">
<stop stop-color="#121212" stop-opacity="0.5"/>
<stop offset="1" stop-color="#121212" stop-opacity="0"/>
</radialGradient>
<radialGradient id="paint2_radial_1336_4915" cx="0" cy="0" r="1" gradientUnits="userSpaceOnUse" gradientTransform="translate(21.5 0.5) scale(18.629 511.5)">
<stop stop-color="white" stop-opacity="0.7"/>
<stop offset="1" stop-color="white" stop-opacity="0"/>
</radialGradient>
<radialGradient id="paint3_radial_1336_4915" cx="0" cy="0" r="1" gradientUnits="userSpaceOnUse" gradientTransform="translate(21.5 -0.5) rotate(90) scale(4.5 29.5)">
<stop stop-color="#F5857A" stop-opacity="0.21"/>
<stop offset="1" stop-color="#F5857A" stop-opacity="0"/>
</radialGradient>
<linearGradient id="paint4_linear_1336_4915" x1="-2.03917e-06" y1="5.99999" x2="173.455" y2="-48.6761" gradientUnits="userSpaceOnUse">
<stop stop-color="white" stop-opacity="0.2"/>
<stop offset="1" stop-color="#9C81F2" stop-opacity="0.5"/>
</linearGradient>
<radialGradient id="paint5_radial_1336_4915" cx="0" cy="0" r="1" gradientUnits="userSpaceOnUse" gradientTransform="translate(92 13) rotate(90) scale(13 97)">
<stop stop-color="#121212" stop-opacity="0.5"/>
<stop offset="1" stop-color="#121212" stop-opacity="0"/>
</radialGradient>
<clipPath id="clip0_1336_4915">
<rect width="194" height="24" rx="4" fill="white"/>
</clipPath>
</defs>
</svg>
