<svg width="159" height="21" viewBox="0 0 159 21" fill="none" xmlns="http://www.w3.org/2000/svg">
<g clip-path="url(#clip0_1336_4332)">
<path d="M-12 4C-12 1.79086 -10.2091 0 -8 0H73V21H-8C-10.2091 21 -12 19.2091 -12 17V4Z" fill="#2A2D38" fill-opacity="0.5"/>
<path d="M0 4C0 1.79086 1.79086 0 4 0H73V21H4C1.79086 21 0 19.2091 0 17V4Z" fill="#F5857A" fill-opacity="0.08"/>
<path d="M0.4 4C0.4 2.01177 2.01177 0.4 4 0.4H155C156.988 0.4 158.6 2.01178 158.6 4V17C158.6 18.9882 156.988 20.6 155 20.6H4C2.01177 20.6 0.4 18.9882 0.4 17V4Z" stroke="url(#paint0_linear_1336_4332)" stroke-width="0.8"/>
<line x1="72.5" y1="1" x2="72.5" y2="20" stroke="#C5C6C9" stroke-dasharray="3 3"/>
<rect x="3" width="55" height="0.8" fill="url(#paint1_radial_1336_4332)"/>
<path d="M94 9.5C94 16.4036 68.9279 22 38 22C7.07206 22 -18 16.4036 -18 9.5C-18 2.59644 7.07206 -3 38 -3C68.9279 -3 94 2.59644 94 9.5Z" fill="url(#paint2_radial_1336_4332)"/>
<path d="M85 1C85 3.20914 64.4051 5 39 5C13.5949 5 -7 3.20914 -7 1C-7 -1.20914 13.5949 -3 39 -3C64.4051 -3 85 -1.20914 85 1Z" fill="url(#paint3_radial_1336_4332)"/>
<path d="M7.77148 14V6.8418H10.2373C10.7939 6.8418 11.2188 6.87598 11.5117 6.94434C11.9219 7.03874 12.2718 7.20964 12.5615 7.45703C12.9391 7.77604 13.2207 8.18457 13.4062 8.68262C13.5951 9.17741 13.6895 9.74382 13.6895 10.3818C13.6895 10.9255 13.626 11.4072 13.499 11.8271C13.3721 12.2471 13.2093 12.5954 13.0107 12.8721C12.8122 13.1455 12.5941 13.362 12.3564 13.5215C12.1221 13.6777 11.8372 13.7965 11.502 13.8779C11.1699 13.9593 10.7874 14 10.3545 14H7.77148ZM8.71875 13.1553H10.2471C10.7191 13.1553 11.0885 13.1113 11.3555 13.0234C11.6257 12.9355 11.8405 12.8118 12 12.6523C12.2246 12.4277 12.3988 12.1266 12.5225 11.749C12.6494 11.3682 12.7129 10.9076 12.7129 10.3672C12.7129 9.61849 12.5892 9.04395 12.3418 8.64355C12.0977 8.23991 11.7998 7.96973 11.4482 7.83301C11.1943 7.73535 10.7858 7.68652 10.2227 7.68652H8.71875V13.1553ZM18.4355 12.3301L19.3438 12.4424C19.2005 12.973 18.9352 13.3848 18.5479 13.6777C18.1605 13.9707 17.6657 14.1172 17.0635 14.1172C16.305 14.1172 15.7028 13.8844 15.2568 13.4189C14.8141 12.9502 14.5928 12.2943 14.5928 11.4512C14.5928 10.5788 14.8174 9.90169 15.2666 9.41992C15.7158 8.93815 16.2985 8.69727 17.0146 8.69727C17.708 8.69727 18.2744 8.93327 18.7139 9.40527C19.1533 9.87728 19.373 10.5413 19.373 11.3975C19.373 11.4495 19.3714 11.5277 19.3682 11.6318H15.501C15.5335 12.2015 15.6947 12.6377 15.9844 12.9404C16.2741 13.2432 16.6354 13.3945 17.0684 13.3945C17.3906 13.3945 17.6657 13.3099 17.8936 13.1406C18.1214 12.9714 18.3021 12.7012 18.4355 12.3301ZM15.5498 10.9092H18.4453C18.4062 10.473 18.2956 10.1458 18.1133 9.92773C17.8333 9.58919 17.4704 9.41992 17.0244 9.41992C16.6208 9.41992 16.2806 9.55501 16.0039 9.8252C15.7305 10.0954 15.5791 10.4567 15.5498 10.9092ZM20.6621 14V9.49805H19.8857V8.81445H20.6621V8.2627C20.6621 7.91439 20.693 7.6556 20.7549 7.48633C20.8395 7.25846 20.9876 7.07454 21.1992 6.93457C21.4141 6.79134 21.7135 6.71973 22.0977 6.71973C22.3451 6.71973 22.6185 6.74902 22.918 6.80762L22.7861 7.57422C22.6038 7.54167 22.4313 7.52539 22.2686 7.52539C22.0016 7.52539 21.8128 7.58236 21.7021 7.69629C21.5915 7.81022 21.5361 8.02344 21.5361 8.33594V8.81445H22.5469V9.49805H21.5361V14H20.6621ZM26.6191 13.3604C26.2936 13.637 25.9795 13.8324 25.6768 13.9463C25.3773 14.0602 25.055 14.1172 24.71 14.1172C24.1403 14.1172 23.7025 13.9788 23.3965 13.7021C23.0905 13.4222 22.9375 13.0658 22.9375 12.6328C22.9375 12.3789 22.9945 12.1478 23.1084 11.9395C23.2256 11.7279 23.377 11.5586 23.5625 11.4316C23.7513 11.3047 23.9629 11.2087 24.1973 11.1436C24.3698 11.098 24.6302 11.054 24.9785 11.0117C25.6882 10.9271 26.2106 10.8262 26.5459 10.709C26.5492 10.5885 26.5508 10.512 26.5508 10.4795C26.5508 10.1214 26.4678 9.86914 26.3018 9.72266C26.0771 9.52409 25.7435 9.4248 25.3008 9.4248C24.8874 9.4248 24.5814 9.49805 24.3828 9.64453C24.1875 9.78776 24.0426 10.0433 23.9482 10.4111L23.0889 10.2939C23.167 9.92611 23.2956 9.62988 23.4746 9.40527C23.6536 9.17741 23.9124 9.00326 24.251 8.88281C24.5895 8.75911 24.9818 8.69727 25.4277 8.69727C25.8704 8.69727 26.2301 8.74935 26.5068 8.85352C26.7835 8.95768 26.987 9.08952 27.1172 9.24902C27.2474 9.40527 27.3385 9.60384 27.3906 9.84473C27.4199 9.99447 27.4346 10.2646 27.4346 10.6553V11.8271C27.4346 12.6442 27.4525 13.1618 27.4883 13.3799C27.5273 13.5947 27.6022 13.8014 27.7129 14H26.7949C26.7038 13.8177 26.6452 13.6045 26.6191 13.3604ZM26.5459 11.3975C26.2269 11.5277 25.7484 11.6383 25.1104 11.7295C24.749 11.7816 24.4935 11.8402 24.3438 11.9053C24.194 11.9704 24.0785 12.0664 23.9971 12.1934C23.9157 12.3171 23.875 12.4554 23.875 12.6084C23.875 12.8428 23.9629 13.0381 24.1387 13.1943C24.3177 13.3506 24.5781 13.4287 24.9199 13.4287C25.2585 13.4287 25.5596 13.3555 25.8232 13.209C26.0869 13.0592 26.2806 12.8558 26.4043 12.5986C26.4987 12.4001 26.5459 12.1071 26.5459 11.7197V11.3975ZM32.2002 14V13.2383C31.7965 13.8242 31.248 14.1172 30.5547 14.1172C30.2487 14.1172 29.9622 14.0586 29.6953 13.9414C29.4316 13.8242 29.2347 13.6777 29.1045 13.502C28.9775 13.3229 28.888 13.1048 28.8359 12.8477C28.8001 12.6751 28.7822 12.4017 28.7822 12.0273V8.81445H29.6611V11.6904C29.6611 12.1494 29.679 12.4587 29.7148 12.6182C29.7702 12.8493 29.8874 13.0316 30.0664 13.165C30.2454 13.2952 30.4668 13.3604 30.7305 13.3604C30.9941 13.3604 31.2415 13.2936 31.4727 13.1602C31.7038 13.0234 31.8665 12.8395 31.9609 12.6084C32.0586 12.374 32.1074 12.0355 32.1074 11.5928V8.81445H32.9863V14H32.2002ZM34.3486 14V6.8418H35.2275V14H34.3486ZM38.5137 13.2139L38.6406 13.9902C38.3932 14.0423 38.1719 14.0684 37.9766 14.0684C37.6576 14.0684 37.4102 14.0179 37.2344 13.917C37.0586 13.8161 36.9349 13.6842 36.8633 13.5215C36.7917 13.3555 36.7559 13.0088 36.7559 12.4814V9.49805H36.1113V8.81445H36.7559V7.53027L37.6299 7.00293V8.81445H38.5137V9.49805H37.6299V12.5303C37.6299 12.7809 37.6445 12.9421 37.6738 13.0137C37.7064 13.0853 37.7568 13.1423 37.8252 13.1846C37.8968 13.2269 37.9977 13.248 38.1279 13.248C38.2256 13.248 38.3542 13.2367 38.5137 13.2139ZM44.3193 14L41.5459 6.8418H42.5713L44.4316 12.042C44.5814 12.4587 44.7067 12.8493 44.8076 13.2139C44.9183 12.8232 45.0469 12.4326 45.1934 12.042L47.127 6.8418H48.0938L45.291 14H44.3193ZM51.4727 13.3604C51.1471 13.637 50.833 13.8324 50.5303 13.9463C50.2308 14.0602 49.9085 14.1172 49.5635 14.1172C48.9938 14.1172 48.556 13.9788 48.25 13.7021C47.944 13.4222 47.791 13.0658 47.791 12.6328C47.791 12.3789 47.848 12.1478 47.9619 11.9395C48.0791 11.7279 48.2305 11.5586 48.416 11.4316C48.6048 11.3047 48.8164 11.2087 49.0508 11.1436C49.2233 11.098 49.4837 11.054 49.832 11.0117C50.5417 10.9271 51.0641 10.8262 51.3994 10.709C51.4027 10.5885 51.4043 10.512 51.4043 10.4795C51.4043 10.1214 51.3213 9.86914 51.1553 9.72266C50.9307 9.52409 50.597 9.4248 50.1543 9.4248C49.7409 9.4248 49.4349 9.49805 49.2363 9.64453C49.041 9.78776 48.8962 10.0433 48.8018 10.4111L47.9424 10.2939C48.0205 9.92611 48.1491 9.62988 48.3281 9.40527C48.5072 9.17741 48.766 9.00326 49.1045 8.88281C49.443 8.75911 49.8353 8.69727 50.2812 8.69727C50.724 8.69727 51.0837 8.74935 51.3604 8.85352C51.637 8.95768 51.8405 9.08952 51.9707 9.24902C52.1009 9.40527 52.1921 9.60384 52.2441 9.84473C52.2734 9.99447 52.2881 10.2646 52.2881 10.6553V11.8271C52.2881 12.6442 52.306 13.1618 52.3418 13.3799C52.3809 13.5947 52.4557 13.8014 52.5664 14H51.6484C51.5573 13.8177 51.4987 13.6045 51.4727 13.3604ZM51.3994 11.3975C51.0804 11.5277 50.6019 11.6383 49.9639 11.7295C49.6025 11.7816 49.347 11.8402 49.1973 11.9053C49.0475 11.9704 48.932 12.0664 48.8506 12.1934C48.7692 12.3171 48.7285 12.4554 48.7285 12.6084C48.7285 12.8428 48.8164 13.0381 48.9922 13.1943C49.1712 13.3506 49.4316 13.4287 49.7734 13.4287C50.112 13.4287 50.4131 13.3555 50.6768 13.209C50.9404 13.0592 51.1341 12.8558 51.2578 12.5986C51.3522 12.4001 51.3994 12.1071 51.3994 11.7197V11.3975ZM53.6357 14V6.8418H54.5146V14H53.6357ZM59.2803 14V13.2383C58.8766 13.8242 58.3281 14.1172 57.6348 14.1172C57.3288 14.1172 57.0423 14.0586 56.7754 13.9414C56.5117 13.8242 56.3148 13.6777 56.1846 13.502C56.0576 13.3229 55.9681 13.1048 55.916 12.8477C55.8802 12.6751 55.8623 12.4017 55.8623 12.0273V8.81445H56.7412V11.6904C56.7412 12.1494 56.7591 12.4587 56.7949 12.6182C56.8503 12.8493 56.9674 13.0316 57.1465 13.165C57.3255 13.2952 57.5469 13.3604 57.8105 13.3604C58.0742 13.3604 58.3216 13.2936 58.5527 13.1602C58.7839 13.0234 58.9466 12.8395 59.041 12.6084C59.1387 12.374 59.1875 12.0355 59.1875 11.5928V8.81445H60.0664V14H59.2803ZM64.998 12.3301L65.9062 12.4424C65.763 12.973 65.4977 13.3848 65.1104 13.6777C64.723 13.9707 64.2282 14.1172 63.626 14.1172C62.8675 14.1172 62.2653 13.8844 61.8193 13.4189C61.3766 12.9502 61.1553 12.2943 61.1553 11.4512C61.1553 10.5788 61.3799 9.90169 61.8291 9.41992C62.2783 8.93815 62.861 8.69727 63.5771 8.69727C64.2705 8.69727 64.8369 8.93327 65.2764 9.40527C65.7158 9.87728 65.9355 10.5413 65.9355 11.3975C65.9355 11.4495 65.9339 11.5277 65.9307 11.6318H62.0635C62.096 12.2015 62.2572 12.6377 62.5469 12.9404C62.8366 13.2432 63.1979 13.3945 63.6309 13.3945C63.9531 13.3945 64.2282 13.3099 64.4561 13.1406C64.6839 12.9714 64.8646 12.7012 64.998 12.3301ZM62.1123 10.9092H65.0078C64.9688 10.473 64.8581 10.1458 64.6758 9.92773C64.3958 9.58919 64.0329 9.41992 63.5869 9.41992C63.1833 9.41992 62.8431 9.55501 62.5664 9.8252C62.293 10.0954 62.1416 10.4567 62.1123 10.9092Z" fill="#C5C6C9"/>
</g>
<defs>
<linearGradient id="paint0_linear_1336_4332" x1="0" y1="10.5" x2="159" y2="10.5" gradientUnits="userSpaceOnUse">
<stop stop-color="white" stop-opacity="0.8"/>
<stop offset="1" stop-color="#9C81F2"/>
</linearGradient>
<radialGradient id="paint1_radial_1336_4332" cx="0" cy="0" r="1" gradientUnits="userSpaceOnUse" gradientTransform="translate(30.5 0.40001) scale(26.7143 373.417)">
<stop stop-color="white" stop-opacity="0.7"/>
<stop offset="1" stop-color="white" stop-opacity="0"/>
<stop offset="1" stop-color="white" stop-opacity="0"/>
</radialGradient>
<radialGradient id="paint2_radial_1336_4332" cx="0" cy="0" r="1" gradientUnits="userSpaceOnUse" gradientTransform="translate(34.8539 11.2442) rotate(101.05) scale(9.84829 42.5211)">
<stop stop-color="#121212" stop-opacity="0.5"/>
<stop offset="1" stop-color="#121212" stop-opacity="0"/>
</radialGradient>
<radialGradient id="paint3_radial_1336_4332" cx="0" cy="0" r="1" gradientUnits="userSpaceOnUse" gradientTransform="translate(35.0571 1) rotate(90) scale(3.6 41.4)">
<stop stop-color="#9C81F2" stop-opacity="0.55"/>
<stop offset="0.0001" stop-color="#9C81F2" stop-opacity="0.13"/>
<stop offset="1" stop-color="#9C81F2" stop-opacity="0"/>
</radialGradient>
<clipPath id="clip0_1336_4332">
<rect width="159" height="21" rx="4" fill="white"/>
</clipPath>
</defs>
</svg>
