<svg width="159" height="24" viewBox="0 0 159 24" fill="none" xmlns="http://www.w3.org/2000/svg">
<g clip-path="url(#clip0_1336_1819)">
<rect width="159" height="24" rx="4" fill="#2A2D38"/>
<rect x="0.5" y="0.5" width="158" height="23" rx="3.5" fill="#9C81F2" fill-opacity="0.1" stroke="url(#paint0_linear_1336_1819)"/>
<ellipse cx="101.5" cy="13" rx="106.5" ry="13" fill="url(#paint1_radial_1336_1819)"/>
<rect x="4" width="35" height="1" fill="url(#paint2_radial_1336_1819)"/>
<ellipse cx="21.5" rx="29.5" ry="5" fill="url(#paint3_radial_1336_1819)"/>
<path d="M57.9326 16V8.8418H58.8799V16H57.9326ZM63.8262 14.1006L64.6904 14.2129C64.596 14.8086 64.3535 15.2757 63.9629 15.6143C63.5755 15.9495 63.0986 16.1172 62.5322 16.1172C61.8226 16.1172 61.2513 15.8861 60.8184 15.4238C60.3887 14.9583 60.1738 14.2926 60.1738 13.4268C60.1738 12.8669 60.2666 12.377 60.4521 11.957C60.6377 11.5371 60.9193 11.223 61.2969 11.0146C61.6777 10.8031 62.0911 10.6973 62.5371 10.6973C63.1003 10.6973 63.5609 10.8405 63.9189 11.127C64.277 11.4102 64.5065 11.8138 64.6074 12.3379L63.7529 12.4697C63.6715 12.1214 63.5267 11.8594 63.3184 11.6836C63.1133 11.5078 62.8643 11.4199 62.5713 11.4199C62.1286 11.4199 61.7689 11.5794 61.4922 11.8984C61.2155 12.2142 61.0771 12.7155 61.0771 13.4023C61.0771 14.099 61.2106 14.6051 61.4775 14.9209C61.7445 15.2367 62.0928 15.3945 62.5225 15.3945C62.8675 15.3945 63.1556 15.2887 63.3867 15.0771C63.6178 14.8656 63.7643 14.54 63.8262 14.1006ZM65.1152 13.4072C65.1152 12.4469 65.3822 11.7357 65.916 11.2734C66.362 10.8893 66.9056 10.6973 67.5469 10.6973C68.2598 10.6973 68.8424 10.9316 69.2949 11.4004C69.7474 11.8659 69.9736 12.5104 69.9736 13.334C69.9736 14.0013 69.8727 14.527 69.6709 14.9111C69.4723 15.292 69.181 15.5882 68.7969 15.7998C68.416 16.0114 67.9993 16.1172 67.5469 16.1172C66.821 16.1172 66.2334 15.8844 65.7842 15.4189C65.3382 14.9535 65.1152 14.2829 65.1152 13.4072ZM66.0186 13.4072C66.0186 14.0713 66.1634 14.5693 66.4531 14.9014C66.7428 15.2301 67.1074 15.3945 67.5469 15.3945C67.9831 15.3945 68.346 15.2285 68.6357 14.8965C68.9255 14.5645 69.0703 14.0583 69.0703 13.3779C69.0703 12.7367 68.9238 12.2516 68.6309 11.9229C68.3411 11.5908 67.9798 11.4248 67.5469 11.4248C67.1074 11.4248 66.7428 11.5892 66.4531 11.918C66.1634 12.2467 66.0186 12.7432 66.0186 13.4072ZM71.0088 16V10.8145H71.7998V11.5518C72.1807 10.9821 72.7308 10.6973 73.4502 10.6973C73.7627 10.6973 74.0492 10.7542 74.3096 10.8682C74.5732 10.9788 74.7702 11.1253 74.9004 11.3076C75.0306 11.4899 75.1217 11.7064 75.1738 11.957C75.2064 12.1198 75.2227 12.4046 75.2227 12.8115V16H74.3438V12.8457C74.3438 12.4876 74.3096 12.2207 74.2412 12.0449C74.1729 11.8659 74.0508 11.7243 73.875 11.6201C73.7025 11.5127 73.499 11.459 73.2646 11.459C72.8903 11.459 72.5664 11.5778 72.293 11.8154C72.0228 12.0531 71.8877 12.5039 71.8877 13.168V16H71.0088ZM79.6318 16V8.8418H80.5791V16H79.6318ZM82.1416 16V10.8145H82.9277V11.542C83.0905 11.2881 83.307 11.0846 83.5771 10.9316C83.8473 10.7754 84.1549 10.6973 84.5 10.6973C84.8841 10.6973 85.1982 10.777 85.4424 10.9365C85.6898 11.096 85.8639 11.319 85.9648 11.6055C86.375 11 86.9089 10.6973 87.5664 10.6973C88.0807 10.6973 88.4762 10.8405 88.7529 11.127C89.0296 11.4102 89.168 11.848 89.168 12.4404V16H88.2939V12.7334C88.2939 12.3818 88.2646 12.1296 88.2061 11.9766C88.1507 11.8203 88.0482 11.695 87.8984 11.6006C87.7487 11.5062 87.5729 11.459 87.3711 11.459C87.0065 11.459 86.7038 11.5811 86.4629 11.8252C86.222 12.0661 86.1016 12.4535 86.1016 12.9873V16H85.2227V12.6309C85.2227 12.2402 85.151 11.9473 85.0078 11.752C84.8646 11.5566 84.6302 11.459 84.3047 11.459C84.0573 11.459 83.8278 11.5241 83.6162 11.6543C83.4079 11.7845 83.2565 11.9749 83.1621 12.2256C83.0677 12.4762 83.0205 12.8376 83.0205 13.3096V16H82.1416ZM93.8555 15.3604C93.5299 15.637 93.2158 15.8324 92.9131 15.9463C92.6136 16.0602 92.2913 16.1172 91.9463 16.1172C91.3766 16.1172 90.9388 15.9788 90.6328 15.7021C90.3268 15.4222 90.1738 15.0658 90.1738 14.6328C90.1738 14.3789 90.2308 14.1478 90.3447 13.9395C90.4619 13.7279 90.6133 13.5586 90.7988 13.4316C90.9876 13.3047 91.1992 13.2087 91.4336 13.1436C91.6061 13.098 91.8665 13.054 92.2148 13.0117C92.9245 12.9271 93.4469 12.8262 93.7822 12.709C93.7855 12.5885 93.7871 12.512 93.7871 12.4795C93.7871 12.1214 93.7041 11.8691 93.5381 11.7227C93.3135 11.5241 92.9798 11.4248 92.5371 11.4248C92.1237 11.4248 91.8177 11.498 91.6191 11.6445C91.4238 11.7878 91.279 12.0433 91.1846 12.4111L90.3252 12.2939C90.4033 11.9261 90.5319 11.6299 90.7109 11.4053C90.89 11.1774 91.1488 11.0033 91.4873 10.8828C91.8258 10.7591 92.2181 10.6973 92.6641 10.6973C93.1068 10.6973 93.4665 10.7493 93.7432 10.8535C94.0199 10.9577 94.2233 11.0895 94.3535 11.249C94.4837 11.4053 94.5749 11.6038 94.627 11.8447C94.6562 11.9945 94.6709 12.2646 94.6709 12.6553V13.8271C94.6709 14.6442 94.6888 15.1618 94.7246 15.3799C94.7637 15.5947 94.8385 15.8014 94.9492 16H94.0312C93.9401 15.8177 93.8815 15.6045 93.8555 15.3604ZM93.7822 13.3975C93.4632 13.5277 92.9847 13.6383 92.3467 13.7295C91.9854 13.7816 91.7298 13.8402 91.5801 13.9053C91.4303 13.9704 91.3148 14.0664 91.2334 14.1934C91.152 14.3171 91.1113 14.4554 91.1113 14.6084C91.1113 14.8428 91.1992 15.0381 91.375 15.1943C91.554 15.3506 91.8145 15.4287 92.1562 15.4287C92.4948 15.4287 92.7959 15.3555 93.0596 15.209C93.3232 15.0592 93.5169 14.8558 93.6406 14.5986C93.735 14.4001 93.7822 14.1071 93.7822 13.7197V13.3975ZM95.877 16.4297L96.7314 16.5566C96.7673 16.8203 96.8665 17.0124 97.0293 17.1328C97.2474 17.2956 97.5452 17.377 97.9229 17.377C98.3298 17.377 98.6439 17.2956 98.8652 17.1328C99.0866 16.9701 99.2363 16.7422 99.3145 16.4492C99.36 16.2702 99.3812 15.8942 99.3779 15.3213C98.9938 15.7738 98.5153 16 97.9424 16C97.2295 16 96.6777 15.7428 96.2871 15.2285C95.8965 14.7142 95.7012 14.0973 95.7012 13.3779C95.7012 12.8831 95.7907 12.4274 95.9697 12.0107C96.1488 11.5908 96.4076 11.2669 96.7461 11.0391C97.0879 10.8112 97.4883 10.6973 97.9473 10.6973C98.5592 10.6973 99.0638 10.9447 99.4609 11.4395V10.8145H100.271V15.2969C100.271 16.1042 100.188 16.6755 100.022 17.0107C99.8597 17.3493 99.5993 17.6162 99.2412 17.8115C98.8864 18.0068 98.4486 18.1045 97.9277 18.1045C97.3092 18.1045 96.8096 17.9645 96.4287 17.6846C96.0479 17.4079 95.8639 16.9896 95.877 16.4297ZM96.6045 13.3145C96.6045 13.9948 96.7396 14.4912 97.0098 14.8037C97.2799 15.1162 97.6185 15.2725 98.0254 15.2725C98.429 15.2725 98.7676 15.1178 99.041 14.8086C99.3145 14.4961 99.4512 14.0078 99.4512 13.3438C99.4512 12.709 99.3096 12.2305 99.0264 11.9082C98.7464 11.5859 98.4079 11.4248 98.0107 11.4248C97.6201 11.4248 97.2881 11.5843 97.0146 11.9033C96.7412 12.2191 96.6045 12.6895 96.6045 13.3145ZM105.154 14.3301L106.062 14.4424C105.919 14.973 105.654 15.3848 105.267 15.6777C104.879 15.9707 104.384 16.1172 103.782 16.1172C103.024 16.1172 102.422 15.8844 101.976 15.4189C101.533 14.9502 101.312 14.2943 101.312 13.4512C101.312 12.5788 101.536 11.9017 101.985 11.4199C102.435 10.9382 103.017 10.6973 103.733 10.6973C104.427 10.6973 104.993 10.9333 105.433 11.4053C105.872 11.8773 106.092 12.5413 106.092 13.3975C106.092 13.4495 106.09 13.5277 106.087 13.6318H102.22C102.252 14.2015 102.413 14.6377 102.703 14.9404C102.993 15.2432 103.354 15.3945 103.787 15.3945C104.109 15.3945 104.384 15.3099 104.612 15.1406C104.84 14.9714 105.021 14.7012 105.154 14.3301ZM102.269 12.9092H105.164C105.125 12.473 105.014 12.1458 104.832 11.9277C104.552 11.5892 104.189 11.4199 103.743 11.4199C103.34 11.4199 102.999 11.555 102.723 11.8252C102.449 12.0954 102.298 12.4567 102.269 12.9092Z" fill="white" fill-opacity="0.8"/>
<g clip-path="url(#clip1_1336_1819)">
<path d="M50.8925 9.56448C50.6571 8.99087 50.2563 8.50023 49.7413 8.15492C49.2263 7.80962 48.6202 7.62524 48.0002 7.62524C47.3801 7.62524 46.7741 7.80962 46.259 8.15492C45.744 8.50023 45.3433 8.99087 45.1078 9.56448C44.5949 9.68541 44.1382 9.97663 43.8121 10.3906C43.486 10.8046 43.3099 11.3169 43.3125 11.8439C43.3125 13.1364 44.3638 14.1876 45.6563 14.1876H46.5497C46.6326 14.1876 46.7121 14.1547 46.7707 14.0961C46.8293 14.0375 46.8622 13.958 46.8622 13.8751C46.8622 13.7922 46.8293 13.7127 46.7707 13.6541C46.7121 13.5955 46.6326 13.5626 46.5497 13.5626H45.6563C45.2006 13.5621 44.7637 13.3809 44.4415 13.0586C44.1193 12.7364 43.938 12.2995 43.9375 11.8439C43.9355 11.434 44.0808 11.037 44.3469 10.7253C44.6131 10.4136 44.9824 10.2079 45.3875 10.1457L45.5735 10.1167L45.6344 9.93854C45.981 8.92854 46.9316 8.25011 48 8.25011C48.5211 8.24996 49.0291 8.41261 49.4532 8.71534C49.8773 9.01806 50.1962 9.44572 50.3653 9.93854L50.4266 10.1167L50.6125 10.1457C51.0177 10.2079 51.387 10.4136 51.6531 10.7253C51.9193 11.037 52.0646 11.434 52.0625 11.8439C52.0625 12.7914 51.2913 13.5626 50.3438 13.5626H49.3938C49.3109 13.5626 49.2314 13.5955 49.1728 13.6541C49.1142 13.7127 49.0813 13.7922 49.0813 13.8751C49.0813 13.958 49.1142 14.0375 49.1728 14.0961C49.2314 14.1547 49.3109 14.1876 49.3938 14.1876H50.3438C51.6363 14.1876 52.6875 13.1364 52.6875 11.8439C52.6902 11.3169 52.5141 10.8047 52.1881 10.3907C51.8621 9.97672 51.4054 9.68547 50.8925 9.56448Z" fill="#D4D4D6"/>
<path d="M49.3438 12.5669C49.3755 12.5929 49.4121 12.6124 49.4514 12.6242C49.4907 12.6361 49.5319 12.6401 49.5728 12.636C49.6136 12.6319 49.6533 12.6199 49.6894 12.6005C49.7256 12.5811 49.7576 12.5547 49.7836 12.523C49.8096 12.4912 49.8291 12.4546 49.8409 12.4153C49.8528 12.376 49.8568 12.3348 49.8527 12.2939C49.8487 12.2531 49.8366 12.2135 49.8172 12.1773C49.7978 12.1411 49.7715 12.1091 49.7397 12.0831L48.1963 10.8194C48.1404 10.7736 48.0704 10.7485 47.9981 10.7485C47.9259 10.7485 47.8559 10.7736 47.8 10.8194L46.2469 12.0912C46.1972 12.1321 46.1613 12.1874 46.1441 12.2494C46.127 12.3115 46.1294 12.3773 46.151 12.4379C46.1726 12.4986 46.2125 12.551 46.265 12.5882C46.3176 12.6254 46.3803 12.6454 46.4447 12.6456C46.5169 12.6457 46.5868 12.6206 46.6425 12.5747L47.6856 11.7212V15.9062C47.6856 15.9891 47.7186 16.0686 47.7772 16.1272C47.8358 16.1858 47.9153 16.2187 47.9981 16.2187C48.081 16.2187 48.1605 16.1858 48.2191 16.1272C48.2777 16.0686 48.3106 15.9891 48.3106 15.9062V11.7212L49.3438 12.5669Z" fill="#D4D4D6"/>
</g>
</g>
<defs>
<linearGradient id="paint0_linear_1336_1819" x1="-1.67128e-06" y1="5.99999" x2="146.509" y2="-31.8503" gradientUnits="userSpaceOnUse">
<stop stop-color="white" stop-opacity="0.2"/>
<stop offset="1" stop-color="#9C81F2" stop-opacity="0.5"/>
</linearGradient>
<radialGradient id="paint1_radial_1336_1819" cx="0" cy="0" r="1" gradientUnits="userSpaceOnUse" gradientTransform="translate(101.5 13) rotate(90) scale(13 106.5)">
<stop stop-color="#121212" stop-opacity="0.5"/>
<stop offset="1" stop-color="#121212" stop-opacity="0"/>
</radialGradient>
<radialGradient id="paint2_radial_1336_1819" cx="0" cy="0" r="1" gradientUnits="userSpaceOnUse" gradientTransform="translate(21.5 0.5) scale(18.629 511.5)">
<stop stop-color="white" stop-opacity="0.7"/>
<stop offset="1" stop-color="white" stop-opacity="0"/>
</radialGradient>
<radialGradient id="paint3_radial_1336_1819" cx="0" cy="0" r="1" gradientUnits="userSpaceOnUse" gradientTransform="translate(21.5) rotate(90) scale(5 29.5)">
<stop stop-color="#F5857A" stop-opacity="0.21"/>
<stop offset="1" stop-color="#F5857A" stop-opacity="0"/>
</radialGradient>
<clipPath id="clip0_1336_1819">
<rect width="159" height="24" rx="4" fill="white"/>
</clipPath>
<clipPath id="clip1_1336_1819">
<rect width="10" height="10" fill="white" transform="translate(43 7)"/>
</clipPath>
</defs>
</svg>
