<svg width="110" height="28" viewBox="0 0 110 28" fill="none" xmlns="http://www.w3.org/2000/svg">
<g clip-path="url(#clip0_734_2286)">
<rect width="110" height="28" rx="4" fill="#2A2D38"/>
<rect x="0.5" y="0.5" width="109" height="27" rx="3.5" fill="#9C81F2" fill-opacity="0.1" stroke="url(#paint0_linear_734_2286)"/>
<ellipse cx="57.5" cy="15" rx="62.5" ry="15" fill="url(#paint1_radial_734_2286)"/>
<rect x="4" width="35" height="1" fill="url(#paint2_radial_734_2286)"/>
<ellipse cx="21.5" rx="29.5" ry="5" fill="url(#paint3_radial_734_2286)"/>
<path d="M32.0259 18V10.126H33.0679V18H32.0259ZM34.7866 18V12.2959H35.6514V13.0962C35.8304 12.8169 36.0685 12.5931 36.3657 12.4248C36.6629 12.2529 37.0013 12.167 37.3809 12.167C37.8034 12.167 38.1489 12.2547 38.4175 12.4302C38.6896 12.6056 38.8812 12.8509 38.9922 13.166C39.4434 12.5 40.0306 12.167 40.7539 12.167C41.3197 12.167 41.7547 12.3245 42.0591 12.6396C42.3634 12.9512 42.5156 13.4328 42.5156 14.0845V18H41.5542V14.4067C41.5542 14.02 41.522 13.7425 41.4575 13.5742C41.3966 13.4023 41.2839 13.2645 41.1191 13.1606C40.9544 13.0568 40.7611 13.0049 40.5391 13.0049C40.138 13.0049 39.805 13.1392 39.54 13.4077C39.2751 13.6727 39.1426 14.0988 39.1426 14.686V18H38.1758V14.2939C38.1758 13.8643 38.097 13.542 37.9395 13.3271C37.7819 13.1123 37.5241 13.0049 37.166 13.0049C36.8939 13.0049 36.6414 13.0765 36.4087 13.2197C36.1795 13.363 36.013 13.5724 35.9092 13.8481C35.8053 14.1239 35.7534 14.5213 35.7534 15.0405V18H34.7866ZM47.6719 17.2964C47.3138 17.6007 46.9683 17.8156 46.6353 17.9409C46.3058 18.0662 45.9513 18.1289 45.5718 18.1289C44.9451 18.1289 44.4635 17.9767 44.127 17.6724C43.7904 17.3644 43.6221 16.9723 43.6221 16.4961C43.6221 16.2168 43.6847 15.9626 43.8101 15.7334C43.939 15.5007 44.1055 15.3145 44.3096 15.1748C44.5173 15.0352 44.75 14.9295 45.0078 14.8579C45.1976 14.8078 45.484 14.7594 45.8672 14.7129C46.6478 14.6198 47.2225 14.5088 47.5913 14.3799C47.5949 14.2474 47.5967 14.1632 47.5967 14.1274C47.5967 13.7336 47.5054 13.4561 47.3228 13.2949C47.0757 13.0765 46.7087 12.9673 46.2217 12.9673C45.7669 12.9673 45.4303 13.0479 45.2119 13.209C44.9971 13.3665 44.8377 13.6476 44.7339 14.0522L43.7886 13.9233C43.8745 13.5187 44.016 13.1929 44.2129 12.9458C44.4098 12.6951 44.6945 12.5036 45.0669 12.3711C45.4393 12.235 45.8708 12.167 46.3613 12.167C46.8483 12.167 47.244 12.2243 47.5483 12.3389C47.8527 12.4535 48.0765 12.5985 48.2197 12.7739C48.363 12.9458 48.4632 13.1642 48.5205 13.4292C48.5527 13.5939 48.5688 13.8911 48.5688 14.3208V15.6099C48.5688 16.5086 48.5885 17.078 48.6279 17.3179C48.6709 17.5542 48.7533 17.7816 48.875 18H47.8652C47.765 17.7995 47.7005 17.5649 47.6719 17.2964ZM47.5913 15.1372C47.2404 15.2804 46.714 15.4022 46.0122 15.5024C45.6147 15.5597 45.3337 15.6242 45.1689 15.6958C45.0042 15.7674 44.8771 15.873 44.7876 16.0127C44.6981 16.1488 44.6533 16.3009 44.6533 16.4692C44.6533 16.7271 44.75 16.9419 44.9434 17.1138C45.1403 17.2856 45.4268 17.3716 45.8027 17.3716C46.1751 17.3716 46.5063 17.291 46.7964 17.1299C47.0864 16.9652 47.2995 16.7414 47.4355 16.4585C47.5394 16.2401 47.5913 15.9178 47.5913 15.4917V15.1372ZM49.8955 18.4727L50.8354 18.6123C50.8748 18.9023 50.984 19.1136 51.1631 19.2461C51.403 19.4251 51.7306 19.5146 52.146 19.5146C52.5936 19.5146 52.9391 19.4251 53.1826 19.2461C53.4261 19.0671 53.5908 18.8164 53.6768 18.4941C53.7269 18.2972 53.7502 17.8836 53.7466 17.2534C53.3241 17.7511 52.7977 18 52.1675 18C51.3833 18 50.7764 17.7171 50.3467 17.1514C49.917 16.5856 49.7021 15.9071 49.7021 15.1157C49.7021 14.5715 49.8006 14.0701 49.9976 13.6118C50.1945 13.1499 50.4792 12.7936 50.8516 12.543C51.2275 12.2923 51.668 12.167 52.1729 12.167C52.846 12.167 53.401 12.4391 53.8379 12.9834V12.2959H54.7295V17.2266C54.7295 18.1146 54.6382 18.743 54.4556 19.1118C54.2765 19.4842 53.9901 19.7778 53.5962 19.9927C53.2059 20.2075 52.7243 20.3149 52.1514 20.3149C51.471 20.3149 50.9214 20.161 50.5024 19.853C50.0835 19.5487 49.8812 19.0885 49.8955 18.4727ZM50.6958 15.0459C50.6958 15.7943 50.8444 16.3403 51.1416 16.6841C51.4388 17.0278 51.8112 17.1997 52.2588 17.1997C52.7028 17.1997 53.0752 17.0296 53.376 16.6895C53.6768 16.3457 53.8271 15.8086 53.8271 15.0781C53.8271 14.3799 53.6714 13.8535 53.3599 13.499C53.0519 13.1445 52.6795 12.9673 52.2427 12.9673C51.813 12.9673 51.4478 13.1427 51.147 13.4937C50.8462 13.841 50.6958 14.3584 50.6958 15.0459ZM60.1006 16.1631L61.0996 16.2866C60.9421 16.8703 60.6502 17.3232 60.2241 17.6455C59.798 17.9678 59.2537 18.1289 58.5913 18.1289C57.757 18.1289 57.0946 17.8729 56.604 17.3608C56.117 16.8452 55.8735 16.1237 55.8735 15.1963C55.8735 14.2367 56.1206 13.4919 56.6147 12.9619C57.1089 12.432 57.7498 12.167 58.5376 12.167C59.3003 12.167 59.9233 12.4266 60.4067 12.9458C60.8901 13.465 61.1318 14.1955 61.1318 15.1372C61.1318 15.1945 61.13 15.2804 61.1265 15.395H56.8726C56.9084 16.0216 57.0856 16.5015 57.4043 16.8345C57.723 17.1675 58.1204 17.334 58.5967 17.334C58.9512 17.334 59.2537 17.2409 59.5044 17.0547C59.755 16.8685 59.9538 16.5713 60.1006 16.1631ZM56.9263 14.6001H60.1113C60.0684 14.1203 59.9466 13.7604 59.7461 13.5205C59.4382 13.1481 59.0389 12.9619 58.5483 12.9619C58.1043 12.9619 57.7301 13.1105 57.4258 13.4077C57.125 13.7049 56.9585 14.1024 56.9263 14.6001ZM62.4424 18V10.126H65.4126C65.9354 10.126 66.3346 10.151 66.6104 10.2012C66.9971 10.2656 67.3211 10.3892 67.5825 10.5718C67.8439 10.7508 68.0534 11.0033 68.2109 11.3291C68.3721 11.6549 68.4526 12.013 68.4526 12.4033C68.4526 13.0729 68.2396 13.6405 67.8135 14.106C67.3874 14.5679 66.6175 14.7988 65.5039 14.7988H63.4844V18H62.4424ZM63.4844 13.8696H65.52C66.1932 13.8696 66.6712 13.7443 66.9541 13.4937C67.237 13.243 67.3784 12.8903 67.3784 12.4355C67.3784 12.1061 67.2943 11.825 67.126 11.5923C66.9613 11.356 66.7428 11.2002 66.4707 11.125C66.2952 11.0785 65.9712 11.0552 65.4985 11.0552H63.4844V13.8696ZM73.3779 17.2964C73.0199 17.6007 72.6743 17.8156 72.3413 17.9409C72.0119 18.0662 71.6574 18.1289 71.2778 18.1289C70.6512 18.1289 70.1696 17.9767 69.833 17.6724C69.4964 17.3644 69.3281 16.9723 69.3281 16.4961C69.3281 16.2168 69.3908 15.9626 69.5161 15.7334C69.645 15.5007 69.8115 15.3145 70.0156 15.1748C70.2233 15.0352 70.4561 14.9295 70.7139 14.8579C70.9036 14.8078 71.1901 14.7594 71.5732 14.7129C72.3538 14.6198 72.9285 14.5088 73.2974 14.3799C73.3009 14.2474 73.3027 14.1632 73.3027 14.1274C73.3027 13.7336 73.2114 13.4561 73.0288 13.2949C72.7817 13.0765 72.4147 12.9673 71.9277 12.9673C71.473 12.9673 71.1364 13.0479 70.918 13.209C70.7031 13.3665 70.5438 13.6476 70.4399 14.0522L69.4946 13.9233C69.5806 13.5187 69.722 13.1929 69.9189 12.9458C70.1159 12.6951 70.4006 12.5036 70.7729 12.3711C71.1453 12.235 71.5768 12.167 72.0674 12.167C72.5544 12.167 72.95 12.2243 73.2544 12.3389C73.5588 12.4535 73.7826 12.5985 73.9258 12.7739C74.069 12.9458 74.1693 13.1642 74.2266 13.4292C74.2588 13.5939 74.2749 13.8911 74.2749 14.3208V15.6099C74.2749 16.5086 74.2946 17.078 74.334 17.3179C74.377 17.5542 74.4593 17.7816 74.5811 18H73.5713C73.471 17.7995 73.4066 17.5649 73.3779 17.2964ZM73.2974 15.1372C72.9465 15.2804 72.4201 15.4022 71.7183 15.5024C71.3208 15.5597 71.0397 15.6242 70.875 15.6958C70.7103 15.7674 70.5832 15.873 70.4937 16.0127C70.4041 16.1488 70.3594 16.3009 70.3594 16.4692C70.3594 16.7271 70.4561 16.9419 70.6494 17.1138C70.8464 17.2856 71.1328 17.3716 71.5088 17.3716C71.8812 17.3716 72.2124 17.291 72.5024 17.1299C72.7925 16.9652 73.0055 16.7414 73.1416 16.4585C73.2454 16.2401 73.2974 15.9178 73.2974 15.4917V15.1372ZM75.7681 18V12.2959H76.6382V13.1606C76.8602 12.756 77.0643 12.4893 77.2505 12.3604C77.4403 12.2314 77.6479 12.167 77.8735 12.167C78.1994 12.167 78.5306 12.2708 78.8672 12.4785L78.5342 13.3755C78.2979 13.2358 78.0615 13.166 77.8252 13.166C77.6139 13.166 77.4242 13.2305 77.2559 13.3594C77.0876 13.4847 76.9676 13.6602 76.896 13.8857C76.7886 14.2295 76.7349 14.6055 76.7349 15.0137V18H75.7681ZM83.1641 17.2964C82.806 17.6007 82.4604 17.8156 82.1274 17.9409C81.798 18.0662 81.4435 18.1289 81.064 18.1289C80.4373 18.1289 79.9557 17.9767 79.6191 17.6724C79.2826 17.3644 79.1143 16.9723 79.1143 16.4961C79.1143 16.2168 79.1769 15.9626 79.3022 15.7334C79.4312 15.5007 79.5977 15.3145 79.8018 15.1748C80.0094 15.0352 80.2422 14.9295 80.5 14.8579C80.6898 14.8078 80.9762 14.7594 81.3594 14.7129C82.14 14.6198 82.7147 14.5088 83.0835 14.3799C83.0871 14.2474 83.0889 14.1632 83.0889 14.1274C83.0889 13.7336 82.9976 13.4561 82.8149 13.2949C82.5679 13.0765 82.2008 12.9673 81.7139 12.9673C81.2591 12.9673 80.9225 13.0479 80.7041 13.209C80.4893 13.3665 80.3299 13.6476 80.2261 14.0522L79.2808 13.9233C79.3667 13.5187 79.5081 13.1929 79.7051 12.9458C79.902 12.6951 80.1867 12.5036 80.5591 12.3711C80.9315 12.235 81.363 12.167 81.8535 12.167C82.3405 12.167 82.7362 12.2243 83.0405 12.3389C83.3449 12.4535 83.5687 12.5985 83.7119 12.7739C83.8551 12.9458 83.9554 13.1642 84.0127 13.4292C84.0449 13.5939 84.061 13.8911 84.061 14.3208V15.6099C84.061 16.5086 84.0807 17.078 84.1201 17.3179C84.1631 17.5542 84.2454 17.7816 84.3672 18H83.3574C83.2572 17.7995 83.1927 17.5649 83.1641 17.2964ZM83.0835 15.1372C82.7326 15.2804 82.2062 15.4022 81.5044 15.5024C81.1069 15.5597 80.8258 15.6242 80.6611 15.6958C80.4964 15.7674 80.3693 15.873 80.2798 16.0127C80.1903 16.1488 80.1455 16.3009 80.1455 16.4692C80.1455 16.7271 80.2422 16.9419 80.4355 17.1138C80.6325 17.2856 80.9189 17.3716 81.2949 17.3716C81.6673 17.3716 81.9985 17.291 82.2886 17.1299C82.5786 16.9652 82.7917 16.7414 82.9277 16.4585C83.0316 16.2401 83.0835 15.9178 83.0835 15.4917V15.1372ZM85.5649 18V12.2959H86.4297V13.0962C86.6087 12.8169 86.8468 12.5931 87.144 12.4248C87.4412 12.2529 87.7796 12.167 88.1592 12.167C88.5817 12.167 88.9272 12.2547 89.1958 12.4302C89.4679 12.6056 89.6595 12.8509 89.7705 13.166C90.2217 12.5 90.8089 12.167 91.5322 12.167C92.098 12.167 92.533 12.3245 92.8374 12.6396C93.1418 12.9512 93.2939 13.4328 93.2939 14.0845V18H92.3325V14.4067C92.3325 14.02 92.3003 13.7425 92.2358 13.5742C92.175 13.4023 92.0622 13.2645 91.8975 13.1606C91.7327 13.0568 91.5394 13.0049 91.3174 13.0049C90.9163 13.0049 90.5833 13.1392 90.3184 13.4077C90.0534 13.6727 89.9209 14.0988 89.9209 14.686V18H88.9541V14.2939C88.9541 13.8643 88.8753 13.542 88.7178 13.3271C88.5602 13.1123 88.3024 13.0049 87.9443 13.0049C87.6722 13.0049 87.4198 13.0765 87.187 13.2197C86.9578 13.363 86.7913 13.5724 86.6875 13.8481C86.5837 14.1239 86.5317 14.5213 86.5317 15.0405V18H85.5649ZM94.3413 16.2974L95.2974 16.147C95.3511 16.5301 95.4997 16.8237 95.7432 17.0278C95.9902 17.2319 96.334 17.334 96.7744 17.334C97.2184 17.334 97.5479 17.2445 97.7627 17.0654C97.9775 16.8828 98.085 16.6698 98.085 16.4263C98.085 16.2078 97.9901 16.036 97.8003 15.9106C97.6678 15.8247 97.3384 15.7155 96.812 15.583C96.103 15.404 95.6107 15.25 95.335 15.1211C95.0628 14.9886 94.8551 14.8078 94.7119 14.5786C94.5723 14.3459 94.5024 14.0898 94.5024 13.8105C94.5024 13.5563 94.5597 13.3218 94.6743 13.1069C94.7925 12.8885 94.9518 12.7077 95.1523 12.5645C95.3027 12.4535 95.5068 12.3604 95.7646 12.2852C96.026 12.2064 96.3053 12.167 96.6025 12.167C97.0501 12.167 97.4422 12.2314 97.7788 12.3604C98.119 12.4893 98.3696 12.6647 98.5308 12.8867C98.6919 13.1051 98.8029 13.3988 98.8638 13.7676L97.9185 13.8965C97.8755 13.6029 97.7502 13.3737 97.5425 13.209C97.3384 13.0443 97.0483 12.9619 96.6724 12.9619C96.2284 12.9619 95.9115 13.0353 95.7217 13.1821C95.5319 13.3289 95.437 13.5008 95.437 13.6978C95.437 13.8231 95.4764 13.9359 95.5552 14.0361C95.634 14.14 95.7575 14.2259 95.9258 14.2939C96.0225 14.3298 96.3071 14.4121 96.7798 14.541C97.4637 14.7236 97.9399 14.874 98.2085 14.9922C98.4806 15.1068 98.6937 15.2751 98.8477 15.4971C99.0016 15.7191 99.0786 15.9948 99.0786 16.3242C99.0786 16.6465 98.9837 16.9508 98.7939 17.2373C98.6077 17.5202 98.3374 17.7404 97.9829 17.8979C97.6284 18.0519 97.2274 18.1289 96.7798 18.1289C96.0386 18.1289 95.4728 17.9749 95.0825 17.667C94.6958 17.359 94.4487 16.9025 94.3413 16.2974Z" fill="white" fill-opacity="0.8"/>
<path d="M25 14.6737V18.1143C25 19.1557 24.1381 20 23.075 20H12.925C11.8619 20 11 19.1557 11 18.1143V9.88571C11 8.84429 11.8619 8 12.925 8H23.075C24.1381 8 25 8.84429 25 9.88571V14.6737ZM23.95 13.4744V9.88571C23.95 9.77315 23.9274 9.66169 23.8834 9.5577C23.8394 9.45371 23.775 9.35922 23.6937 9.27962C23.6125 9.20003 23.516 9.13689 23.4098 9.09382C23.3037 9.05074 23.1899 9.02857 23.075 9.02857H12.925C12.8101 9.02857 12.6963 9.05074 12.5902 9.09382C12.484 9.13689 12.3875 9.20003 12.3063 9.27962C12.225 9.35922 12.1606 9.45371 12.1166 9.5577C12.0726 9.66169 12.05 9.77315 12.05 9.88571V15.422C12.2817 15.3883 12.5157 15.3714 12.75 15.3714C13.8477 15.3699 14.9114 15.7442 15.7572 16.4297C16.6059 14.2633 18.7368 12.8 21.15 12.8C22.228 12.8 23.2336 13.0697 23.95 13.4744ZM23.95 14.7961C23.8625 14.6624 23.6033 14.4481 23.2339 14.2671C22.672 13.9918 21.9546 13.8286 21.15 13.8286C19.1522 13.8286 17.3908 15.0543 16.7132 16.8611C16.6684 16.9808 16.5918 17.1877 16.4836 17.4812C16.3576 17.8235 15.9184 17.9329 15.6408 17.691C15.3711 17.4558 15.1723 17.2882 15.0479 17.1905C14.3967 16.6775 13.5857 16.3985 12.75 16.4C12.5127 16.4 12.2787 16.4219 12.05 16.4651V18.1143C12.05 18.2268 12.0726 18.3383 12.1166 18.4423C12.1606 18.5463 12.225 18.6408 12.3063 18.7204C12.3875 18.8 12.484 18.8631 12.5902 18.9062C12.6963 18.9493 12.8101 18.9714 12.925 18.9714H23.075C23.1899 18.9714 23.3037 18.9493 23.4098 18.9062C23.516 18.8631 23.6125 18.8 23.6937 18.7204C23.775 18.6408 23.8394 18.5463 23.8834 18.4423C23.9274 18.3383 23.95 18.2268 23.95 18.1143V14.7959V14.7961ZM14.85 13.4857C14.4323 13.4857 14.0317 13.3232 13.7363 13.0338C13.4409 12.7445 13.275 12.352 13.275 11.9429C13.275 11.5337 13.4409 11.1412 13.7363 10.8519C14.0317 10.5626 14.4323 10.4 14.85 10.4C15.2677 10.4 15.6683 10.5626 15.9637 10.8519C16.2591 11.1412 16.425 11.5337 16.425 11.9429C16.425 12.352 16.2591 12.7445 15.9637 13.0338C15.6683 13.3232 15.2677 13.4857 14.85 13.4857ZM14.85 12.4571C14.9892 12.4571 15.1228 12.403 15.2212 12.3065C15.3197 12.2101 15.375 12.0793 15.375 11.9429C15.375 11.8065 15.3197 11.6756 15.2212 11.5792C15.1228 11.4828 14.9892 11.4286 14.85 11.4286C14.7108 11.4286 14.5772 11.4828 14.4788 11.5792C14.3803 11.6756 14.325 11.8065 14.325 11.9429C14.325 12.0793 14.3803 12.2101 14.4788 12.3065C14.5772 12.403 14.7108 12.4571 14.85 12.4571Z" fill="white" fill-opacity="0.8"/>
</g>
<defs>
<linearGradient id="paint0_linear_734_2286" x1="-1.15623e-06" y1="6.99999" x2="105.644" y2="-9.18447" gradientUnits="userSpaceOnUse">
<stop stop-color="white" stop-opacity="0.2"/>
<stop offset="1" stop-color="#9C81F2" stop-opacity="0.5"/>
</linearGradient>
<radialGradient id="paint1_radial_734_2286" cx="0" cy="0" r="1" gradientUnits="userSpaceOnUse" gradientTransform="translate(57.5 15) rotate(90) scale(15 62.5)">
<stop stop-color="#121212" stop-opacity="0.5"/>
<stop offset="1" stop-color="#121212" stop-opacity="0"/>
</radialGradient>
<radialGradient id="paint2_radial_734_2286" cx="0" cy="0" r="1" gradientUnits="userSpaceOnUse" gradientTransform="translate(21.5 0.5) scale(18.629 511.5)">
<stop stop-color="white" stop-opacity="0.7"/>
<stop offset="1" stop-color="white" stop-opacity="0"/>
</radialGradient>
<radialGradient id="paint3_radial_734_2286" cx="0" cy="0" r="1" gradientUnits="userSpaceOnUse" gradientTransform="translate(21.5) rotate(90) scale(5 29.5)">
<stop stop-color="#F5857A" stop-opacity="0.21"/>
<stop offset="1" stop-color="#F5857A" stop-opacity="0"/>
</radialGradient>
<clipPath id="clip0_734_2286">
<rect width="110" height="28" rx="4" fill="white"/>
</clipPath>
</defs>
</svg>
