<svg width="159" height="24" viewBox="0 0 159 24" fill="none" xmlns="http://www.w3.org/2000/svg">
<g clip-path="url(#clip0_1336_1829)">
<rect width="159" height="24" rx="4" fill="#2A2D38"/>
<rect x="0.5" y="0.5" width="158" height="23" rx="3.5" fill="#9C81F2" fill-opacity="0.1" stroke="url(#paint0_linear_1336_1829)"/>
<ellipse cx="101.5" cy="13" rx="106.5" ry="13" fill="url(#paint1_radial_1336_1829)"/>
<rect x="4" width="35" height="1" fill="url(#paint2_radial_1336_1829)"/>
<ellipse cx="21.5" rx="29.5" ry="5" fill="url(#paint3_radial_1336_1829)"/>
<path d="M74.9326 16V8.8418H75.8799V16H74.9326ZM77.4424 16V10.8145H78.2285V11.542C78.3913 11.2881 78.6077 11.0846 78.8779 10.9316C79.1481 10.7754 79.4557 10.6973 79.8008 10.6973C80.1849 10.6973 80.499 10.777 80.7432 10.9365C80.9906 11.096 81.1647 11.319 81.2656 11.6055C81.6758 11 82.2096 10.6973 82.8672 10.6973C83.3815 10.6973 83.777 10.8405 84.0537 11.127C84.3304 11.4102 84.4688 11.848 84.4688 12.4404V16H83.5947V12.7334C83.5947 12.3818 83.5654 12.1296 83.5068 11.9766C83.4515 11.8203 83.349 11.695 83.1992 11.6006C83.0495 11.5062 82.8737 11.459 82.6719 11.459C82.3073 11.459 82.0046 11.5811 81.7637 11.8252C81.5228 12.0661 81.4023 12.4535 81.4023 12.9873V16H80.5234V12.6309C80.5234 12.2402 80.4518 11.9473 80.3086 11.752C80.1654 11.5566 79.931 11.459 79.6055 11.459C79.3581 11.459 79.1286 11.5241 78.917 11.6543C78.7087 11.7845 78.5573 11.9749 78.4629 12.2256C78.3685 12.4762 78.3213 12.8376 78.3213 13.3096V16H77.4424ZM89.1562 15.3604C88.8307 15.637 88.5166 15.8324 88.2139 15.9463C87.9144 16.0602 87.5921 16.1172 87.2471 16.1172C86.6774 16.1172 86.2396 15.9788 85.9336 15.7021C85.6276 15.4222 85.4746 15.0658 85.4746 14.6328C85.4746 14.3789 85.5316 14.1478 85.6455 13.9395C85.7627 13.7279 85.9141 13.5586 86.0996 13.4316C86.2884 13.3047 86.5 13.2087 86.7344 13.1436C86.9069 13.098 87.1673 13.054 87.5156 13.0117C88.2253 12.9271 88.7477 12.8262 89.083 12.709C89.0863 12.5885 89.0879 12.512 89.0879 12.4795C89.0879 12.1214 89.0049 11.8691 88.8389 11.7227C88.6143 11.5241 88.2806 11.4248 87.8379 11.4248C87.4245 11.4248 87.1185 11.498 86.9199 11.6445C86.7246 11.7878 86.5798 12.0433 86.4854 12.4111L85.626 12.2939C85.7041 11.9261 85.8327 11.6299 86.0117 11.4053C86.1908 11.1774 86.4495 11.0033 86.7881 10.8828C87.1266 10.7591 87.5189 10.6973 87.9648 10.6973C88.4076 10.6973 88.7673 10.7493 89.0439 10.8535C89.3206 10.9577 89.5241 11.0895 89.6543 11.249C89.7845 11.4053 89.8757 11.6038 89.9277 11.8447C89.957 11.9945 89.9717 12.2646 89.9717 12.6553V13.8271C89.9717 14.6442 89.9896 15.1618 90.0254 15.3799C90.0645 15.5947 90.1393 15.8014 90.25 16H89.332C89.2409 15.8177 89.1823 15.6045 89.1562 15.3604ZM89.083 13.3975C88.764 13.5277 88.2855 13.6383 87.6475 13.7295C87.2861 13.7816 87.0306 13.8402 86.8809 13.9053C86.7311 13.9704 86.6156 14.0664 86.5342 14.1934C86.4528 14.3171 86.4121 14.4554 86.4121 14.6084C86.4121 14.8428 86.5 15.0381 86.6758 15.1943C86.8548 15.3506 87.1152 15.4287 87.457 15.4287C87.7956 15.4287 88.0967 15.3555 88.3604 15.209C88.624 15.0592 88.8177 14.8558 88.9414 14.5986C89.0358 14.4001 89.083 14.1071 89.083 13.7197V13.3975ZM91.1777 16.4297L92.0322 16.5566C92.068 16.8203 92.1673 17.0124 92.3301 17.1328C92.5482 17.2956 92.846 17.377 93.2236 17.377C93.6305 17.377 93.9447 17.2956 94.166 17.1328C94.3874 16.9701 94.5371 16.7422 94.6152 16.4492C94.6608 16.2702 94.682 15.8942 94.6787 15.3213C94.2946 15.7738 93.8161 16 93.2432 16C92.5303 16 91.9785 15.7428 91.5879 15.2285C91.1973 14.7142 91.002 14.0973 91.002 13.3779C91.002 12.8831 91.0915 12.4274 91.2705 12.0107C91.4495 11.5908 91.7083 11.2669 92.0469 11.0391C92.3887 10.8112 92.7891 10.6973 93.248 10.6973C93.86 10.6973 94.3646 10.9447 94.7617 11.4395V10.8145H95.5723V15.2969C95.5723 16.1042 95.4893 16.6755 95.3232 17.0107C95.1605 17.3493 94.9001 17.6162 94.542 17.8115C94.1872 18.0068 93.7493 18.1045 93.2285 18.1045C92.61 18.1045 92.1104 17.9645 91.7295 17.6846C91.3486 17.4079 91.1647 16.9896 91.1777 16.4297ZM91.9053 13.3145C91.9053 13.9948 92.0404 14.4912 92.3105 14.8037C92.5807 15.1162 92.9193 15.2725 93.3262 15.2725C93.7298 15.2725 94.0684 15.1178 94.3418 14.8086C94.6152 14.4961 94.752 14.0078 94.752 13.3438C94.752 12.709 94.6104 12.2305 94.3271 11.9082C94.0472 11.5859 93.7087 11.4248 93.3115 11.4248C92.9209 11.4248 92.5889 11.5843 92.3154 11.9033C92.042 12.2191 91.9053 12.6895 91.9053 13.3145ZM100.455 14.3301L101.363 14.4424C101.22 14.973 100.955 15.3848 100.567 15.6777C100.18 15.9707 99.6852 16.1172 99.083 16.1172C98.3245 16.1172 97.7223 15.8844 97.2764 15.4189C96.8337 14.9502 96.6123 14.2943 96.6123 13.4512C96.6123 12.5788 96.8369 11.9017 97.2861 11.4199C97.7354 10.9382 98.318 10.6973 99.0342 10.6973C99.7275 10.6973 100.294 10.9333 100.733 11.4053C101.173 11.8773 101.393 12.5413 101.393 13.3975C101.393 13.4495 101.391 13.5277 101.388 13.6318H97.5205C97.5531 14.2015 97.7142 14.6377 98.0039 14.9404C98.2936 15.2432 98.6549 15.3945 99.0879 15.3945C99.4102 15.3945 99.6852 15.3099 99.9131 15.1406C100.141 14.9714 100.322 14.7012 100.455 14.3301ZM97.5693 12.9092H100.465C100.426 12.473 100.315 12.1458 100.133 11.9277C99.8529 11.5892 99.4899 11.4199 99.0439 11.4199C98.6403 11.4199 98.3001 11.555 98.0234 11.8252C97.75 12.0954 97.5986 12.4567 97.5693 12.9092Z" fill="white" fill-opacity="0.8"/>
<g clip-path="url(#clip1_1336_1829)">
<path d="M67.8925 9.56448C67.6571 8.99087 67.2563 8.50023 66.7413 8.15492C66.2263 7.80962 65.6202 7.62524 65.0002 7.62524C64.3801 7.62524 63.7741 7.80962 63.259 8.15492C62.744 8.50023 62.3433 8.99087 62.1078 9.56448C61.5949 9.68541 61.1382 9.97663 60.8121 10.3906C60.486 10.8046 60.3099 11.3169 60.3125 11.8439C60.3125 13.1364 61.3638 14.1876 62.6563 14.1876H63.5497C63.6326 14.1876 63.7121 14.1547 63.7707 14.0961C63.8293 14.0375 63.8622 13.958 63.8622 13.8751C63.8622 13.7922 63.8293 13.7127 63.7707 13.6541C63.7121 13.5955 63.6326 13.5626 63.5497 13.5626H62.6563C62.2006 13.5621 61.7637 13.3809 61.4415 13.0586C61.1193 12.7364 60.938 12.2995 60.9375 11.8439C60.9355 11.434 61.0808 11.037 61.3469 10.7253C61.6131 10.4136 61.9824 10.2079 62.3875 10.1457L62.5735 10.1167L62.6344 9.93854C62.981 8.92854 63.9316 8.25011 65 8.25011C65.5211 8.24996 66.0291 8.41261 66.4532 8.71534C66.8773 9.01806 67.1962 9.44572 67.3653 9.93854L67.4266 10.1167L67.6125 10.1457C68.0177 10.2079 68.387 10.4136 68.6531 10.7253C68.9193 11.037 69.0646 11.434 69.0625 11.8439C69.0625 12.7914 68.2913 13.5626 67.3438 13.5626H66.3938C66.3109 13.5626 66.2314 13.5955 66.1728 13.6541C66.1142 13.7127 66.0813 13.7922 66.0813 13.8751C66.0813 13.958 66.1142 14.0375 66.1728 14.0961C66.2314 14.1547 66.3109 14.1876 66.3938 14.1876H67.3438C68.6363 14.1876 69.6875 13.1364 69.6875 11.8439C69.6902 11.3169 69.5141 10.8047 69.1881 10.3907C68.8621 9.97672 68.4054 9.68547 67.8925 9.56448Z" fill="#D4D4D6"/>
<path d="M66.3438 12.5669C66.3755 12.5929 66.4121 12.6124 66.4514 12.6242C66.4907 12.6361 66.5319 12.6401 66.5728 12.636C66.6136 12.6319 66.6533 12.6199 66.6894 12.6005C66.7256 12.5811 66.7576 12.5547 66.7836 12.523C66.8096 12.4912 66.8291 12.4546 66.8409 12.4153C66.8528 12.376 66.8568 12.3348 66.8527 12.2939C66.8487 12.2531 66.8366 12.2135 66.8172 12.1773C66.7978 12.1411 66.7715 12.1091 66.7397 12.0831L65.1963 10.8194C65.1404 10.7736 65.0704 10.7485 64.9981 10.7485C64.9259 10.7485 64.8559 10.7736 64.8 10.8194L63.2469 12.0912C63.1972 12.1321 63.1613 12.1874 63.1441 12.2494C63.127 12.3115 63.1294 12.3773 63.151 12.4379C63.1726 12.4986 63.2125 12.551 63.265 12.5882C63.3176 12.6254 63.3803 12.6454 63.4447 12.6456C63.5169 12.6457 63.5868 12.6206 63.6425 12.5747L64.6856 11.7212V15.9062C64.6856 15.9891 64.7186 16.0686 64.7772 16.1272C64.8358 16.1858 64.9153 16.2187 64.9981 16.2187C65.081 16.2187 65.1605 16.1858 65.2191 16.1272C65.2777 16.0686 65.3106 15.9891 65.3106 15.9062V11.7212L66.3438 12.5669Z" fill="#D4D4D6"/>
</g>
</g>
<defs>
<linearGradient id="paint0_linear_1336_1829" x1="-1.67128e-06" y1="5.99999" x2="146.509" y2="-31.8503" gradientUnits="userSpaceOnUse">
<stop stop-color="white" stop-opacity="0.2"/>
<stop offset="1" stop-color="#9C81F2" stop-opacity="0.5"/>
</linearGradient>
<radialGradient id="paint1_radial_1336_1829" cx="0" cy="0" r="1" gradientUnits="userSpaceOnUse" gradientTransform="translate(101.5 13) rotate(90) scale(13 106.5)">
<stop stop-color="#121212" stop-opacity="0.5"/>
<stop offset="1" stop-color="#121212" stop-opacity="0"/>
</radialGradient>
<radialGradient id="paint2_radial_1336_1829" cx="0" cy="0" r="1" gradientUnits="userSpaceOnUse" gradientTransform="translate(21.5 0.5) scale(18.629 511.5)">
<stop stop-color="white" stop-opacity="0.7"/>
<stop offset="1" stop-color="white" stop-opacity="0"/>
</radialGradient>
<radialGradient id="paint3_radial_1336_1829" cx="0" cy="0" r="1" gradientUnits="userSpaceOnUse" gradientTransform="translate(21.5) rotate(90) scale(5 29.5)">
<stop stop-color="#F5857A" stop-opacity="0.21"/>
<stop offset="1" stop-color="#F5857A" stop-opacity="0"/>
</radialGradient>
<clipPath id="clip0_1336_1829">
<rect width="159" height="24" rx="4" fill="white"/>
</clipPath>
<clipPath id="clip1_1336_1829">
<rect width="10" height="10" fill="white" transform="translate(60 7)"/>
</clipPath>
</defs>
</svg>
