<svg width="14" height="12" viewBox="0 0 14 12" fill="none" xmlns="http://www.w3.org/2000/svg">
<path d="M14 6.67371V10.1143C14 11.1557 13.1381 12 12.075 12H1.925C0.861875 12 1.64062e-08 11.1557 0 10.1143V1.88571C0 0.844286 0.861875 0 1.925 0H12.075C13.1381 0 14 0.844286 14 1.88571V6.67371ZM12.95 5.4744V1.88571C12.95 1.77315 12.9274 1.66169 12.8834 1.5577C12.8394 1.45371 12.775 1.35922 12.6937 1.27962C12.6125 1.20003 12.516 1.13689 12.4098 1.09382C12.3037 1.05074 12.1899 1.02857 12.075 1.02857H1.925C1.81009 1.02857 1.69631 1.05074 1.59015 1.09382C1.48399 1.13689 1.38753 1.20003 1.30628 1.27962C1.22503 1.35922 1.16058 1.45371 1.11661 1.5577C1.07263 1.66169 1.05 1.77315 1.05 1.88571V7.422C1.28174 7.38829 1.51571 7.37138 1.75 7.37143C2.8477 7.36986 3.91144 7.74419 4.7572 8.42966C5.60595 6.26331 7.73675 4.8 10.15 4.8C11.228 4.8 12.2336 5.06966 12.95 5.4744ZM12.95 6.79611C12.8625 6.6624 12.6033 6.44811 12.2339 6.26709C11.672 5.99177 10.9546 5.82857 10.15 5.82857C8.1522 5.82857 6.39082 7.05429 5.71322 8.86114C5.66842 8.9808 5.59177 9.18771 5.48362 9.4812C5.35762 9.82354 4.91837 9.93291 4.64082 9.69103C4.37115 9.45583 4.17235 9.28817 4.04792 9.19046C3.39665 8.6775 2.58568 8.39853 1.75 8.4C1.5127 8.4 1.27872 8.42194 1.05 8.46514V10.1143C1.05 10.2268 1.07263 10.3383 1.11661 10.4423C1.16058 10.5463 1.22503 10.6408 1.30628 10.7204C1.38753 10.8 1.48399 10.8631 1.59015 10.9062C1.69631 10.9493 1.81009 10.9714 1.925 10.9714H12.075C12.1899 10.9714 12.3037 10.9493 12.4098 10.9062C12.516 10.8631 12.6125 10.8 12.6937 10.7204C12.775 10.6408 12.8394 10.5463 12.8834 10.4423C12.9274 10.3383 12.95 10.2268 12.95 10.1143V6.79594V6.79611ZM3.85 5.48571C3.43228 5.48571 3.03168 5.32316 2.73631 5.03382C2.44094 4.74448 2.275 4.35205 2.275 3.94286C2.275 3.53367 2.44094 3.14123 2.73631 2.85189C3.03168 2.56255 3.43228 2.4 3.85 2.4C4.26772 2.4 4.66832 2.56255 4.96369 2.85189C5.25906 3.14123 5.425 3.53367 5.425 3.94286C5.425 4.35205 5.25906 4.74448 4.96369 5.03382C4.66832 5.32316 4.26772 5.48571 3.85 5.48571ZM3.85 4.45714C3.98924 4.45714 4.12277 4.40296 4.22123 4.30651C4.31969 4.21006 4.375 4.07925 4.375 3.94286C4.375 3.80646 4.31969 3.67565 4.22123 3.5792C4.12277 3.48276 3.98924 3.42857 3.85 3.42857C3.71076 3.42857 3.57723 3.48276 3.47877 3.5792C3.38031 3.67565 3.325 3.80646 3.325 3.94286C3.325 4.07925 3.38031 4.21006 3.47877 4.30651C3.57723 4.40296 3.71076 4.45714 3.85 4.45714Z" fill="#C4C6CA"/>
</svg>
