<svg width="80" height="80" viewBox="0 0 80 80" fill="none" xmlns="http://www.w3.org/2000/svg">
<rect width="80" height="80" rx="1" fill="#313541"/>
<g opacity="0.85">
<g filter="url(#filter0_d_6565_14)">
<path fill-rule="evenodd" clip-rule="evenodd" d="M32.3627 48.5508H31.8474C30.8314 48.5508 30 47.7194 30 46.7033V32.8474C30 31.8314 30.8314 31 31.8474 31H48.318L47.0584 32.3856H31.8474C31.5703 32.3856 31.3856 32.5703 31.3856 32.8474V46.7033C31.3856 46.9805 31.5703 47.1652 31.8474 47.1652H33.6224L32.3627 48.5508ZM39.3323 40.8843L39.3301 40.8836C37.9029 40.3921 36.5719 39.9337 35.6316 40.5606C34.1075 41.6228 33.1376 44.3017 33.0452 44.6249C32.999 44.7173 32.999 44.7635 32.999 44.8559C32.999 45.2254 33.3223 45.5487 33.6918 45.5487C34.0151 45.5487 34.2922 45.3639 34.3846 45.0406C34.6155 44.3478 35.4469 42.3618 36.4168 41.7152C36.7284 41.5421 37.5331 41.7583 38.3056 42.0136L39.3323 40.8843ZM35.5393 35.1568C34.7541 35.1568 34.1537 35.7572 34.1537 36.5424C34.1537 37.3275 34.7541 37.9279 35.5393 37.9279C36.3244 37.9279 36.9249 37.3275 36.9249 36.5424C36.9249 35.7572 36.3244 35.1568 35.5393 35.1568Z" fill="url(#paint0_linear_6565_14)" shape-rendering="crispEdges"/>
</g>
<path fill-rule="evenodd" clip-rule="evenodd" d="M30.0016 32.7693C30.0006 32.7952 30 32.8213 30 32.8474V46.7033C30 46.7295 30.0006 46.7556 30.0016 46.7815V32.7693ZM32.3627 48.5508H48.4745C49.4906 48.5508 50.322 47.7194 50.322 46.7033V32.8474C50.322 31.8314 49.4906 31 48.4745 31H48.318L47.0584 32.3856H48.4745C48.7516 32.3856 48.9364 32.5703 48.9364 32.8474V46.7033C48.9364 46.9805 48.7516 47.1652 48.4745 47.1652H33.6224L32.3627 48.5508ZM38.3056 42.0136C38.5397 42.0909 38.7708 42.1719 38.9844 42.2467L39.0494 42.2694L39.1844 42.3159C40.6115 42.8074 41.9425 43.2658 42.8829 42.6389C43.824 42.0115 43.9824 40.9493 44.1175 40.0429L44.1299 39.9601C44.1406 39.8995 44.151 39.8392 44.1614 39.7792L44.1615 39.7787L44.1615 39.7787C44.2853 39.0619 44.4002 38.3967 44.8689 37.9279C45.3769 37.4199 46.0235 37.1428 46.7163 37.1428C47.0858 37.0966 47.3629 36.7733 47.3629 36.4038C47.3168 36.0343 46.9934 35.7572 46.624 35.7572C45.5617 35.8034 44.5918 36.219 43.8528 36.958C43.0767 37.7772 42.9044 38.838 42.7722 39.6517C42.7627 39.7096 42.7535 39.7663 42.7443 39.8216L42.7362 39.8704C42.602 40.6764 42.5052 41.2579 42.0977 41.4843C41.6916 41.7099 40.4482 41.2744 39.5298 40.9527L39.4651 40.93L39.3323 40.8843L38.3056 42.0136Z" fill="#9C81F2"/>
</g>
<defs>
<filter id="filter0_d_6565_14" x="29" y="30" width="22.3203" height="21.5508" filterUnits="userSpaceOnUse" color-interpolation-filters="sRGB">
<feFlood flood-opacity="0" result="BackgroundImageFix"/>
<feColorMatrix in="SourceAlpha" type="matrix" values="0 0 0 0 0 0 0 0 0 0 0 0 0 0 0 0 0 0 127 0" result="hardAlpha"/>
<feOffset dx="1" dy="1"/>
<feGaussianBlur stdDeviation="1"/>
<feComposite in2="hardAlpha" operator="out"/>
<feColorMatrix type="matrix" values="0 0 0 0 0 0 0 0 0 0 0 0 0 0 0 0 0 0 0.57 0"/>
<feBlend mode="normal" in2="BackgroundImageFix" result="effect1_dropShadow_6565_14"/>
<feBlend mode="normal" in="SourceGraphic" in2="effect1_dropShadow_6565_14" result="shape"/>
</filter>
<linearGradient id="paint0_linear_6565_14" x1="33.7118" y1="33.6511" x2="39.544" y2="40.5443" gradientUnits="userSpaceOnUse">
<stop stop-color="#9C81F2"/>
<stop offset="1" stop-color="white" stop-opacity="0.9"/>
</linearGradient>
</defs>
</svg>
