<svg width="375" height="237" viewBox="0 0 375 237" fill="none" xmlns="http://www.w3.org/2000/svg">
<g clip-path="url(#clip0_1336_3409)">
<rect x="5" y="5" width="365" height="227" rx="6" fill="#2A2D38" fill-opacity="0.7"/>
<g filter="url(#filter0_d_1336_3409)">
<path fill-rule="evenodd" clip-rule="evenodd" d="M175.717 132.634H174.909C173.309 132.634 172 131.325 172 129.725V107.909C172 106.309 173.309 105 174.909 105H200.839L198.856 107.182H174.909C174.473 107.182 174.182 107.473 174.182 107.909V129.725C174.182 130.162 174.473 130.452 174.909 130.452H177.7L175.717 132.634ZM186.691 120.562C184.445 119.789 182.349 119.067 180.869 120.054C178.469 121.727 176.942 125.944 176.796 126.453C176.724 126.599 176.724 126.672 176.724 126.817C176.724 127.399 177.233 127.908 177.814 127.908C178.323 127.908 178.76 127.617 178.905 127.108C179.269 126.017 180.578 122.89 182.105 121.872C182.595 121.6 183.86 121.939 185.075 122.34L186.691 120.562ZM180.723 111.546C179.487 111.546 178.542 112.491 178.542 113.727C178.542 114.964 179.487 115.909 180.723 115.909C181.96 115.909 182.905 114.964 182.905 113.727C182.905 112.491 181.959 111.546 180.723 111.546Z" fill="url(#paint0_linear_1336_3409)" shape-rendering="crispEdges"/>
</g>
<path fill-rule="evenodd" clip-rule="evenodd" d="M200.841 105H201.09C202.69 105 203.999 106.309 203.999 107.909V129.725C203.999 131.325 202.69 132.634 201.09 132.634H175.719L177.702 130.452H201.09C201.526 130.452 201.817 130.162 201.817 129.725V107.909C201.817 107.473 201.526 107.182 201.09 107.182H198.857L200.841 105ZM185.077 122.34L186.693 120.562C186.693 120.562 186.693 120.563 186.694 120.563L186.906 120.636L187.008 120.671C188.454 121.178 190.412 121.864 191.051 121.508C191.693 121.152 191.845 120.236 192.057 118.967L192.069 118.89C192.084 118.804 192.098 118.714 192.113 118.623L192.113 118.623C192.321 117.342 192.593 115.672 193.815 114.382C194.978 113.218 196.505 112.564 198.178 112.491C198.76 112.491 199.269 112.927 199.342 113.509C199.342 114.091 198.905 114.6 198.323 114.673C197.233 114.673 196.215 115.109 195.415 115.909C194.677 116.647 194.496 117.694 194.301 118.823L194.301 118.824C194.284 118.918 194.268 119.013 194.251 119.109L194.232 119.239C194.019 120.666 193.769 122.339 192.288 123.326C190.807 124.314 188.711 123.592 186.464 122.818L186.252 122.745L186.149 122.709C185.812 122.591 185.446 122.463 185.077 122.34Z" fill="#9C81F2"/>
</g>
<defs>
<filter id="filter0_d_1336_3409" x="171" y="104" width="32.8359" height="31.6338" filterUnits="userSpaceOnUse" color-interpolation-filters="sRGB">
<feFlood flood-opacity="0" result="BackgroundImageFix"/>
<feColorMatrix in="SourceAlpha" type="matrix" values="0 0 0 0 0 0 0 0 0 0 0 0 0 0 0 0 0 0 127 0" result="hardAlpha"/>
<feOffset dx="1" dy="1"/>
<feGaussianBlur stdDeviation="1"/>
<feComposite in2="hardAlpha" operator="out"/>
<feColorMatrix type="matrix" values="0 0 0 0 0 0 0 0 0 0 0 0 0 0 0 0 0 0 0.57 0"/>
<feBlend mode="normal" in2="BackgroundImageFix" result="effect1_dropShadow_1336_3409"/>
<feBlend mode="normal" in="SourceGraphic" in2="effect1_dropShadow_1336_3409" result="shape"/>
</filter>
<linearGradient id="paint0_linear_1336_3409" x1="177.844" y1="109.174" x2="187.027" y2="120.027" gradientUnits="userSpaceOnUse">
<stop stop-color="#9C81F2"/>
<stop offset="1" stop-color="white" stop-opacity="0.9"/>
</linearGradient>
<clipPath id="clip0_1336_3409">
<rect width="375" height="237" rx="8" fill="white"/>
</clipPath>
</defs>
</svg>
