<svg width="94" height="21" viewBox="0 0 94 21" fill="none" xmlns="http://www.w3.org/2000/svg">
<path d="M16.6755 5.25L16.2631 1.75L15.7665 1.80851L15.6124 0.5H14.5538V0H11.5476V0.5H8.5414V0H5.5352V0.5H4.0321C3.55661 0.5 3.10446 0.594542 2.69247 0.765385L2.50095 0.303522C1.52318 0.708983 0.741081 1.49109 0.335621 2.46885L0.797483 2.66038C0.62664 3.07236 0.532099 3.52451 0.532099 4V5.625H0.0320988V8.875H0.532099V12.125H0.0320988V15.375H0.532099V17C0.532099 17.4755 0.62664 17.9276 0.797483 18.3396L0.335621 18.5312C0.741083 19.5089 1.52319 20.291 2.50095 20.6965L2.69247 20.2346C3.10446 20.4055 3.55661 20.5 4.0321 20.5H5.84449V21H9.46928V20.5H13.0941V21H16.7189V20.5H17.9689L17.8285 19.3085L18.3251 19.25L17.9127 15.75L17.4161 15.8085L17.0037 12.3085L17.5003 12.25L17.0879 8.75L16.5913 8.80851L16.1789 5.30851L16.6755 5.25Z" stroke="#C4C6CA" stroke-dasharray="4 4"/>
<g clip-path="url(#clip0_1336_1839)">
<path d="M14.9999 0.00423742L89.9998 0.000214563C92.209 9.6065e-05 94 1.79099 94 4.00021V17C94 19.2091 92.2091 21 90 21H17.528L14.9999 0.00423742Z" fill="#2A2D38" fill-opacity="0.5"/>
<path d="M17.9715 20.5L15.5638 0.504207L89.9998 0.500215C91.9329 0.500111 93.5 2.06715 93.5 4.00021V17C93.5 18.933 91.933 20.5 90 20.5H17.9715Z" fill="#9D7FF5" fill-opacity="0.1" stroke="url(#paint0_linear_1336_1839)"/>
<ellipse cx="42" cy="12.5" rx="42" ry="12.5" transform="matrix(-1 0 0 1 95 -2)" fill="url(#paint1_radial_1336_1839)"/>
<ellipse cx="20" cy="6" rx="20" ry="6" transform="matrix(-1 0 0 1 54 -7)" fill="url(#paint2_radial_1336_1839)"/>
<path d="M39.9326 14V6.8418H40.8799V14H39.9326ZM42.4424 14V8.81445H43.2334V9.55176C43.6143 8.9821 44.1644 8.69727 44.8838 8.69727C45.1963 8.69727 45.4827 8.75423 45.7432 8.86816C46.0068 8.97884 46.2038 9.12533 46.334 9.30762C46.4642 9.48991 46.5553 9.70638 46.6074 9.95703C46.64 10.1198 46.6562 10.4046 46.6562 10.8115V14H45.7773V10.8457C45.7773 10.4876 45.7432 10.2207 45.6748 10.0449C45.6064 9.86589 45.4844 9.72428 45.3086 9.62012C45.1361 9.5127 44.9326 9.45898 44.6982 9.45898C44.3239 9.45898 44 9.5778 43.7266 9.81543C43.4564 10.0531 43.3213 10.5039 43.3213 11.168V14H42.4424ZM48.0088 15.9873V8.81445H48.8096V9.48828C48.9984 9.22461 49.2116 9.02767 49.4492 8.89746C49.6868 8.764 49.9749 8.69727 50.3135 8.69727C50.7562 8.69727 51.1468 8.8112 51.4854 9.03906C51.8239 9.26693 52.0794 9.58919 52.252 10.0059C52.4245 10.4193 52.5107 10.8734 52.5107 11.3682C52.5107 11.8988 52.4147 12.3773 52.2227 12.8037C52.0339 13.2269 51.7572 13.5524 51.3926 13.7803C51.0312 14.0049 50.6504 14.1172 50.25 14.1172C49.957 14.1172 49.6934 14.0553 49.459 13.9316C49.2279 13.8079 49.0374 13.6517 48.8877 13.4629V15.9873H48.0088ZM48.8047 11.4365C48.8047 12.1038 48.9398 12.597 49.21 12.916C49.4801 13.235 49.8073 13.3945 50.1914 13.3945C50.582 13.3945 50.9157 13.2301 51.1924 12.9014C51.4723 12.5693 51.6123 12.0566 51.6123 11.3633C51.6123 10.7025 51.4756 10.2077 51.2021 9.87891C50.932 9.55013 50.6081 9.38574 50.2305 9.38574C49.8561 9.38574 49.5241 9.56152 49.2344 9.91309C48.9479 10.2614 48.8047 10.7692 48.8047 11.4365ZM56.959 13.3604C56.6335 13.637 56.3193 13.8324 56.0166 13.9463C55.7171 14.0602 55.3949 14.1172 55.0498 14.1172C54.4801 14.1172 54.0423 13.9788 53.7363 13.7021C53.4303 13.4222 53.2773 13.0658 53.2773 12.6328C53.2773 12.3789 53.3343 12.1478 53.4482 11.9395C53.5654 11.7279 53.7168 11.5586 53.9023 11.4316C54.0911 11.3047 54.3027 11.2087 54.5371 11.1436C54.7096 11.098 54.9701 11.054 55.3184 11.0117C56.028 10.9271 56.5505 10.8262 56.8857 10.709C56.889 10.5885 56.8906 10.512 56.8906 10.4795C56.8906 10.1214 56.8076 9.86914 56.6416 9.72266C56.417 9.52409 56.0833 9.4248 55.6406 9.4248C55.2272 9.4248 54.9212 9.49805 54.7227 9.64453C54.5273 9.78776 54.3825 10.0433 54.2881 10.4111L53.4287 10.2939C53.5068 9.92611 53.6354 9.62988 53.8145 9.40527C53.9935 9.17741 54.2523 9.00326 54.5908 8.88281C54.9294 8.75911 55.3216 8.69727 55.7676 8.69727C56.2103 8.69727 56.57 8.74935 56.8467 8.85352C57.1234 8.95768 57.3268 9.08952 57.457 9.24902C57.5872 9.40527 57.6784 9.60384 57.7305 9.84473C57.7598 9.99447 57.7744 10.2646 57.7744 10.6553V11.8271C57.7744 12.6442 57.7923 13.1618 57.8281 13.3799C57.8672 13.5947 57.9421 13.8014 58.0527 14H57.1348C57.0436 13.8177 56.985 13.6045 56.959 13.3604ZM56.8857 11.3975C56.5667 11.5277 56.0882 11.6383 55.4502 11.7295C55.0889 11.7816 54.8333 11.8402 54.6836 11.9053C54.5339 11.9704 54.4183 12.0664 54.3369 12.1934C54.2555 12.3171 54.2148 12.4554 54.2148 12.6084C54.2148 12.8428 54.3027 13.0381 54.4785 13.1943C54.6576 13.3506 54.918 13.4287 55.2598 13.4287C55.5983 13.4287 55.8994 13.3555 56.1631 13.209C56.4268 13.0592 56.6204 12.8558 56.7441 12.5986C56.8385 12.4001 56.8857 12.1071 56.8857 11.7197V11.3975ZM59.1465 7.85254V6.8418H60.0254V7.85254H59.1465ZM59.1465 14V8.81445H60.0254V14H59.1465ZM61.3682 14V8.81445H62.1592V9.55176C62.54 8.9821 63.0902 8.69727 63.8096 8.69727C64.1221 8.69727 64.4085 8.75423 64.6689 8.86816C64.9326 8.97884 65.1296 9.12533 65.2598 9.30762C65.39 9.48991 65.4811 9.70638 65.5332 9.95703C65.5658 10.1198 65.582 10.4046 65.582 10.8115V14H64.7031V10.8457C64.7031 10.4876 64.6689 10.2207 64.6006 10.0449C64.5322 9.86589 64.4102 9.72428 64.2344 9.62012C64.0618 9.5127 63.8584 9.45898 63.624 9.45898C63.2497 9.45898 62.9258 9.5778 62.6523 9.81543C62.3822 10.0531 62.2471 10.5039 62.2471 11.168V14H61.3682ZM68.8535 13.2139L68.9805 13.9902C68.7331 14.0423 68.5117 14.0684 68.3164 14.0684C67.9974 14.0684 67.75 14.0179 67.5742 13.917C67.3984 13.8161 67.2747 13.6842 67.2031 13.5215C67.1315 13.3555 67.0957 13.0088 67.0957 12.4814V9.49805H66.4512V8.81445H67.0957V7.53027L67.9697 7.00293V8.81445H68.8535V9.49805H67.9697V12.5303C67.9697 12.7809 67.9844 12.9421 68.0137 13.0137C68.0462 13.0853 68.0967 13.1423 68.165 13.1846C68.2367 13.2269 68.3376 13.248 68.4678 13.248C68.5654 13.248 68.694 13.2367 68.8535 13.2139Z" fill="#C4C6CA"/>
</g>
<rect width="32.0812" height="0.65625" transform="matrix(-1 0 0 1 53.3359 0)" fill="url(#paint3_radial_1336_1839)"/>
<defs>
<linearGradient id="paint0_linear_1336_1839" x1="15.9518" y1="1.3125" x2="92.0893" y2="20.4114" gradientUnits="userSpaceOnUse">
<stop stop-color="#EAEAEB"/>
<stop offset="1" stop-color="#9C81F2"/>
</linearGradient>
<radialGradient id="paint1_radial_1336_1839" cx="0" cy="0" r="1" gradientUnits="userSpaceOnUse" gradientTransform="translate(42 12.5) rotate(90) scale(12.5 42)">
<stop stop-color="#121212" stop-opacity="0.9"/>
<stop offset="1" stop-color="#121212" stop-opacity="0"/>
</radialGradient>
<radialGradient id="paint2_radial_1336_1839" cx="0" cy="0" r="1" gradientUnits="userSpaceOnUse" gradientTransform="translate(20 6) rotate(90) scale(6 20)">
<stop stop-color="#FA7C70" stop-opacity="0.21"/>
<stop offset="1" stop-color="#FA7C70" stop-opacity="0"/>
</radialGradient>
<radialGradient id="paint3_radial_1336_1839" cx="0" cy="0" r="1" gradientUnits="userSpaceOnUse" gradientTransform="translate(16.0406 0.328125) scale(17.0755 335.672)">
<stop stop-color="white" stop-opacity="0.9"/>
<stop offset="1" stop-color="white" stop-opacity="0"/>
</radialGradient>
<clipPath id="clip0_1336_1839">
<rect width="79" height="21" fill="white" transform="translate(15)"/>
</clipPath>
</defs>
</svg>
