<svg width="14" height="14" viewBox="0 0 14 14" fill="none" xmlns="http://www.w3.org/2000/svg">
<g clip-path="url(#clip0_760_5424)">
<rect width="14" height="14" rx="2" fill="#2A2D38" fill-opacity="0.5"/>
<rect x="0.3" y="0.3" width="13.4" height="13.4" rx="1.7" fill="#9D7FF5" fill-opacity="0.1" stroke="url(#paint0_linear_760_5424)" stroke-width="0.6"/>
<ellipse cx="7.5" cy="9" rx="12.5" ry="7" fill="url(#paint1_radial_760_5424)"/>
<rect width="8" height="0.6" fill="url(#paint2_radial_760_5424)"/>
<ellipse cx="4.5" cy="0.5" rx="4.5" ry="2.5" fill="url(#paint3_radial_760_5424)"/>
<path d="M9.82364 6.72256H7.31221V4.21112C7.31221 4.03853 7.17229 3.89862 6.99971 3.89862C6.82712 3.89862 6.68721 4.03853 6.68721 4.21112V6.72256H4.17578C4.00319 6.72256 3.86328 6.86247 3.86328 7.03506C3.86328 7.20764 4.00319 7.34756 4.17578 7.34756H6.68721V9.85898C6.68721 10.0316 6.82712 10.1715 6.99971 10.1715C7.17229 10.1715 7.31221 10.0316 7.31221 9.85898V7.34756H9.82364C9.99623 7.34756 10.1361 7.20764 10.1361 7.03506C10.1361 6.86247 9.99623 6.72256 9.82364 6.72256Z" fill="#C4C6CA"/>
</g>
<defs>
<linearGradient id="paint0_linear_760_5424" x1="-1.47157e-07" y1="3.5" x2="13.7403" y2="2.96418" gradientUnits="userSpaceOnUse">
<stop stop-color="white" stop-opacity="0.2"/>
<stop offset="1" stop-color="#9D7FF5" stop-opacity="0.5"/>
</linearGradient>
<radialGradient id="paint1_radial_760_5424" cx="0" cy="0" r="1" gradientUnits="userSpaceOnUse" gradientTransform="translate(7.5 9) rotate(90) scale(7 12.5)">
<stop stop-color="#121212" stop-opacity="0.5"/>
<stop offset="1" stop-color="#121212" stop-opacity="0"/>
</radialGradient>
<radialGradient id="paint2_radial_760_5424" cx="0" cy="0" r="1" gradientUnits="userSpaceOnUse" gradientTransform="translate(4 0.299999) scale(3.5 252.262)">
<stop stop-color="white" stop-opacity="0.16"/>
<stop offset="1" stop-color="white" stop-opacity="0"/>
</radialGradient>
<radialGradient id="paint3_radial_760_5424" cx="0" cy="0" r="1" gradientUnits="userSpaceOnUse" gradientTransform="translate(4.5 0.5) rotate(90) scale(2.5 4.5)">
<stop stop-color="#FA7C70" stop-opacity="0.21"/>
<stop offset="1" stop-color="#FA7C70" stop-opacity="0"/>
</radialGradient>
<clipPath id="clip0_760_5424">
<rect width="14" height="14" rx="2" fill="white"/>
</clipPath>
</defs>
</svg>
