<svg width="95" height="24" viewBox="0 0 95 24" fill="none" xmlns="http://www.w3.org/2000/svg">
<g clip-path="url(#clip0_1336_15487)">
<rect width="95" height="24" rx="4" fill="#2A2D38"/>
<rect x="0.5" y="0.5" width="94" height="23" rx="3.5" fill="#9C81F2" fill-opacity="0.1" stroke="url(#paint0_linear_1336_15487)"/>
<ellipse cx="49" cy="13" rx="54" ry="13" fill="url(#paint1_radial_1336_15487)"/>
<rect x="4" width="35" height="1" fill="url(#paint2_radial_1336_15487)"/>
<ellipse cx="21.5" rx="29.5" ry="5" fill="url(#paint3_radial_1336_15487)"/>
<path d="M25.4941 13.4702L26.4771 13.3843C26.5236 13.7782 26.631 14.1022 26.7993 14.3564C26.9712 14.6071 27.2362 14.8112 27.5942 14.9688C27.9523 15.1227 28.3551 15.1997 28.8027 15.1997C29.2002 15.1997 29.5511 15.1406 29.8555 15.0225C30.1598 14.9043 30.3854 14.7432 30.5322 14.5391C30.6826 14.3314 30.7578 14.1058 30.7578 13.8623C30.7578 13.6152 30.6862 13.4004 30.543 13.2178C30.3997 13.0316 30.1634 12.8758 29.834 12.7505C29.6227 12.6681 29.1554 12.541 28.4321 12.3691C27.7088 12.1937 27.2021 12.029 26.9121 11.875C26.5361 11.6781 26.255 11.4346 26.0688 11.1445C25.8862 10.8509 25.7949 10.5233 25.7949 10.1616C25.7949 9.76416 25.9077 9.39355 26.1333 9.0498C26.3589 8.70247 26.6883 8.43929 27.1216 8.26025C27.5549 8.08122 28.0365 7.9917 28.5664 7.9917C29.1501 7.9917 29.6639 8.08659 30.1079 8.27637C30.5555 8.46257 30.8993 8.73828 31.1392 9.10352C31.3791 9.46875 31.508 9.88232 31.5259 10.3442L30.5269 10.4194C30.4731 9.92171 30.2905 9.54574 29.979 9.2915C29.6711 9.03727 29.2145 8.91016 28.6094 8.91016C27.9792 8.91016 27.519 9.02653 27.229 9.25928C26.9425 9.48844 26.7993 9.76595 26.7993 10.0918C26.7993 10.3747 26.9014 10.6074 27.1055 10.79C27.306 10.9727 27.8288 11.1606 28.6738 11.354C29.5225 11.5438 30.1043 11.7103 30.4194 11.8535C30.8778 12.0648 31.2161 12.3333 31.4346 12.6592C31.653 12.9814 31.7622 13.3538 31.7622 13.7764C31.7622 14.1953 31.6423 14.591 31.4023 14.9634C31.1624 15.3322 30.8169 15.6204 30.3657 15.8281C29.9181 16.0322 29.4132 16.1343 28.8511 16.1343C28.1385 16.1343 27.5405 16.0304 27.0571 15.8228C26.5773 15.6151 26.1995 15.3035 25.9238 14.8882C25.6517 14.4692 25.5085 13.9966 25.4941 13.4702ZM36.7842 13.9106L37.7349 14.0342C37.631 14.6895 37.3643 15.2033 36.9346 15.5757C36.5085 15.9445 35.9839 16.1289 35.3608 16.1289C34.5802 16.1289 33.9518 15.8747 33.4756 15.3662C33.0029 14.8542 32.7666 14.1219 32.7666 13.1694C32.7666 12.5535 32.8687 12.0146 33.0728 11.5527C33.2769 11.0908 33.5866 10.7453 34.002 10.5161C34.4209 10.2834 34.8757 10.167 35.3662 10.167C35.9857 10.167 36.4924 10.3245 36.8862 10.6396C37.2801 10.9512 37.5326 11.3952 37.6436 11.9717L36.7036 12.1167C36.6141 11.7336 36.4548 11.4453 36.2256 11.252C36 11.0586 35.7261 10.9619 35.4038 10.9619C34.9168 10.9619 34.5212 11.1374 34.2168 11.4883C33.9124 11.8356 33.7603 12.387 33.7603 13.1426C33.7603 13.9089 33.9071 14.4657 34.2007 14.813C34.4943 15.1603 34.8774 15.334 35.3501 15.334C35.7297 15.334 36.0465 15.2176 36.3008 14.9849C36.555 14.7521 36.7161 14.394 36.7842 13.9106ZM38.5513 16V10.2959H39.4214V11.1606C39.6434 10.756 39.8475 10.4893 40.0337 10.3604C40.2235 10.2314 40.4312 10.167 40.6567 10.167C40.9826 10.167 41.3138 10.2708 41.6504 10.4785L41.3174 11.3755C41.0811 11.2358 40.8447 11.166 40.6084 11.166C40.3971 11.166 40.2074 11.2305 40.0391 11.3594C39.8708 11.4847 39.7508 11.6602 39.6792 11.8857C39.5718 12.2295 39.5181 12.6055 39.5181 13.0137V16H38.5513ZM42.2305 9.23779V8.12598H43.1973V9.23779H42.2305ZM42.2305 16V10.2959H43.1973V16H42.2305ZM44.6743 18.186V10.2959H45.5552V11.0371C45.7629 10.7471 45.9974 10.5304 46.2588 10.3872C46.5202 10.2404 46.8371 10.167 47.2095 10.167C47.6965 10.167 48.1261 10.2923 48.4985 10.543C48.8709 10.7936 49.152 11.1481 49.3418 11.6064C49.5316 12.0612 49.6265 12.5607 49.6265 13.105C49.6265 13.6886 49.5208 14.215 49.3096 14.6841C49.1019 15.1496 48.7975 15.5076 48.3965 15.7583C47.999 16.0054 47.5801 16.1289 47.1396 16.1289C46.8174 16.1289 46.5273 16.0609 46.2695 15.9248C46.0153 15.7887 45.8058 15.6169 45.6411 15.4092V18.186H44.6743ZM45.5498 13.1802C45.5498 13.9142 45.6984 14.4567 45.9956 14.8076C46.2928 15.1585 46.6527 15.334 47.0752 15.334C47.5049 15.334 47.8719 15.1532 48.1763 14.7915C48.4842 14.4263 48.6382 13.8623 48.6382 13.0996C48.6382 12.3727 48.4878 11.8285 48.187 11.4668C47.8898 11.1051 47.5335 10.9243 47.1182 10.9243C46.7064 10.9243 46.3411 11.1177 46.0225 11.5044C45.7074 11.8875 45.5498 12.4461 45.5498 13.1802ZM52.9082 15.1353L53.0479 15.9893C52.7757 16.0465 52.5322 16.0752 52.3174 16.0752C51.9665 16.0752 51.6943 16.0197 51.501 15.9087C51.3076 15.7977 51.1715 15.6527 51.0928 15.4736C51.014 15.291 50.9746 14.9097 50.9746 14.3296V11.0479H50.2656V10.2959H50.9746V8.8833L51.936 8.30322V10.2959H52.9082V11.0479H51.936V14.3833C51.936 14.659 51.9521 14.8363 51.9844 14.915C52.0202 14.9938 52.0757 15.0565 52.1509 15.103C52.2297 15.1496 52.3407 15.1729 52.4839 15.1729C52.5913 15.1729 52.7327 15.1603 52.9082 15.1353ZM57.0654 16V8.12598H62.7588V9.05518H58.1074V11.4668H62.4634V12.3906H58.1074V15.0708H62.9414V16H57.0654ZM67.958 16V15.2803C67.5964 15.846 67.0646 16.1289 66.3628 16.1289C65.908 16.1289 65.4891 16.0036 65.106 15.7529C64.7264 15.5023 64.431 15.1532 64.2197 14.7056C64.012 14.2544 63.9082 13.737 63.9082 13.1533C63.9082 12.584 64.0031 12.0684 64.1929 11.6064C64.3826 11.141 64.6673 10.7847 65.0469 10.5376C65.4264 10.2905 65.8507 10.167 66.3198 10.167C66.6636 10.167 66.9697 10.2404 67.2383 10.3872C67.5068 10.5304 67.7253 10.7184 67.8936 10.9512V8.12598H68.855V16H67.958ZM64.9019 13.1533C64.9019 13.8838 65.0558 14.4299 65.3638 14.7915C65.6717 15.1532 66.0352 15.334 66.4541 15.334C66.8766 15.334 67.2347 15.1621 67.5283 14.8184C67.8255 14.471 67.9741 13.9429 67.9741 13.2339C67.9741 12.4533 67.8237 11.8804 67.5229 11.5151C67.2222 11.1499 66.8516 10.9673 66.4111 10.9673C65.9814 10.9673 65.6216 11.1427 65.3315 11.4937C65.0451 11.8446 64.9019 12.3978 64.9019 13.1533ZM70.3857 9.23779V8.12598H71.3525V9.23779H70.3857ZM70.3857 16V10.2959H71.3525V16H70.3857ZM74.9404 15.1353L75.0801 15.9893C74.8079 16.0465 74.5645 16.0752 74.3496 16.0752C73.9987 16.0752 73.7266 16.0197 73.5332 15.9087C73.3398 15.7977 73.2038 15.6527 73.125 15.4736C73.0462 15.291 73.0068 14.9097 73.0068 14.3296V11.0479H72.2979V10.2959H73.0068V8.8833L73.9683 8.30322V10.2959H74.9404V11.0479H73.9683V14.3833C73.9683 14.659 73.9844 14.8363 74.0166 14.915C74.0524 14.9938 74.1079 15.0565 74.1831 15.103C74.2619 15.1496 74.3729 15.1729 74.5161 15.1729C74.6235 15.1729 74.765 15.1603 74.9404 15.1353ZM75.5312 13.1479C75.5312 12.0916 75.8249 11.3092 76.4121 10.8008C76.9027 10.3783 77.5007 10.167 78.2061 10.167C78.9902 10.167 79.6312 10.4248 80.1289 10.9404C80.6266 11.4525 80.8755 12.1615 80.8755 13.0674C80.8755 13.8014 80.7645 14.3797 80.5425 14.8022C80.3241 15.2212 80.0036 15.547 79.5811 15.7798C79.1621 16.0125 78.7038 16.1289 78.2061 16.1289C77.4076 16.1289 76.7612 15.8729 76.2671 15.3608C75.7765 14.8488 75.5312 14.1112 75.5312 13.1479ZM76.5249 13.1479C76.5249 13.8784 76.6842 14.4263 77.0029 14.7915C77.3216 15.1532 77.7227 15.334 78.2061 15.334C78.6859 15.334 79.0851 15.1514 79.4038 14.7861C79.7225 14.4209 79.8818 13.8641 79.8818 13.1157C79.8818 12.4103 79.7207 11.8768 79.3984 11.5151C79.0798 11.1499 78.6823 10.9673 78.2061 10.9673C77.7227 10.9673 77.3216 11.1481 77.0029 11.5098C76.6842 11.8714 76.5249 12.4175 76.5249 13.1479ZM82.0034 16V10.2959H82.8735V11.1606C83.0955 10.756 83.2996 10.4893 83.4858 10.3604C83.6756 10.2314 83.8833 10.167 84.1089 10.167C84.4347 10.167 84.766 10.2708 85.1025 10.4785L84.7695 11.3755C84.5332 11.2358 84.2969 11.166 84.0605 11.166C83.8493 11.166 83.6595 11.2305 83.4912 11.3594C83.3229 11.4847 83.203 11.6602 83.1313 11.8857C83.0239 12.2295 82.9702 12.6055 82.9702 13.0137V16H82.0034Z" fill="white" fill-opacity="0.8"/>
<path d="M12.3588 14.843C12.2667 14.8414 12.1783 14.8098 12.1097 14.754L9.12832 12.317C9.08777 12.2859 9.05526 12.247 9.03309 12.2033C9.01091 12.1595 8.99962 12.1118 9.00001 12.0637C9.00622 11.9676 9.05202 11.8772 9.12832 11.8104L12.1474 9.42809C12.1842 9.39608 12.2277 9.37115 12.2753 9.3548C12.323 9.33845 12.3738 9.33103 12.4247 9.33296C12.4756 9.3349 12.5255 9.34616 12.5715 9.36608C12.6175 9.38599 12.6585 9.41414 12.6922 9.44882C12.7258 9.48351 12.7514 9.52402 12.7673 9.56791C12.7832 9.6118 12.7892 9.65815 12.7849 9.70419C12.7805 9.75023 12.7659 9.79499 12.742 9.83578C12.718 9.87656 12.6853 9.91253 12.6456 9.94152L9.95103 12.0637L12.6154 14.2611C12.6508 14.293 12.6788 14.3308 12.698 14.3725C12.7172 14.4142 12.727 14.459 12.727 14.5042C12.727 14.5494 12.7172 14.5941 12.698 14.6358C12.6788 14.6775 12.6508 14.7154 12.6154 14.7472C12.5464 14.8075 12.4546 14.8418 12.3588 14.843ZM17.5743 14.843C17.5214 14.8421 17.4693 14.8312 17.4213 14.8112C17.3732 14.7912 17.3302 14.7624 17.295 14.7267C17.2254 14.6615 17.1864 14.5744 17.1864 14.4836C17.1864 14.3929 17.2254 14.3057 17.295 14.2406L19.9594 12.0637L17.3252 9.94152C17.2898 9.9097 17.2617 9.87184 17.2426 9.83013C17.2234 9.78842 17.2136 9.74368 17.2136 9.69849C17.2136 9.65331 17.2234 9.60857 17.2426 9.56686C17.2617 9.52515 17.2898 9.48729 17.3252 9.45547C17.3596 9.4236 17.4007 9.39827 17.4461 9.38098C17.4914 9.3637 17.5402 9.35479 17.5894 9.35479C17.6386 9.35479 17.6873 9.3637 17.7326 9.38098C17.778 9.39827 17.8191 9.4236 17.8535 9.45547L20.8726 11.8378C20.9126 11.8693 20.9447 11.9082 20.9667 11.9519C20.9886 11.9956 21 12.043 21 12.0911C21 12.1391 20.9886 12.1866 20.9667 12.2303C20.9447 12.274 20.9126 12.3129 20.8726 12.3444L17.8988 14.7814C17.8523 14.8114 17.7995 14.8323 17.7436 14.8429C17.6878 14.8535 17.6301 14.8535 17.5743 14.843ZM14.1551 16H14.0947C14.0022 15.9834 13.9195 15.9367 13.8625 15.8685C13.8054 15.8004 13.778 15.7156 13.7853 15.6303L15.1137 8.28486C15.1321 8.19564 15.1881 8.11644 15.2698 8.06404C15.3516 8.01164 15.4526 7.99017 15.5515 8.00419C15.6003 8.01081 15.6472 8.02625 15.6894 8.04959C15.7315 8.07293 15.7681 8.10369 15.797 8.14006C15.8258 8.17643 15.8463 8.21767 15.8573 8.26136C15.8683 8.30504 15.8695 8.35027 15.8609 8.39439L14.5325 15.7193C14.5164 15.799 14.4697 15.871 14.4006 15.9224C14.3315 15.9738 14.2445 16.0013 14.1551 16Z" fill="#D4D4D7"/>
</g>
<defs>
<linearGradient id="paint0_linear_1336_15487" x1="-9.98565e-07" y1="5.99999" x2="91.2061" y2="-8.07848" gradientUnits="userSpaceOnUse">
<stop stop-color="white" stop-opacity="0.2"/>
<stop offset="1" stop-color="#9C81F2" stop-opacity="0.5"/>
</linearGradient>
<radialGradient id="paint1_radial_1336_15487" cx="0" cy="0" r="1" gradientUnits="userSpaceOnUse" gradientTransform="translate(49 13) rotate(90) scale(13 54)">
<stop stop-color="#121212" stop-opacity="0.5"/>
<stop offset="1" stop-color="#121212" stop-opacity="0"/>
</radialGradient>
<radialGradient id="paint2_radial_1336_15487" cx="0" cy="0" r="1" gradientUnits="userSpaceOnUse" gradientTransform="translate(21.5 0.5) scale(18.629 511.5)">
<stop stop-color="white" stop-opacity="0.7"/>
<stop offset="1" stop-color="white" stop-opacity="0"/>
</radialGradient>
<radialGradient id="paint3_radial_1336_15487" cx="0" cy="0" r="1" gradientUnits="userSpaceOnUse" gradientTransform="translate(21.5) rotate(90) scale(5 29.5)">
<stop stop-color="#F5857A" stop-opacity="0.21"/>
<stop offset="1" stop-color="#F5857A" stop-opacity="0"/>
</radialGradient>
<clipPath id="clip0_1336_15487">
<rect width="95" height="24" rx="4" fill="white"/>
</clipPath>
</defs>
</svg>
