<svg width="23" height="24" viewBox="0 0 23 24" fill="none" xmlns="http://www.w3.org/2000/svg">
<g filter="url(#filter0_d_737_4652)">
<path d="M18.1517 9.3335C19.4879 10.0983 19.4951 12.0228 18.1646 12.7976L4.61239 20.6896C3.28194 21.4644 1.61169 20.5084 1.60594 18.9688L1.54735 3.28619C1.5416 1.7466 3.20466 0.778123 4.54086 1.54294L18.1517 9.3335Z" fill="url(#paint0_linear_737_4652)" shape-rendering="crispEdges"/>
<path d="M18.0523 9.50708C19.2549 10.1954 19.2614 11.9275 18.064 12.6248L4.51175 20.5168C3.31434 21.2141 1.81112 20.3537 1.80594 18.9681L1.74735 3.28544C1.74217 1.89981 3.23893 1.02818 4.4415 1.71651L18.0523 9.50708Z" stroke="url(#paint1_linear_737_4652)" stroke-width="0.4" shape-rendering="crispEdges"/>
</g>
<defs>
<filter id="filter0_d_737_4652" x="0.546875" y="0.275696" width="21.6094" height="23.6886" filterUnits="userSpaceOnUse" color-interpolation-filters="sRGB">
<feFlood flood-opacity="0" result="BackgroundImageFix"/>
<feColorMatrix in="SourceAlpha" type="matrix" values="0 0 0 0 0 0 0 0 0 0 0 0 0 0 0 0 0 0 127 0" result="hardAlpha"/>
<feOffset dx="1" dy="1"/>
<feGaussianBlur stdDeviation="1"/>
<feComposite in2="hardAlpha" operator="out"/>
<feColorMatrix type="matrix" values="0 0 0 0 0 0 0 0 0 0 0 0 0 0 0 0 0 0 0.57 0"/>
<feBlend mode="normal" in2="BackgroundImageFix" result="effect1_dropShadow_737_4652"/>
<feBlend mode="normal" in="SourceGraphic" in2="effect1_dropShadow_737_4652" result="shape"/>
</filter>
<linearGradient id="paint0_linear_737_4652" x1="2.5" y1="2" x2="12.5" y2="15.5" gradientUnits="userSpaceOnUse">
<stop stop-color="white" stop-opacity="0.88"/>
<stop offset="1" stop-color="#9C81F2"/>
</linearGradient>
<linearGradient id="paint1_linear_737_4652" x1="13.5" y1="17" x2="2.5" y2="1" gradientUnits="userSpaceOnUse">
<stop stop-color="#9C81F2"/>
<stop offset="1" stop-color="white" stop-opacity="0.8"/>
</linearGradient>
</defs>
</svg>
