<svg width="95" height="24" viewBox="0 0 95 24" fill="none" xmlns="http://www.w3.org/2000/svg">
<g clip-path="url(#clip0_760_2368)">
<rect width="95" height="24" rx="4" fill="#2A2D38"/>
<rect x="0.5" y="0.5" width="94" height="23" rx="3.5" fill="#F5857A" fill-opacity="0.13" stroke="url(#paint0_linear_760_2368)"/>
<ellipse cx="50" cy="10" rx="75" ry="17" fill="url(#paint1_radial_760_2368)"/>
<rect x="4" width="84" height="1" fill="url(#paint2_radial_760_2368)"/>
<ellipse cx="46" rx="50" ry="5" fill="url(#paint3_radial_760_2368)"/>
<path d="M32.5391 13.2402L33.6113 13.1465C33.6621 13.5762 33.7793 13.9297 33.9629 14.207C34.1504 14.4805 34.4395 14.7031 34.8301 14.875C35.2207 15.043 35.6602 15.127 36.1484 15.127C36.582 15.127 36.9648 15.0625 37.2969 14.9336C37.6289 14.8047 37.875 14.6289 38.0352 14.4062C38.1992 14.1797 38.2812 13.9336 38.2812 13.668C38.2812 13.3984 38.2031 13.1641 38.0469 12.9648C37.8906 12.7617 37.6328 12.5918 37.2734 12.4551C37.043 12.3652 36.5332 12.2266 35.7441 12.0391C34.9551 11.8477 34.4023 11.668 34.0859 11.5C33.6758 11.2852 33.3691 11.0195 33.166 10.7031C32.9668 10.3828 32.8672 10.0254 32.8672 9.63086C32.8672 9.19727 32.9902 8.79297 33.2363 8.41797C33.4824 8.03906 33.8418 7.75195 34.3145 7.55664C34.7871 7.36133 35.3125 7.26367 35.8906 7.26367C36.5273 7.26367 37.0879 7.36719 37.5723 7.57422C38.0605 7.77734 38.4355 8.07812 38.6973 8.47656C38.959 8.875 39.0996 9.32617 39.1191 9.83008L38.0293 9.91211C37.9707 9.36914 37.7715 8.95898 37.4316 8.68164C37.0957 8.4043 36.5977 8.26562 35.9375 8.26562C35.25 8.26562 34.748 8.39258 34.4316 8.64648C34.1191 8.89648 33.9629 9.19922 33.9629 9.55469C33.9629 9.86328 34.0742 10.1172 34.2969 10.3164C34.5156 10.5156 35.0859 10.7207 36.0078 10.9316C36.9336 11.1387 37.5684 11.3203 37.9121 11.4766C38.4121 11.707 38.7812 12 39.0195 12.3555C39.2578 12.707 39.377 13.1133 39.377 13.5742C39.377 14.0312 39.2461 14.4629 38.9844 14.8691C38.7227 15.2715 38.3457 15.5859 37.8535 15.8125C37.3652 16.0352 36.8145 16.1465 36.2012 16.1465C35.4238 16.1465 34.7715 16.0332 34.2441 15.8066C33.7207 15.5801 33.3086 15.2402 33.0078 14.7871C32.7109 14.3301 32.5547 13.8145 32.5391 13.2402ZM44.8555 15.2324C44.4648 15.5645 44.0879 15.7988 43.7246 15.9355C43.3652 16.0723 42.9785 16.1406 42.5645 16.1406C41.8809 16.1406 41.3555 15.9746 40.9883 15.6426C40.6211 15.3066 40.4375 14.8789 40.4375 14.3594C40.4375 14.0547 40.5059 13.7773 40.6426 13.5273C40.7832 13.2734 40.9648 13.0703 41.1875 12.918C41.4141 12.7656 41.668 12.6504 41.9492 12.5723C42.1562 12.5176 42.4688 12.4648 42.8867 12.4141C43.7383 12.3125 44.3652 12.1914 44.7676 12.0508C44.7715 11.9062 44.7734 11.8145 44.7734 11.7754C44.7734 11.3457 44.6738 11.043 44.4746 10.8672C44.2051 10.6289 43.8047 10.5098 43.2734 10.5098C42.7773 10.5098 42.4102 10.5977 42.1719 10.7734C41.9375 10.9453 41.7637 11.252 41.6504 11.6934L40.6191 11.5527C40.7129 11.1113 40.8672 10.7559 41.082 10.4863C41.2969 10.2129 41.6074 10.0039 42.0137 9.85938C42.4199 9.71094 42.8906 9.63672 43.4258 9.63672C43.957 9.63672 44.3887 9.69922 44.7207 9.82422C45.0527 9.94922 45.2969 10.1074 45.4531 10.2988C45.6094 10.4863 45.7188 10.7246 45.7812 11.0137C45.8164 11.1934 45.834 11.5176 45.834 11.9863V13.3926C45.834 14.373 45.8555 14.9941 45.8984 15.2559C45.9453 15.5137 46.0352 15.7617 46.168 16H45.0664C44.957 15.7812 44.8867 15.5254 44.8555 15.2324ZM44.7676 12.877C44.3848 13.0332 43.8105 13.166 43.0449 13.2754C42.6113 13.3379 42.3047 13.4082 42.125 13.4863C41.9453 13.5645 41.8066 13.6797 41.709 13.832C41.6113 13.9805 41.5625 14.1465 41.5625 14.3301C41.5625 14.6113 41.668 14.8457 41.8789 15.0332C42.0938 15.2207 42.4062 15.3145 42.8164 15.3145C43.2227 15.3145 43.584 15.2266 43.9004 15.0508C44.2168 14.8711 44.4492 14.627 44.5977 14.3184C44.7109 14.0801 44.7676 13.7285 44.7676 13.2637V12.877ZM49.2031 16L46.8359 9.77734H47.9492L49.2852 13.5039C49.4297 13.9062 49.5625 14.3242 49.6836 14.7578C49.7773 14.4297 49.9082 14.0352 50.0762 13.5742L51.459 9.77734H52.543L50.1875 16H49.2031ZM57.7344 13.9961L58.8242 14.1309C58.6523 14.7676 58.334 15.2617 57.8691 15.6133C57.4043 15.9648 56.8105 16.1406 56.0879 16.1406C55.1777 16.1406 54.4551 15.8613 53.9199 15.3027C53.3887 14.7402 53.123 13.9531 53.123 12.9414C53.123 11.8945 53.3926 11.082 53.9316 10.5039C54.4707 9.92578 55.1699 9.63672 56.0293 9.63672C56.8613 9.63672 57.541 9.91992 58.0684 10.4863C58.5957 11.0527 58.8594 11.8496 58.8594 12.877C58.8594 12.9395 58.8574 13.0332 58.8535 13.1582H54.2129C54.252 13.8418 54.4453 14.3652 54.793 14.7285C55.1406 15.0918 55.5742 15.2734 56.0938 15.2734C56.4805 15.2734 56.8105 15.1719 57.084 14.9688C57.3574 14.7656 57.5742 14.4414 57.7344 13.9961ZM54.2715 12.291H57.7461C57.6992 11.7676 57.5664 11.375 57.3477 11.1133C57.0117 10.707 56.5762 10.5039 56.041 10.5039C55.5566 10.5039 55.1484 10.666 54.8164 10.9902C54.4883 11.3145 54.3066 11.748 54.2715 12.291Z" fill="white" fill-opacity="0.8"/>
</g>
<defs>
<linearGradient id="paint0_linear_760_2368" x1="-7.15985e-06" y1="8.62498" x2="85.9588" y2="-17.6164" gradientUnits="userSpaceOnUse">
<stop stop-color="white" stop-opacity="0.1"/>
<stop offset="0.307292" stop-color="#F5857A"/>
<stop offset="0.703125" stop-color="#9C81F2"/>
<stop offset="0.994792" stop-color="white" stop-opacity="0.1"/>
</linearGradient>
<radialGradient id="paint1_radial_760_2368" cx="0" cy="0" r="1" gradientUnits="userSpaceOnUse" gradientTransform="translate(50 10) rotate(90) scale(17 75)">
<stop stop-color="#121212" stop-opacity="0.9"/>
<stop offset="1" stop-color="#121212" stop-opacity="0"/>
</radialGradient>
<radialGradient id="paint2_radial_760_2368" cx="0" cy="0" r="1" gradientUnits="userSpaceOnUse" gradientTransform="translate(46 0.5) scale(44.7097 511.5)">
<stop stop-color="white" stop-opacity="0.9"/>
<stop offset="1" stop-color="white" stop-opacity="0"/>
</radialGradient>
<radialGradient id="paint3_radial_760_2368" cx="0" cy="0" r="1" gradientUnits="userSpaceOnUse" gradientTransform="translate(46) rotate(90) scale(5 50)">
<stop stop-color="#F5857A" stop-opacity="0.21"/>
<stop offset="1" stop-color="#F5857A" stop-opacity="0"/>
</radialGradient>
<clipPath id="clip0_760_2368">
<rect width="95" height="24" rx="4" fill="white"/>
</clipPath>
</defs>
</svg>
