<svg width="194" height="24" viewBox="0 0 194 24" fill="none" xmlns="http://www.w3.org/2000/svg">
<g clip-path="url(#clip0_760_1584)">
<rect width="194" height="24" rx="4" fill="#2A2D38"/>
<rect x="0.5" y="0.5" width="193" height="23" rx="3.5" fill="#9C81F2" fill-opacity="0.1" stroke="url(#paint0_linear_760_1584)"/>
<ellipse cx="101.5" cy="13" rx="106.5" ry="13" fill="url(#paint1_radial_760_1584)"/>
<rect x="4" width="53" height="0.8" fill="url(#paint2_radial_760_1584)"/>
<ellipse cx="26.5" rx="34.5" ry="5" fill="url(#paint3_radial_760_1584)"/>
<path d="M69.4941 13.4702L70.4771 13.3843C70.5236 13.7782 70.631 14.1022 70.7993 14.3564C70.9712 14.6071 71.2362 14.8112 71.5942 14.9688C71.9523 15.1227 72.3551 15.1997 72.8027 15.1997C73.2002 15.1997 73.5511 15.1406 73.8555 15.0225C74.1598 14.9043 74.3854 14.7432 74.5322 14.5391C74.6826 14.3314 74.7578 14.1058 74.7578 13.8623C74.7578 13.6152 74.6862 13.4004 74.543 13.2178C74.3997 13.0316 74.1634 12.8758 73.834 12.7505C73.6227 12.6681 73.1554 12.541 72.4321 12.3691C71.7088 12.1937 71.2021 12.029 70.9121 11.875C70.5361 11.6781 70.255 11.4346 70.0688 11.1445C69.8862 10.8509 69.7949 10.5233 69.7949 10.1616C69.7949 9.76416 69.9077 9.39355 70.1333 9.0498C70.3589 8.70247 70.6883 8.43929 71.1216 8.26025C71.5549 8.08122 72.0365 7.9917 72.5664 7.9917C73.1501 7.9917 73.6639 8.08659 74.1079 8.27637C74.5555 8.46257 74.8993 8.73828 75.1392 9.10352C75.3791 9.46875 75.508 9.88232 75.5259 10.3442L74.5269 10.4194C74.4731 9.92171 74.2905 9.54574 73.979 9.2915C73.6711 9.03727 73.2145 8.91016 72.6094 8.91016C71.9792 8.91016 71.519 9.02653 71.229 9.25928C70.9425 9.48844 70.7993 9.76595 70.7993 10.0918C70.7993 10.3747 70.9014 10.6074 71.1055 10.79C71.306 10.9727 71.8288 11.1606 72.6738 11.354C73.5225 11.5438 74.1043 11.7103 74.4194 11.8535C74.8778 12.0648 75.2161 12.3333 75.4346 12.6592C75.653 12.9814 75.7622 13.3538 75.7622 13.7764C75.7622 14.1953 75.6423 14.591 75.4023 14.9634C75.1624 15.3322 74.8169 15.6204 74.3657 15.8281C73.9181 16.0322 73.4132 16.1343 72.8511 16.1343C72.1385 16.1343 71.5405 16.0304 71.0571 15.8228C70.5773 15.6151 70.1995 15.3035 69.9238 14.8882C69.6517 14.4692 69.5085 13.9966 69.4941 13.4702ZM79.1729 15.1353L79.3125 15.9893C79.0404 16.0465 78.7969 16.0752 78.582 16.0752C78.2311 16.0752 77.959 16.0197 77.7656 15.9087C77.5723 15.7977 77.4362 15.6527 77.3574 15.4736C77.2786 15.291 77.2393 14.9097 77.2393 14.3296V11.0479H76.5303V10.2959H77.2393V8.8833L78.2007 8.30322V10.2959H79.1729V11.0479H78.2007V14.3833C78.2007 14.659 78.2168 14.8363 78.249 14.915C78.2848 14.9938 78.3403 15.0565 78.4155 15.103C78.4943 15.1496 78.6053 15.1729 78.7485 15.1729C78.856 15.1729 78.9974 15.1603 79.1729 15.1353ZM83.8457 15.2964C83.4876 15.6007 83.1421 15.8156 82.8091 15.9409C82.4797 16.0662 82.1252 16.1289 81.7456 16.1289C81.119 16.1289 80.6374 15.9767 80.3008 15.6724C79.9642 15.3644 79.7959 14.9723 79.7959 14.4961C79.7959 14.2168 79.8586 13.9626 79.9839 13.7334C80.1128 13.5007 80.2793 13.3145 80.4834 13.1748C80.6911 13.0352 80.9238 12.9295 81.1816 12.8579C81.3714 12.8078 81.6579 12.7594 82.041 12.7129C82.8216 12.6198 83.3963 12.5088 83.7651 12.3799C83.7687 12.2474 83.7705 12.1632 83.7705 12.1274C83.7705 11.7336 83.6792 11.4561 83.4966 11.2949C83.2495 11.0765 82.8825 10.9673 82.3955 10.9673C81.9408 10.9673 81.6042 11.0479 81.3857 11.209C81.1709 11.3665 81.0116 11.6476 80.9077 12.0522L79.9624 11.9233C80.0483 11.5187 80.1898 11.1929 80.3867 10.9458C80.5837 10.6951 80.8683 10.5036 81.2407 10.3711C81.6131 10.235 82.0446 10.167 82.5352 10.167C83.0221 10.167 83.4178 10.2243 83.7222 10.3389C84.0265 10.4535 84.2503 10.5985 84.3936 10.7739C84.5368 10.9458 84.637 11.1642 84.6943 11.4292C84.7266 11.5939 84.7427 11.8911 84.7427 12.3208V13.6099C84.7427 14.5086 84.7624 15.078 84.8018 15.3179C84.8447 15.5542 84.9271 15.7816 85.0488 16H84.0391C83.9388 15.7995 83.8743 15.5649 83.8457 15.2964ZM83.7651 13.1372C83.4142 13.2804 82.8879 13.4022 82.186 13.5024C81.7886 13.5597 81.5075 13.6242 81.3428 13.6958C81.1781 13.7674 81.0509 13.873 80.9614 14.0127C80.8719 14.1488 80.8271 14.3009 80.8271 14.4692C80.8271 14.7271 80.9238 14.9419 81.1172 15.1138C81.3141 15.2856 81.6006 15.3716 81.9766 15.3716C82.349 15.3716 82.6802 15.291 82.9702 15.1299C83.2603 14.9652 83.4733 14.7414 83.6094 14.4585C83.7132 14.2401 83.7651 13.9178 83.7651 13.4917V13.1372ZM87.1382 16H86.2412V8.12598H87.208V10.9351C87.6162 10.423 88.1372 10.167 88.771 10.167C89.1219 10.167 89.4531 10.2386 89.7646 10.3818C90.0798 10.5215 90.3376 10.7202 90.5381 10.978C90.7422 11.2323 90.9015 11.5402 91.0161 11.9019C91.1307 12.2635 91.188 12.6502 91.188 13.062C91.188 14.0396 90.9463 14.7951 90.4629 15.3286C89.9795 15.8621 89.3994 16.1289 88.7227 16.1289C88.0495 16.1289 87.5213 15.8478 87.1382 15.2856V16ZM87.1274 13.105C87.1274 13.7889 87.2205 14.283 87.4067 14.5874C87.7111 15.0851 88.1229 15.334 88.6421 15.334C89.0646 15.334 89.4299 15.1514 89.7378 14.7861C90.0457 14.4173 90.1997 13.8695 90.1997 13.1426C90.1997 12.3978 90.0511 11.8481 89.7539 11.4937C89.4603 11.1392 89.104 10.9619 88.6851 10.9619C88.2625 10.9619 87.8973 11.1463 87.5894 11.5151C87.2814 11.8804 87.1274 12.4103 87.1274 13.105ZM92.3481 16V8.12598H93.3149V16H92.3481ZM98.7236 14.1631L99.7227 14.2866C99.5651 14.8703 99.2733 15.3232 98.8472 15.6455C98.4211 15.9678 97.8768 16.1289 97.2144 16.1289C96.38 16.1289 95.7176 15.8729 95.2271 15.3608C94.7401 14.8452 94.4966 14.1237 94.4966 13.1963C94.4966 12.2367 94.7437 11.4919 95.2378 10.9619C95.7319 10.432 96.3729 10.167 97.1606 10.167C97.9233 10.167 98.5464 10.4266 99.0298 10.9458C99.5132 11.465 99.7549 12.1955 99.7549 13.1372C99.7549 13.1945 99.7531 13.2804 99.7495 13.395H95.4956C95.5314 14.0216 95.7087 14.5015 96.0273 14.8345C96.346 15.1675 96.7435 15.334 97.2197 15.334C97.5742 15.334 97.8768 15.2409 98.1274 15.0547C98.3781 14.8685 98.5768 14.5713 98.7236 14.1631ZM95.5493 12.6001H98.7344C98.6914 12.1203 98.5697 11.7604 98.3691 11.5205C98.0612 11.1481 97.6619 10.9619 97.1714 10.9619C96.7274 10.9619 96.3532 11.1105 96.0488 11.4077C95.748 11.7049 95.5815 12.1024 95.5493 12.6001ZM104.127 16V8.12598H106.839C107.452 8.12598 107.919 8.16357 108.241 8.23877C108.692 8.34261 109.077 8.5306 109.396 8.80273C109.811 9.15365 110.121 9.60303 110.325 10.1509C110.533 10.6951 110.637 11.3182 110.637 12.02C110.637 12.618 110.567 13.1479 110.427 13.6099C110.288 14.0718 110.109 14.4549 109.89 14.7593C109.672 15.0601 109.432 15.2982 109.17 15.4736C108.913 15.6455 108.599 15.7762 108.23 15.8657C107.865 15.9552 107.444 16 106.968 16H104.127ZM105.169 15.0708H106.85C107.369 15.0708 107.776 15.0225 108.069 14.9258C108.367 14.8291 108.603 14.693 108.778 14.5176C109.025 14.2705 109.217 13.9393 109.353 13.5239C109.493 13.105 109.562 12.5983 109.562 12.0039C109.562 11.1803 109.426 10.5483 109.154 10.1079C108.886 9.6639 108.558 9.3667 108.171 9.21631C107.892 9.10889 107.443 9.05518 106.823 9.05518H105.169V15.0708ZM111.958 9.23779V8.12598H112.925V9.23779H111.958ZM111.958 16V10.2959H112.925V16H111.958ZM114.633 16V11.0479H113.779V10.2959H114.633V9.68896C114.633 9.30583 114.667 9.02116 114.735 8.83496C114.828 8.58431 114.991 8.382 115.224 8.22803C115.46 8.07048 115.789 7.9917 116.212 7.9917C116.484 7.9917 116.785 8.02393 117.114 8.08838L116.969 8.93164C116.769 8.89583 116.579 8.87793 116.4 8.87793C116.106 8.87793 115.899 8.94059 115.777 9.06592C115.655 9.19124 115.594 9.42578 115.594 9.76953V10.2959H116.706V11.0479H115.594V16H114.633ZM117.49 16V11.0479H116.636V10.2959H117.49V9.68896C117.49 9.30583 117.524 9.02116 117.592 8.83496C117.685 8.58431 117.848 8.382 118.081 8.22803C118.317 8.07048 118.647 7.9917 119.069 7.9917C119.341 7.9917 119.642 8.02393 119.972 8.08838L119.827 8.93164C119.626 8.89583 119.436 8.87793 119.257 8.87793C118.964 8.87793 118.756 8.94059 118.634 9.06592C118.513 9.19124 118.452 9.42578 118.452 9.76953V10.2959H119.563V11.0479H118.452V16H117.49ZM124.059 16V15.1621C123.615 15.8066 123.012 16.1289 122.249 16.1289C121.912 16.1289 121.597 16.0645 121.304 15.9355C121.014 15.8066 120.797 15.6455 120.654 15.4521C120.514 15.2552 120.416 15.0153 120.358 14.7324C120.319 14.5426 120.299 14.2419 120.299 13.8301V10.2959H121.266V13.4595C121.266 13.9644 121.286 14.3045 121.325 14.48C121.386 14.7342 121.515 14.9347 121.712 15.0815C121.909 15.2248 122.152 15.2964 122.442 15.2964C122.732 15.2964 123.005 15.223 123.259 15.0762C123.513 14.9258 123.692 14.7235 123.796 14.4692C123.903 14.2114 123.957 13.839 123.957 13.3521V10.2959H124.924V16H124.059ZM126.057 14.2974L127.013 14.147C127.067 14.5301 127.215 14.8237 127.459 15.0278C127.706 15.2319 128.05 15.334 128.49 15.334C128.934 15.334 129.264 15.2445 129.479 15.0654C129.693 14.8828 129.801 14.6698 129.801 14.4263C129.801 14.2078 129.706 14.036 129.516 13.9106C129.384 13.8247 129.054 13.7155 128.528 13.583C127.819 13.404 127.326 13.25 127.051 13.1211C126.779 12.9886 126.571 12.8078 126.428 12.5786C126.288 12.3459 126.218 12.0898 126.218 11.8105C126.218 11.5563 126.276 11.3218 126.39 11.1069C126.508 10.8885 126.668 10.7077 126.868 10.5645C127.019 10.4535 127.223 10.3604 127.48 10.2852C127.742 10.2064 128.021 10.167 128.318 10.167C128.766 10.167 129.158 10.2314 129.495 10.3604C129.835 10.4893 130.085 10.6647 130.247 10.8867C130.408 11.1051 130.519 11.3988 130.58 11.7676L129.634 11.8965C129.591 11.6029 129.466 11.3737 129.258 11.209C129.054 11.0443 128.764 10.9619 128.388 10.9619C127.944 10.9619 127.627 11.0353 127.438 11.1821C127.248 11.3289 127.153 11.5008 127.153 11.6978C127.153 11.8231 127.192 11.9359 127.271 12.0361C127.35 12.14 127.473 12.2259 127.642 12.2939C127.738 12.3298 128.023 12.4121 128.496 12.541C129.18 12.7236 129.656 12.874 129.924 12.9922C130.196 13.1068 130.41 13.2751 130.563 13.4971C130.717 13.7191 130.794 13.9948 130.794 14.3242C130.794 14.6465 130.7 14.9508 130.51 15.2373C130.324 15.5202 130.053 15.7404 129.699 15.8979C129.344 16.0519 128.943 16.1289 128.496 16.1289C127.754 16.1289 127.189 15.9749 126.798 15.667C126.412 15.359 126.165 14.9025 126.057 14.2974ZM131.949 9.23779V8.12598H132.916V9.23779H131.949ZM131.949 16V10.2959H132.916V16H131.949ZM134.033 13.1479C134.033 12.0916 134.327 11.3092 134.914 10.8008C135.405 10.3783 136.003 10.167 136.708 10.167C137.492 10.167 138.133 10.4248 138.631 10.9404C139.129 11.4525 139.377 12.1615 139.377 13.0674C139.377 13.8014 139.266 14.3797 139.044 14.8022C138.826 15.2212 138.506 15.547 138.083 15.7798C137.664 16.0125 137.206 16.1289 136.708 16.1289C135.91 16.1289 135.263 15.8729 134.769 15.3608C134.278 14.8488 134.033 14.1112 134.033 13.1479ZM135.027 13.1479C135.027 13.8784 135.186 14.4263 135.505 14.7915C135.824 15.1532 136.225 15.334 136.708 15.334C137.188 15.334 137.587 15.1514 137.906 14.7861C138.224 14.4209 138.384 13.8641 138.384 13.1157C138.384 12.4103 138.223 11.8768 137.9 11.5151C137.582 11.1499 137.184 10.9673 136.708 10.9673C136.225 10.9673 135.824 11.1481 135.505 11.5098C135.186 11.8714 135.027 12.4175 135.027 13.1479ZM140.516 16V10.2959H141.386V11.1069C141.805 10.4803 142.41 10.167 143.202 10.167C143.545 10.167 143.861 10.2297 144.147 10.355C144.437 10.4767 144.654 10.6379 144.797 10.8384C144.94 11.0389 145.04 11.277 145.098 11.5527C145.133 11.7318 145.151 12.0451 145.151 12.4927V16H144.185V12.5303C144.185 12.1364 144.147 11.8428 144.072 11.6494C143.997 11.4525 143.862 11.2967 143.669 11.1821C143.479 11.064 143.255 11.0049 142.998 11.0049C142.586 11.0049 142.229 11.1356 141.929 11.397C141.632 11.6584 141.483 12.1543 141.483 12.8848V16H140.516Z" fill="white" fill-opacity="0.8"/>
<path d="M64.7516 10H60.2516C60.1016 10 60.0016 10.1 60.0016 10.25C60.0016 10.4 60.1016 10.5 60.2516 10.5H64.1516L58.8016 15.8C58.7016 15.9 58.7016 16.05 58.8016 16.15C58.8516 16.2 58.9016 16.2 59.0016 16.2C59.1016 16.2 59.1516 16.2 59.2016 16.15L64.5016 10.85V14.75C64.5016 14.9 64.6016 15 64.7516 15C64.9016 15 65.0016 14.9 65.0016 14.75V10.25C65.0016 10.1 64.9016 10 64.7516 10Z" fill="#D4D4D6"/>
</g>
<defs>
<linearGradient id="paint0_linear_760_1584" x1="-2.03917e-06" y1="5.99999" x2="173.455" y2="-48.6761" gradientUnits="userSpaceOnUse">
<stop stop-color="white" stop-opacity="0.2"/>
<stop offset="1" stop-color="#9C81F2" stop-opacity="0.5"/>
</linearGradient>
<radialGradient id="paint1_radial_760_1584" cx="0" cy="0" r="1" gradientUnits="userSpaceOnUse" gradientTransform="translate(101.5 13) rotate(90) scale(13 106.5)">
<stop stop-color="#121212" stop-opacity="0.5"/>
<stop offset="1" stop-color="#121212" stop-opacity="0"/>
</radialGradient>
<radialGradient id="paint2_radial_760_1584" cx="0" cy="0" r="1" gradientUnits="userSpaceOnUse" gradientTransform="translate(30.5 0.4) scale(28.2097 409.2)">
<stop stop-color="white" stop-opacity="0.7"/>
<stop offset="1" stop-color="white" stop-opacity="0"/>
</radialGradient>
<radialGradient id="paint3_radial_760_1584" cx="0" cy="0" r="1" gradientUnits="userSpaceOnUse" gradientTransform="translate(26.5) rotate(90) scale(5 34.5)">
<stop stop-color="#F5857A" stop-opacity="0.21"/>
<stop offset="1" stop-color="#F5857A" stop-opacity="0"/>
</radialGradient>
<clipPath id="clip0_760_1584">
<rect width="194" height="24" rx="4" fill="white"/>
</clipPath>
</defs>
</svg>
