<svg width="159" height="21" viewBox="0 0 159 21" fill="none" xmlns="http://www.w3.org/2000/svg">
<path d="M39.0137 5.25L40.614 1.75L41.0687 1.95791L41.7353 0.5H43.4424V0H47.4989V0.5H51.5555V0H55.6121V0.5H59.6687V0H63.7252V0.5H67.7818V0H71.8384V0.5H75.8949V0H79.9515V0.5H84.0081V0H88.0647V0.5H92.1212V0H96.1778V0.5H100.234V0H104.291V0.5H108.348V0H112.404V0.5H116.461V0H120.517V0.5H124.574V0H128.63V0.5H132.687V0H136.744V0.5H140.8V0H144.857V0.5H148.913V0H152.97V0.5H154.998C155.474 0.5 155.926 0.594543 156.338 0.765386L156.529 0.303522C157.507 0.708984 158.289 1.49109 158.695 2.46885L158.233 2.66038C158.404 3.07236 158.498 3.52451 158.498 4V5.625H158.998V8.875H158.498V12.125H158.998V15.375H158.498V17C158.498 17.4755 158.404 17.9276 158.233 18.3396L158.695 18.5312C158.289 19.5089 157.507 20.291 156.529 20.6965L156.338 20.2346C155.926 20.4055 155.474 20.5 154.998 20.5H152.945V21H148.839V20.5H144.733V21H140.626V20.5H136.52V21H132.414V20.5H128.308V21H124.202V20.5H120.096V21H115.989V20.5H111.883V21H107.777V20.5H103.671V21H99.5646V20.5H95.4584V21H91.3522V20.5H87.246V21H83.1398V20.5H79.0336V21H74.9275V20.5H70.8213V21H66.7151V20.5H62.6089V21H58.5027V20.5H54.3965V21H50.2903V20.5H46.1842V21H42.078V20.5H37.9718V21H33.8656V20.5H32.5909L33.0674 19.4579L32.6126 19.25L34.2129 15.75L34.6676 15.9579L36.2679 12.4579L35.8132 12.25L37.4134 8.75L37.8681 8.95791L39.4684 5.45791L39.0137 5.25Z" stroke="#C4C6CA" stroke-dasharray="4 4"/>
<g clip-path="url(#clip0_1232_27769)">
<path d="M-11 4C-11 1.79086 -9.20914 0 -7 0H41L31.6016 21H-7C-9.20914 21 -11 19.2091 -11 17V4Z" fill="#2A2D38" fill-opacity="0.5"/>
<path d="M0.5 4C0.5 2.067 2.067 0.5 4 0.5H41.7223L32.5975 20.5H4C2.067 20.5 0.5 18.933 0.5 17V4Z" fill="#9D7FF5" fill-opacity="0.15" stroke="url(#paint0_linear_1232_27769)"/>
<ellipse cx="19" cy="11" rx="23" ry="12" fill="url(#paint1_radial_1232_27769)"/>
<path d="M11.5928 14V7.68652H9.23438V6.8418H14.9082V7.68652H12.54V14H11.5928ZM18.209 12.3301L19.1172 12.4424C18.974 12.973 18.7087 13.3848 18.3213 13.6777C17.9339 13.9707 17.4391 14.1172 16.8369 14.1172C16.0785 14.1172 15.4762 13.8844 15.0303 13.4189C14.5876 12.9502 14.3662 12.2943 14.3662 11.4512C14.3662 10.5788 14.5908 9.90169 15.04 9.41992C15.4893 8.93815 16.0719 8.69727 16.7881 8.69727C17.4814 8.69727 18.0479 8.93327 18.4873 9.40527C18.9268 9.87728 19.1465 10.5413 19.1465 11.3975C19.1465 11.4495 19.1449 11.5277 19.1416 11.6318H15.2744C15.307 12.2015 15.4681 12.6377 15.7578 12.9404C16.0475 13.2432 16.4089 13.3945 16.8418 13.3945C17.1641 13.3945 17.4391 13.3099 17.667 13.1406C17.8949 12.9714 18.0755 12.7012 18.209 12.3301ZM15.3232 10.9092H18.2188C18.1797 10.473 18.069 10.1458 17.8867 9.92773C17.6068 9.58919 17.2438 9.41992 16.7979 9.41992C16.3942 9.41992 16.054 9.55501 15.7773 9.8252C15.5039 10.0954 15.3525 10.4567 15.3232 10.9092ZM19.6396 14L21.5342 11.3047L19.7812 8.81445H20.8799L21.6758 10.0303C21.8255 10.2614 21.946 10.4551 22.0371 10.6113C22.1803 10.3965 22.3122 10.2061 22.4326 10.04L23.3066 8.81445H24.3564L22.5645 11.2559L24.4932 14H23.4141L22.3496 12.3887L22.0664 11.9541L20.7041 14H19.6396ZM27.1445 13.2139L27.2715 13.9902C27.0241 14.0423 26.8027 14.0684 26.6074 14.0684C26.2884 14.0684 26.041 14.0179 25.8652 13.917C25.6895 13.8161 25.5658 13.6842 25.4941 13.5215C25.4225 13.3555 25.3867 13.0088 25.3867 12.4814V9.49805H24.7422V8.81445H25.3867V7.53027L26.2607 7.00293V8.81445H27.1445V9.49805H26.2607V12.5303C26.2607 12.7809 26.2754 12.9421 26.3047 13.0137C26.3372 13.0853 26.3877 13.1423 26.4561 13.1846C26.5277 13.2269 26.6286 13.248 26.7588 13.248C26.8564 13.248 26.985 13.2367 27.1445 13.2139Z" fill="#C4C6CA"/>
<rect x="4" width="25" height="1" fill="url(#paint2_radial_1232_27769)"/>
<ellipse cx="12" rx="12" ry="4" fill="url(#paint3_radial_1232_27769)"/>
</g>
<defs>
<linearGradient id="paint0_linear_1232_27769" x1="25.1789" y1="17.3907" x2="-0.109264" y2="9.06875" gradientUnits="userSpaceOnUse">
<stop stop-color="#9D7FF5"/>
<stop offset="1" stop-color="white" stop-opacity="0.9"/>
</linearGradient>
<radialGradient id="paint1_radial_1232_27769" cx="0" cy="0" r="1" gradientUnits="userSpaceOnUse" gradientTransform="translate(19 11) rotate(90) scale(12 23)">
<stop stop-color="#121212"/>
<stop offset="1" stop-color="#121212" stop-opacity="0"/>
</radialGradient>
<radialGradient id="paint2_radial_1232_27769" cx="0" cy="0" r="1" gradientUnits="userSpaceOnUse" gradientTransform="translate(16.5 0.5) scale(13.3065 511.5)">
<stop stop-color="white" stop-opacity="0.9"/>
<stop offset="1" stop-color="white" stop-opacity="0"/>
</radialGradient>
<radialGradient id="paint3_radial_1232_27769" cx="0" cy="0" r="1" gradientUnits="userSpaceOnUse" gradientTransform="translate(12) rotate(90) scale(4 12)">
<stop stop-color="#FA7C70" stop-opacity="0.21"/>
<stop offset="1" stop-color="#FA7C70" stop-opacity="0"/>
</radialGradient>
<clipPath id="clip0_1232_27769">
<rect width="43" height="21" fill="white"/>
</clipPath>
</defs>
</svg>
