<svg width="159" height="24" viewBox="0 0 159 24" fill="none" xmlns="http://www.w3.org/2000/svg">
<g clip-path="url(#clip0_760_2419)">
<rect width="159" height="24" rx="4" fill="#2A2D38"/>
<rect x="0.5" y="0.5" width="158" height="23" rx="3.5" fill="#9C81F2" fill-opacity="0.1" stroke="url(#paint0_linear_760_2419)"/>
<ellipse cx="101.5" cy="13" rx="106.5" ry="13" fill="url(#paint1_radial_760_2419)"/>
<rect x="4" width="35" height="1" fill="url(#paint2_radial_760_2419)"/>
<ellipse cx="21.5" rx="29.5" ry="5" fill="url(#paint3_radial_760_2419)"/>
<path d="M59.5928 16V9.68652H57.2344V8.8418H62.9082V9.68652H60.54V16H59.5928ZM63.7725 16V8.8418H64.6514V11.4102C65.0615 10.9349 65.5791 10.6973 66.2041 10.6973C66.5882 10.6973 66.9219 10.7738 67.2051 10.9268C67.4883 11.0765 67.6901 11.2848 67.8105 11.5518C67.9342 11.8187 67.9961 12.2061 67.9961 12.7139V16H67.1172V12.7139C67.1172 12.2744 67.0212 11.9554 66.8291 11.7568C66.6403 11.555 66.3717 11.4541 66.0234 11.4541C65.763 11.4541 65.5173 11.5225 65.2861 11.6592C65.0583 11.7926 64.8955 11.9749 64.7979 12.2061C64.7002 12.4372 64.6514 12.7562 64.6514 13.1631V16H63.7725ZM72.8887 14.3301L73.7969 14.4424C73.6536 14.973 73.3883 15.3848 73.001 15.6777C72.6136 15.9707 72.1188 16.1172 71.5166 16.1172C70.7581 16.1172 70.1559 15.8844 69.71 15.4189C69.2673 14.9502 69.0459 14.2943 69.0459 13.4512C69.0459 12.5788 69.2705 11.9017 69.7197 11.4199C70.1689 10.9382 70.7516 10.6973 71.4678 10.6973C72.1611 10.6973 72.7275 10.9333 73.167 11.4053C73.6064 11.8773 73.8262 12.5413 73.8262 13.3975C73.8262 13.4495 73.8245 13.5277 73.8213 13.6318H69.9541C69.9867 14.2015 70.1478 14.6377 70.4375 14.9404C70.7272 15.2432 71.0885 15.3945 71.5215 15.3945C71.8438 15.3945 72.1188 15.3099 72.3467 15.1406C72.5745 14.9714 72.7552 14.7012 72.8887 14.3301ZM70.0029 12.9092H72.8984C72.8594 12.473 72.7487 12.1458 72.5664 11.9277C72.2865 11.5892 71.9235 11.4199 71.4775 11.4199C71.0739 11.4199 70.7337 11.555 70.457 11.8252C70.1836 12.0954 70.0322 12.4567 70.0029 12.9092ZM74.9053 16V10.8145H75.6914V11.542C75.8542 11.2881 76.0706 11.0846 76.3408 10.9316C76.611 10.7754 76.9186 10.6973 77.2637 10.6973C77.6478 10.6973 77.9619 10.777 78.2061 10.9365C78.4535 11.096 78.6276 11.319 78.7285 11.6055C79.1387 11 79.6725 10.6973 80.3301 10.6973C80.8444 10.6973 81.2399 10.8405 81.5166 11.127C81.7933 11.4102 81.9316 11.848 81.9316 12.4404V16H81.0576V12.7334C81.0576 12.3818 81.0283 12.1296 80.9697 11.9766C80.9144 11.8203 80.8118 11.695 80.6621 11.6006C80.5124 11.5062 80.3366 11.459 80.1348 11.459C79.7702 11.459 79.4674 11.5811 79.2266 11.8252C78.9857 12.0661 78.8652 12.4535 78.8652 12.9873V16H77.9863V12.6309C77.9863 12.2402 77.9147 11.9473 77.7715 11.752C77.6283 11.5566 77.3939 11.459 77.0684 11.459C76.821 11.459 76.5915 11.5241 76.3799 11.6543C76.1715 11.7845 76.0202 11.9749 75.9258 12.2256C75.8314 12.4762 75.7842 12.8376 75.7842 13.3096V16H74.9053ZM86.7852 14.3301L87.6934 14.4424C87.5501 14.973 87.2848 15.3848 86.8975 15.6777C86.5101 15.9707 86.0153 16.1172 85.4131 16.1172C84.6546 16.1172 84.0524 15.8844 83.6064 15.4189C83.1637 14.9502 82.9424 14.2943 82.9424 13.4512C82.9424 12.5788 83.167 11.9017 83.6162 11.4199C84.0654 10.9382 84.6481 10.6973 85.3643 10.6973C86.0576 10.6973 86.624 10.9333 87.0635 11.4053C87.5029 11.8773 87.7227 12.5413 87.7227 13.3975C87.7227 13.4495 87.721 13.5277 87.7178 13.6318H83.8506C83.8831 14.2015 84.0443 14.6377 84.334 14.9404C84.6237 15.2432 84.985 15.3945 85.418 15.3945C85.7402 15.3945 86.0153 15.3099 86.2432 15.1406C86.471 14.9714 86.6517 14.7012 86.7852 14.3301ZM83.8994 12.9092H86.7949C86.7559 12.473 86.6452 12.1458 86.4629 11.9277C86.1829 11.5892 85.82 11.4199 85.374 11.4199C84.9704 11.4199 84.6302 11.555 84.3535 11.8252C84.0801 12.0954 83.9287 12.4567 83.8994 12.9092ZM91.8584 16V8.8418H92.8057V16H91.8584ZM94.3682 16V10.8145H95.1543V11.542C95.3171 11.2881 95.5335 11.0846 95.8037 10.9316C96.0739 10.7754 96.3815 10.6973 96.7266 10.6973C97.1107 10.6973 97.4248 10.777 97.6689 10.9365C97.9163 11.096 98.0905 11.319 98.1914 11.6055C98.6016 11 99.1354 10.6973 99.793 10.6973C100.307 10.6973 100.703 10.8405 100.979 11.127C101.256 11.4102 101.395 11.848 101.395 12.4404V16H100.521V12.7334C100.521 12.3818 100.491 12.1296 100.433 11.9766C100.377 11.8203 100.275 11.695 100.125 11.6006C99.9753 11.5062 99.7995 11.459 99.5977 11.459C99.2331 11.459 98.9303 11.5811 98.6895 11.8252C98.4486 12.0661 98.3281 12.4535 98.3281 12.9873V16H97.4492V12.6309C97.4492 12.2402 97.3776 11.9473 97.2344 11.752C97.0911 11.5566 96.8568 11.459 96.5312 11.459C96.2839 11.459 96.0544 11.5241 95.8428 11.6543C95.6344 11.7845 95.4831 11.9749 95.3887 12.2256C95.2943 12.4762 95.2471 12.8376 95.2471 13.3096V16H94.3682ZM106.082 15.3604C105.757 15.637 105.442 15.8324 105.14 15.9463C104.84 16.0602 104.518 16.1172 104.173 16.1172C103.603 16.1172 103.165 15.9788 102.859 15.7021C102.553 15.4222 102.4 15.0658 102.4 14.6328C102.4 14.3789 102.457 14.1478 102.571 13.9395C102.688 13.7279 102.84 13.5586 103.025 13.4316C103.214 13.3047 103.426 13.2087 103.66 13.1436C103.833 13.098 104.093 13.054 104.441 13.0117C105.151 12.9271 105.674 12.8262 106.009 12.709C106.012 12.5885 106.014 12.512 106.014 12.4795C106.014 12.1214 105.931 11.8691 105.765 11.7227C105.54 11.5241 105.206 11.4248 104.764 11.4248C104.35 11.4248 104.044 11.498 103.846 11.6445C103.65 11.7878 103.506 12.0433 103.411 12.4111L102.552 12.2939C102.63 11.9261 102.758 11.6299 102.938 11.4053C103.117 11.1774 103.375 11.0033 103.714 10.8828C104.052 10.7591 104.445 10.6973 104.891 10.6973C105.333 10.6973 105.693 10.7493 105.97 10.8535C106.246 10.9577 106.45 11.0895 106.58 11.249C106.71 11.4053 106.801 11.6038 106.854 11.8447C106.883 11.9945 106.897 12.2646 106.897 12.6553V13.8271C106.897 14.6442 106.915 15.1618 106.951 15.3799C106.99 15.5947 107.065 15.8014 107.176 16H106.258C106.167 15.8177 106.108 15.6045 106.082 15.3604ZM106.009 13.3975C105.69 13.5277 105.211 13.6383 104.573 13.7295C104.212 13.7816 103.956 13.8402 103.807 13.9053C103.657 13.9704 103.541 14.0664 103.46 14.1934C103.379 14.3171 103.338 14.4554 103.338 14.6084C103.338 14.8428 103.426 15.0381 103.602 15.1943C103.781 15.3506 104.041 15.4287 104.383 15.4287C104.721 15.4287 105.022 15.3555 105.286 15.209C105.55 15.0592 105.743 14.8558 105.867 14.5986C105.962 14.4001 106.009 14.1071 106.009 13.7197V13.3975ZM108.104 16.4297L108.958 16.5566C108.994 16.8203 109.093 17.0124 109.256 17.1328C109.474 17.2956 109.772 17.377 110.149 17.377C110.556 17.377 110.87 17.2956 111.092 17.1328C111.313 16.9701 111.463 16.7422 111.541 16.4492C111.587 16.2702 111.608 15.8942 111.604 15.3213C111.22 15.7738 110.742 16 110.169 16C109.456 16 108.904 15.7428 108.514 15.2285C108.123 14.7142 107.928 14.0973 107.928 13.3779C107.928 12.8831 108.017 12.4274 108.196 12.0107C108.375 11.5908 108.634 11.2669 108.973 11.0391C109.314 10.8112 109.715 10.6973 110.174 10.6973C110.786 10.6973 111.29 10.9447 111.688 11.4395V10.8145H112.498V15.2969C112.498 16.1042 112.415 16.6755 112.249 17.0107C112.086 17.3493 111.826 17.6162 111.468 17.8115C111.113 18.0068 110.675 18.1045 110.154 18.1045C109.536 18.1045 109.036 17.9645 108.655 17.6846C108.274 17.4079 108.09 16.9896 108.104 16.4297ZM108.831 13.3145C108.831 13.9948 108.966 14.4912 109.236 14.8037C109.507 15.1162 109.845 15.2725 110.252 15.2725C110.656 15.2725 110.994 15.1178 111.268 14.8086C111.541 14.4961 111.678 14.0078 111.678 13.3438C111.678 12.709 111.536 12.2305 111.253 11.9082C110.973 11.5859 110.634 11.4248 110.237 11.4248C109.847 11.4248 109.515 11.5843 109.241 11.9033C108.968 12.2191 108.831 12.6895 108.831 13.3145ZM117.381 14.3301L118.289 14.4424C118.146 14.973 117.881 15.3848 117.493 15.6777C117.106 15.9707 116.611 16.1172 116.009 16.1172C115.25 16.1172 114.648 15.8844 114.202 15.4189C113.759 14.9502 113.538 14.2943 113.538 13.4512C113.538 12.5788 113.763 11.9017 114.212 11.4199C114.661 10.9382 115.244 10.6973 115.96 10.6973C116.653 10.6973 117.22 10.9333 117.659 11.4053C118.099 11.8773 118.318 12.5413 118.318 13.3975C118.318 13.4495 118.317 13.5277 118.313 13.6318H114.446C114.479 14.2015 114.64 14.6377 114.93 14.9404C115.219 15.2432 115.581 15.3945 116.014 15.3945C116.336 15.3945 116.611 15.3099 116.839 15.1406C117.067 14.9714 117.247 14.7012 117.381 14.3301ZM114.495 12.9092H117.391C117.352 12.473 117.241 12.1458 117.059 11.9277C116.779 11.5892 116.416 11.4199 115.97 11.4199C115.566 11.4199 115.226 11.555 114.949 11.8252C114.676 12.0954 114.524 12.4567 114.495 12.9092Z" fill="white" fill-opacity="0.8"/>
<g clip-path="url(#clip1_760_2419)">
<path d="M50.8925 9.56436C50.6571 8.99075 50.2563 8.5001 49.7413 8.1548C49.2263 7.80949 48.6202 7.62512 48.0002 7.62512C47.3801 7.62512 46.7741 7.80949 46.259 8.1548C45.744 8.5001 45.3433 8.99075 45.1078 9.56436C44.5949 9.68528 44.1382 9.97651 43.8121 10.3905C43.486 10.8045 43.3099 11.3168 43.3125 11.8437C43.3125 13.1362 44.3638 14.1875 45.6563 14.1875H46.5497C46.6326 14.1875 46.7121 14.1546 46.7707 14.096C46.8293 14.0374 46.8622 13.9579 46.8622 13.875C46.8622 13.7921 46.8293 13.7126 46.7707 13.654C46.7121 13.5954 46.6326 13.5625 46.5497 13.5625H45.6563C45.2006 13.562 44.7637 13.3807 44.4415 13.0585C44.1193 12.7363 43.938 12.2994 43.9375 11.8437C43.9355 11.4339 44.0808 11.0369 44.3469 10.7252C44.6131 10.4135 44.9824 10.2078 45.3875 10.1456L45.5735 10.1165L45.6344 9.93842C45.981 8.92842 46.9316 8.24998 48 8.24998C48.5211 8.24984 49.0291 8.41249 49.4532 8.71522C49.8773 9.01794 50.1962 9.4456 50.3653 9.93842L50.4266 10.1165L50.6125 10.1456C51.0177 10.2078 51.387 10.4135 51.6531 10.7252C51.9193 11.0369 52.0646 11.4339 52.0625 11.8437C52.0625 12.7912 51.2913 13.5625 50.3438 13.5625H49.3938C49.3109 13.5625 49.2314 13.5954 49.1728 13.654C49.1142 13.7126 49.0813 13.7921 49.0813 13.875C49.0813 13.9579 49.1142 14.0374 49.1728 14.096C49.2314 14.1546 49.3109 14.1875 49.3938 14.1875H50.3438C51.6363 14.1875 52.6875 13.1362 52.6875 11.8437C52.6902 11.3168 52.5141 10.8046 52.1881 10.3906C51.8621 9.97659 51.4054 9.68534 50.8925 9.56436Z" fill="#D4D4D6"/>
<path d="M49.3438 12.5669C49.3755 12.5929 49.4121 12.6124 49.4514 12.6242C49.4907 12.6361 49.5319 12.6401 49.5728 12.636C49.6136 12.6319 49.6533 12.6199 49.6894 12.6005C49.7256 12.5811 49.7576 12.5547 49.7836 12.523C49.8096 12.4912 49.8291 12.4546 49.8409 12.4153C49.8528 12.376 49.8568 12.3348 49.8527 12.2939C49.8487 12.2531 49.8366 12.2135 49.8172 12.1773C49.7978 12.1411 49.7715 12.1091 49.7397 12.0831L48.1963 10.8194C48.1404 10.7736 48.0704 10.7485 47.9981 10.7485C47.9259 10.7485 47.8559 10.7736 47.8 10.8194L46.2469 12.0912C46.1972 12.1321 46.1613 12.1874 46.1441 12.2494C46.127 12.3115 46.1294 12.3773 46.151 12.4379C46.1726 12.4986 46.2125 12.551 46.265 12.5882C46.3176 12.6254 46.3803 12.6454 46.4447 12.6456C46.5169 12.6457 46.5868 12.6206 46.6425 12.5747L47.6856 11.7212V15.9062C47.6856 15.9891 47.7186 16.0686 47.7772 16.1272C47.8358 16.1858 47.9153 16.2187 47.9981 16.2187C48.081 16.2187 48.1605 16.1858 48.2191 16.1272C48.2777 16.0686 48.3106 15.9891 48.3106 15.9062V11.7212L49.3438 12.5669Z" fill="#D4D4D6"/>
</g>
</g>
<defs>
<linearGradient id="paint0_linear_760_2419" x1="-1.67128e-06" y1="5.99999" x2="146.509" y2="-31.8503" gradientUnits="userSpaceOnUse">
<stop stop-color="white" stop-opacity="0.2"/>
<stop offset="1" stop-color="#9C81F2" stop-opacity="0.5"/>
</linearGradient>
<radialGradient id="paint1_radial_760_2419" cx="0" cy="0" r="1" gradientUnits="userSpaceOnUse" gradientTransform="translate(101.5 13) rotate(90) scale(13 106.5)">
<stop stop-color="#121212" stop-opacity="0.5"/>
<stop offset="1" stop-color="#121212" stop-opacity="0"/>
</radialGradient>
<radialGradient id="paint2_radial_760_2419" cx="0" cy="0" r="1" gradientUnits="userSpaceOnUse" gradientTransform="translate(21.5 0.5) scale(18.629 511.5)">
<stop stop-color="white" stop-opacity="0.7"/>
<stop offset="1" stop-color="white" stop-opacity="0"/>
</radialGradient>
<radialGradient id="paint3_radial_760_2419" cx="0" cy="0" r="1" gradientUnits="userSpaceOnUse" gradientTransform="translate(21.5) rotate(90) scale(5 29.5)">
<stop stop-color="#F5857A" stop-opacity="0.21"/>
<stop offset="1" stop-color="#F5857A" stop-opacity="0"/>
</radialGradient>
<clipPath id="clip0_760_2419">
<rect width="159" height="24" rx="4" fill="white"/>
</clipPath>
<clipPath id="clip1_760_2419">
<rect width="10" height="10" fill="white" transform="translate(43 7)"/>
</clipPath>
</defs>
</svg>
