<svg width="19" height="19" viewBox="0 0 19 19" fill="none" xmlns="http://www.w3.org/2000/svg">
<path d="M7.6 0.022522H11.4C11.6495 0.022522 11.8966 0.071592 12.1271 0.16693C12.3576 0.262269 12.5671 0.402009 12.7435 0.578171C12.9199 0.754334 13.0599 0.963469 13.1554 1.19364C13.2509 1.4238 13.3 1.6705 13.3 1.91963V3.81673H17.1C17.3495 3.81673 17.5966 3.8658 17.8271 3.96114C18.0576 4.05648 18.2671 4.19622 18.4435 4.37238C18.6199 4.54854 18.7599 4.75768 18.8554 4.98785C18.9509 5.21801 19 5.46471 19 5.71384V16.1479C19 16.397 18.9509 16.6437 18.8554 16.8739C18.7599 17.1041 18.6199 17.3132 18.4435 17.4894C18.2671 17.6655 18.0576 17.8053 17.8271 17.9006C17.5966 17.996 17.3495 18.045 17.1 18.045H1.9C1.65049 18.045 1.40342 17.996 1.1729 17.9006C0.942383 17.8053 0.732928 17.6655 0.556497 17.4894C0.380066 17.3132 0.240113 17.1041 0.144629 16.8739C0.0491449 16.6437 0 16.397 0 16.1479V5.71384C-2.92396e-09 5.46471 0.0491449 5.21801 0.144629 4.98785C0.240113 4.75768 0.380066 4.54854 0.556497 4.37238C0.732928 4.19622 0.942383 4.05648 1.1729 3.96114C1.40342 3.8658 1.65049 3.81673 1.9 3.81673H5.7V1.91963C5.7 1.6705 5.74914 1.4238 5.84463 1.19364C5.94011 0.963469 6.08007 0.754334 6.2565 0.578171C6.43293 0.402009 6.64238 0.262269 6.8729 0.16693C7.10342 0.071592 7.35049 0.022522 7.6 0.022522ZM11.4 3.81673V1.91963H7.6V3.81673H11.4ZM9.5 6.66239L4.75 11.4052H7.6V15.1994H11.4V11.4052H14.25L9.5 6.66239Z" fill="#C5C6C9"/>
</svg>
